<?xml version="1.0" encoding="UTF-8"?>
<svg width="125px" height="85px" viewBox="0 0 125 85" version="1.1" xmlns="http://www.w3.org/2000/svg" xmlns:xlink="http://www.w3.org/1999/xlink">
    <!-- Generator: sketchtool 44.1 (41455) - http://www.bohemiancoding.com/sketch -->
    <title>2C2F02CA-0587-427A-AFCC-A2BC6EFD4820</title>
    <desc>Created with sketchtool.</desc>
    <defs></defs>
    <g id="Page-1" stroke="none" stroke-width="1" fill="none" fill-rule="evenodd">
        <g id="Case-Study---Landing-" transform="translate(-418.000000, -2292.000000)" fill-rule="nonzero" fill="#FFFFFF">
            <g id="Adidas" transform="translate(320.000000, 2174.000000)">
                <g id="Adidas-Logo" transform="translate(98.000000, 118.000000)">
                    <path d="M115.289571,62.8532079 C109.452492,62.8532079 105.990438,65.8471344 105.725531,70.1594872 L111.306838,70.1594872 C111.306838,68.7220362 112.101558,66.8084869 115.554478,66.6894623 C117.947771,66.6894623 119.272304,68.1269132 119.272304,69.2072904 C119.007398,70.8827905 116.87901,71.0018151 114.759758,71.3680446 C112.366464,71.7159627 110.512119,72.2012168 109.178451,72.7963398 C107.324105,73.7576924 106.255345,75.7994221 106.255345,77.9510206 C106.255345,81.787275 109.452492,84.7812015 115.024665,84.7812015 C120.341065,84.7812015 123.793985,82.0253242 124.049757,77.831996 L118.742491,77.831996 C118.742491,78.9032174 118.477584,80.7068979 115.289571,80.7068979 C113.161184,80.7068979 111.836651,80.3498241 111.571745,78.7933485 C111.571745,76.6325942 116.084291,76.7516188 119.537211,75.9184466 C122.725224,75.0761187 124.853611,73.0435448 124.853611,70.1594872 C124.853611,64.8857818 120.605972,62.8532079 115.289571,62.8532079" id="Shape" transform="translate(115.289571, 73.817205) scale(-1, 1) rotate(-180.000000) translate(-115.289571, -73.817205) "></path>
                    <path d="M5.07931329,73.9133399 C5.07931329,70.5623397 8.00242001,67.8064624 11.1812986,67.8064624 C14.6433531,67.8064624 17.2924185,70.5623397 17.2924185,73.9133399 C17.2924185,77.1453156 14.6433531,80.0202175 11.1812986,80.0202175 C8.00242001,80.0202175 5.07931329,77.1453156 5.07931329,73.9133399 M10.916392,62.8898309 C5.07931329,62.8898309 0.0369542031,67.8064624 0.0369542031,73.9133399 C0.0369542031,80.0202175 5.07931329,84.8178244 10.916392,84.8178244 C13.3096856,84.8178244 15.4380727,84.2135457 17.2924185,82.9042751 L17.2924185,84.5797752 L22.6088189,84.5797752 L22.6088189,63.375085 L17.2924185,63.375085 L17.2924185,64.6935113 C15.7029793,63.4941096 13.3096856,62.8898309 10.916392,62.8898309" id="Shape" transform="translate(11.322887, 73.853828) scale(-1, 1) rotate(-180.000000) translate(-11.322887, -73.853828) "></path>
                    <path d="M29.5146585,66.8451099 C29.5146585,63.4941096 32.1728587,60.7382323 35.6257785,60.7382323 C38.804657,60.7382323 41.7368985,63.4941096 41.7368985,66.8451099 C41.7368985,70.0770855 38.804657,72.9519874 35.6257785,72.9519874 C32.1728587,72.9519874 29.5146585,70.0770855 29.5146585,66.8451099 M35.3608719,55.8216008 C29.249752,55.8216008 24.4722994,60.7382323 24.4722994,66.8451099 C24.4722994,72.9519874 29.249752,77.7495943 35.3608719,77.7495943 C37.7450308,77.7495943 39.8734179,77.1453156 41.7368985,75.836045 L41.7368985,84.8178244 L47.0441641,84.8178244 L47.0441641,56.3068549 L41.7368985,56.3068549 L41.7368985,57.6252813 C39.8734179,56.4258795 37.7450308,55.8216008 35.3608719,55.8216008" id="Shape" transform="translate(35.758232, 70.319713) scale(-1, 1) rotate(-180.000000) translate(-35.758232, -70.319713) "></path>
                    <path d="M121.409826,55.7941336 C120.076158,55.7941336 118.751626,56.9935353 118.751626,58.4309862 C118.751626,59.8684372 120.076158,61.0678389 121.409826,61.0678389 C122.999265,61.0678389 124.068026,59.8684372 124.068026,58.4309862 C124.068026,56.9935353 122.999265,55.7941336 121.409826,55.7941336 M121.409826,60.7016094 C120.076158,60.7016094 119.281439,59.630388 119.281439,58.4309862 C119.281439,57.2315845 120.076158,56.1512074 121.409826,56.1512074 C122.734359,56.1512074 123.529078,57.2315845 123.529078,58.4309862 C123.529078,59.630388 122.734359,60.7016094 121.409826,60.7016094" id="Shape" transform="translate(121.409826, 58.430986) scale(-1, 1) rotate(-180.000000) translate(-121.409826, -58.430986) "></path>
                    <path d="M121.957908,57.002691 L121.428095,58.2020928 L120.898282,58.2020928 L120.898282,57.002691 L120.496355,57.002691 L120.496355,59.8775929 L121.693002,59.8775929 C121.957908,59.8775929 122.487722,59.5113634 122.487722,59.035265 C122.487722,58.5591666 122.222815,58.3211174 121.957908,58.2020928 L122.487722,57.002691 M121.428095,59.5113634 L120.898282,59.5113634 L120.898282,58.5591666 L121.428095,58.5591666 C121.957908,58.5591666 121.957908,58.6781912 121.957908,59.035265 C121.957908,59.2824699 121.957908,59.5113634 121.428095,59.5113634" id="Shape" transform="translate(121.492038, 58.440142) scale(-1, 1) rotate(-180.000000) translate(-121.492038, -58.440142) "></path>
                    <path d="M86.3325453,73.9133399 C86.3325453,70.5623397 88.9907455,67.8064624 92.4436653,67.8064624 C95.6316785,67.8064624 98.5456506,70.5623397 98.5456506,73.9133399 C98.5456506,77.1453156 95.6316785,80.0202175 92.4436653,80.0202175 C88.9907455,80.0202175 86.3325453,77.1453156 86.3325453,73.9133399 M92.169624,62.8898309 C86.0676388,62.8898309 81.2901862,67.8064624 81.2901862,73.9133399 C81.2901862,80.0202175 86.0676388,84.8178244 92.169624,84.8178244 C94.5629177,84.8178244 96.6913047,84.2135457 98.5456506,82.9042751 L98.5456506,84.5797752 L103.597144,84.5797752 L103.597144,63.375085 L98.5456506,63.375085 L98.5456506,64.6935113 C96.6913047,63.4941096 94.5629177,62.8898309 92.169624,62.8898309" id="Shape" transform="translate(92.443665, 73.853828) scale(-1, 1) rotate(-180.000000) translate(-92.443665, -73.853828) "></path>
                    <path d="M61.9154695,66.8451099 C61.9154695,63.4941096 64.8385762,60.7382323 68.0265895,60.7382323 C71.4795093,60.7382323 74.1377095,63.4941096 74.1377095,66.8451099 C74.1377095,70.0770855 71.4795093,72.9519874 68.0265895,72.9519874 C64.8385762,72.9519874 61.9154695,70.0770855 61.9154695,66.8451099 L61.9154695,66.8451099 Z M74.1377095,84.8178244 L79.4449751,84.8178244 L79.4449751,56.3068549 L74.1377095,56.3068549 L74.1377095,57.6252813 C72.5391355,56.4258795 70.4107484,55.8216008 68.0265895,55.8216008 C61.9154695,55.8216008 56.8731104,60.7382323 56.8731104,66.8451099 C56.8731104,72.9519874 61.9154695,77.7495943 68.0265895,77.7495943 C70.4107484,77.7495943 72.5391355,77.1453156 74.1377095,75.836045 L74.1377095,84.8178244 Z" id="Shape" transform="translate(68.159043, 70.319713) scale(-1, 1) rotate(-180.000000) translate(-68.159043, -70.319713) "></path>
                    <polyline id="Shape" transform="translate(27.660883, 47.183223) scale(-1, 1) rotate(-180.000000) translate(-27.660883, -47.183223) " points="13.5842969 44.9675344 31.9085221 55.6339697 41.7374685 38.7324765 17.0372167 38.7324765"></polyline>
                    <polygon id="Shape" points="49.25 62.8123918 49.25 84.1452623 54.75 84.1452623 54.75 62.8123918"></polygon>
                    <polyline id="Shape" transform="translate(81.443659, 27.951437) scale(-1, 1) rotate(-180.000000) translate(-81.443659, -27.951437) " points="81.8410189 0.273639763 56.3460475 44.8437745 74.6702728 55.6292344 106.541271 0.273639763"></polyline>
                    <polyline id="Shape" transform="translate(54.619893, 40.356109) scale(-1, 1) rotate(-180.000000) translate(-54.619893, -40.356109) " points="35.0990214 50.3633315 53.6881532 60.9015865 74.1407655 25.0843377 54.7477793 25.0843377 54.7477793 19.8106323 49.4405137 19.8106323 49.4405137 25.0843377"></polyline>
                </g>
            </g>
        </g>
    </g>
</svg>