<svg xmlns="http://www.w3.org/2000/svg" width="105" height="27" viewBox="0 0 105 27">
    <g fill="none" fill-rule="nonzero" opacity=".85">
        <path fill="#CCC" d="M28.82 8.775l6.478 8.55v-8.55h1.34v10.688h-1.452l-6.479-8.776v8.775H27.48V8.775zM47.138 19.012c-.893.338-1.787.45-2.792.45-3.798 0-5.809-1.912-5.809-5.625 0-3.487 1.9-5.287 5.585-5.287 1.117 0 2.011.112 3.016.45v1.237c-.893-.337-1.899-.562-2.792-.562-2.905 0-4.357 1.35-4.357 4.162 0 2.925 1.452 4.5 4.245 4.5.447 0 1.005-.112 1.564-.225v-3.6h1.34v4.5zM49.372 15.3V8.775h1.34V15.3c0 2.025 1.006 3.037 3.017 3.037 2.01 0 3.016-1.012 3.016-3.037V8.775h1.34V15.3c0 2.812-1.452 4.162-4.468 4.162-2.793 0-4.245-1.35-4.245-4.162zM67.58 18.337v1.125h-6.926V8.775h1.34v9.562zM73.388 7.313l5.362 12.15h-1.564l-1.34-3.376H72.27l.447-1.125h2.68l-2.01-4.837-3.798 9.337h-1.452zM80.202 19.462V8.775h4.58c2.01 0 3.016.9 3.016 2.587 0 1.35-1.005 2.475-3.016 3.038l3.686 5.062h-1.787l-3.351-4.837v-.9c2.01-.338 3.016-1.125 3.016-2.363 0-1.012-.559-1.462-1.676-1.462h-3.127v9.562h-1.34zM93.606 8.775v7.65c0 2.025-1.228 3.037-3.574 3.037v-1.125c1.452 0 2.234-.675 2.234-1.912v-7.65h1.34zM96.064 19.012v-1.237c1.117.45 2.346.563 3.574.563 1.788 0 2.793-.676 2.793-2.026 0-1.125-.67-1.687-2.01-1.687H99.08c-2.234 0-3.351-1.013-3.351-2.925 0-2.025 1.452-3.038 4.244-3.038 1.23 0 2.346.113 3.463.45v1.238c-1.117-.45-2.234-.563-3.463-.563-1.899 0-2.904.675-2.904 1.913 0 1.125.67 1.688 2.01 1.688h1.341c2.234 0 3.351 1.012 3.351 2.924 0 2.138-1.34 3.15-4.133 3.15-1.34 0-2.457-.112-3.574-.45z"/>
        <path fill="#000" d="M29.154 8.438l6.479 8.55v-8.55h1.34v10.687h-1.34l-6.59-8.775v8.775h-1.23V8.437zM47.473 18.675c-.893.337-1.787.45-2.792.45-3.798 0-5.809-1.912-5.809-5.625 0-3.487 1.9-5.287 5.585-5.287 1.117 0 2.011.112 3.016.45V9.9c-.893-.338-1.899-.563-2.792-.563-2.904 0-4.357 1.35-4.357 4.163 0 2.925 1.453 4.5 4.245 4.5.447 0 1.005-.113 1.564-.225v-3.6h1.34v4.5zM49.707 14.963V8.438h1.34v6.524c0 2.026 1.006 3.038 3.017 3.038 2.01 0 3.016-1.012 3.016-3.037V8.438h1.34v6.524c0 2.813-1.452 4.163-4.468 4.163-2.792 0-4.245-1.35-4.245-4.162zM67.915 18v1.125h-6.926V8.437h1.34V18zM73.835 6.975l5.25 12.15h-1.564l-1.34-3.375h-3.575l.447-1.125h2.681l-2.01-4.838-3.798 9.338h-1.453zM80.537 19.125V8.437h4.58c2.01 0 3.016.9 3.016 2.588 0 1.35-1.005 2.475-3.016 3.037l3.686 5.063h-1.787l-3.351-4.838v-.9c2.01-.337 3.016-1.125 3.016-2.362 0-1.013-.559-1.463-1.676-1.463H81.99v9.563h-1.452z"/>
        <path fill="#3E3E3E" d="M93.941 8.438v7.65c0 2.024-1.228 3.037-3.574 3.037V18c1.452 0 2.234-.675 2.234-1.912v-7.65h1.34zM96.399 18.675v-1.238c1.117.45 2.346.563 3.574.563 1.788 0 2.793-.675 2.793-2.025 0-1.125-.67-1.688-2.01-1.688h-1.341c-2.234 0-3.351-1.012-3.351-2.925 0-2.024 1.452-3.037 4.245-3.037 1.228 0 2.345.113 3.462.45v1.238c-1.117-.45-2.234-.563-3.462-.563-1.9 0-2.905.675-2.905 1.913 0 1.125.67 1.687 2.01 1.687h1.341c2.234 0 3.351 1.013 3.351 2.925 0 2.138-1.34 3.15-4.133 3.15-1.228 0-2.457-.113-3.574-.45z"/>
        <path fill="#000" d="M83.665 24.75l-.559-1.575h-.335l.67 1.912s0 .113-.111.226c0 .112-.112.112-.112.112l-.112.113h-.111-.224v.337h.224c.223 0 .335 0 .335-.113.111-.112.223-.45.335-.9.112-.224.223-.45.335-.787.112-.45.223-.675.335-.787H84l-.335 1.462zm-1.899.225c-.223 0-.335-.113-.447-.338 0-.112-.112-.224-.112-.45 0-.225 0-.45.112-.562.112-.113.224-.113.335-.113.112 0 .335.113.335.226.112.112.112.337.112.45 0 .225 0 .45-.112.562.112.113 0 .225-.223.225zm-.782.225h.335v-.225l.224.225c.111.113.223.113.335.113a.614.614 0 0 0 .558-.338c.112-.225.224-.45.224-.788 0-.337-.112-.562-.224-.675a.85.85 0 0 0-.558-.224c-.112 0-.224 0-.335.112-.112 0-.224.113-.224.225v-.9h-.335V25.2z"/>
        <g>
            <path fill="#B3B3B3" d="M2.904 20.925l10.389 5.738 10.5-5.85L25.803 4.5 13.293.112.893 4.5z"/>
            <path fill="#3E3E3E" d="M13.293 25.313l9.494-5.288L24.574 5.4 13.293 1.575z"/>
            <path fill="#555" d="M13.293 25.313V1.575L2.346 5.513 4.02 20.137z"/>
            <path fill="#F2F2F2" d="M16.42 14.175l-3.127 1.462h-3.24L8.49 19.462H5.585L13.293 2.25l3.127 11.925zm-.335-.675l-2.792-5.513-2.234 5.513h5.026z"/>
            <path fill="#B3B3B3" d="M15.862 13.387h-2.57v2.25h3.575l1.676 3.938 2.792.113-8.042-17.325v5.512z"/>
        </g>
        <g fill="#000">
            <path d="M93.383 23.738c0 .787-.67 1.462-1.452 1.462-.782 0-1.452-.675-1.452-1.462 0-.9.67-1.463 1.452-1.463.782 0 1.452.675 1.452 1.463zm-.559 0c0-.563-.335-.9-.781-.9-.447 0-.782.337-.782.9 0 .562.335.9.782.9.446 0 .781-.338.781-.9zM96.622 23.738c0 .787-.67 1.462-1.452 1.462-.782 0-1.452-.675-1.452-1.462 0-.9.67-1.463 1.452-1.463.782 0 1.452.675 1.452 1.463zm-.67 0c0-.563-.335-.9-.782-.9s-.782.337-.782.9c0 .562.335.9.782.9s.782-.338.782-.9zM99.527 22.387v2.588c0 1.125-.67 1.575-1.34 1.575-.671 0-1.118-.45-1.341-.9l.558-.225c.112.225.335.562.782.562s.782-.337.782-.9v-.225c-.112.225-.447.338-.782.338-.67 0-1.34-.675-1.34-1.463 0-.787.67-1.462 1.34-1.462.335 0 .67.113.782.337v-.225h.559zm-.559 1.35c0-.562-.335-.9-.782-.9s-.782.338-.782.9c0 .563.335.9.782.9s.782-.337.782-.9zM100.532 20.925V25.2h-.67v-4.275zM102.99 24.3l.446.338c-.112.225-.558.675-1.229.675-.781 0-1.452-.675-1.452-1.463 0-.9.67-1.462 1.34-1.462.783 0 1.118.562 1.23.9l.111.112-1.899.788c.112.337.335.45.67.45.447 0 .67-.113.782-.338zm-1.564-.563l1.34-.562a.614.614 0 0 0-.559-.337c-.335 0-.781.337-.781.9zM88.133 23.4v-.675h2.122v.337c0 .45-.111 1.013-.558 1.463-.447.45-.894.675-1.564.675a2.249 2.249 0 0 1-2.234-2.25 2.249 2.249 0 0 1 2.234-2.25c.67 0 1.229.225 1.564.675l-.447.45a1.7 1.7 0 0 0-1.117-.45c-.894 0-1.564.788-1.564 1.688 0 .9.67 1.687 1.564 1.687.558 0 .894-.225 1.117-.45.223-.225.335-.45.335-.787l-1.452-.113z"/>
        </g>
    </g>
</svg>
