<svg xmlns="http://www.w3.org/2000/svg" width="96" height="30" viewBox="0 0 96 30">
    <g fill="#8A8A8A" fill-rule="nonzero">
        <path d="M.1 4.084l11.978-1.612v11.656H.1V4.084zm11.978 11.532v11.532L.1 25.536v-9.92h11.978zm1.344-13.392l15.89-2.232v14.012h-15.89V2.224zM29.19 15.616v13.888L13.3 27.272v-11.78h15.889v.124zM52.167 23.18h-2.2l-1.834-4.96H40.8l-1.711 4.96h-2.2l6.6-17.484h2.078l6.6 17.484zm-4.645-6.82L44.59 8.176l-2.933 8.184h5.866zM63.044 11.152l-7.333 10.292h7.211v1.736H52.778v-.62l7.333-10.168h-6.6v-1.736h9.533zM74.9 23.18h-1.956v-1.984c-.855 1.488-2.077 2.232-3.788 2.232-2.934 0-4.4-1.736-4.4-5.332v-7.44h1.955v7.192c0 2.604.978 3.968 2.933 3.968.978 0 1.834-.372 2.445-1.116.611-.744.855-1.612.855-2.852v-7.192H74.9V23.18zM84.556 12.64c-.367-.248-.856-.372-1.467-.372-.856 0-1.589.372-2.078 1.24-.489.868-.855 1.86-.855 3.224v6.324H78.2V10.532h1.956v2.604c.244-.868.733-1.488 1.222-2.108.61-.496 1.222-.744 1.955-.744.49 0 .856 0 1.223.124v2.232zM95.678 17.352H87c0 1.364.367 2.48 1.1 3.224.733.744 1.711 1.116 2.933 1.116 1.345 0 2.69-.496 3.79-1.364v1.86c-1.1.868-2.567 1.24-4.279 1.24-1.71 0-3.177-.62-4.155-1.736-.978-1.116-1.467-2.728-1.467-4.836 0-1.24.245-2.356.734-3.348.488-.992 1.222-1.86 2.077-2.356.856-.62 1.834-.868 2.934-.868 1.589 0 2.81.496 3.789 1.612.855 1.116 1.344 2.48 1.344 4.464v.992h-.122zM93.6 15.616c0-1.116-.244-2.108-.856-2.728-.488-.62-1.344-.992-2.2-.992-.855 0-1.71.372-2.322.992-.61.62-1.1 1.612-1.222 2.604h6.6v.124z"/>
    </g>
</svg>
