<svg xmlns="http://www.w3.org/2000/svg" width="106" height="95" viewBox="0 0 106 95">
    <g fill="#FFF" fill-rule="evenodd">
        <g fill-rule="nonzero">
            <path d="M33.44 27.131H23.598c-.127 0-.505.126-.505.252v4.038H33.44c1.136-.252 1.893-1.01 1.893-2.145-.126-1.136-.757-1.893-1.893-2.145M23.598 24.986h8.328c.505 0 1.01-.126 1.388-.253.757-.252 1.136-.883 1.136-1.766 0-.757-.379-1.515-1.136-1.767-.378-.126-.883-.252-1.388-.252h-8.455c-.378 0-.504.126-.504.504v2.903c.126.505.252.63.63.63"/>
            <path d="M.631 52.369h104.864V0H.631v52.369zm37.352-22.462c-.252 1.767-1.514 3.029-3.28 3.407-.632.126-1.263.253-1.893.253H20.948c-.505 0-.631-.127-.631-.631V18.803H32.052c1.01 0 2.02.252 2.903.504 2.524 1.01 3.028 4.922.757 6.31-.126 0-.126.126-.252.126.126.126.252.126.252.252 1.893.757 2.524 2.145 2.271 3.912zm26.248 3.155c0 .378-.126.505-.505.505H61.96c-.379 0-.505-.127-.505-.505V24.48c0-1.767-1.01-3.029-2.524-3.407-1.893-.505-3.786.126-4.543 1.64a5.063 5.063 0 0 0-.378 1.893V33.567h-2.272c-.378 0-.378-.253-.378-.505V24.48c0-2.02-1.136-3.281-3.155-3.533-1.893-.253-3.534.504-4.165 2.019-.252.504-.252 1.135-.252 1.64V33.567h-2.65v-8.96c-.126-2.902 1.893-5.047 4.67-5.678 2.65-.631 4.92 0 6.94 1.892.126-.126.252-.252.504-.378 2.398-2.145 6.31-2.272 8.96-.379 1.388 1.01 2.145 2.398 2.145 4.165-.126 2.902-.126 5.93-.126 8.833zm21.83-6.688c0 .757 0 1.64-.125 2.397-.253 2.777-1.64 4.29-4.417 4.543a41.708 41.708 0 0 1-9.717 0c-.504 0-1.01-.252-1.514-.378-1.388-.505-2.398-1.388-2.65-2.776-.505-2.65-.505-5.3 0-7.95.379-1.767 1.64-2.777 3.407-3.029.631-.126 1.388-.252 2.02-.252 3.028-.127 6.183-.379 9.211.252 2.02.379 3.155 1.64 3.534 3.66 0 .126 0 .378.126.63h-2.272c-.126 0-.252-.252-.252-.378-.252-1.01-1.01-1.64-2.02-1.767-.63-.126-1.135-.252-1.766-.252H74.2c-.757 0-1.388.126-2.145.252-1.01.253-1.767.884-1.767 1.893a46.506 46.506 0 0 0 0 5.931c0 1.01.757 1.64 1.64 1.893.758.126 1.515.378 2.272.378h5.552c.379 0 .758-.126 1.01-.126 1.64-.378 2.271-1.135 2.398-2.902 0-.505-.127-.631-.631-.631H75.714v-1.893c0-.126.126-.252.253-.252H85.305c.757-.127.757 0 .757.757z"/>
        </g>
        <path d="M28.728 75.723h4.033c1.894 0 3.265.283 4.111.85.846.566 1.27 1.46 1.27 2.685 0 .846-.236 1.544-.708 2.095-.472.55-1.16.906-2.066 1.069v.098c2.168.37 3.252 1.51 3.252 3.418 0 1.276-.431 2.272-1.294 2.988-.862.716-2.069 1.074-3.618 1.074h-4.98V75.723zm1.66 6.113h2.734c1.172 0 2.015-.184 2.53-.552.514-.368.77-.988.77-1.86 0-.801-.286-1.379-.859-1.734-.572-.354-1.484-.532-2.734-.532h-2.441v4.678zm0 1.406v5.342h2.978c1.153 0 2.02-.223 2.603-.669.582-.446.874-1.144.874-2.095 0-.885-.298-1.536-.894-1.953-.595-.416-1.502-.625-2.72-.625h-2.841zM43.063 90h-1.62V79.297h1.62V90zm-1.757-13.604c0-.37.09-.642.273-.815a.956.956 0 0 1 .684-.259c.26 0 .485.088.674.264.188.176.283.446.283.81 0 .365-.095.637-.283.816a.946.946 0 0 1-.674.268.936.936 0 0 1-.684-.268c-.182-.18-.273-.45-.273-.816zM53.826 90v-6.924c0-.872-.2-1.523-.597-1.953-.397-.43-1.018-.644-1.865-.644-1.12 0-1.94.302-2.46.908-.522.605-.782 1.605-.782 2.998V90h-1.621V79.297h1.318l.264 1.465h.078a3.31 3.31 0 0 1 1.397-1.226c.599-.29 1.266-.434 2.002-.434 1.289 0 2.259.31 2.91.932.65.622.976 1.616.976 2.984V90h-1.62zm13.71-10.703v1.025l-1.982.235c.182.228.345.525.488.893.143.368.215.783.215 1.245 0 1.048-.358 1.885-1.074 2.51-.717.625-1.7.938-2.95.938-.319 0-.618-.026-.898-.079-.69.365-1.035.824-1.035 1.377 0 .293.12.51.361.65s.654.21 1.24.21h1.895c1.159 0 2.049.244 2.67.732.623.488.933 1.198.933 2.13 0 1.184-.475 2.087-1.425 2.71-.95.62-2.338.932-4.16.932-1.4 0-2.48-.26-3.238-.782-.758-.52-1.138-1.256-1.138-2.207 0-.65.209-1.214.625-1.689.417-.475 1.003-.798 1.758-.967a1.696 1.696 0 0 1-.688-.576 1.525 1.525 0 0 1-.279-.908c0-.39.105-.733.313-1.026.208-.293.537-.576.986-.85-.553-.227-1.004-.614-1.352-1.161-.349-.547-.523-1.172-.523-1.875 0-1.172.352-2.076 1.055-2.71.703-.635 1.7-.952 2.988-.952.56 0 1.065.065 1.514.195h3.701zm-8.535 12.5c0 .58.244 1.019.732 1.318.489.3 1.189.45 2.1.45 1.36 0 2.368-.204 3.022-.61.655-.408.982-.96.982-1.656 0-.58-.18-.982-.537-1.206-.358-.225-1.032-.337-2.022-.337h-1.943c-.736 0-1.309.176-1.719.527-.41.352-.615.856-.615 1.514zm.879-9.072c0 .748.211 1.315.635 1.699.423.384 1.012.576 1.767.576 1.582 0 2.373-.768 2.373-2.305 0-1.608-.8-2.412-2.402-2.412-.762 0-1.348.205-1.758.615-.41.41-.615 1.02-.615 1.827zm14.375 7.47c-1.582 0-2.83-.481-3.745-1.445-.915-.964-1.372-2.301-1.372-4.014 0-1.725.424-3.095 1.274-4.111.85-1.016 1.99-1.523 3.423-1.523 1.341 0 2.402.44 3.184 1.323.78.882 1.171 2.046 1.171 3.491v1.025h-7.373c.033 1.257.35 2.21.953 2.862.602.65 1.45.976 2.543.976a8.62 8.62 0 0 0 3.418-.722v1.445a8.579 8.579 0 0 1-1.626.532c-.51.108-1.127.161-1.85.161zm-.44-9.736c-.859 0-1.544.28-2.055.84-.511.56-.812 1.334-.904 2.324h5.596c0-1.022-.228-1.805-.683-2.349-.456-.543-1.107-.815-1.954-.815z"/>
    </g>
</svg>
