<svg xmlns="http://www.w3.org/2000/svg" xmlns:xlink="http://www.w3.org/1999/xlink" width="140" height="35" viewBox="0 0 140 35">
    <defs>
        <path id="a" d="M17.726.022H.009v34.969h35.433V.022z"/>
    </defs>
    <g fill="none" fill-rule="evenodd">
        <g>
            <mask id="b" fill="#fff">
                <use xlink:href="#a"/>
            </mask>
            <path fill="#4C4C4C" d="M35.442 29.17c0 3.207-2.658 5.83-5.907 5.83H5.907C2.658 35 0 32.377 0 29.17V5.852C0 2.646 2.658.022 5.907.022h23.628c3.249 0 5.907 2.624 5.907 5.83V29.17" mask="url(#b)"/>
        </g>
        <path fill="#FFF" d="M13.25 25.112h6.4c1.1 0 1.957-.28 2.56-.845.607-.56.914-1.36.914-2.39 0-1.011-.301-1.783-.915-2.331-.614-.549-1.46-.812-2.56-.812H13.25v6.378zm0-8.944h5.907c.869 0 1.593-.24 2.172-.731.579-.492.869-1.19.869-2.104 0-1.028-.261-1.754-.782-2.172-.521-.417-1.274-.628-2.259-.628H13.25v5.635zM9.63 7.624h10.048c1.854 0 3.342.417 4.46 1.257 1.117.84 1.679 2.103 1.679 3.8 0 1.03-.255 1.91-.764 2.641-.51.732-1.24 1.303-2.19 1.703v.057c1.275.27 2.242.864 2.896 1.784.655.926.985 2.08.985 3.475 0 .8-.145 1.548-.435 2.24a4.533 4.533 0 0 1-1.36 1.8c-.62.503-1.408.903-2.375 1.2-.967.298-2.114.446-3.446.446H9.631V7.624z"/>
        <path fill="#4C4C4C" d="M45.384 23.294h4.14c.71 0 1.21-.026 1.497-.078.507-.09.93-.239 1.27-.448.34-.209.62-.513.84-.912.22-.4.329-.86.329-1.383 0-.612-.159-1.144-.477-1.595-.317-.451-.758-.769-1.321-.952-.564-.182-1.374-.274-2.433-.274h-3.845v5.642zm0-7.578h3.595c.976 0 1.675-.064 2.099-.19.56-.165.981-.437 1.264-.818.284-.38.426-.858.426-1.433 0-.544-.132-1.024-.397-1.438a2.007 2.007 0 0 0-1.134-.851c-.492-.153-1.335-.23-2.53-.23h-3.323v4.96zm-2.2 9.515V8.82h6.238c1.27 0 2.289.166 3.057.498a3.918 3.918 0 0 1 1.803 1.534c.435.69.652 1.412.652 2.166 0 .701-.192 1.362-.578 1.981-.386.62-.968 1.12-1.747 1.5 1.006.291 1.779.788 2.32 1.489.54.702.81 1.53.81 2.485a4.74 4.74 0 0 1-.493 2.144c-.329.66-.735 1.17-1.219 1.528-.484.358-1.09.629-1.82.811-.73.183-1.625.275-2.683.275h-6.34zM59.846 19.287c0 1.522.336 2.662 1.01 3.42.672.757 1.52 1.136 2.54 1.136 1.013 0 1.856-.38 2.53-1.142.672-.761 1.009-1.922 1.009-3.482 0-1.47-.338-2.583-1.015-3.341-.677-.758-1.518-1.136-2.524-1.136-1.02 0-1.868.377-2.54 1.13-.674.754-1.01 1.892-1.01 3.415zm-2.099 0c0-2.202.62-3.833 1.86-4.892 1.037-.88 2.3-1.321 3.79-1.321 1.655 0 3.009.535 4.06 1.606 1.05 1.071 1.576 2.55 1.576 4.439 0 1.53-.232 2.733-.697 3.61a4.904 4.904 0 0 1-2.03 2.043 5.974 5.974 0 0 1-2.91.727c-1.686 0-3.05-.533-4.09-1.6-1.039-1.068-1.559-2.605-1.559-4.612zM72.765 19.287c0 1.522.337 2.662 1.01 3.42.673.757 1.52 1.136 2.54 1.136 1.014 0 1.857-.38 2.53-1.142.673-.761 1.01-1.922 1.01-3.482 0-1.47-.339-2.583-1.016-3.341s-1.518-1.136-2.524-1.136c-1.02 0-1.867.377-2.54 1.13-.673.754-1.01 1.892-1.01 3.415zm-2.098 0c0-2.202.62-3.833 1.86-4.892 1.036-.88 2.299-1.321 3.788-1.321 1.656 0 3.01.535 4.061 1.606 1.051 1.071 1.577 2.55 1.577 4.439 0 1.53-.233 2.733-.698 3.61a4.904 4.904 0 0 1-2.03 2.043 5.974 5.974 0 0 1-2.91.727c-1.686 0-3.049-.533-4.089-1.6-1.04-1.068-1.56-2.605-1.56-4.612zM88.804 23.428l.295 1.78c-.575.12-1.089.18-1.543.18-.741 0-1.316-.116-1.724-.348-.408-.23-.696-.535-.862-.912-.166-.377-.25-1.17-.25-2.379v-6.84h-1.497v-1.567h1.497v-2.944l2.03-1.209v4.153h2.054v1.568h-2.053v6.951c0 .575.036.944.108 1.108a.84.84 0 0 0 .351.392c.163.097.395.146.698.146.227 0 .525-.026.896-.079M89.984 21.682l2.019-.313c.113.798.429 1.41.947 1.836.518.425 1.242.638 2.172.638.937 0 1.633-.189 2.087-.566.454-.376.68-.819.68-1.326 0-.455-.2-.813-.6-1.075-.28-.179-.976-.407-2.088-.683-1.497-.373-2.535-.696-3.113-.968-.579-.272-1.018-.65-1.316-1.13a2.963 2.963 0 0 1-.448-1.596c0-.53.123-1.02.368-1.472.246-.451.58-.826 1.004-1.125.318-.231.75-.427 1.3-.588a6.255 6.255 0 0 1 1.763-.24c.945 0 1.775.134 2.49.403.714.268 1.242.632 1.582 1.091.34.46.575 1.073.703 1.842l-1.996.268c-.09-.611-.354-1.09-.789-1.433-.434-.343-1.049-.514-1.843-.514-.937 0-1.607.153-2.007.459-.401.306-.602.664-.602 1.074 0 .262.084.497.25.705.166.217.427.396.783.538.204.074.805.246 1.803.515 1.445.38 2.452.692 3.023.934.57.243 1.019.596 1.344 1.058.325.463.488 1.038.488 1.724 0 .672-.199 1.304-.595 1.897-.398.594-.97 1.053-1.719 1.377-.749.325-1.596.487-2.54.487-1.566 0-2.76-.32-3.58-.962-.82-.642-1.344-1.594-1.57-2.855M106.873 23.428l.295 1.78c-.575.12-1.089.18-1.543.18-.74 0-1.315-.116-1.724-.348-.408-.23-.696-.535-.862-.912-.166-.377-.25-1.17-.25-2.379v-6.84h-1.497v-1.567h1.498v-2.944l2.03-1.209v4.153h2.053v1.568h-2.053v6.951c0 .575.036.944.108 1.108a.841.841 0 0 0 .351.392c.163.097.395.146.698.146.227 0 .526-.026.896-.079M108.847 25.23V13.343h1.837v1.803c.469-.844.902-1.4 1.299-1.668a2.289 2.289 0 0 1 1.31-.403c.688 0 1.388.216 2.098.65l-.703 1.868c-.499-.29-.998-.436-1.497-.436-.446 0-.847.132-1.202.397-.356.265-.61.633-.76 1.103-.227.716-.34 1.5-.34 2.35v6.225h-2.042M124.296 19.264c-.742.299-1.853.553-3.335.761-.84.12-1.433.254-1.781.403a1.77 1.77 0 0 0-.805.655c-.19.288-.284.607-.284.957 0 .538.206.985.618 1.344.412.358 1.015.537 1.81.537.786 0 1.485-.17 2.098-.51.612-.339 1.062-.803 1.35-1.393.219-.455.329-1.127.329-2.015v-.739zm.17 4.5c-.756.635-1.484 1.082-2.184 1.344-.7.26-1.45.391-2.251.391-1.324 0-2.34-.319-3.052-.957-.71-.638-1.066-1.453-1.066-2.446 0-.582.134-1.114.403-1.595.268-.481.62-.867 1.055-1.159.435-.29.924-.51 1.469-.66.4-.104 1.005-.205 1.815-.302 1.648-.194 2.862-.426 3.64-.694.008-.276.012-.452.012-.526 0-.821-.193-1.4-.579-1.735-.521-.456-1.297-.683-2.325-.683-.96 0-1.67.166-2.127.498-.457.332-.795.92-1.015 1.763l-1.996-.269c.181-.843.48-1.524.896-2.043.416-.518 1.017-.918 1.804-1.198.786-.28 1.697-.42 2.733-.42 1.028 0 1.864.12 2.507.36.642.238 1.115.538 1.418.9.302.362.514.82.635 1.371.068.344.102.963.102 1.859v2.686c0 1.874.043 3.058.13 3.555.087.496.26.972.516 1.427h-2.132c-.212-.418-.348-.907-.408-1.467zM131.374 19.354c0 1.53.313 2.66.941 3.392.628.731 1.388 1.097 2.28 1.097.907 0 1.684-.38 2.33-1.137.647-.757.97-1.93.97-3.52 0-1.515-.315-2.65-.947-3.403-.631-.754-1.385-1.13-2.262-1.13-.87 0-1.64.4-2.309 1.202-.669.803-1.003 1.969-1.003 3.499zm-1.85 10.433V13.342h1.86v1.545c.44-.604.935-1.058 1.487-1.36.552-.302 1.22-.453 2.007-.453 1.029 0 1.936.261 2.723.783.786.523 1.38 1.26 1.78 2.211.401.952.602 1.995.602 3.129 0 1.216-.221 2.311-.664 3.286-.442.973-1.085 1.72-1.928 2.238-.843.519-1.73.778-2.66.778-.68 0-1.291-.141-1.832-.425a4.157 4.157 0 0 1-1.333-1.075v5.788h-2.041z"/>
    </g>
</svg>
