<svg xmlns="http://www.w3.org/2000/svg" width="129" height="129" viewBox="0 0 129 129">
    <g fill="none" fill-rule="evenodd">
        <circle cx="63.5" cy="63.5" r="63.5" stroke="#979797" transform="translate(1 1)"/>
        <path stroke="#3D3F44" d="M84.15 87.029a41.653 41.653 0 0 1-3.432 2.767c-4.54 3.1-9.964 4.872-15.832 4.872-9.079 0-17.05-4.207-22.254-10.74M70.532 38.314c12.954 2.657 22.697 14.061 22.697 27.79 0 3.875-.775 7.639-2.215 11.071M37.207 72.857c-.553-2.103-.775-4.318-.775-6.643 0-13.618 9.632-25.132 22.475-27.789"/>
        <path stroke="#CA4127" d="M61.01 33.443l4.65 4.428-4.65 4.429M93.229 82.046l-6.422.333-.11-6.311M42.19 73.854l-2.658 5.867-5.646-2.657"/>
        <g stroke="#3D3F44" transform="translate(54 56)">
            <ellipse cx="10.735" cy="2.524" rx="10.735" ry="2.524"/>
            <path d="M0 6c0 1.382 4.8 2.524 10.735 2.524 5.937 0 10.736-1.142 10.736-2.524v3.366c0 1.382-4.8 2.524-10.736 2.524C4.8 11.89 0 10.748 0 9.366V6zM0 13c0 1.382 4.8 2.524 10.735 2.524 5.937 0 10.736-1.142 10.736-2.524v3.366c0 1.382-4.8 2.524-10.736 2.524C4.8 18.89 0 17.748 0 16.366V13z"/>
        </g>
    </g>
</svg>
