<svg xmlns="http://www.w3.org/2000/svg" width="129" height="129" viewBox="0 0 129 129">
    <g fill="none" fill-rule="evenodd">
        <circle cx="63.5" cy="63.5" r="63.5" stroke="#979797" transform="translate(1 1)"/>
        <g stroke="#3D3F44" transform="translate(33 37.655)">
            <circle cx="9.775" cy="9.076" r="8.611"/>
            <path d="M13.964 16.64v4.305H5.585V16.64M9.775 17.687v-7.68M13.033 6.865l-3.258 3.142-3.026-3.142"/>
            <path d="M15.244 32.582h4.305v-8.378a3.377 3.377 0 0 0-3.374-3.375H3.49a3.377 3.377 0 0 0-3.375 3.375v8.378h4.422"/>
            <path d="M4.422 25.367v21.528h10.822V25.367M9.89 46.895V33.978"/>
        </g>
        <g stroke="#3D3F44" transform="translate(76.055 37.655)">
            <circle cx="10.24" cy="9.076" r="8.611"/>
            <path d="M14.43 16.64v4.305H6.05V16.64M10.24 17.687v-7.68M13.498 6.865l-3.258 3.142-3.025-3.142"/>
            <path d="M15.71 32.582h4.305v-8.378a3.377 3.377 0 0 0-3.375-3.375H3.956a3.377 3.377 0 0 0-3.374 3.375v8.378h4.422"/>
            <path d="M4.887 25.367v21.528H15.71V25.367M10.24 46.895V33.978"/>
        </g>
        <path stroke="#3D3F44" d="M68.258 61.393c1.28-1.164 1.397-2.56 2.56-3.142 4.073-2.211 6.866-6.516 6.866-11.52 0-7.215-5.819-13.15-13.15-13.15-7.33 0-13.149 5.819-13.149 13.15 0 4.887 2.677 9.076 6.517 11.404 1.163.698 1.163 2.21 2.443 3.374"/>
        <path stroke="#D74127" d="M66.63 61.393V44.17s.465-2.793 3.257-1.63c1.397.583 1.397 2.212.931 3.026-.465.931-1.28 1.164-3.142 1.164h-8.261s-1.979-.698-1.513-2.676c.582-1.979 3.258-2.328 4.305-.35v17.687"/>
        <path stroke="#3D3F44" d="M69.887 82.804h4.306v-8.379a3.377 3.377 0 0 0-3.375-3.374H58.135a3.377 3.377 0 0 0-3.375 3.374v8.379h4.422"/>
        <path stroke="#3D3F44" d="M59.182 75.59V97h10.705V75.59M64.535 97V84.084M68.84 71.05h-8.61a2.334 2.334 0 0 1-2.328-2.326v-.233a2.334 2.334 0 0 1 2.327-2.327h8.611a2.334 2.334 0 0 1 2.327 2.327v.233a2.334 2.334 0 0 1-2.327 2.327z"/>
        <path stroke="#3D3F44" d="M68.84 66.28h-8.61a2.334 2.334 0 0 1-2.328-2.327v-.233a2.334 2.334 0 0 1 2.327-2.327h8.611a2.334 2.334 0 0 1 2.327 2.327v.233a2.334 2.334 0 0 1-2.327 2.327z"/>
    </g>
</svg>
