<svg xmlns="http://www.w3.org/2000/svg" width="131" height="39" viewBox="0 0 131 39">
    <g fill="#1E1E1E" fill-rule="evenodd">
        <path d="M22.09 14.995c.094 2.585-3.094 3.602-4.486 1.654-1.778-2.489.037-5.17.29-7.805.318-3.304-1.581-6.51-3.94-8.427 1.3 2.288-.411 5.314-1.779 7.006-1.326 1.641-2.94 3.011-4.403 4.5C6.2 13.524 4.687 15.21 3.394 17.09.807 20.849-.776 25.578.389 30.27c1.162 4.688 4.888 7.673 9.097 8.728-2.125-1-4.11-3.542-4.115-6.143-.005-2.835 1.644-5.242 3.694-6.823-.246 1.015-.381 1.943.23 2.851.568.844 1.562 1.253 2.501 1.03 2.195-.521 2.296-3.15.994-4.683-1.286-1.516-2.53-3.229-2.04-5.428.243-1.103.866-2.135 1.652-2.873-.604 1.733 1.116 3.442 2.247 4.292 1.966 1.475 4.12 2.591 5.927 4.322 1.9 1.818 3.302 4.278 3.02 7.13-.307 3.09-2.563 5.242-5.09 6.327 5.343-1.284 10.864-5.805 10.978-12.262.093-5.313-3.251-9.402-7.394-11.743M44.177 21.148h-2.294v-.034c0-1.409-.56-2.186-2.294-2.186-2.565 0-3.341 1.715-3.775 4.712-.09.687-.162 1.337-.162 1.915 0 1.733.577 2.888 2.565 2.888 1.282 0 2.439-.452 3.504-2.131l1.644 1.102c-.975 1.68-2.638 3.033-5.437 3.033-3.685 0-4.715-2.402-4.715-5.02 0-.594.055-1.19.145-1.787.632-4.442 2.347-6.789 6.52-6.789 3.072 0 4.318 1.79 4.318 3.846 0 .145 0 .308-.019.45M49.218 22.088c-1.48 0-2.204.759-2.564 3.213-.074.489-.11.92-.11 1.283 0 1.461.58 1.95 1.754 1.95 1.462 0 2.24-.76 2.6-3.233.072-.468.11-.884.11-1.246 0-1.478-.598-1.967-1.79-1.967zm4.102 3.213c-.488 3.358-1.952 5.146-5.295 5.146-2.854 0-3.882-1.752-3.882-3.953 0-.38.036-.795.089-1.193.488-3.412 1.933-5.126 5.276-5.126 2.835 0 3.902 1.66 3.902 3.898 0 .398-.037.795-.09 1.228zM58.975 22.015c-1.191 0-2.113.507-2.529 3.377a10.74 10.74 0 0 0-.126 1.427c0 1.1.361 1.788 1.68 1.788.487 0 1.282-.11 2.095-.597l.814-5.561c-.56-.306-1.156-.434-1.934-.434zm3.215 8.143h-1.734l-.18-.704c-.705.597-1.607.993-2.53.993-2.185 0-3.81-1.046-3.81-3.808 0-.38.017-.795.09-1.247.541-3.792 2.221-5.217 5.221-5.217.632 0 1.571.126 2.096.522-.11-.27-.127-.45-.092-.739l.561-3.864h2.402L62.19 30.158zM69.2 22.088c-1.373 0-2.042.522-2.439 2.222h3.974c.036-.218.055-.417.055-.597 0-1.065-.526-1.625-1.59-1.625zm3.775 3.918h-6.52a6.09 6.09 0 0 0-.056.777c0 1.19.543 1.75 1.88 1.75 1.246 0 1.95-.542 2.473-1.335l1.825.74c-.85 1.626-2.439 2.51-4.57 2.51-2.745 0-3.992-1.464-3.992-3.901 0-.397.037-.813.09-1.246.525-3.556 2.078-5.126 5.383-5.126 3 0 3.685 2.112 3.685 3.917 0 .54-.108 1.264-.198 1.914zM80.125 18.675h-1.337l-1.444 9.949h1.335l-.216 1.534h-5.094l.216-1.534h1.337l1.445-9.95h-1.335l.215-1.534h5.094l-.216 1.535M85.273 22.07c-1.354 0-2.13.777-2.13 2.112 0 .902.577 1.283 1.625 1.283 1.355 0 2.114-.723 2.114-2.06 0-.883-.524-1.335-1.609-1.335zm.235 8.124l-3.395-.63c-.543.577-.778.956-.778 1.768 0 .921.65 1.336 2.385 1.336 1.138 0 2.709-.18 2.709-1.643 0-.45-.235-.704-.92-.831zm4.968-7.907h-.614c-.162 0-.56-.018-.866-.163.18.434.253.92.253 1.318 0 2.817-2.241 3.899-4.752 3.899-.56 0-1.103-.053-1.572-.162-.072-.017-.143-.035-.233-.035-.273 0-.434.144-.434.413 0 .182.09.308.487.38l3.486.65c1.934.361 2.601 1.191 2.601 2.258 0 3.123-2.925 3.683-5.383 3.683-1.95 0-4.498-.523-4.498-2.962 0-1.263.669-2.345 1.753-2.997a1.395 1.395 0 0 1-.325-.866c0-.65.47-1.156 1.01-1.444-.343-.433-.63-1.12-.63-1.915 0-2.834 2.203-4.17 4.785-4.17.904 0 1.862.163 2.566.613l1.265-.612h1.751l-.65 2.112zM99.658 24.055l-.886 6.103H96.37l.886-6.103c.037-.216.056-.433.056-.632 0-.83-.327-1.37-1.23-1.37-.74 0-1.607.413-2.312.847l-1.048 7.258h-2.403l1.392-9.694h1.986l.163.883c1.12-.883 2.022-1.172 3.035-1.172 2.023 0 2.837 1.28 2.837 2.997 0 .287-.038.577-.073.883M105.649 18.53c-.019.163-.019.163-.163.163h-2.35c-.144 0-.144 0-.125-.163l.325-2.237c.017-.182.017-.2.162-.2h2.348c.145 0 .145.018.127.2l-.324 2.237zm-.489 11.79h-1.228c-1.41 0-2.095-.613-2.095-1.877 0-.199.018-.398.053-.63l.723-5.002c.019-.146.109-.362.253-.524h-1.753l.254-1.823h3.992l-1.048 7.348c-.018.089-.018.179-.018.252 0 .216.09.289.36.289h.778l-.27 1.968zM113.384 22.287h-2.747l-.757 5.198c-.02.09-.02.182-.02.254 0 .541.29.794.886.794.83 0 1.21-.253 1.77-.595l1.12 1.37c-.885.743-2.024 1.14-3.433 1.14-1.516 0-2.781-.67-2.781-2.384 0-.18 0-.38.036-.579l.65-4.477c.019-.18.18-.486.342-.72h-1.695l.252-1.824h1.462l.453-3.142 2.528-.704-.56 3.846h3.324l-.83 1.823M119.273 22.088c-1.374 0-2.041.522-2.44 2.222h3.974c.036-.218.055-.417.055-.597 0-1.065-.524-1.625-1.59-1.625zm3.774 3.918h-6.52c-.037.289-.054.54-.054.777 0 1.19.541 1.75 1.877 1.75 1.247 0 1.952-.542 2.475-1.335l1.824.74c-.848 1.626-2.437 2.51-4.57 2.51-2.745 0-3.99-1.464-3.99-3.901 0-.397.035-.813.09-1.246.522-3.556 2.076-5.126 5.383-5.126 2.997 0 3.684 2.112 3.684 3.917 0 .54-.108 1.264-.199 1.914zM130.652 22.34a9.379 9.379 0 0 0-1.246-.09c-.686 0-1.408.109-2.041.488l-1.067 7.42h-2.42l1.39-9.694h1.988l.145.775c.813-.775 1.627-1.064 2.493-1.064.344 0 .705.054 1.065.126l-.307 2.04"/>
    </g>
</svg>
