<svg xmlns="http://www.w3.org/2000/svg" width="94" height="129" viewBox="0 0 94 129">
    <g fill="#FFF" fill-rule="evenodd">
        <path d="M21.66 120.84c0 1.073-.17 2.05-.51 2.93-.34.88-.82 1.633-1.44 2.26a6.41 6.41 0 0 1-2.235 1.455c-.87.343-1.832.515-2.885.515H9.24v-14.33h5.35c1.053 0 2.015.172 2.885.515.87.343 1.615.83 2.235 1.46a6.55 6.55 0 0 1 1.44 2.265c.34.88.51 1.857.51 2.93zm-1.99 0c0-.88-.12-1.667-.36-2.36-.24-.693-.58-1.28-1.02-1.76a4.35 4.35 0 0 0-1.6-1.1c-.627-.253-1.327-.38-2.1-.38h-3.41v11.19h3.41c.773 0 1.473-.127 2.1-.38a4.379 4.379 0 0 0 1.6-1.095c.44-.477.78-1.062 1.02-1.755.24-.693.36-1.48.36-2.36zm11 .99a3.51 3.51 0 0 0-.175-1.135 2.55 2.55 0 0 0-.51-.89 2.275 2.275 0 0 0-.815-.58 2.751 2.751 0 0 0-1.09-.205c-.853 0-1.528.248-2.025.745-.497.497-.805 1.185-.925 2.065h5.54zm1.44 4.75c-.22.267-.483.498-.79.695a4.919 4.919 0 0 1-.985.485c-.35.127-.712.222-1.085.285a6.627 6.627 0 0 1-1.11.095 5.15 5.15 0 0 1-1.935-.355 4.247 4.247 0 0 1-1.53-1.04c-.43-.457-.765-1.022-1.005-1.695-.24-.673-.36-1.447-.36-2.32 0-.707.108-1.367.325-1.98a4.667 4.667 0 0 1 .935-1.595c.407-.45.903-.803 1.49-1.06s1.247-.385 1.98-.385a4.56 4.56 0 0 1 1.685.305c.517.203.963.497 1.34.88.377.383.672.857.885 1.42.213.563.32 1.205.32 1.925 0 .28-.03.467-.09.56-.06.093-.173.14-.34.14h-6.77c.02.64.108 1.197.265 1.67.157.473.375.868.655 1.185.28.317.613.553 1 .71.387.157.82.235 1.3.235.447 0 .832-.052 1.155-.155.323-.103.602-.215.835-.335a6.37 6.37 0 0 0 .585-.335c.157-.103.292-.155.405-.155.147 0 .26.057.34.17l.5.65zm10.6-.21V128h-8.13v-14.33h1.93v12.7h6.2zm7.21-2.93c-.82.027-1.518.092-2.095.195-.577.103-1.047.238-1.41.405-.363.167-.627.363-.79.59a1.27 1.27 0 0 0-.245.76c0 .267.043.497.13.69.087.193.205.352.355.475s.327.213.53.27c.203.057.422.085.655.085.313 0 .6-.032.86-.095a3.24 3.24 0 0 0 .735-.275c.23-.12.45-.263.66-.43.21-.167.415-.357.615-.57v-2.1zm-5.75-4.14a5.785 5.785 0 0 1 1.81-1.21c.647-.267 1.363-.4 2.15-.4.567 0 1.07.093 1.51.28.44.187.81.447 1.11.78.3.333.527.737.68 1.21.153.473.23.993.23 1.56V128h-.79c-.173 0-.307-.028-.4-.085-.093-.057-.167-.168-.22-.335l-.2-.96a9.926 9.926 0 0 1-.78.655 4.345 4.345 0 0 1-1.695.78c-.317.07-.668.105-1.055.105a3.65 3.65 0 0 1-1.11-.165 2.564 2.564 0 0 1-.905-.495 2.328 2.328 0 0 1-.61-.835c-.15-.337-.225-.735-.225-1.195 0-.4.11-.785.33-1.155.22-.37.577-.698 1.07-.985.493-.287 1.137-.522 1.93-.705.793-.183 1.767-.288 2.92-.315v-.79c0-.787-.17-1.382-.51-1.785-.34-.403-.837-.605-1.49-.605-.44 0-.808.055-1.105.165-.297.11-.553.233-.77.37-.217.137-.403.26-.56.37a.808.808 0 0 1-.465.165.511.511 0 0 1-.31-.095.872.872 0 0 1-.22-.235l-.32-.57zm14.39 1.31c.56 0 1.055-.068 1.485-.205.43-.137.79-.33 1.08-.58.29-.25.508-.548.655-.895.147-.347.22-.73.22-1.15 0-.853-.28-1.497-.84-1.93-.56-.433-1.4-.65-2.52-.65h-2.12v5.41h2.04zm6.62 7.39h-1.72c-.353 0-.613-.137-.78-.41l-3.72-5.12a1.103 1.103 0 0 0-.365-.345c-.13-.07-.332-.105-.605-.105h-1.47V128h-1.93v-14.33h4.05c.907 0 1.69.092 2.35.275.66.183 1.205.448 1.635.795.43.347.748.765.955 1.255.207.49.31 1.038.31 1.645 0 .507-.08.98-.24 1.42a3.75 3.75 0 0 1-.695 1.185c-.303.35-.673.648-1.11.895a5.495 5.495 0 0 1-1.485.56c.247.14.46.343.64.61l4.18 5.69zm9.44-10.13V128h-1.06c-.253 0-.413-.123-.48-.37l-.14-1.09c-.44.487-.933.878-1.48 1.175-.547.297-1.173.445-1.88.445-.553 0-1.042-.092-1.465-.275a2.904 2.904 0 0 1-1.065-.775 3.291 3.291 0 0 1-.645-1.21 5.402 5.402 0 0 1-.215-1.57v-6.46h1.78v6.46c0 .767.175 1.36.525 1.78.35.42.885.63 1.605.63.527 0 1.018-.125 1.475-.375.457-.25.878-.595 1.265-1.035v-7.46h1.78zm9.6 3.96a3.51 3.51 0 0 0-.175-1.135 2.55 2.55 0 0 0-.51-.89 2.275 2.275 0 0 0-.815-.58 2.751 2.751 0 0 0-1.09-.205c-.853 0-1.528.248-2.025.745-.497.497-.805 1.185-.925 2.065h5.54zm1.44 4.75c-.22.267-.483.498-.79.695a4.919 4.919 0 0 1-.985.485c-.35.127-.712.222-1.085.285a6.627 6.627 0 0 1-1.11.095 5.15 5.15 0 0 1-1.935-.355 4.247 4.247 0 0 1-1.53-1.04c-.43-.457-.765-1.022-1.005-1.695-.24-.673-.36-1.447-.36-2.32 0-.707.108-1.367.325-1.98a4.667 4.667 0 0 1 .935-1.595c.407-.45.903-.803 1.49-1.06s1.247-.385 1.98-.385a4.56 4.56 0 0 1 1.685.305c.517.203.963.497 1.34.88.377.383.672.857.885 1.42.213.563.32 1.205.32 1.925 0 .28-.03.467-.09.56-.06.093-.173.14-.34.14h-6.77c.02.64.108 1.197.265 1.67.157.473.375.868.655 1.185.28.317.613.553 1 .71.387.157.82.235 1.3.235.447 0 .832-.052 1.155-.155.323-.103.602-.215.835-.335a6.37 6.37 0 0 0 .585-.335c.157-.103.292-.155.405-.155.147 0 .26.057.34.17l.5.65z"/>
        <path fill-rule="nonzero" d="M92.157 42.634c-2.903-11.539-8.755-21.41-17.372-29.566-4.93-4.68-10.506-8.341-16.957-10.658C53.128.74 48.29.046 43.314.649c-5.161.695-10 2.549-14.469 5.19-9.492 5.607-16.68 13.485-21.795 23.17C1.428 39.623-.968 50.884.645 62.886a31.421 31.421 0 0 0 4.562 12.698c3.917 6.302 9.492 10.705 16.081 13.856 8.11 3.846 16.727 5.515 25.666 5.561 3.087 0 6.174-.232 9.216-.649 6.266-.927 12.303-2.688 17.97-5.607 5.253-2.688 9.769-6.256 13.27-11.03 4.24-5.792 6.13-12.373 6.406-19.463.23-5.283-.369-10.473-1.66-15.617zM72.804 17.1C80.729 25.024 86.12 34.432 88.7 45.415c.046.139.046.324.092.463.138.185.138.417.092.649-.184-.047-.184-.232-.23-.325-3.364-4.958-7.741-8.758-12.856-11.724-.599-.37-.737-.741-.737-1.39.138-5.051-.553-9.964-2.258-14.69-.184-.557-.415-1.066-.645-1.622.322-.093.46.139.645.324zm-44.051-3.8c3.64-4.68 8.432-7.415 14.284-8.295 4.838-.742 9.492-.278 13.962 1.76 5.622 2.596 9.4 6.906 11.704 12.56 1.567 3.892 2.258 7.97 2.166 12.187 0 .093 0 .232-.046.37-.968-.37-1.89-.787-2.811-1.111-5.253-1.993-10.69-3.105-16.312-3.522-9.723-.695-19.076.649-28.062 4.449-.276.092-.599.37-.599-.278.046-6.627 1.52-12.837 5.714-18.12zm41.885 23.68c-.599 5.84-2.258 11.354-4.7 16.637-2.903 6.256-6.727 11.863-11.565 16.776a49.463 49.463 0 0 1-6.912 5.885c-.369.278-.6.278-1.014 0-6.313-4.495-11.381-10.195-15.344-16.822-3.548-5.932-6.082-12.234-7.327-19.093-.184-1.112-.322-2.27-.506-3.383-.093-.51.138-.648.553-.834 3.41-1.575 6.911-2.734 10.598-3.568 4.008-.88 8.478-1.39 13.04-1.39 7.557.092 15.252 1.53 22.578 4.958.415.186.645.325.6.834zM5.161 45.924c.645-3.336 1.75-6.58 3.087-9.731 3.087-7.322 7.465-13.764 13.178-19.325l.277-.278c.046-.139.184-.278.276-.231.139.139 0 .278-.092.37-2.258 5.376-3.18 10.983-2.903 16.776 0 .417-.184.602-.507.788-4.515 2.595-8.478 5.839-11.703 9.963a52.305 52.305 0 0 0-1.429 1.946.536.536 0 0 1-.23.325c-.139-.232-.092-.417.046-.603zm4.608 29.242c-3.364-4.403-5.115-9.454-4.977-15.061.138-4.773 1.935-8.944 4.746-12.744 2.58-3.43 5.76-6.21 9.354-8.48a2.24 2.24 0 0 1 .323-.14c.23 1.39.46 2.735.737 4.079 1.659 7.739 4.792 14.875 9.17 21.41 3.686 5.56 8.155 10.426 13.5 14.458.507.37.37.51-.092.741-4.331 2.364-8.939 3.754-13.87 4.032-7.556.324-14.1-2.085-18.891-8.295zM28.2 87.77c6.635-.371 12.625-2.503 18.293-5.84.369-.231.6-.185.968 0 4.331 2.55 8.939 4.45 13.87 5.284 1.474.231 2.902.37 4.377.556-12.487 4.217-24.975 4.217-37.508 0zm58.888-17.61c-3.04 6.951-8.202 11.307-15.666 12.837-4.286.88-8.525.463-12.718-.696-2.58-.695-5.069-1.668-7.373-2.965-.414-.232-.46-.325-.046-.65 11.105-8.619 18.386-19.833 22.118-33.411.507-1.947.922-3.893 1.198-5.886.046-.231.092-.417.138-.695 1.475.88 2.811 1.854 4.101 2.873 3.733 3.059 6.82 6.673 8.755 11.215 2.35 5.839 1.981 11.678-.507 17.378z"/>
    </g>
</svg>
