<?xml version="1.0" encoding="utf-8"?>
<!-- Generator: Adobe Illustrator 21.0.0, SVG Export Plug-In . SVG Version: 6.00 Build 0)  -->
<svg version="1.1" id="Layer_1" xmlns="http://www.w3.org/2000/svg" xmlns:xlink="http://www.w3.org/1999/xlink" x="0px" y="0px"
	 viewBox="0 0 792 459" style="enable-background:new 0 0 792 459;" xml:space="preserve">
<style type="text/css">
	.st0{fill:#C5C5C5;}
	.st1{fill:#FFFFFF;}
	.st2{fill:#6A6A6A;}
	.st3{fill:#525252;}
	.st4{fill:none;}
	.st5{fill:#757575;}
	.st6{fill:#E55217;}
</style>
<g>
	<g>
		<polygon class="st0" points="620.9,260.2 620.9,214.2 576.9,193.5 576.9,144.7 531.4,123.2 531.4,215.9 		"/>
		<path class="st1" d="M621.4,261l-90.5-44.7v-93.8l46.5,22v48.8l44,20.7V261z M531.9,215.6l88.5,43.8v-44.9l-44-20.7V145l-44.5-21
			V215.6z"/>
	</g>
	<g>
		<polygon class="st0" points="620.9,171.7 620.9,124.8 576.9,144.7 576.9,193.5 		"/>
		<path class="st1" d="M576.4,194.3v-49.9l45-20.3v48L576.4,194.3z M577.4,145v47.7l43-21.3v-45.8L577.4,145z"/>
	</g>
	<g>
		<polygon class="st0" points="620.9,214.2 666.6,193.2 620.9,171.7 576.9,193.5 		"/>
		<path class="st1" d="M620.9,214.7l-0.2-0.1l-44.9-21.2l45.1-22.3l46.9,22.1L620.9,214.7z M578.1,193.4l42.8,20.2l44.6-20.5
			l-44.6-20.9L578.1,193.4z"/>
	</g>
	<g>
		<polygon class="st0" points="620.9,260.2 620.9,214.2 666.6,193.2 666.6,237.7 		"/>
		<path class="st1" d="M620.4,261v-47.1l46.8-21.5V238l-0.3,0.1L620.4,261z M621.4,214.5v44.9l44.8-22V194L621.4,214.5z"/>
	</g>
	<g>
		<polygon class="st0" points="620.9,124.8 576.1,102.7 531.4,123.2 576.9,144.7 		"/>
		<path class="st1" d="M576.9,145.2l-46.7-22l45.9-21l0.2,0.1l45.7,22.6L576.9,145.2z M532.6,123.2l44.3,20.9l42.8-19.3l-43.6-21.6
			L532.6,123.2z"/>
	</g>
	<g>
		<polygon class="st2" points="501.9,79.5 501.9,171.7 456.6,149.2 456.6,101.2 411.9,77.2 411.9,31.2 		"/>
		<path class="st1" d="M502.4,172.5l-46.3-23v-48l-44.7-24V30.3l91,48.9V172.5z M457.1,148.9l44.3,22V79.8l-89-47.8v44.9l44.7,24
			V148.9z"/>
	</g>
	<g>
		<polygon class="st2" points="501.9,79.5 501.9,171.7 548.2,148.8 548.2,100.8 595.6,80.2 595.6,32.9 		"/>
		<path class="st1" d="M501.4,172.5V79.2L596.1,32v48.5l-47.3,20.6v48L501.4,172.5z M502.4,79.8v91.1l45.3-22.4v-48l47.3-20.6V33.7
			L502.4,79.8z"/>
	</g>
	<g>
		<polygon class="st2" points="595.6,32.9 501.9,79.5 411.9,31.2 458.6,10.2 503.7,33.9 550.2,10.2 		"/>
		<path class="st1" d="M501.9,80.1l-0.2-0.1l-90.9-48.8l47.8-21.5l0.2,0.1l44.9,23.5l46.5-23.7l46.5,23.2L501.9,80.1z M413,31.2
			L501.9,79l92.5-46.1l-44.2-22.1l-46.5,23.7l-0.2-0.1l-45-23.6L413,31.2z"/>
	</g>
	<g>
		<polygon class="st2" points="458.2,238.9 458.9,285.5 412.2,263.2 412.2,309.9 504.7,355.9 550.6,332.9 550.6,238.9 503.9,263.2 
					"/>
		<path class="st1" d="M504.7,356.4l-93-46.2v-47.8l46.7,22.3l-0.7-46.7l46.2,24.6l47.2-24.6v95.1l-0.3,0.1L504.7,356.4z
			 M412.7,309.5l92,45.8l45.3-22.8v-92.9l-46.2,24.1l-45.2-24.1l0.7,46.6L412.7,264V309.5z"/>
	</g>
	<g>
		<polygon class="st2" points="458.3,240.7 455.3,239.4 412.2,263.2 458.9,285.5 		"/>
		<path class="st1" d="M459.4,286.3l-48.3-23.1l44.2-24.3l3.4,1.5L459.4,286.3z M413.3,263.2l45.1,21.6l-0.6-43.7l-2.4-1
			L413.3,263.2z"/>
	</g>
	<g>
		<polyline class="st2" points="504.7,355.9 503.9,263.2 550.6,238.9 506.1,217 458.2,238.9 503.9,263.2 		"/>
		<path class="st1" d="M504.2,355.9l-0.8-92.4l-46.3-24.7l49-22.4l0.2,0.1l45.4,22.3l-47.3,24.6l0.8,92.4L504.2,355.9z M459.4,238.9
			l44.5,23.7l45.6-23.8L506,217.6L459.4,238.9z"/>
	</g>
	<g>
		<polygon class="st0" points="339.6,309.9 339.6,262.5 294.9,238 294.2,193.5 250.9,171.7 250.9,262.5 		"/>
		<path class="st1" d="M340.1,310.7l-0.7-0.4l-88.9-47.5v-91.9l44.3,22.3l0.7,44.5l44.7,24.5V310.7z M251.4,262.2l87.7,46.8v-46.2
			l-44.7-24.5l-0.7-44.5l-42.3-21.3V262.2z"/>
	</g>
	<g>
		<polygon class="st0" points="387.5,238.9 387.5,286.4 339.6,309.9 339.6,262.5 		"/>
		<path class="st1" d="M339.1,310.7v-48.5l0.3-0.1l48.7-24v48.7L339.1,310.7z M340.1,262.8V309l47-22.9v-46.5L340.1,262.8z"/>
	</g>
	<g>
		<polygon class="st0" points="294.9,238 387.5,193.6 387.5,147.4 294.2,193.5 		"/>
		<path class="st1" d="M294.4,238.8l-0.7-45.6l0.3-0.1l94-46.4v47.2L294.4,238.8z M294.7,193.8l0.6,43.4l91.7-44v-45L294.7,193.8z"
			/>
	</g>
	<g>
		<polygon class="st0" points="387.5,238.9 340.9,215.9 294.9,238 339.6,262.5 		"/>
		<path class="st1" d="M339.5,263L293.8,238l47.1-22.6l0.2,0.1l47.6,23.4L339.5,263z M296,238l43.6,23.9l46.8-23.1l-45.5-22.3
			L296,238z"/>
	</g>
	<g>
		<polygon class="st0" points="294.2,193.5 250.9,171.7 345.9,125.9 387.5,147.4 		"/>
		<path class="st1" d="M294.2,194.1l-44.5-22.4l96.1-46.3l42.7,22.1L294.2,194.1z M252,171.7l42.2,21.3l92.2-45.5l-40.5-20.9
			L252,171.7z"/>
	</g>
	<g>
		<polygon class="st3" points="501.9,447.7 501.9,401.7 638.9,337.2 638.9,382.2 		"/>
		<path class="st1" d="M501.4,448.5v-47.1l0.3-0.1l137.7-64.8v46.1l-0.3,0.1L501.4,448.5z M502.4,402v44.9l136-65V338L502.4,402z"/>
	</g>
	<g>
		<polygon class="st3" points="365.6,379.6 365.6,333.2 501.9,401.7 501.9,447.7 		"/>
		<path class="st1" d="M502.4,448.5l-0.7-0.4l-136.5-68.3v-47.5l137.2,69V448.5z M366.1,379.2l135.2,67.6V402l-135.2-68V379.2z"/>
	</g>
	<g>
		<polygon class="st3" points="595.1,311.9 638.9,337.2 501.9,401.7 365.6,333.2 412.2,309.9 504.7,355.9 		"/>
		<path class="st1" d="M501.9,402.2l-0.2-0.1l-137.1-68.9l47.7-23.9l92.5,46l90.4-43.9l0.2,0.1l44.6,25.7L501.9,402.2z M366.8,333.2
			l135.1,67.9l135.9-64l-42.7-24.6l-90.4,43.9l-0.2-0.1l-92.3-45.9L366.8,333.2z"/>
	</g>
	<g>
		<g>
			<polygon class="st0" points="779.4,171.7 779.4,267.7 686.9,308.7 686.9,262.7 735.4,239.7 735.4,193.2 			"/>
			<path class="st1" d="M686.4,309.5v-47.1l48.5-23v-46.5l45-22V268l-0.3,0.1L686.4,309.5z M687.4,263v44.9l91.5-40.6v-94.9l-43,21
				V240L687.4,263z"/>
		</g>
		<g>
			<polygon class="st0" points="641.3,239.7 641.8,285.9 686.9,308.7 686.9,262.7 			"/>
			<path class="st1" d="M687.4,309.5l-46.1-23.3l-0.5-47.3l46.6,23.5V309.5z M642.3,285.6l44.1,22.3V263l-44.6-22.5L642.3,285.6z"/>
		</g>
		<g>
			<polygon class="st0" points="735.4,239.7 642.9,194.2 642.9,147.4 735.4,193.2 			"/>
			<path class="st1" d="M735.9,240.5l-93.5-46v-47.9l93.5,46.2V240.5z M643.4,193.9l91.5,45v-45.4l-91.5-45.3V193.9z"/>
		</g>
		<g>
			<polygon class="st0" points="779.4,171.7 686.9,125.9 642.9,147.4 735.4,193.2 			"/>
			<path class="st1" d="M735.4,193.7l-0.2-0.1l-93.4-46.2l45.1-22.1l0.2,0.1l93.4,46.2L735.4,193.7z M644,147.4l91.4,45.2l42.9-20.9
				l-91.4-45.2L644,147.4z"/>
		</g>
		<g>
			<polygon class="st0" points="689.1,216.9 641.3,239.7 686.9,262.7 735.4,239.7 			"/>
			<path class="st1" d="M686.9,263.2l-46.7-23.6l49-23.3l0.2,0.1l47.2,23.2L686.9,263.2z M642.5,239.7l44.4,22.4l47.3-22.5
				l-45.1-22.2L642.5,239.7z"/>
		</g>
	</g>
	<g>
		<path class="st1" d="M424.8,306.4l-1.6-0.8l3.2-6.3l-2.1-1.1l0.7-1.3l5.8,3l-0.7,1.3l-2.1-1.1L424.8,306.4z"/>
		<path class="st1" d="M432.4,310.3l-4.4-2.3l3.9-7.6l4.4,2.3l-0.7,1.3l-2.8-1.4l-0.9,1.7l2.6,1.3l-0.7,1.3l-2.6-1.3l-1,2l2.8,1.4
			L432.4,310.3z"/>
		<path class="st1" d="M440.5,306.4c-0.6-0.3-1.2-0.3-1.8,0c-0.6,0.3-1.1,0.8-1.5,1.7c-0.9,1.7-0.7,2.9,0.6,3.5
			c0.5,0.3,1.3,0.5,2.2,0.6l-0.7,1.4c-0.8-0.1-1.5-0.3-2.3-0.7c-1.1-0.6-1.8-1.3-2-2.3c-0.2-1,0-2.1,0.6-3.3
			c0.4-0.8,0.9-1.4,1.5-1.9c0.6-0.4,1.2-0.7,1.9-0.7c0.7,0,1.4,0.1,2.1,0.5c0.7,0.4,1.4,0.9,2,1.7l-1.2,1c-0.2-0.3-0.4-0.5-0.7-0.8
			C441.1,306.7,440.8,306.5,440.5,306.4z"/>
		<path class="st1" d="M447.1,317.8l-1.6-0.8l1.7-3.3l-3-1.5l-1.7,3.3l-1.6-0.8l3.9-7.6l1.6,0.8l-1.5,3l3,1.5l1.5-3l1.6,0.8
			L447.1,317.8z"/>
		<path class="st1" d="M455.8,322.3l-2.1-1.1l-0.4-7.5l0,0c-0.5,1.1-0.8,1.8-1,2.2l-1.8,3.6l-1.4-0.7l3.9-7.6l2,1l0.4,7.4l0,0
			c0.5-1,0.8-1.7,1-2.1l1.9-3.6l1.5,0.7L455.8,322.3z"/>
		<path class="st1" d="M466.6,323c-0.6,1.3-1.5,2.1-2.4,2.4c-1,0.4-2,0.2-3.2-0.4c-1.2-0.6-1.9-1.4-2.2-2.4c-0.3-1-0.1-2.1,0.6-3.4
			c0.7-1.3,1.5-2.1,2.4-2.4c1-0.3,2-0.2,3.2,0.4c1.2,0.6,1.9,1.4,2.2,2.4C467.4,320.6,467.2,321.7,466.6,323z M461,320.1
			c-0.4,0.9-0.6,1.6-0.5,2.2c0.1,0.6,0.5,1.1,1.1,1.4c1.3,0.7,2.4,0.1,3.3-1.6c0.9-1.7,0.7-2.9-0.6-3.6c-0.6-0.3-1.2-0.4-1.8-0.1
			C461.9,318.7,461.4,319.3,461,320.1z"/>
		<path class="st1" d="M466.2,327.6l3.9-7.6l1.6,0.8l-3.2,6.3l3.1,1.6l-0.7,1.3L466.2,327.6z"/>
		<path class="st1" d="M481.1,330.4c-0.6,1.3-1.5,2.1-2.4,2.4c-1,0.4-2,0.2-3.2-0.4c-1.2-0.6-1.9-1.4-2.2-2.4
			c-0.3-1-0.1-2.1,0.6-3.4c0.7-1.3,1.5-2.1,2.4-2.4c1-0.3,2-0.2,3.2,0.4c1.2,0.6,1.9,1.4,2.2,2.4S481.7,329.2,481.1,330.4z
			 M475.5,327.6c-0.4,0.9-0.6,1.6-0.5,2.2c0.1,0.6,0.5,1.1,1.1,1.4c1.3,0.7,2.4,0.1,3.3-1.6c0.9-1.7,0.7-2.9-0.6-3.6
			c-0.6-0.3-1.2-0.4-1.8-0.1C476.5,326.2,476,326.7,475.5,327.6z"/>
		<path class="st1" d="M485.8,332.3l3,1.6l-2,4c-0.6-0.1-1.1-0.2-1.6-0.4c-0.5-0.2-0.9-0.4-1.4-0.6c-1.2-0.6-1.9-1.4-2.1-2.4
			s-0.1-2.1,0.6-3.4c0.6-1.2,1.5-2,2.5-2.3s2.2-0.2,3.5,0.5c0.8,0.4,1.5,0.9,2,1.6l-1.2,1c-0.4-0.6-0.9-1-1.5-1.3
			c-0.7-0.4-1.4-0.4-2-0.2c-0.7,0.3-1.2,0.8-1.6,1.6c-0.4,0.8-0.6,1.5-0.5,2.2s0.5,1.1,1.1,1.4c0.3,0.2,0.7,0.3,1.1,0.4l0.8-1.6
			l-1.4-0.7L485.8,332.3z"/>
		<path class="st1" d="M493.1,335.8l3.2-2.3l1.7,0.9l-4.9,3.4l-1.5,3l-1.6-0.8l1.5-2.9l-0.1-6l1.8,0.9L493.1,335.8z"/>
	</g>
	<g>
		<path class="st1" d="M276.1,262c-0.4,0.7-0.9,1.1-1.6,1.2c-0.7,0.1-1.5,0-2.4-0.5c-0.8-0.4-1.5-0.9-1.9-1.6l0.8-1.5
			c0.4,0.5,0.7,0.9,1.1,1.2c0.3,0.3,0.6,0.5,0.9,0.6c0.4,0.2,0.7,0.3,0.9,0.2c0.3,0,0.5-0.2,0.6-0.5c0.1-0.1,0.1-0.3,0.1-0.5
			c0-0.2-0.1-0.3-0.2-0.5s-0.3-0.5-0.7-1c-0.4-0.5-0.6-0.8-0.7-1.2c-0.1-0.3-0.2-0.7-0.2-1c0-0.3,0.1-0.7,0.3-1
			c0.3-0.7,0.8-1.1,1.5-1.2c0.7-0.2,1.4,0,2.2,0.4c0.4,0.2,0.8,0.4,1.1,0.7s0.6,0.6,0.9,1l-1.2,1c-0.3-0.4-0.6-0.7-0.8-0.9
			c-0.2-0.2-0.5-0.4-0.7-0.5c-0.3-0.2-0.6-0.2-0.8-0.1s-0.4,0.2-0.5,0.4c-0.1,0.1-0.1,0.3-0.1,0.4s0.1,0.3,0.2,0.5
			c0.1,0.2,0.3,0.5,0.8,1.1c0.5,0.7,0.9,1.3,0.9,1.8C276.4,261,276.3,261.5,276.1,262z"/>
		<path class="st1" d="M279.3,266.4l-1.6-0.8l3.2-6.3l-2.1-1.1l0.7-1.3l5.8,3l-0.7,1.3l-2.1-1.1L279.3,266.4z"/>
		<path class="st1" d="M285.7,265.9l-1.5,2.9l-1.6-0.8l3.9-7.6l2.2,1.1c1,0.5,1.7,1.1,2,1.7s0.3,1.3-0.1,2.1c-0.2,0.4-0.6,0.8-1,1
			s-0.9,0.3-1.5,0.3c0.3,2.3,0.4,3.8,0.5,4.5l-1.8-0.9l-0.3-3.9L285.7,265.9z M286.3,264.6l0.5,0.3c0.5,0.3,0.9,0.4,1.3,0.3
			c0.3,0,0.6-0.2,0.8-0.6c0.2-0.4,0.2-0.7,0-1c-0.2-0.3-0.5-0.6-1-0.8l-0.5-0.3L286.3,264.6z"/>
		<path class="st1" d="M294.3,274l0.4-2.1l-2.8-1.4l-1.5,1.5l-1.7-0.9l6.6-6.3l2,1l-1.2,9L294.3,274z M295,270.4
			c0.3-1.9,0.5-3,0.6-3.2c0-0.2,0.1-0.4,0.1-0.6c-0.3,0.4-1.2,1.3-2.7,2.8L295,270.4z"/>
		<path class="st1" d="M299.9,276.9l-1.6-0.8l3.2-6.3l-2.1-1.1l0.7-1.3l5.8,3l-0.7,1.3l-2.1-1.1L299.9,276.9z"/>
		<path class="st1" d="M307.6,280.8l-4.4-2.3l3.9-7.6l4.4,2.3l-0.7,1.3l-2.8-1.4l-0.9,1.7l2.6,1.3l-0.7,1.3l-2.6-1.3l-1,2l2.8,1.4
			L307.6,280.8z"/>
		<path class="st1" d="M314.2,278.9l3,1.6l-2,4c-0.6-0.1-1.1-0.2-1.6-0.4c-0.5-0.2-0.9-0.4-1.4-0.6c-1.2-0.6-1.9-1.4-2.1-2.4
			s-0.1-2.1,0.6-3.4c0.6-1.2,1.5-2,2.5-2.3c1.1-0.3,2.2-0.2,3.5,0.5c0.8,0.4,1.5,0.9,2,1.6l-1.2,1c-0.4-0.6-0.9-1-1.5-1.3
			c-0.7-0.4-1.4-0.4-2-0.2c-0.7,0.3-1.2,0.8-1.6,1.6c-0.4,0.8-0.6,1.5-0.5,2.2s0.5,1.1,1.1,1.4c0.3,0.2,0.7,0.3,1.1,0.4l0.8-1.6
			l-1.4-0.7L314.2,278.9z"/>
		<path class="st1" d="M321.6,282.4l3.2-2.3l1.7,0.9l-4.9,3.4l-1.5,3l-1.6-0.8l1.5-2.9l-0.1-6l1.8,0.9L321.6,282.4z"/>
	</g>
	<g>
		<path class="st1" d="M558.3,209.5c-0.6-0.3-1.2-0.3-1.8,0c-0.6,0.3-1.1,0.8-1.5,1.7c-0.9,1.7-0.7,2.9,0.6,3.5
			c0.5,0.3,1.3,0.5,2.2,0.6l-0.7,1.4c-0.8-0.1-1.5-0.3-2.3-0.7c-1.1-0.6-1.8-1.3-2-2.3c-0.2-1,0-2.1,0.6-3.3
			c0.4-0.8,0.9-1.4,1.5-1.9c0.6-0.4,1.2-0.7,1.9-0.7c0.7,0,1.4,0.1,2.1,0.5c0.7,0.4,1.4,0.9,2,1.7l-1.2,1c-0.2-0.3-0.4-0.5-0.7-0.8
			C558.9,209.8,558.6,209.6,558.3,209.5z"/>
		<path class="st1" d="M568.7,213.3l-2.5,4.9c-0.3,0.6-0.7,1-1.1,1.3c-0.5,0.3-1,0.4-1.6,0.4c-0.6,0-1.2-0.2-1.9-0.5
			c-1-0.5-1.6-1.1-1.9-1.9c-0.3-0.8-0.2-1.6,0.2-2.5l2.5-4.9l1.6,0.8l-2.4,4.7c-0.3,0.6-0.4,1.1-0.3,1.5c0.1,0.4,0.4,0.7,1,1
			c0.5,0.3,1,0.3,1.4,0.2s0.7-0.5,1-1.1l2.4-4.7L568.7,213.3z"/>
		<path class="st1" d="M566.7,221.8l3.9-7.6l1.6,0.8l-3.2,6.3l3.1,1.6l-0.7,1.3L566.7,221.8z"/>
		<path class="st1" d="M575.7,226.4l-1.6-0.8l3.2-6.3l-2.1-1.1l0.7-1.3l5.8,3l-0.7,1.3l-2.1-1.1L575.7,226.4z"/>
		<path class="st1" d="M589,223.7l-2.5,4.9c-0.3,0.6-0.7,1-1.1,1.3c-0.5,0.3-1,0.4-1.6,0.4c-0.6,0-1.2-0.2-1.9-0.5
			c-1-0.5-1.6-1.1-1.9-1.9c-0.3-0.8-0.2-1.6,0.2-2.5l2.5-4.9l1.6,0.8L582,226c-0.3,0.6-0.4,1.1-0.3,1.5c0.1,0.4,0.4,0.7,1,1
			c0.5,0.3,1,0.3,1.4,0.2s0.7-0.5,1-1.1l2.4-4.7L589,223.7z"/>
		<path class="st1" d="M590.1,230.2l-1.5,2.9l-1.6-0.8l3.9-7.6l2.2,1.1c1,0.5,1.7,1.1,2,1.7c0.3,0.6,0.3,1.3-0.1,2.1
			c-0.2,0.4-0.6,0.8-1,1s-0.9,0.3-1.5,0.3c0.3,2.3,0.4,3.8,0.5,4.5l-1.8-0.9l-0.3-3.9L590.1,230.2z M590.8,228.8l0.5,0.3
			c0.5,0.3,0.9,0.4,1.3,0.3c0.3,0,0.6-0.2,0.8-0.6c0.2-0.4,0.2-0.7,0-1c-0.2-0.3-0.5-0.6-1-0.8l-0.5-0.3L590.8,228.8z"/>
		<path class="st1" d="M598.4,238.1l-4.4-2.3l3.9-7.6l4.4,2.3l-0.7,1.3l-2.8-1.4l-0.9,1.7l2.6,1.3l-0.7,1.3l-2.6-1.3l-1,2l2.8,1.4
			L598.4,238.1z"/>
	</g>
	<g>
		<path class="st1" d="M476.1,48.2c-0.6,1.3-1.5,2-2.5,2.3c-1.1,0.3-2.3,0.1-3.6-0.6l-2.2-1.1l3.9-7.6l2.4,1.2
			c1.2,0.6,2,1.5,2.4,2.5C476.9,45.9,476.7,47,476.1,48.2z M474.4,47.4c0.8-1.6,0.5-2.8-0.9-3.6l-0.9-0.4l-2.5,5l0.7,0.4
			C472.4,49.5,473.6,49,474.4,47.4z"/>
		<path class="st1" d="M480.4,55.3l0.4-2.1l-2.8-1.4l-1.5,1.5l-1.7-0.9l6.6-6.3l2,1l-1.2,9L480.4,55.3z M481.1,51.6
			c0.3-1.9,0.5-3,0.6-3.2c0-0.2,0.1-0.4,0.1-0.6c-0.3,0.4-1.2,1.3-2.7,2.8L481.1,51.6z"/>
		<path class="st1" d="M486.1,58.2l-1.6-0.8l3.2-6.3l-2.1-1.1l0.7-1.3l5.8,3l-0.7,1.3l-2.1-1.1L486.1,58.2z"/>
		<path class="st1" d="M494,62.2l0.4-2.1l-2.8-1.4l-1.5,1.5l-1.7-0.9l6.6-6.3l2,1l-1.2,9L494,62.2z M494.6,58.6
			c0.3-1.9,0.5-3,0.6-3.2c0-0.2,0.1-0.4,0.1-0.6c-0.3,0.4-1.2,1.3-2.7,2.8L494.6,58.6z"/>
	</g>
	<g>
		<path class="st1" d="M651.4,186.1l3.9-7.6l1.6,0.8l-3.9,7.6L651.4,186.1z"/>
		<path class="st1" d="M661.6,191.4l-2.1-1.1l-0.4-7.5l0,0c-0.5,1.1-0.8,1.8-1,2.2l-1.8,3.6l-1.4-0.7l3.9-7.6l2,1l0.4,7.4l0,0
			c0.5-1,0.8-1.7,1-2.1l1.9-3.6l1.5,0.7L661.6,191.4z"/>
		<path class="st1" d="M670.3,195.8l-2.1-1.1l-0.4-7.5l0,0c-0.5,1.1-0.8,1.8-1,2.2l-1.8,3.6l-1.4-0.7l3.9-7.6l2,1l0.4,7.4l0,0
			c0.5-1,0.8-1.7,1-2.1l1.9-3.6l1.5,0.7L670.3,195.8z"/>
		<path class="st1" d="M681.1,196.5c-0.6,1.3-1.5,2.1-2.4,2.4c-1,0.4-2,0.2-3.2-0.4s-1.9-1.4-2.2-2.4c-0.3-1-0.1-2.1,0.6-3.4
			c0.7-1.3,1.5-2.1,2.4-2.4s2-0.2,3.2,0.4c1.2,0.6,1.9,1.4,2.2,2.4C682,194.1,681.8,195.3,681.1,196.5z M675.6,193.7
			c-0.4,0.9-0.6,1.6-0.5,2.2c0.1,0.6,0.5,1.1,1.1,1.4c1.3,0.7,2.4,0.1,3.3-1.6c0.9-1.7,0.7-2.9-0.6-3.6c-0.6-0.3-1.2-0.4-1.8-0.1
			C676.5,192.3,676,192.8,675.6,193.7z"/>
		<path class="st1" d="M689,195.8l1.6,0.8l-6.5,6.3l-1.8-0.9l1.3-8.9l1.6,0.8l-0.9,5.3c-0.1,0.3-0.1,0.7-0.2,1.1s-0.2,0.7-0.2,0.8
			c0.2-0.3,0.6-0.8,1.3-1.5L689,195.8z"/>
		<path class="st1" d="M692.4,207.1l0.4-2.1l-2.8-1.4l-1.5,1.5l-1.7-0.9l6.6-6.3l2,1l-1.2,9L692.4,207.1z M693.1,203.5
			c0.3-1.9,0.5-3,0.6-3.2c0-0.2,0.1-0.4,0.1-0.6c-0.3,0.4-1.2,1.3-2.7,2.8L693.1,203.5z"/>
		<path class="st1" d="M698,210l-1.6-0.8l3.2-6.3l-2.1-1.1l0.7-1.3l5.8,3l-0.7,1.3l-2.1-1.1L698,210z"/>
		<path class="st1" d="M701.3,211.7l3.9-7.6l1.6,0.8l-3.9,7.6L701.3,211.7z"/>
		<path class="st1" d="M713.7,213.2c-0.6,1.3-1.5,2.1-2.4,2.4c-1,0.4-2,0.2-3.2-0.4c-1.2-0.6-1.9-1.4-2.2-2.4
			c-0.3-1-0.1-2.1,0.6-3.4c0.7-1.3,1.5-2.1,2.4-2.4c1-0.3,2-0.2,3.2,0.4c1.2,0.6,1.9,1.4,2.2,2.4C714.5,210.8,714.3,212,713.7,213.2
			z M708.1,210.4c-0.4,0.9-0.6,1.6-0.5,2.2c0.1,0.6,0.5,1.1,1.1,1.4c1.3,0.7,2.4,0.1,3.3-1.6c0.9-1.7,0.7-2.9-0.6-3.6
			c-0.6-0.3-1.2-0.4-1.8-0.1C709,209,708.6,209.5,708.1,210.4z"/>
		<path class="st1" d="M720.1,221.3l-2.1-1.1l-0.4-7.5l0,0c-0.5,1.1-0.8,1.8-1,2.2l-1.8,3.6l-1.4-0.7l3.9-7.6l2,1l0.4,7.4l0,0
			c0.5-1,0.8-1.7,1-2.1l1.9-3.6l1.5,0.7L720.1,221.3z"/>
	</g>
	<g>
		<path class="st1" d="M681.4,149.7c-0.4,0.8-1,1.3-1.7,1.5s-1.6,0-2.5-0.5l-0.7-0.4L675,153l-1.6-0.8l3.9-7.6l2.4,1.2
			c0.9,0.5,1.5,1,1.8,1.7C681.8,148.2,681.8,148.9,681.4,149.7z M677.1,149l0.5,0.3c0.5,0.3,0.9,0.3,1.3,0.3s0.6-0.3,0.8-0.7
			c0.2-0.4,0.2-0.7,0.1-1c-0.1-0.3-0.4-0.5-0.8-0.8l-0.7-0.4L677.1,149z"/>
		<path class="st1" d="M683.2,153.6l-1.5,2.9l-1.6-0.8l3.9-7.6l2.2,1.1c1,0.5,1.7,1.1,2,1.7c0.3,0.6,0.3,1.3-0.1,2.1
			c-0.2,0.4-0.6,0.8-1,1s-0.9,0.3-1.5,0.3c0.3,2.3,0.4,3.8,0.5,4.5l-1.8-0.9l-0.3-3.9L683.2,153.6z M683.9,152.2l0.5,0.3
			c0.5,0.3,0.9,0.4,1.3,0.3c0.3,0,0.6-0.3,0.8-0.6c0.2-0.4,0.2-0.7,0-1c-0.2-0.3-0.5-0.6-1-0.8l-0.5-0.3L683.9,152.2z"/>
		<path class="st1" d="M696.1,159c-0.6,1.3-1.5,2.1-2.4,2.4c-1,0.4-2,0.2-3.2-0.4s-1.9-1.4-2.2-2.4c-0.3-1-0.1-2.1,0.6-3.4
			c0.7-1.3,1.5-2.1,2.4-2.4s2-0.2,3.2,0.4c1.2,0.6,1.9,1.4,2.2,2.4C696.9,156.6,696.7,157.7,696.1,159z M690.5,156.1
			c-0.4,0.9-0.6,1.6-0.5,2.2c0.1,0.6,0.5,1.1,1.1,1.4c1.3,0.7,2.4,0.1,3.3-1.6c0.9-1.7,0.7-2.9-0.6-3.6c-0.6-0.3-1.2-0.4-1.8-0.1
			C691.4,154.7,690.9,155.3,690.5,156.1z"/>
		<path class="st1" d="M702.2,158.9c-0.6-0.3-1.2-0.3-1.8,0c-0.6,0.3-1.1,0.8-1.5,1.7c-0.9,1.7-0.7,2.9,0.6,3.5
			c0.5,0.3,1.3,0.5,2.2,0.6L701,166c-0.8-0.1-1.5-0.3-2.3-0.7c-1.1-0.6-1.8-1.3-2-2.3c-0.2-1,0-2.1,0.6-3.3c0.4-0.8,0.9-1.4,1.5-1.9
			c0.6-0.4,1.2-0.7,1.9-0.7c0.7,0,1.4,0.1,2.1,0.5c0.7,0.4,1.4,0.9,2,1.7l-1.2,1c-0.2-0.3-0.4-0.5-0.7-0.8
			C702.7,159.2,702.5,159.1,702.2,158.9z"/>
		<path class="st1" d="M706.9,169.4l-4.4-2.3l3.9-7.6l4.4,2.3l-0.7,1.3l-2.8-1.4l-0.9,1.7l2.6,1.3l-0.7,1.3l-2.6-1.3l-1,2l2.8,1.4
			L706.9,169.4z"/>
		<path class="st1" d="M714.1,170.4c-0.4,0.7-0.9,1.1-1.6,1.2s-1.5,0-2.4-0.5c-0.8-0.4-1.5-0.9-1.9-1.6l0.8-1.5
			c0.4,0.5,0.7,0.9,1.1,1.2c0.3,0.3,0.6,0.5,0.9,0.6c0.4,0.2,0.7,0.3,0.9,0.2c0.3,0,0.5-0.2,0.6-0.5c0.1-0.1,0.1-0.3,0.1-0.5
			c0-0.2-0.1-0.3-0.2-0.5c-0.1-0.2-0.3-0.5-0.7-1c-0.4-0.5-0.6-0.8-0.7-1.2c-0.1-0.3-0.2-0.7-0.2-1c0-0.3,0.1-0.7,0.3-1
			c0.3-0.7,0.8-1.1,1.5-1.2c0.7-0.2,1.4,0,2.2,0.4c0.4,0.2,0.8,0.4,1.1,0.7c0.3,0.3,0.6,0.6,0.9,1l-1.2,1c-0.3-0.4-0.6-0.7-0.8-0.9
			c-0.2-0.2-0.5-0.4-0.7-0.5c-0.3-0.2-0.6-0.2-0.8-0.1s-0.4,0.2-0.5,0.4c-0.1,0.1-0.1,0.3-0.1,0.4c0,0.1,0.1,0.3,0.2,0.5
			c0.1,0.2,0.3,0.5,0.8,1.1c0.5,0.7,0.9,1.3,0.9,1.8C714.4,169.4,714.3,169.9,714.1,170.4z"/>
		<path class="st1" d="M719.9,173.4c-0.4,0.7-0.9,1.1-1.6,1.2s-1.5,0-2.4-0.5c-0.8-0.4-1.5-0.9-1.9-1.6l0.8-1.5
			c0.4,0.5,0.7,0.9,1.1,1.2c0.3,0.3,0.6,0.5,0.9,0.6c0.4,0.2,0.7,0.3,0.9,0.2c0.3,0,0.5-0.2,0.6-0.5c0.1-0.1,0.1-0.3,0.1-0.5
			c0-0.2-0.1-0.3-0.2-0.5c-0.1-0.2-0.3-0.5-0.7-1c-0.4-0.5-0.6-0.8-0.7-1.2c-0.1-0.3-0.2-0.7-0.2-1c0-0.3,0.1-0.7,0.3-1
			c0.3-0.7,0.8-1.1,1.5-1.2c0.7-0.2,1.4,0,2.2,0.4c0.4,0.2,0.8,0.4,1.1,0.7c0.3,0.3,0.6,0.6,0.9,1l-1.2,1c-0.3-0.4-0.6-0.7-0.8-0.9
			c-0.2-0.2-0.5-0.4-0.7-0.5c-0.3-0.2-0.6-0.2-0.8-0.1s-0.4,0.2-0.5,0.4c-0.1,0.1-0.1,0.3-0.1,0.4c0,0.1,0.1,0.3,0.2,0.5
			c0.1,0.2,0.3,0.5,0.8,1.1c0.5,0.7,0.9,1.3,0.9,1.8C720.3,172.4,720.2,172.9,719.9,173.4z"/>
		<path class="st1" d="M730.1,181.3l-2-1l-0.3-0.9c-0.9,0.1-1.8,0-2.6-0.5c-0.8-0.4-1.4-1-1.7-1.6c-0.3-0.6-0.3-1.3,0.1-2
			c0.2-0.5,0.6-0.8,0.9-1.1s0.9-0.4,1.6-0.4c-0.1-0.4-0.2-0.8-0.1-1.1c0-0.3,0.1-0.7,0.3-1c0.3-0.5,0.7-0.9,1.3-1
			c0.6-0.1,1.2,0,1.9,0.3c0.6,0.3,1.1,0.7,1.3,1.2s0.2,1,0,1.5c-0.2,0.4-0.5,0.7-0.9,0.9c-0.4,0.2-1,0.3-1.7,0.4l0.7,2.2
			c0.5-0.3,0.9-0.7,1.4-1.2l1.7,0.9c-0.4,0.4-0.8,0.8-1.2,1.1c-0.4,0.3-0.9,0.6-1.4,0.8L730.1,181.3z M725.3,176
			c-0.2,0.3-0.2,0.6,0,0.9c0.1,0.3,0.4,0.5,0.7,0.7c0.4,0.2,0.9,0.3,1.3,0.3l-0.8-2.6c-0.3,0-0.5,0.1-0.7,0.2
			C725.6,175.6,725.4,175.8,725.3,176z M729.1,173.3c0.1-0.2,0.1-0.4,0-0.5c-0.1-0.2-0.2-0.3-0.4-0.4c-0.2-0.1-0.4-0.2-0.6-0.1
			c-0.2,0-0.3,0.2-0.4,0.4c-0.2,0.3-0.2,0.7,0,1.3c0.4,0,0.7-0.1,0.9-0.1C728.8,173.7,729,173.5,729.1,173.3z"/>
	</g>
	<g>
		<path class="st1" d="M434.8,395.9c-0.6-0.3-1.2-0.3-1.8,0c-0.6,0.3-1.1,0.8-1.5,1.7c-0.9,1.7-0.7,2.9,0.6,3.5
			c0.5,0.3,1.3,0.5,2.2,0.6l-0.7,1.4c-0.8-0.1-1.5-0.3-2.3-0.7c-1.1-0.6-1.8-1.3-2-2.3c-0.2-1,0-2.1,0.6-3.3
			c0.4-0.8,0.9-1.4,1.5-1.9c0.6-0.4,1.2-0.7,1.9-0.7c0.7,0,1.4,0.1,2.1,0.5c0.7,0.4,1.4,0.9,2,1.7l-1.2,1c-0.2-0.3-0.4-0.5-0.7-0.8
			C435.3,396.3,435,396.1,434.8,395.9z"/>
		<path class="st1" d="M445.2,399.7l-2.5,4.9c-0.3,0.6-0.7,1-1.1,1.3s-1,0.4-1.6,0.4c-0.6,0-1.2-0.2-1.9-0.5c-1-0.5-1.6-1.1-1.9-1.9
			c-0.3-0.8-0.2-1.6,0.2-2.5l2.5-4.9l1.6,0.8l-2.4,4.7c-0.3,0.6-0.4,1.1-0.3,1.5s0.4,0.7,1,1c0.5,0.3,1,0.3,1.4,0.2
			c0.4-0.2,0.7-0.5,1-1.1l2.4-4.7L445.2,399.7z"/>
		<path class="st1" d="M448.7,408.5c-0.4,0.7-0.9,1.1-1.6,1.2c-0.7,0.1-1.5,0-2.4-0.5c-0.8-0.4-1.5-0.9-1.9-1.6l0.8-1.5
			c0.4,0.5,0.7,0.9,1.1,1.2c0.3,0.3,0.6,0.5,0.9,0.6c0.4,0.2,0.7,0.3,0.9,0.2c0.3,0,0.5-0.2,0.6-0.5c0.1-0.1,0.1-0.3,0.1-0.5
			c0-0.2-0.1-0.3-0.2-0.5s-0.3-0.5-0.7-1c-0.4-0.5-0.6-0.8-0.7-1.2c-0.1-0.3-0.2-0.7-0.2-1c0-0.3,0.1-0.7,0.3-1
			c0.3-0.7,0.8-1.1,1.5-1.2c0.7-0.2,1.4,0,2.2,0.4c0.4,0.2,0.8,0.4,1.1,0.7c0.3,0.3,0.6,0.6,0.9,1l-1.2,1c-0.3-0.4-0.6-0.7-0.8-0.9
			c-0.2-0.2-0.5-0.4-0.7-0.5c-0.3-0.2-0.6-0.2-0.8-0.1s-0.4,0.2-0.5,0.4c-0.1,0.1-0.1,0.3-0.1,0.4s0.1,0.3,0.2,0.5
			c0.1,0.2,0.3,0.5,0.8,1.1c0.5,0.7,0.9,1.3,0.9,1.8C449,407.5,449,408,448.7,408.5z"/>
		<path class="st1" d="M451.9,412.8l-1.6-0.8l3.2-6.3l-2.1-1.1l0.7-1.3l5.8,3l-0.7,1.3l-2.1-1.1L451.9,412.8z"/>
		<path class="st1" d="M464.1,414.2c-0.6,1.3-1.5,2.1-2.4,2.4c-1,0.4-2,0.2-3.2-0.4c-1.2-0.6-1.9-1.4-2.2-2.4
			c-0.3-1-0.1-2.1,0.6-3.4c0.7-1.3,1.5-2.1,2.4-2.4c1-0.3,2-0.2,3.2,0.4c1.2,0.6,1.9,1.4,2.2,2.4
			C464.9,411.8,464.7,412.9,464.1,414.2z M458.5,411.4c-0.4,0.9-0.6,1.6-0.5,2.2c0.1,0.6,0.5,1.1,1.1,1.4c1.3,0.7,2.4,0.1,3.3-1.6
			c0.9-1.7,0.7-2.9-0.6-3.6c-0.6-0.3-1.2-0.4-1.8-0.1C459.4,409.9,458.9,410.5,458.5,411.4z"/>
		<path class="st1" d="M466.9,420.5l1.2-6.9l0,0c-0.6,1.2-0.9,2.1-1.2,2.5l-1.8,3.5l-1.4-0.7l3.9-7.6l2.2,1.1l-1.2,6.8l0,0l4.9-4.8
			l2.2,1.1l-3.9,7.6l-1.5-0.8l1.9-3.6c0.1-0.2,0.2-0.4,0.3-0.6s0.4-0.8,1-1.7l0,0l-5,5L466.9,420.5z"/>
		<path class="st1" d="M478.2,426.3l-4.4-2.3l3.9-7.6l4.4,2.3l-0.7,1.3l-2.8-1.4l-0.9,1.7l2.6,1.3l-0.7,1.3l-2.6-1.3l-1,2l2.8,1.4
			L478.2,426.3z"/>
		<path class="st1" d="M482.9,425l-1.5,2.9l-1.6-0.8l3.9-7.6l2.2,1.1c1,0.5,1.7,1.1,2,1.7c0.3,0.6,0.3,1.3-0.1,2.1
			c-0.2,0.4-0.6,0.8-1,1s-0.9,0.3-1.5,0.3c0.3,2.3,0.4,3.8,0.5,4.5l-1.8-0.9l-0.3-3.9L482.9,425z M483.5,423.7l0.5,0.3
			c0.5,0.3,0.9,0.4,1.3,0.3c0.3,0,0.6-0.3,0.8-0.6c0.2-0.4,0.2-0.7,0-1c-0.2-0.3-0.5-0.6-1-0.8l-0.5-0.3L483.5,423.7z"/>
	</g>
	<g>
		<path class="st1" d="M525.6,427.4l-4.4,2.2l-3.8-7.7l4.4-2.2l0.7,1.3l-2.8,1.4l0.8,1.7l2.6-1.3l0.7,1.3l-2.6,1.3l1,2l2.8-1.4
			L525.6,427.4z"/>
		<path class="st1" d="M534,423.2l-2.1,1l-6.2-4.2l0,0c0.6,1,1,1.7,1.2,2.1l1.8,3.6l-1.5,0.7l-3.8-7.7l2.1-1l6.2,4.1l0,0
			c-0.5-1-0.9-1.7-1.1-2.1l-1.8-3.6l1.5-0.7L534,423.2z"/>
		<path class="st1" d="M536.8,416.5l3-1.5l2,4c-0.4,0.4-0.8,0.7-1.2,1c-0.4,0.3-0.8,0.5-1.3,0.8c-1.2,0.6-2.2,0.7-3.2,0.3
			c-0.9-0.4-1.7-1.2-2.4-2.5c-0.6-1.2-0.7-2.4-0.4-3.4c0.4-1,1.2-1.9,2.4-2.5c0.8-0.4,1.6-0.6,2.5-0.7l0.1,1.6c-0.7,0-1.3,0.1-2,0.4
			c-0.7,0.3-1.2,0.9-1.3,1.5c-0.2,0.7-0.1,1.4,0.3,2.2c0.4,0.8,0.9,1.4,1.5,1.7s1.2,0.2,1.8-0.1c0.3-0.2,0.7-0.4,1-0.6l-0.8-1.6
			l-1.5,0.7L536.8,416.5z"/>
		<path class="st1" d="M548.5,416.1l-1.5-1.6l-2.8,1.4l0.3,2.1l-1.8,0.9l-1.1-9l2-1l6.5,6.4L548.5,416.1z M545.9,413.4
			c-1.3-1.4-2.1-2.2-2.3-2.4c-0.2-0.2-0.3-0.3-0.4-0.4c0.1,0.5,0.3,1.8,0.7,3.8L545.9,413.4z"/>
		<path class="st1" d="M552,409l3-1.5l2,4c-0.4,0.4-0.8,0.7-1.2,1s-0.8,0.5-1.3,0.8c-1.2,0.6-2.2,0.7-3.2,0.3
			c-0.9-0.4-1.7-1.2-2.4-2.5c-0.6-1.2-0.7-2.4-0.4-3.4c0.4-1,1.2-1.9,2.4-2.5c0.8-0.4,1.6-0.6,2.5-0.7l0.1,1.6c-0.7,0-1.4,0.1-2,0.4
			c-0.7,0.3-1.2,0.9-1.3,1.5c-0.2,0.7-0.1,1.4,0.3,2.2c0.4,0.8,0.9,1.4,1.5,1.7c0.6,0.3,1.2,0.2,1.8-0.1c0.3-0.2,0.7-0.4,1-0.6
			l-0.8-1.6l-1.5,0.7L552,409z"/>
		<path class="st1" d="M563.4,408.7l-4.4,2.2l-3.8-7.7l4.4-2.2l0.7,1.3l-2.8,1.4l0.8,1.7l2.6-1.3l0.7,1.3l-2.6,1.3l1,2l2.8-1.4
			L563.4,408.7z"/>
		<path class="st1" d="M568.2,406.3l-4.8-5.1l0,0c0.7,1.2,1.1,2,1.3,2.4l1.8,3.6l-1.5,0.7l-3.8-7.7l2.2-1.1l4.7,5l0,0l-1-6.8
			l2.2-1.1l3.8,7.7l-1.5,0.8l-1.8-3.6c-0.1-0.2-0.2-0.4-0.3-0.6s-0.4-0.8-0.8-1.8l0,0l1,7L568.2,406.3z"/>
		<path class="st1" d="M579.6,400.7l-4.4,2.2l-3.8-7.7l4.4-2.2l0.7,1.3l-2.8,1.4l0.8,1.7l2.6-1.3l0.7,1.3l-2.6,1.3l1,2l2.8-1.4
			L579.6,400.7z"/>
		<path class="st1" d="M588,396.5l-2.1,1l-6.2-4.2l0,0c0.6,1,1,1.7,1.2,2.1l1.8,3.6l-1.5,0.7l-3.8-7.7l2.1-1l6.2,4.1l0,0
			c-0.5-1-0.9-1.7-1.1-2.1l-1.8-3.6l1.5-0.7L588,396.5z"/>
		<path class="st1" d="M592.9,394.1l-1.6,0.8l-3.1-6.3l-2.1,1l-0.7-1.4l5.8-2.9l0.7,1.4l-2.1,1L592.9,394.1z"/>
	</g>
	<g>
		<path class="st1" d="M511.5,61.9l-1.5-1.6l-2.8,1.4l0.3,2.1l-1.8,0.9l-1.1-9.1l2-1l6.5,6.4L511.5,61.9z M509,59.2
			c-1.3-1.4-2.1-2.2-2.3-2.4c-0.2-0.2-0.3-0.3-0.4-0.4c0.1,0.5,0.3,1.8,0.7,3.8L509,59.2z"/>
		<path class="st1" d="M521,57.2l-2.1,1l-6.2-4.2l0,0c0.6,1,1,1.7,1.2,2.1l1.8,3.6l-1.5,0.7l-3.8-7.7l2.1-1l6.2,4.1l0,0
			c-0.5-1-0.9-1.7-1.1-2.1l-1.8-3.6l1.5-0.7L521,57.2z"/>
		<path class="st1" d="M527.7,53.9l-1.5-1.6l-2.8,1.4l0.3,2.1l-1.8,0.9l-1.1-9.1l2-1l6.5,6.4L527.7,53.9z M525.2,51.2
			c-1.3-1.4-2.1-2.2-2.3-2.4c-0.2-0.2-0.3-0.3-0.4-0.4c0.1,0.5,0.3,1.8,0.7,3.8L525.2,51.2z"/>
		<path class="st1" d="M530.4,52.5l-3.8-7.7l1.6-0.8l3.1,6.3l3.1-1.5l0.7,1.3L530.4,52.5z"/>
		<path class="st1" d="M536.7,43.8l0-4l1.8-0.9l-0.2,6l1.5,3l-1.6,0.8l-1.5-2.9l-4.9-3.5l1.8-0.9L536.7,43.8z"/>
		<path class="st1" d="M546.2,44.7l-1.6,0.8l-3.1-6.3l-2.1,1l-0.7-1.4l5.8-2.9l0.7,1.4l-2.1,1L546.2,44.7z"/>
		<path class="st1" d="M549.4,43.1l-3.8-7.7l1.6-0.8l3.8,7.7L549.4,43.1z"/>
		<path class="st1" d="M553.1,33.3c-0.6,0.3-1,0.8-1.1,1.4c-0.1,0.6,0,1.4,0.4,2.2c0.8,1.7,1.9,2.2,3.2,1.6c0.5-0.3,1.1-0.7,1.8-1.4
			l0.7,1.4c-0.5,0.6-1.1,1.1-1.9,1.4c-1.1,0.6-2.1,0.6-3.1,0.3s-1.7-1.2-2.3-2.5c-0.4-0.8-0.6-1.6-0.6-2.3c0-0.7,0.2-1.4,0.6-2
			c0.4-0.6,0.9-1.1,1.7-1.4c0.7-0.4,1.6-0.6,2.5-0.6L555,33c-0.4,0-0.7,0-1,0.1C553.7,33.1,553.3,33.2,553.1,33.3z"/>
		<path class="st1" d="M563.3,33.6c0.3,0.7,0.4,1.4,0.1,2s-0.9,1.2-1.8,1.6c-0.8,0.4-1.6,0.6-2.4,0.6l-0.7-1.5
			c0.6,0,1.2-0.1,1.6-0.2c0.4-0.1,0.8-0.2,1.1-0.3c0.4-0.2,0.6-0.4,0.7-0.6c0.1-0.2,0.1-0.5,0-0.8c-0.1-0.2-0.2-0.3-0.3-0.3
			c-0.1-0.1-0.3-0.1-0.5-0.2c-0.2,0-0.6,0-1.3,0c-0.6,0-1,0-1.4-0.1c-0.3-0.1-0.6-0.2-0.9-0.4c-0.3-0.2-0.5-0.5-0.7-0.8
			c-0.3-0.7-0.4-1.3-0.1-1.9c0.3-0.6,0.8-1.1,1.6-1.5c0.4-0.2,0.8-0.3,1.2-0.4c0.4-0.1,0.9-0.1,1.3-0.2l0.1,1.5
			c-0.5,0-0.9,0.1-1.2,0.2c-0.3,0.1-0.6,0.2-0.8,0.3c-0.3,0.2-0.5,0.3-0.6,0.6c-0.1,0.2-0.1,0.5,0,0.7c0.1,0.1,0.2,0.3,0.3,0.3
			c0.1,0.1,0.3,0.1,0.5,0.2c0.2,0,0.6,0,1.3,0c0.9,0,1.5,0.1,2,0.3C562.7,32.7,563.1,33.1,563.3,33.6z"/>
	</g>
	<g>
		<path class="st4" d="M580.6,392.4"/>
	</g>
	<g>
		<polygon class="st2" points="87.9,35.9 37.3,60.7 86.7,86.2 136.9,61.1 		"/>
		<path class="st1" d="M86.7,86.7L36.1,60.7l51.7-25.3L138,61.1L86.7,86.7z M38.4,60.7l48.3,24.9l49.1-24.6L87.9,36.5L38.4,60.7z"/>
	</g>
	<g>
		<polygon class="st5" points="86.7,61.1 112.1,48.9 87.9,35.9 62.2,48.5 		"/>
		<path class="st1" d="M86.7,61.6L61.1,48.5l26.8-13.1L113.2,49L86.7,61.6z M63.3,48.5l23.4,12L111,48.9L87.9,36.5L63.3,48.5z"/>
	</g>
	<g>
		<polygon class="st0" points="86.7,86.2 161.2,48.9 161.2,101.4 86.7,136.4 		"/>
		<path class="st1" d="M86.2,137.2V85.9l75.5-37.8v53.6l-0.3,0.1L86.2,137.2z M87.2,86.5v49.1l73.5-34.6V49.7L87.2,86.5z"/>
	</g>
	<g>
		<polygon class="st0" points="12.6,99.2 12.6,47.9 86.7,86.2 86.7,136.4 		"/>
		<path class="st1" d="M87.2,137.2L12.1,99.5V47.1l75.1,38.8V137.2z M13.1,98.9l73.1,36.7V86.5L13.1,48.8V98.9z"/>
	</g>
	<g>
		<polygon class="st3" points="86.7,161.4 86.7,136.4 161.2,101.4 161.2,125.8 		"/>
		<path class="st1" d="M86.2,162.2v-26.1l0.3-0.1l75.2-35.4v25.6l-0.3,0.1L86.2,162.2z M87.2,136.7v23.9l73.5-35.1v-23.4L87.2,136.7
			z"/>
	</g>
	<g>
		<polygon class="st3" points="12.6,124.4 12.6,99.2 86.7,136.4 86.7,161.4 		"/>
		<path class="st1" d="M87.2,162.2l-75.1-37.5V98.4l75.1,37.7V162.2z M13.1,124.1l73.1,36.5v-23.9L13.1,100V124.1z"/>
	</g>
	<g>
		<polygon class="st0" points="12.6,47.9 87.2,13.9 161.2,48.9 135.6,61.4 87.9,35.9 37.3,60.7 		"/>
		<path class="st1" d="M135.6,62L87.9,36.5L37.3,61.2L11.5,47.9l75.7-34.5l0.2,0.1l74.9,35.4L135.6,62z M87.9,35.4l0.2,0.1
			l47.5,25.4L160,48.9L87.2,14.5L13.8,48l23.5,12.1L87.9,35.4z"/>
	</g>
	<g>
		<polygon class="st0" points="87.9,35.9 110.2,24.8 87.2,13.9 64.9,24.1 		"/>
		<path class="st1" d="M87.9,36.5L63.8,24l23.4-10.7l24.2,11.4L87.9,36.5z M66.1,24.1l21.8,11.3L109,24.8L87.2,14.5L66.1,24.1z"/>
	</g>
	<g>
		<polygon class="st2" points="37.3,60.7 37.3,86.2 61.8,99.4 61.8,123.9 86.8,136.4 86.8,86.2 		"/>
		<path class="st1" d="M87.3,137.2l-26-13V99.7L36.8,86.5V59.8l50.5,26V137.2z M62.3,123.6l24,12V86.5l-48.5-25v24.4l24.5,13.2
			V123.6z"/>
	</g>
	<g>
		<polygon class="st2" points="135.5,62 135.5,87.6 111.7,100.2 111.7,124.7 86.7,136.4 86.7,86.2 		"/>
		<path class="st1" d="M86.2,137.2V85.9L136,61.2v26.6l-23.8,12.6V125L86.2,137.2z M87.2,86.5v49.1l24-11.3V99.9L135,87.3V62.8
			L87.2,86.5z"/>
	</g>
	<g>
		<g>
			<rect x="480.9" y="175.7" class="st6" width="1" height="35.3"/>
		</g>
		<g>
			<polygon class="st6" points="481.4,211.4 486.3,204 476.5,204 			"/>
		</g>
	</g>
	<g>
		<g>
			
				<rect x="559.8" y="257.8" transform="matrix(0.7972 -0.6037 0.6037 0.7972 -40.028 397.3674)" class="st6" width="23.1" height="1"/>
		</g>
		<g>
			<polygon class="st6" points="561.9,265.4 570.7,264.9 564.8,257.1 			"/>
		</g>
	</g>
	<g>
		<g>
			<rect x="369.7" y="224.2" class="st6" width="35.3" height="1"/>
		</g>
		<g>
			<polygon class="st6" points="405.4,224.7 398,219.8 398,229.6 			"/>
		</g>
	</g>
	<g>
		<g>
			<rect x="597" y="296.9" class="st6" width="35.3" height="1"/>
		</g>
		<g>
			<polygon class="st6" points="596.6,297.4 604,302.2 604,292.5 			"/>
		</g>
	</g>
</g>
<g>
	<path class="st6" d="M70.6,190.3c0,2.4-0.6,4.2-1.9,5.4s-3.1,1.9-5.5,1.9h-4v-14.3h4.4c2.2,0,3.9,0.6,5.2,1.8
		S70.6,188.1,70.6,190.3z M68.8,190.3c0-1.9-0.5-3.3-1.4-4.2s-2.3-1.4-4.2-1.4h-2.4v11.4h2c2,0,3.5-0.5,4.5-1.5
		S68.8,192.2,68.8,190.3z"/>
	<path class="st6" d="M73.4,184c0-0.4,0.1-0.6,0.3-0.8s0.4-0.3,0.7-0.3c0.3,0,0.5,0.1,0.7,0.3s0.3,0.4,0.3,0.8s-0.1,0.6-0.3,0.8
		s-0.4,0.3-0.7,0.3c-0.3,0-0.5-0.1-0.7-0.3S73.4,184.3,73.4,184z M75.2,197.6h-1.6v-10.7h1.6V197.6z"/>
	<path class="st6" d="M87.4,186.9v1l-2,0.2c0.2,0.2,0.3,0.5,0.5,0.9s0.2,0.8,0.2,1.2c0,1-0.4,1.9-1.1,2.5s-1.7,0.9-2.9,0.9
		c-0.3,0-0.6,0-0.9-0.1c-0.7,0.4-1,0.8-1,1.4c0,0.3,0.1,0.5,0.4,0.6s0.7,0.2,1.2,0.2h1.9c1.2,0,2,0.2,2.7,0.7s0.9,1.2,0.9,2.1
		c0,1.2-0.5,2.1-1.4,2.7s-2.3,0.9-4.2,0.9c-1.4,0-2.5-0.3-3.2-0.8s-1.1-1.3-1.1-2.2c0-0.7,0.2-1.2,0.6-1.7s1-0.8,1.8-1
		c-0.3-0.1-0.5-0.3-0.7-0.6s-0.3-0.6-0.3-0.9c0-0.4,0.1-0.7,0.3-1s0.5-0.6,1-0.8c-0.6-0.2-1-0.6-1.4-1.2s-0.5-1.2-0.5-1.9
		c0-1.2,0.4-2.1,1.1-2.7s1.7-1,3-1c0.6,0,1.1,0.1,1.5,0.2H87.4z M78.8,199.4c0,0.6,0.2,1,0.7,1.3s1.2,0.4,2.1,0.4
		c1.4,0,2.4-0.2,3-0.6s1-1,1-1.7c0-0.6-0.2-1-0.5-1.2s-1-0.3-2-0.3h-1.9c-0.7,0-1.3,0.2-1.7,0.5S78.8,198.7,78.8,199.4z M79.7,190.3
		c0,0.7,0.2,1.3,0.6,1.7s1,0.6,1.8,0.6c1.6,0,2.4-0.8,2.4-2.3c0-1.6-0.8-2.4-2.4-2.4c-0.8,0-1.3,0.2-1.8,0.6S79.7,189.5,79.7,190.3z
		"/>
	<path class="st6" d="M89.4,184c0-0.4,0.1-0.6,0.3-0.8s0.4-0.3,0.7-0.3c0.3,0,0.5,0.1,0.7,0.3s0.3,0.4,0.3,0.8s-0.1,0.6-0.3,0.8
		s-0.4,0.3-0.7,0.3c-0.3,0-0.5-0.1-0.7-0.3S89.4,184.3,89.4,184z M91.2,197.6h-1.6v-10.7h1.6V197.6z"/>
	<path class="st6" d="M98.1,196.4c0.3,0,0.6,0,0.8-0.1s0.5-0.1,0.6-0.1v1.2c-0.2,0.1-0.4,0.2-0.8,0.2s-0.6,0.1-0.9,0.1
		c-2.1,0-3.1-1.1-3.1-3.3v-6.4h-1.5v-0.8l1.5-0.7l0.7-2.3h0.9v2.5h3.1v1.3h-3.1v6.3c0,0.6,0.2,1.1,0.5,1.5S97.5,196.4,98.1,196.4z"
		/>
	<path class="st6" d="M108.3,197.6l-0.3-1.5h-0.1c-0.5,0.7-1.1,1.1-1.6,1.4s-1.2,0.4-2,0.4c-1.1,0-1.9-0.3-2.5-0.8s-0.9-1.3-0.9-2.3
		c0-2.2,1.7-3.3,5.2-3.4l1.8-0.1v-0.7c0-0.8-0.2-1.5-0.5-1.9s-0.9-0.6-1.7-0.6c-0.9,0-1.9,0.3-3,0.8l-0.5-1.2
		c0.5-0.3,1.1-0.5,1.7-0.7s1.3-0.2,1.9-0.2c1.3,0,2.2,0.3,2.8,0.8s0.9,1.5,0.9,2.7v7.3H108.3z M104.6,196.4c1,0,1.8-0.3,2.4-0.8
		s0.9-1.3,0.9-2.3v-1l-1.6,0.1c-1.3,0-2.2,0.2-2.8,0.6s-0.9,0.9-0.9,1.7c0,0.6,0.2,1,0.5,1.3S104,196.4,104.6,196.4z"/>
	<path class="st6" d="M114.4,197.6h-1.6v-15.2h1.6V197.6z"/>
	<path class="st6" d="M20.3,224.6h-1.7v-12.8h-4.5v-1.5h10.7v1.5h-4.5V224.6z"/>
	<path class="st6" d="M31.7,213.7c0.5,0,0.9,0,1.3,0.1l-0.2,1.5c-0.4-0.1-0.8-0.1-1.2-0.1c-0.9,0-1.6,0.4-2.2,1.1s-0.9,1.6-0.9,2.6
		v5.7h-1.6v-10.7h1.3l0.2,2h0.1c0.4-0.7,0.9-1.2,1.4-1.6S31,213.7,31.7,213.7z"/>
	<path class="st6" d="M41.5,224.6l-0.3-1.5h-0.1c-0.5,0.7-1.1,1.1-1.6,1.4s-1.2,0.4-2,0.4c-1.1,0-1.9-0.3-2.5-0.8s-0.9-1.3-0.9-2.3
		c0-2.2,1.7-3.3,5.2-3.4l1.8-0.1v-0.7c0-0.8-0.2-1.5-0.5-1.9s-0.9-0.6-1.7-0.6c-0.9,0-1.9,0.3-3,0.8l-0.5-1.2
		c0.5-0.3,1.1-0.5,1.7-0.7s1.3-0.2,1.9-0.2c1.3,0,2.2,0.3,2.8,0.8s0.9,1.5,0.9,2.7v7.3H41.5z M37.9,223.4c1,0,1.8-0.3,2.4-0.8
		s0.9-1.3,0.9-2.3v-1l-1.6,0.1c-1.3,0-2.2,0.2-2.8,0.6s-0.9,0.9-0.9,1.7c0,0.6,0.2,1,0.5,1.3S37.2,223.4,37.9,223.4z"/>
	<path class="st6" d="M53.4,224.6v-6.9c0-0.9-0.2-1.5-0.6-2s-1-0.6-1.9-0.6c-1.1,0-1.9,0.3-2.5,0.9s-0.8,1.6-0.8,3v5.6h-1.6v-10.7
		h1.3l0.3,1.5h0.1c0.3-0.5,0.8-0.9,1.4-1.2s1.3-0.4,2-0.4c1.3,0,2.3,0.3,2.9,0.9s1,1.6,1,3v7H53.4z"/>
	<path class="st6" d="M65.2,221.6c0,1-0.4,1.8-1.1,2.3s-1.8,0.8-3.1,0.8c-1.4,0-2.5-0.2-3.3-0.7v-1.5c0.5,0.3,1.1,0.5,1.7,0.6
		s1.2,0.2,1.7,0.2c0.8,0,1.5-0.1,2-0.4s0.7-0.7,0.7-1.2c0-0.4-0.2-0.8-0.5-1.1s-1.1-0.6-2.1-1c-1-0.4-1.7-0.7-2.1-1
		s-0.7-0.6-0.9-0.9s-0.3-0.8-0.3-1.3c0-0.9,0.4-1.6,1.1-2.1s1.7-0.8,2.9-0.8c1.2,0,2.3,0.2,3.4,0.7l-0.6,1.3c-1.1-0.4-2-0.7-2.9-0.7
		c-0.8,0-1.3,0.1-1.7,0.4s-0.6,0.6-0.6,1c0,0.3,0.1,0.5,0.2,0.7s0.4,0.4,0.7,0.6s1,0.4,1.9,0.8c1.3,0.5,2.1,0.9,2.6,1.4
		S65.2,220.9,65.2,221.6z"/>
	<path class="st6" d="M72.7,215.1H70v9.4h-1.6v-9.4h-1.9v-0.7l1.9-0.6v-0.6c0-2.6,1.1-3.9,3.4-3.9c0.6,0,1.2,0.1,2,0.3l-0.4,1.3
		c-0.6-0.2-1.2-0.3-1.6-0.3c-0.6,0-1.1,0.2-1.4,0.6s-0.4,1.1-0.4,2v0.7h2.7V215.1z"/>
	<path class="st6" d="M83.9,219.2c0,1.7-0.4,3.1-1.3,4.1s-2.1,1.5-3.6,1.5c-1,0-1.8-0.2-2.5-0.7s-1.3-1.1-1.7-1.9s-0.6-1.8-0.6-2.9
		c0-1.7,0.4-3.1,1.3-4.1s2.1-1.5,3.6-1.5c1.5,0,2.7,0.5,3.6,1.5S83.9,217.5,83.9,219.2z M75.7,219.2c0,1.4,0.3,2.4,0.8,3.1
		s1.4,1.1,2.4,1.1s1.9-0.4,2.4-1.1s0.8-1.8,0.8-3.1c0-1.4-0.3-2.4-0.8-3.1S80,215,78.9,215c-1.1,0-1.9,0.3-2.4,1
		S75.7,217.8,75.7,219.2z"/>
	<path class="st6" d="M91.6,213.7c0.5,0,0.9,0,1.3,0.1l-0.2,1.5c-0.4-0.1-0.8-0.1-1.2-0.1c-0.9,0-1.6,0.4-2.2,1.1s-0.9,1.6-0.9,2.6
		v5.7h-1.6v-10.7h1.3l0.2,2h0.1c0.4-0.7,0.9-1.2,1.4-1.6S90.9,213.7,91.6,213.7z"/>
	<path class="st6" d="M108.5,224.6v-7c0-0.9-0.2-1.5-0.5-1.9s-0.9-0.6-1.7-0.6c-1,0-1.8,0.3-2.2,0.9s-0.7,1.5-0.7,2.7v6h-1.6v-7
		c0-0.9-0.2-1.5-0.5-1.9s-0.9-0.6-1.7-0.6c-1,0-1.8,0.3-2.2,0.9s-0.7,1.6-0.7,3v5.6h-1.6v-10.7h1.3l0.3,1.5h0.1
		c0.3-0.5,0.7-0.9,1.3-1.2s1.2-0.4,1.9-0.4c1.7,0,2.8,0.6,3.3,1.8h0.1c0.3-0.6,0.8-1,1.4-1.3s1.3-0.5,2.1-0.5c1.2,0,2.1,0.3,2.7,0.9
		s0.9,1.6,0.9,3v7H108.5z"/>
	<path class="st6" d="M120.1,224.6l-0.3-1.5h-0.1c-0.5,0.7-1.1,1.1-1.6,1.4s-1.2,0.4-2,0.4c-1.1,0-1.9-0.3-2.5-0.8s-0.9-1.3-0.9-2.3
		c0-2.2,1.7-3.3,5.2-3.4l1.8-0.1v-0.7c0-0.8-0.2-1.5-0.5-1.9s-0.9-0.6-1.7-0.6c-0.9,0-1.9,0.3-3,0.8l-0.5-1.2
		c0.5-0.3,1.1-0.5,1.7-0.7s1.3-0.2,1.9-0.2c1.3,0,2.2,0.3,2.8,0.8s0.9,1.5,0.9,2.7v7.3H120.1z M116.4,223.4c1,0,1.8-0.3,2.4-0.8
		s0.9-1.3,0.9-2.3v-1l-1.6,0.1c-1.3,0-2.2,0.2-2.8,0.6s-0.9,0.9-0.9,1.7c0,0.6,0.2,1,0.5,1.3S115.8,223.4,116.4,223.4z"/>
	<path class="st6" d="M128.1,223.4c0.3,0,0.6,0,0.8-0.1s0.5-0.1,0.6-0.1v1.2c-0.2,0.1-0.4,0.2-0.8,0.2s-0.6,0.1-0.9,0.1
		c-2.1,0-3.1-1.1-3.1-3.3v-6.4h-1.5v-0.8l1.5-0.7l0.7-2.3h0.9v2.5h3.1v1.3h-3.1v6.3c0,0.6,0.2,1.1,0.5,1.5S127.5,223.4,128.1,223.4z
		"/>
	<path class="st6" d="M131.5,211c0-0.4,0.1-0.6,0.3-0.8s0.4-0.3,0.7-0.3c0.3,0,0.5,0.1,0.7,0.3s0.3,0.4,0.3,0.8s-0.1,0.6-0.3,0.8
		s-0.4,0.3-0.7,0.3c-0.3,0-0.5-0.1-0.7-0.3S131.5,211.3,131.5,211z M133.3,224.6h-1.6v-10.7h1.6V224.6z"/>
	<path class="st6" d="M146,219.2c0,1.7-0.4,3.1-1.3,4.1s-2.1,1.5-3.6,1.5c-1,0-1.8-0.2-2.5-0.7s-1.3-1.1-1.7-1.9s-0.6-1.8-0.6-2.9
		c0-1.7,0.4-3.1,1.3-4.1s2.1-1.5,3.6-1.5c1.5,0,2.7,0.5,3.6,1.5S146,217.5,146,219.2z M137.8,219.2c0,1.4,0.3,2.4,0.8,3.1
		s1.4,1.1,2.4,1.1s1.9-0.4,2.4-1.1s0.8-1.8,0.8-3.1c0-1.4-0.3-2.4-0.8-3.1s-1.4-1.1-2.4-1.1c-1.1,0-1.9,0.3-2.4,1
		S137.8,217.8,137.8,219.2z"/>
	<path class="st6" d="M156.1,224.6v-6.9c0-0.9-0.2-1.5-0.6-2s-1-0.6-1.9-0.6c-1.1,0-1.9,0.3-2.5,0.9s-0.8,1.6-0.8,3v5.6h-1.6v-10.7
		h1.3l0.3,1.5h0.1c0.3-0.5,0.8-0.9,1.4-1.2s1.3-0.4,2-0.4c1.3,0,2.3,0.3,2.9,0.9s1,1.6,1,3v7H156.1z"/>
</g>
</svg>
