<svg xmlns="http://www.w3.org/2000/svg" xmlns:xlink="http://www.w3.org/1999/xlink" width="129" height="129" viewBox="0 0 129 129">
    <defs>
        <path id="a" d="M58.343 24.399V.495H0v23.904z"/>
        <path id="c" d="M0 51.38h58.343V0H0z"/>
    </defs>
    <g fill="none" fill-rule="evenodd" transform="translate(1 1)">
        <circle cx="63.5" cy="63.5" r="63.5" stroke="#979797"/>
        <g transform="translate(34 37)">
            <g transform="translate(0 26.981)">
                <mask id="b" fill="#fff">
                    <use xlink:href="#a"/>
                </mask>
                <path fill="#3E4044" d="M21.512 17.767h15.32l.147.25c1.969 3.309 5.572 5.365 9.405 5.365 6.034 0 10.942-4.905 10.942-10.935 0-5.687-4.27-10.366-9.932-10.885l-.462-.05H11.116l-.246.054a10.893 10.893 0 0 0-9.852 10.881c0 6.03 4.908 10.935 10.941 10.935 3.834 0 7.437-2.056 9.405-5.366l.148-.249zM46.384 24.4c-4.094 0-7.946-2.144-10.127-5.615H22.086c-2.18 3.47-6.032 5.615-10.127 5.615-6.594 0-11.958-5.36-11.958-11.952C0 6.427 4.4 1.417 10.31.61V.552l.509-.057h37.13V.6a11.887 11.887 0 0 1 10.393 11.847c0 6.591-5.365 11.952-11.96 11.952z" mask="url(#b)"/>
            </g>
            <mask id="d" fill="#fff">
                <use xlink:href="#c"/>
            </mask>
            <path fill="#D74227" d="M11.372 44.198h1.017V34.104h-1.017z" mask="url(#d)"/>
            <path fill="#D74227" d="M6.783 39.666h10.114v-1.017H6.783zM47.449 41.198a2.034 2.034 0 1 1-2.034-2.034c1.122 0 2.034.91 2.034 2.034M52.535 37.13a2.035 2.035 0 1 1-4.07-.002 2.035 2.035 0 0 1 4.07.001" mask="url(#d)"/>
            <path fill="#3E4044" d="M25.064 32.553h2.033v-1.017h-2.033zM31.206 32.553h2.032v-1.017h-2.032zM28.038 28.43c-.12-.066-2.92-1.64-3.246-4.486-.232-2.009.829-4.086 3.15-6.175 3.85-3.463 4.125-8.59 2.75-11.887-1.346-3.23-4.175-5.044-7.636-4.85L22.998.017c3.902-.23 7.114 1.827 8.633 5.475 1.844 4.422.607 9.781-3.007 13.032-2.061 1.855-3.011 3.637-2.823 5.298.263 2.322 2.704 3.704 2.728 3.718l-.491.89z" mask="url(#d)"/>
        </g>
    </g>
</svg>
