<svg xmlns="http://www.w3.org/2000/svg" width="106" height="91" viewBox="0 0 106 91">
    <g fill="#FFF" fill-rule="evenodd">
        <g fill-rule="nonzero">
            <path d="M33.44 27.131H23.598c-.127 0-.505.126-.505.252v4.038H33.44c1.136-.252 1.893-1.01 1.893-2.145-.126-1.136-.757-1.893-1.893-2.145M23.598 24.986h8.328c.505 0 1.01-.126 1.388-.253.757-.252 1.136-.883 1.136-1.766 0-.757-.379-1.515-1.136-1.767-.378-.126-.883-.252-1.388-.252h-8.455c-.378 0-.504.126-.504.504v2.903c.126.505.252.63.63.63"/>
            <path d="M.631 52.369h104.864V0H.631v52.369zm37.352-22.462c-.252 1.767-1.514 3.029-3.28 3.407-.632.126-1.263.253-1.893.253H20.948c-.505 0-.631-.127-.631-.631V18.803H32.052c1.01 0 2.02.252 2.903.504 2.524 1.01 3.028 4.922.757 6.31-.126 0-.126.126-.252.126.126.126.252.126.252.252 1.893.757 2.524 2.145 2.271 3.912zm26.248 3.155c0 .378-.126.505-.505.505H61.96c-.379 0-.505-.127-.505-.505V24.48c0-1.767-1.01-3.029-2.524-3.407-1.893-.505-3.786.126-4.543 1.64a5.063 5.063 0 0 0-.378 1.893V33.567h-2.272c-.378 0-.378-.253-.378-.505V24.48c0-2.02-1.136-3.281-3.155-3.533-1.893-.253-3.534.504-4.165 2.019-.252.504-.252 1.135-.252 1.64V33.567h-2.65v-8.96c-.126-2.902 1.893-5.047 4.67-5.678 2.65-.631 4.92 0 6.94 1.892.126-.126.252-.252.504-.378 2.398-2.145 6.31-2.272 8.96-.379 1.388 1.01 2.145 2.398 2.145 4.165-.126 2.902-.126 5.93-.126 8.833zm21.83-6.688c0 .757 0 1.64-.125 2.397-.253 2.777-1.64 4.29-4.417 4.543a41.708 41.708 0 0 1-9.717 0c-.504 0-1.01-.252-1.514-.378-1.388-.505-2.398-1.388-2.65-2.776-.505-2.65-.505-5.3 0-7.95.379-1.767 1.64-2.777 3.407-3.029.631-.126 1.388-.252 2.02-.252 3.028-.127 6.183-.379 9.211.252 2.02.379 3.155 1.64 3.534 3.66 0 .126 0 .378.126.63h-2.272c-.126 0-.252-.252-.252-.378-.252-1.01-1.01-1.64-2.02-1.767-.63-.126-1.135-.252-1.766-.252H74.2c-.757 0-1.388.126-2.145.252-1.01.253-1.767.884-1.767 1.893a46.506 46.506 0 0 0 0 5.931c0 1.01.757 1.64 1.64 1.893.758.126 1.515.378 2.272.378h5.552c.379 0 .758-.126 1.01-.126 1.64-.378 2.271-1.135 2.398-2.902 0-.505-.127-.631-.631-.631H75.714v-1.893c0-.126.126-.252.253-.252H85.305c.757-.127.757 0 .757.757z"/>
        </g>
        <path d="M35.35 82.52h4.854v6.943c-.755.24-1.523.423-2.305.547-.78.123-1.686.185-2.714.185-2.162 0-3.845-.643-5.05-1.928-1.204-1.286-1.806-3.088-1.806-5.406 0-1.484.298-2.784.894-3.901a6.043 6.043 0 0 1 2.573-2.559c1.12-.589 2.432-.883 3.935-.883 1.524 0 2.943.28 4.258.84l-.644 1.464c-1.29-.547-2.53-.82-3.721-.82-1.738 0-3.096.518-4.072 1.553-.977 1.035-1.465 2.47-1.465 4.306 0 1.927.47 3.389 1.411 4.385.94.996 2.323 1.494 4.146 1.494.99 0 1.956-.114 2.9-.342v-4.394H35.35V82.52zm12.92-3.418c.476 0 .902.039 1.28.117l-.225 1.504a5.522 5.522 0 0 0-1.172-.147c-.866 0-1.606.352-2.221 1.055-.616.703-.923 1.579-.923 2.627V90h-1.621V79.297h1.338l.185 1.982h.078c.397-.696.876-1.233 1.436-1.611a3.232 3.232 0 0 1 1.846-.566zM57.734 90l-.322-1.523h-.078c-.534.67-1.066 1.124-1.597 1.362-.53.237-1.193.356-1.987.356-1.061 0-1.893-.273-2.495-.82-.602-.547-.903-1.325-.903-2.334 0-2.161 1.728-3.294 5.185-3.398l1.817-.059v-.664c0-.84-.181-1.46-.542-1.86-.362-.4-.94-.601-1.734-.601-.892 0-1.9.273-3.027.82l-.498-1.24a7.618 7.618 0 0 1 1.733-.674 7.507 7.507 0 0 1 1.89-.244c1.276 0 2.221.283 2.837.85.615.566.923 1.474.923 2.724V90h-1.202zm-3.662-1.143c1.01 0 1.802-.276 2.378-.83.576-.553.864-1.328.864-2.324v-.967l-1.62.069c-1.29.045-2.219.245-2.789.6-.57.355-.854.907-.854 1.656 0 .585.177 1.031.532 1.337.355.306.851.46 1.49.46zM69.6 90v-6.924c0-.872-.199-1.523-.596-1.953-.397-.43-1.019-.644-1.865-.644-1.12 0-1.94.302-2.461.908-.521.605-.781 1.605-.781 2.998V90h-1.622V79.297h1.319l.263 1.465h.079a3.31 3.31 0 0 1 1.396-1.226c.599-.29 1.266-.434 2.002-.434 1.29 0 2.26.31 2.91.932.651.622.977 1.616.977 2.984V90h-1.621zm8.408-1.143c.286 0 .563-.02.83-.063.267-.042.478-.086.635-.132v1.24c-.176.085-.435.155-.777.21a5.83 5.83 0 0 1-.923.083c-2.07 0-3.105-1.09-3.105-3.271v-6.367h-1.533v-.782l1.533-.673.684-2.286h.937v2.48h3.106v1.26h-3.106v6.3c0 .644.153 1.139.46 1.484.305.345.725.517 1.259.517z"/>
    </g>
</svg>
