<svg xmlns="http://www.w3.org/2000/svg" width="126" height="62" viewBox="0 0 126 62">
    <g fill="#FFF" fill-rule="nonzero">
        <path d="M118.6 30.7c-.7-.5-1.9-.9-2.7-1.1-3.9-.9-7.8-.5-11.7.1-8.1 1.4-15.8 4.3-23.3 7.6-1.1.5-1.6.3-2.4-.5-4.8-5.1-10.7-8-17.9-7.4-6.4.5-11.6 3.6-16 8-2.9 2.8-4.8 6.2-5.1 10.3-.3 4.4 1.7 6.3 5.3 6.6 2.1.2 4.3 0 6.4-.4 8.2-1.5 15.6-4.9 22.8-9 6-3.4 12-6.8 18.4-9.4 8-3.2 16.1-5.6 24.9-5l1.3.2zm-43 9.4c-5.4 2.7-10.7 5.7-16.5 7.6-3.1 1-6.3 1.6-9.6 1.8-2.7.2-4.2-1.2-4.2-3.5 0-2.9 1.6-5 3.4-7 3-3.3 6.8-5 11.1-5.8 6.3-1.1 11.7.5 16.1 5.1 1 1.1 1 1.2-.3 1.8zM46.7 59.7c.7.5 1.9.9 2.7 1.1 3.9.9 7.8.5 11.7-.1 8.1-1.4 15.8-4.3 23.3-7.6 1.1-.5 1.6-.3 2.4.5 4.8 5.1 10.7 8 17.9 7.4 6.4-.5 11.6-3.6 16-8 2.9-2.8 4.7-6.2 5.1-10.3.3-4.4-1.7-6.3-5.3-6.6-2.1-.2-4.3 0-6.4.4-8.2 1.5-15.6 4.9-22.8 9-6 3.4-12 6.8-18.4 9.4-8 3.2-16.1 5.6-24.9 5l-1.3-.2zm43-9.3c5.4-2.7 10.7-5.7 16.5-7.6 3.1-1 6.4-1.6 9.6-1.8 2.7-.2 4.2 1.2 4.2 3.5 0 2.9-1.6 5-3.4 7-3 3.2-6.8 5-11.1 5.8-6.3 1.1-11.7-.5-16.1-5.1-1-1.2-1-1.2.3-1.8zM.8.9h2.4v24.3H.8zM10.5 25.2V.9h.5l16.2 18.6V.9h2.4v24.3h-.5l-16-18.4v18.4zM37.2.9h12.2v2.4h-9.7v7.6h9.7v2.4h-9.7v11.9h-2.4V.9zM55 .9h2.4v24.3H55zM64.7 25.2V.9h.5l16.2 18.6V.9h2.4v24.3h-.5l-16-18.4v18.4zM91 .9h2.4v24.3H91zM110.6.9l11.3 24.3h-2.6l-3.8-8H105l-3.8 8h-2.7L110 .9h.6zm-.3 5.1l-4.2 8.8h8.3L110.3 6z"/>
        <g>
            <path d="M.4 29.2H2c.9 0 1.5 0 1.8.1.5.1.9.3 1.2.7.3.4.5.8.5 1.3 0 .4-.1.8-.3 1.2-.2.3-.5.6-.9.8-.4.2-.9.3-1.6.3l2.9 3.8h-1l-2.9-3.8h-.5v3.8H.4v-8.2zm.8.8v2.8h1.4c.5 0 .9-.1 1.2-.2.3-.1.5-.3.6-.5.1-.2.2-.5.2-.8 0-.3-.1-.5-.2-.7-.1-.2-.3-.4-.6-.5-.2-.1-.6-.1-1.2-.1H1.2zM9 29.2h4.6v.8H9.8v2.5h3.8v.8H9.8v3.2h3.8v.8H9zM16 30v-.8h4.4v.8h-1.8v7.3h-.8V30zM25.8 29.2l3.8 8.1h-.9l-1.3-2.7H24l-1.3 2.7h-.9l3.8-8.1h.2zm-.1 1.7l-1.4 2.9h2.8l-1.4-2.9zM32.5 29.2h.8v8.1h-.8zM37 29.2h.8v7.3h3.1v.8H37z"/>
        </g>
    </g>
</svg>
