<svg xmlns="http://www.w3.org/2000/svg" xmlns:xlink="http://www.w3.org/1999/xlink" width="129" height="129" viewBox="0 0 129 129">
    <defs>
        <path id="a" d="M0 49.783h56.982V0H0z"/>
    </defs>
    <g fill="none" fill-rule="evenodd">
        <circle cx="63.5" cy="63.5" r="63.5" stroke="#979797" transform="translate(1 1)"/>
        <g transform="translate(36 40)">
            <path fill="#D74227" d="M28.49 18.932c-6.155 0-11.162 5.048-11.162 11.253 0 6.206 5.007 11.253 11.163 11.253 6.155 0 11.163-5.047 11.163-11.253 0-6.205-5.008-11.253-11.163-11.253zm0 23.75c-6.836 0-12.396-5.606-12.396-12.497 0-6.89 5.56-12.496 12.397-12.496 6.836 0 12.397 5.606 12.397 12.496 0 6.891-5.56 12.497-12.397 12.497z"/>
            <mask id="b" fill="#fff">
                <use xlink:href="#a"/>
            </mask>
            <path fill="#3E4044" d="M.617 38.646h11.802v-1.244H.617zM44.593 38.646h11.803v-1.244H44.593z" mask="url(#b)"/>
            <path fill="#3E4044" d="M1.234 48.539h54.514V12.452H1.234V48.54zM18.417 1.245h20.152l4.266 9.963H14.248l4.169-9.963zm25.762 9.963L39.379.001H17.598L12.91 11.208H0v38.575h56.982V11.208H44.179z" mask="url(#b)"/>
        </g>
    </g>
</svg>
