<svg xmlns="http://www.w3.org/2000/svg" width="29" height="51" viewBox="0 0 29 51">
    <g fill="none" fill-rule="nonzero" stroke-width=".094">
        <path fill="#5A5A5A" stroke="#5A5A5A" d="M18.044.637c.752.85 1.075 2.125.86 3.294-.215 1.275-.967 2.444-1.826 3.4-.645.744-1.504 1.488-2.256 2.125-.966.744-1.933 1.594-2.47 2.657-.537.85-.645 1.912-.322 2.868.537 1.594 1.933 2.869 2.577 4.356-.751-.743-1.61-1.38-2.255-2.125-.752-.85-1.504-1.7-1.933-2.656-.323-.743-.43-1.487-.215-2.231.215-.744.752-1.381 1.396-1.912 1.504-1.488 3.437-2.657 4.94-4.144.86-.85 1.504-1.806 1.72-2.975.107-.957 0-1.806-.216-2.656z"/>
        <path fill="#5A5A5A" stroke="#5A5A5A" d="M16.756 10.2c1.61-1.169 3.544-1.912 5.477-2.55-1.503.956-3.114 1.806-4.51 3.081-.43.425-.967.957-1.182 1.594-.108.425-.108.956.107 1.488.322.85.967 1.487 1.396 2.23.43.638.43 1.382.108 2.126-.43.956-1.289 1.7-2.256 2.337-.107.107-.215.213-.322.213.645-.532 1.074-1.275 1.074-2.125 0-.638-.322-1.169-.752-1.594-.859-.956-1.503-2.231-1.396-3.613.322-1.38 1.289-2.443 2.256-3.187z"/>
        <path fill="#595959" stroke="#595959" d="M22.663 19.869c.322-.425.967-.532 1.396-.638.86-.106 1.826.106 2.578.744.537.531.86 1.275.752 2.019-.108.85-.752 1.593-1.396 2.125-1.182.956-2.686 1.487-4.19 1.912.108-.106.216-.212.323-.212 1.074-.638 2.255-1.275 3.007-2.232.537-.637.86-1.38.752-2.23-.215-.957-1.074-1.595-2.04-1.595-.43-.212-.752 0-1.182.107zM5.585 20.613c1.504-.638 3.222-1.063 4.94-1.063-.966.319-2.04.531-2.9.956-.214.107-.429.213-.644.425-.107.213.108.319.215.319.537.212 1.182.319 1.826.319 2.148.106 4.297.106 6.445-.107 2.148-.106 4.296-.424 6.337-.743-.43.212-.967.425-1.397.743-.214.107-.537.213-.751.213-2.578.531-5.263.744-7.841.744-1.074 0-2.04 0-3.008-.107-1.181-.106-2.255-.106-3.437-.425-.322-.106-.644-.212-.966-.425a.32.32 0 0 1 0-.424c.43-.107.859-.32 1.181-.425zM7.626 24.119c.43-.319.967-.532 1.504-.744-.215.212-.43.425-.43.637 0 .213.107.32.322.425.322.107.645.213.86.213 1.61.213 3.222.213 4.94.106 1.504-.106 3.008-.319 4.511-.531.43.425.86.637 1.397.85-1.826.531-3.652.85-5.478.956-1.719.107-3.545.107-5.263-.212a7.546 7.546 0 0 1-2.04-.638c-.216-.106-.538-.319-.645-.637-.108 0 .107-.213.322-.425zM8.593 27.837c.43-.318.859-.424 1.396-.637-.108.106-.43.319-.322.531.214.319.644.319.966.425 1.397.213 2.9.319 4.297.213 1.074-.107 2.148-.213 3.222-.425l1.933.956c-.966.425-2.04.744-3.115.956-1.826.319-3.651.319-5.477.106-.752-.106-1.612-.318-2.363-.743a.963.963 0 0 1-.645-.638c-.215-.319-.107-.637.108-.744z"/>
        <path fill="#595959" stroke="#595959" d="M3.867 30.175c.752-.213 1.61-.425 2.363-.531.322 0 .644 0 .966.212-.966.106-1.933.319-2.792.744-.215.106-.43.212-.537.425 0 .213.322.319.537.425 1.181.425 2.577.637 3.866.744 3.867.319 7.734.212 11.493-.107 1.396-.106 2.9-.318 4.296-.743.43-.107.967-.319 1.29-.744.214-.213.107-.531-.108-.744.322.106.644.319.644.744-.107.425-.537.637-.86.85-1.073.531-2.255.85-3.436 1.063-3.437.637-6.982.85-10.526.743-2.685-.106-5.263-.319-7.84-.743-.43-.107-.967-.213-1.29-.532-.214-.212 0-.637.215-.744.43-.53 1.074-.85 1.719-1.062z"/>
        <path fill="#595959" stroke="#595959" d="M25.026 33.044c.86-.319 1.718-.638 2.363-1.275-.108.744-.752 1.275-1.396 1.593-1.182.638-2.578.957-3.867 1.17-2.793.424-5.693.53-8.593.53-1.933-.106-3.974-.106-5.8-.53-.43-.107-.966-.213-1.396-.426 1.719.319 3.437.425 5.156.425 2.9.107 5.692 0 8.592-.425 1.611-.319 3.33-.531 4.94-1.062z"/>
        <path fill="#5A5A5A" stroke="#5A5A5A" d="M2.685 45.475v-8.288h1.719v9.244c0 .85 0 1.806-.43 2.55-.43.85-1.289 1.381-2.148 1.7-.322-.319-.537-.637-.86-.956.753-.425 1.397-.956 1.612-1.806.107-.744.107-1.594.107-2.444zM6.015 40.481a7.207 7.207 0 0 1 3.652-.637c.644.106 1.289.319 1.718.85.322.425.43.956.43 1.487v5.632h-1.29c0-.32-.106-.532-.106-.85-.43.425-.967.743-1.612.85-.644.212-1.396.106-2.148-.107-.537-.212-.966-.637-1.074-1.169-.215-.743-.107-1.7.43-2.337.537-.531 1.289-.85 2.04-.956.645-.106 1.397-.106 2.041-.106 0-.532.108-1.063-.215-1.594-.214-.319-.644-.531-1.074-.531-.859-.107-1.826.106-2.685.425 0-.213 0-.532-.107-.957zm2.148 3.931c-.322.107-.752.425-.86.744-.107.425-.107.956.216 1.275.322.319.751.425 1.181.425.644-.106 1.074-.425 1.611-.744V44.2c-.752 0-1.504 0-2.148.212zM20.944 40.481c1.182-.531 2.47-.744 3.652-.637.645.106 1.29.319 1.719.743.43.425.537 1.063.537 1.7v5.526h-1.289c0-.32-.107-.532-.107-.85-.645.53-1.29.956-2.149.956-.751.106-1.61 0-2.148-.531-.644-.532-.752-1.488-.537-2.232.108-.743.645-1.275 1.29-1.593.966-.532 2.147-.532 3.221-.532 0-.531.108-1.062-.214-1.487-.215-.319-.645-.531-1.075-.531-.966-.107-1.825.106-2.792.425 0-.213-.108-.532-.108-.957zm2.041 3.931a1.29 1.29 0 0 0-.752.744c-.107.425-.107.956.215 1.275.322.319.752.425 1.182.425.537-.106 1.074-.425 1.503-.744v-1.806c-.752-.106-1.503-.106-2.148.107zM12.781 40.056h1.826c.323 1.063.645 2.232 1.074 3.294.215.637.43 1.381.645 2.019.107.319.107.637.215.956a31.637 31.637 0 0 0 1.61-6.269h1.72c-.538 2.763-1.29 5.419-2.471 7.863h-2.04a689.39 689.39 0 0 0-2.579-7.863z"/>
        <g fill="#5A5A5A" stroke="#5A5A5A">
            <path d="M27.067 39.844h-.215v-.107h.537v.107h-.322l.107.637h-.107zM28.033 40.163v-.32c0 .107-.107.213 0 .32l-.214.318h-.108l-.107-.318c0-.107-.108-.213-.108-.213v.638h-.107v-.638h.107l.108.319c0 .106 0 .106.107.212 0-.106 0-.106.108-.212l.107-.319h.107v.637h-.107l.107-.424z"/>
        </g>
    </g>
</svg>
