<svg xmlns="http://www.w3.org/2000/svg" width="33" height="46" viewBox="0 0 33 46">
    <g fill="none" fill-rule="evenodd">
        <path fill="#4A4A4C" d="M0 8.958l2.94 32.959 13.184 3.662 13.226-3.666 2.94-32.955z"/>
        <path fill="#4A4A4C" d="M26.831 39.814l2.514-28.162h-13.2v31.125M16.994 0v1.663l1.762 2.495H17.13v1.99h4.88V4.251L20.384 2.17h1.626V0z"/>
        <path fill="#4A4A4C" d="M16.877 15.695v4.042l9.036-.197.344-3.845M24.439 23.877h-7.562v4.042l5.155-.336-.466 5.414-4.689 1.18v4.202l7.54-2.092.061-.682.951-10.643.098-1.085"/>
        <path fill="#4A4A4C" d="M20.215 25.95h-3.338v-8.234h3.71M15.282 34.147l-5.23-1.484-.166-2.262-2.606-.46.566 6.346 7.436 2.064"/>
        <path fill="#4A4A4C" d="M15.282 15.695h-3.434l.714 20.715h2.72M13.168 0v4.115h-.833V3.35H10.28v2.798h4.943V0z"/>
        <path fill="#9A9D9F" d="M0 8.958l2.94 32.959 13.184 3.662 13.226-3.666 2.94-32.955z"/>
        <path fill="#ADAFB2" d="M26.831 39.814l2.514-28.162h-13.2v31.125"/>
        <path fill="#221F20" d="M16.994 0v1.663l1.762 2.495H17.13v1.99h4.88V4.251L20.384 2.17h1.626V0z"/>
        <path fill="#FEFEFE" d="M16.877 15.695v4.042l9.036-.197.344-3.845M24.439 23.877h-7.562v4.042l5.155-.336-.466 5.414-4.689 1.18v4.202l7.54-2.092.061-.682.951-10.643.098-1.085"/>
        <path fill="#FEFEFE" d="M20.215 25.95h-3.338v-8.234h3.71"/>
        <path fill="#EAEBEC" d="M15.282 34.147l-5.23-1.484-.166-2.262-2.606-.46.566 6.346 7.436 2.064"/>
        <path fill="#EAEBEC" d="M15.282 15.695h-3.434l.714 20.715h2.72"/>
        <path fill="#221F20" d="M13.168 0v4.115h-.833V3.35H10.28v2.798h4.943V0z"/>
    </g>
</svg>
