<svg xmlns="http://www.w3.org/2000/svg" width="174" height="28" viewBox="0 0 174 28">
    <g fill="gray" fill-rule="nonzero">
        <path d="M53.694 10.088v5.87c0 .214.054.428.107.588.054.214.16.374.32.48.16.16.32.267.588.32.213.054.533.107.907.107h3.523v1.602h-3.576c-.588 0-1.121-.054-1.548-.214a2.755 2.755 0 0 1-1.014-.64 2.234 2.234 0 0 1-.588-.961 4.55 4.55 0 0 1-.16-1.228v-5.924h1.441zM61.807 10.088v6.031c0 .427.107.8.374 1.068.213.266.64.373 1.12.373h1.602c.48 0 .907-.107 1.12-.373.268-.267.375-.588.375-1.068v-6.031h1.547v6.138c0 .96-.266 1.654-.747 2.135-.48.48-1.227.694-2.188.694h-1.868c-1.922 0-2.936-.961-2.936-2.883v-6.084h1.601zM71.628 10.088v9.02H70.08v-9.02zM80.755 10.088v1.601h-4.643c-.427 0-.694.107-.908.32-.16.214-.267.48-.267.747 0 .107 0 .267.054.374.053.107.107.267.213.374.107.106.214.16.427.213.16.054.374.107.64.107h2.136c.64 0 1.12.053 1.494.213.374.16.694.374.908.588.213.266.373.533.48.854.107.32.107.64.107.96 0 .374-.054.748-.16 1.068a2.09 2.09 0 0 1-.534.854 2.158 2.158 0 0 1-.908.533c-.373.107-.8.214-1.334.214h-5.017v-1.601h5.07c.427 0 .748-.107.961-.32.214-.214.32-.48.32-.801 0-.16 0-.267-.053-.427a.86.86 0 0 0-.213-.374c-.107-.106-.267-.16-.427-.267a2.369 2.369 0 0 0-.694-.106h-2.082c-.587 0-1.12-.054-1.494-.214a2.963 2.963 0 0 1-.908-.587c-.213-.267-.373-.534-.427-.854-.106-.32-.106-.64-.106-.96 0-.374.053-.695.16-1.015a2.01 2.01 0 0 1 .48-.8c.214-.214.534-.427.854-.534.374-.107.8-.214 1.281-.214h4.59v.054zM94.206 10.088v1.601h-3.737c-.854 0-1.494.213-1.921.694-.374.48-.587 1.227-.587 2.242 0 1.014.213 1.76.587 2.241.373.48 1.014.694 1.921.694h1.495c.427 0 .747-.107.96-.373.214-.214.267-.534.267-.908 0-.373-.106-.64-.266-.854-.16-.213-.48-.32-.854-.32h-2.029v-1.388h2.135c.8 0 1.388.214 1.815.694.374.48.587 1.068.587 1.868 0 .374-.053.747-.16 1.121-.107.32-.267.64-.48.907-.214.267-.534.427-.854.587-.374.16-.801.214-1.281.214h-1.388c-1.334 0-2.349-.374-3.042-1.12-.694-.748-1.068-1.869-1.068-3.363 0-1.548.374-2.67 1.068-3.416.693-.748 1.708-1.121 3.042-1.121h3.79zM101.464 10.088c1.335 0 2.349.373 3.043 1.12.694.748 1.067 1.869 1.067 3.417 0 1.494-.373 2.615-1.067 3.362-.694.747-1.708 1.121-3.043 1.121h-1.227c-1.335 0-2.349-.374-3.043-1.12-.693-.748-1.067-1.869-1.067-3.363 0-1.495.374-2.67 1.067-3.416.694-.748 1.708-1.121 3.043-1.121h1.227zm-1.227 1.601c-.854 0-1.495.213-1.922.694-.373.48-.587 1.227-.587 2.242 0 1.014.214 1.76.587 2.241.374.427 1.014.694 1.922.694h1.227c.854 0 1.495-.213 1.869-.694.373-.48.587-1.227.587-2.241 0-1.015-.214-1.762-.587-2.242-.374-.48-1.015-.694-1.869-.694h-1.227zM108.937 19.108h-1.601v-7.206c0-.587.16-1.067.533-1.44.32-.374.854-.534 1.548-.534.64 0 1.121.16 1.441.427.32.32.587.693.748 1.227l2.615 5.765c.053.106.107.213.213.266.107.054.214.107.374.107s.32-.053.374-.16a.485.485 0 0 0 .16-.373v-7.1h1.6v7.206c0 .587-.16 1.068-.533 1.441-.32.374-.854.534-1.548.534a3.23 3.23 0 0 1-.8-.107c-.214-.053-.427-.213-.587-.32-.16-.16-.32-.32-.427-.534-.107-.213-.214-.427-.32-.694l-2.616-5.764a.556.556 0 0 0-.534-.374c-.16 0-.32.054-.427.16a.485.485 0 0 0-.16.374l-.053 7.099zM122.174 19.055c-1.014-.107-1.815-.48-2.349-1.068-.694-.747-1.067-1.868-1.067-3.362 0-1.548.373-2.67 1.067-3.416.694-.748 1.708-1.121 3.042-1.121h3.47v1.601h-3.47c-.854 0-1.494.213-1.921.694-.374.48-.587 1.227-.587 2.242 0 1.014.213 1.76.587 2.241.374.48 1.014.694 1.921.694h3.47v1.601h-2.776M129.112 19.108h-1.708l3.15-8.006c.16-.427.426-.747.693-.908.32-.16.694-.266 1.174-.266s.854.106 1.175.266c.32.16.533.48.694.908l3.042 8.006h-1.761l-2.723-7.259c-.053-.213-.213-.32-.427-.32-.213 0-.373.107-.427.32l-2.882 7.259zM139.627 10.088v5.87c0 .214.053.428.107.588.053.214.16.374.32.48.16.16.32.267.587.32.214.054.534.107.907.107h3.523v1.602h-3.576c-.587 0-1.12-.054-1.548-.214a2.755 2.755 0 0 1-1.014-.64 2.234 2.234 0 0 1-.587-.961 4.55 4.55 0 0 1-.16-1.228v-5.924h1.441zM147.313 10.088l2.722 7.259c.107.213.213.32.427.32.213 0 .374-.107.427-.32l2.882-7.26h1.762l-3.203 8.007c-.16.427-.427.747-.694.907-.32.16-.694.267-1.174.267-.427 0-.854-.107-1.174-.267-.32-.16-.587-.48-.748-.907l-3.042-8.006h1.815zM164.072 10.088v1.601h-4.483c-.48 0-.854.107-1.068.32-.213.214-.32.48-.32.8 0 .695.48 1.068 1.388 1.068h4.43v1.441h-4.483c-.908 0-1.388.374-1.388 1.068 0 .374.107.64.32.854.214.213.587.32 1.014.32h4.59v1.601h-4.59c-.534 0-1.014-.053-1.388-.16-.373-.107-.693-.32-.96-.534-.267-.213-.427-.48-.534-.8-.107-.32-.16-.64-.16-.96 0-.535.107-.962.32-1.282.214-.32.534-.587.96-.8-.853-.374-1.28-1.015-1.28-2.029 0-.373.053-.694.16-.96.107-.32.32-.588.534-.801.267-.214.533-.374.96-.48.374-.107.854-.16 1.388-.16h4.59v-.107zM173.093 10.088v1.601h-4.644c-.427 0-.694.107-.907.32-.16.214-.267.48-.267.747 0 .107 0 .267.053.374.054.107.107.267.214.374.106.106.213.16.427.213.16.054.373.107.64.107h2.135c.64 0 1.121.053 1.495.213.373.16.694.374.907.588.214.266.374.533.48.854.107.32.107.64.107.96 0 .374-.053.748-.16 1.068a2.09 2.09 0 0 1-.534.854 2.158 2.158 0 0 1-.907.533c-.374.107-.8.214-1.334.214h-5.018v-1.601h5.07c.428 0 .748-.107.962-.32.213-.214.32-.48.32-.801 0-.16 0-.267-.053-.427a.86.86 0 0 0-.214-.374c-.107-.106-.267-.16-.427-.267a2.369 2.369 0 0 0-.694-.106h-2.081c-.588 0-1.121-.054-1.495-.214a2.963 2.963 0 0 1-.907-.587c-.214-.267-.374-.534-.427-.854-.107-.32-.107-.64-.107-.96 0-.374.053-.695.16-1.015a2.01 2.01 0 0 1 .48-.8c.214-.214.534-.427.854-.534.374-.107.801-.214 1.281-.214h4.59v.054zM43.5.48h1v27.061h-1z"/>
        <g>
            <path d="M.534.48h5.444v12.81c0 3.576 1.388 6.192 4.11 7.793 1.174.8 2.775 1.174 4.803 1.174h12.864v5.23H15.052c-3.416 0-6.192-.693-8.22-2.134-.587-.267-1.441-1.014-2.615-2.082-1.495-1.654-2.509-3.362-3.043-5.07C.747 16.92.48 15.05.48 12.65L.534.48z"/>
            <path d="M8.113 13.984c0-2.028.427-4.003 1.334-5.871 1.601-3.256 4.11-5.498 7.526-6.779C18.307.747 20.336.48 23.058.48h12.276v5.231H22.417c-3.896 0-6.618 1.655-8.166 5.017-.48 1.068-.747 2.189-.747 3.256 0 1.068.267 2.188.747 3.256 1.548 3.362 4.27 5.017 8.166 5.017h5.444v5.23h-4.75c-2.722 0-4.75-.266-6.085-.853-3.416-1.281-5.924-3.523-7.525-6.779-.908-1.868-1.388-3.843-1.388-5.871zm13.077-2.562h14.144v16.12h-5.338V16.598H21.19v-5.177z"/>
        </g>
        <path d="M123.134 20.976h-.747v-.534h.747c.16 0 .32-.053.374-.106.107-.107.107-.374.107-.374 0-.16 0-.267-.107-.32-.107-.107-.32-.107-.32-.107h-.8v-.534h.8c.053 0 .427 0 .747.267.107.107.267.32.213.64 0 0 .054.428-.213.748-.214.213-.48.32-.8.32z"/>
    </g>
</svg>
