<svg xmlns="http://www.w3.org/2000/svg" width="129" height="129" viewBox="0 0 129 129">
    <g fill="none" fill-rule="evenodd" transform="translate(1 1)">
        <circle cx="63.5" cy="63.5" r="63.5" stroke="#979797"/>
        <g fill-rule="nonzero">
            <path fill="#3E4045" d="M44.418 89.686h37.288v1.165H44.418z"/>
            <path fill="#3E4045" d="M81.875 90.852H80.75l.088-52.992H45.511l-.089 52.992h-1.125l.089-54.27h37.577z"/>
            <path fill="#3E4045" d="M44.948 42.056H81.4v1.165H44.948zM52.535 67.38h20.862v1H52.535zM52.535 70.224h20.862v1H52.535z"/>
            <path fill="#D74227" d="M63.573 63.76c-3.769 0-6.927-3.282-6.927-7.199s3.158-7.199 6.927-7.199c3.769 0 6.927 3.282 6.927 7.2.102 4.022-3.056 7.198-6.927 7.198zm0-13.551c-3.362 0-6.112 2.858-6.112 6.352s2.75 6.352 6.112 6.352 6.112-2.858 6.112-6.352-2.649-6.352-6.112-6.352z"/>
            <path fill="#D74227" d="M63.573 57.937c-1.528 0-2.852-1.376-2.852-2.964s1.324-2.964 2.852-2.964c1.528 0 2.852 1.376 2.852 2.964s-1.222 2.964-2.852 2.964zm0-4.975c-1.12 0-2.037.952-2.037 2.117 0 1.164.917 2.117 2.037 2.117 1.12 0 2.037-.953 2.037-2.117 0-1.165-.916-2.117-2.037-2.117z"/>
            <path fill="#D74227" d="M67.953 61.749h-.815c0-2.118-1.63-3.812-3.667-3.812s-3.565 1.694-3.565 3.812h-.815c0-2.541 1.935-4.659 4.482-4.659 2.445 0 4.38 2.118 4.38 4.659zM56.328 74.88h4.74v1h-4.74zM64.862 74.88h4.74v1h-4.74z"/>
            <path fill="#3E4045" d="M44.474 83.281h37.288v1.165H44.474zM61.487 39.61h3.825v1.165h-3.825zM66.775 39.61h2.138v1.165h-2.138zM63.174 89.103c-1.125 0-2.025-.931-2.025-2.096 0-1.164.9-2.096 2.025-2.096 1.126 0 2.026.932 2.026 2.096 0 1.165-.9 2.096-2.026 2.096zm0-2.91c-.45 0-.787.348-.787.814 0 .466.337.815.787.815s.788-.349.788-.815c0-.466-.338-.815-.788-.815z"/>
        </g>
    </g>
</svg>
