<svg xmlns="http://www.w3.org/2000/svg" width="106" height="95" viewBox="0 0 106 95">
    <g fill="#FFF" fill-rule="evenodd">
        <g fill-rule="nonzero">
            <path d="M33.44 27.131H23.598c-.127 0-.505.126-.505.252v4.038H33.44c1.136-.252 1.893-1.01 1.893-2.145-.126-1.136-.757-1.893-1.893-2.145M23.598 24.986h8.328c.505 0 1.01-.126 1.388-.253.757-.252 1.136-.883 1.136-1.766 0-.757-.379-1.515-1.136-1.767-.378-.126-.883-.252-1.388-.252h-8.455c-.378 0-.504.126-.504.504v2.903c.126.505.252.63.63.63"/>
            <path d="M.631 52.369h104.864V0H.631v52.369zm37.352-22.462c-.252 1.767-1.514 3.029-3.28 3.407-.632.126-1.263.253-1.893.253H20.948c-.505 0-.631-.127-.631-.631V18.803H32.052c1.01 0 2.02.252 2.903.504 2.524 1.01 3.028 4.922.757 6.31-.126 0-.126.126-.252.126.126.126.252.126.252.252 1.893.757 2.524 2.145 2.271 3.912zm26.248 3.155c0 .378-.126.505-.505.505H61.96c-.379 0-.505-.127-.505-.505V24.48c0-1.767-1.01-3.029-2.524-3.407-1.893-.505-3.786.126-4.543 1.64a5.063 5.063 0 0 0-.378 1.893V33.567h-2.272c-.378 0-.378-.253-.378-.505V24.48c0-2.02-1.136-3.281-3.155-3.533-1.893-.253-3.534.504-4.165 2.019-.252.504-.252 1.135-.252 1.64V33.567h-2.65v-8.96c-.126-2.902 1.893-5.047 4.67-5.678 2.65-.631 4.92 0 6.94 1.892.126-.126.252-.252.504-.378 2.398-2.145 6.31-2.272 8.96-.379 1.388 1.01 2.145 2.398 2.145 4.165-.126 2.902-.126 5.93-.126 8.833zm21.83-6.688c0 .757 0 1.64-.125 2.397-.253 2.777-1.64 4.29-4.417 4.543a41.708 41.708 0 0 1-9.717 0c-.504 0-1.01-.252-1.514-.378-1.388-.505-2.398-1.388-2.65-2.776-.505-2.65-.505-5.3 0-7.95.379-1.767 1.64-2.777 3.407-3.029.631-.126 1.388-.252 2.02-.252 3.028-.127 6.183-.379 9.211.252 2.02.379 3.155 1.64 3.534 3.66 0 .126 0 .378.126.63h-2.272c-.126 0-.252-.252-.252-.378-.252-1.01-1.01-1.64-2.02-1.767-.63-.126-1.135-.252-1.766-.252H74.2c-.757 0-1.388.126-2.145.252-1.01.253-1.767.884-1.767 1.893a46.506 46.506 0 0 0 0 5.931c0 1.01.757 1.64 1.64 1.893.758.126 1.515.378 2.272.378h5.552c.379 0 .758-.126 1.01-.126 1.64-.378 2.271-1.135 2.398-2.902 0-.505-.127-.631-.631-.631H75.714v-1.893c0-.126.126-.252.253-.252H85.305c.757-.127.757 0 .757.757z"/>
        </g>
        <path d="M27.635 90v-6.963c0-.853-.183-1.492-.547-1.919-.365-.426-.931-.64-1.7-.64-1.008 0-1.754.29-2.236.87-.481.58-.722 1.471-.722 2.675V90h-1.621v-6.963c0-.853-.183-1.492-.547-1.919-.365-.426-.935-.64-1.71-.64-1.015 0-1.759.305-2.23.914-.473.608-.709 1.606-.709 2.993V90h-1.62V79.297h1.318l.263 1.465h.078c.306-.521.738-.928 1.294-1.221a3.953 3.953 0 0 1 1.87-.44c1.674 0 2.767.606 3.282 1.817h.078a3.413 3.413 0 0 1 1.387-1.328c.605-.326 1.295-.488 2.07-.488 1.21 0 2.117.31 2.72.932.602.622.903 1.616.903 2.984V90h-1.621zm3.261-10.703h1.739l2.344 6.103c.514 1.394.833 2.4.957 3.018h.078c.084-.332.262-.9.532-1.704.27-.804 1.154-3.276 2.651-7.417h1.739l-4.6 12.187c-.456 1.205-.988 2.06-1.597 2.564-.608.504-1.356.757-2.241.757-.495 0-.983-.056-1.465-.166v-1.3a5.65 5.65 0 0 0 1.201.118c1.114 0 1.908-.625 2.383-1.875l.596-1.523-4.317-10.762zm17.217-3.574h4.033c1.895 0 3.265.283 4.112.85.846.566 1.27 1.46 1.27 2.685 0 .846-.237 1.544-.709 2.095-.472.55-1.16.906-2.065 1.069v.098c2.168.37 3.252 1.51 3.252 3.418 0 1.276-.431 2.272-1.294 2.988-.863.716-2.069 1.074-3.618 1.074h-4.98V75.723zm1.66 6.113h2.735c1.172 0 2.015-.184 2.53-.552.513-.368.77-.988.77-1.86 0-.801-.286-1.379-.859-1.734-.573-.354-1.484-.532-2.734-.532h-2.442v4.678zm0 1.406v5.342h2.979c1.152 0 2.02-.223 2.602-.669.583-.446.875-1.144.875-2.095 0-.885-.298-1.536-.894-1.953-.596-.416-1.502-.625-2.72-.625h-2.842zM67.391 90l-4.844-12.656h-.078a40.19 40.19 0 0 1 .136 3.574V90h-1.533V75.723h2.5L68.094 87.5h.078l4.56-11.777h2.48V90h-1.66v-9.2c0-1.054.046-2.2.137-3.437h-.078L68.73 90H67.39zm18.017-7.48h4.854v6.943c-.755.24-1.524.423-2.305.547-.781.123-1.686.185-2.715.185-2.161 0-3.844-.643-5.049-1.928-1.204-1.286-1.806-3.088-1.806-5.406 0-1.484.298-2.784.893-3.901a6.043 6.043 0 0 1 2.574-2.559c1.12-.589 2.431-.883 3.935-.883 1.524 0 2.943.28 4.258.84l-.645 1.464c-1.289-.547-2.529-.82-3.72-.82-1.739 0-3.096.518-4.073 1.553-.976 1.035-1.464 2.47-1.464 4.306 0 1.927.47 3.389 1.41 4.385.941.996 2.323 1.494 4.146 1.494.99 0 1.957-.114 2.9-.342v-4.394h-3.193V82.52z"/>
    </g>
</svg>
