<svg xmlns="http://www.w3.org/2000/svg" width="129" height="129" viewBox="0 0 129 129">
    <g fill="none" fill-rule="evenodd" transform="translate(1 1)">
        <circle cx="63.5" cy="63.5" r="63.5" stroke="#979797"/>
        <g fill-rule="nonzero">
            <path fill="#3E4045" d="M70.17 96.684H29.592V34.79H70.17v21.615h-1.186V36.018H30.78v59.438h38.203v-7.491h1.186z"/>
            <path fill="#3E4045" d="M30.186 39.702h39.39v1.228h-39.39zM30.186 87.351h39.39v1.228h-39.39zM49.881 94.105c-1.186 0-2.135-.982-2.135-2.21s.949-2.21 2.135-2.21c1.187 0 2.255.982 2.255 2.21s-1.068 2.21-2.255 2.21zm0-3.316c-.593 0-.949.492-.949.983s.475.982.95.982c.593 0 1.067-.49 1.067-.982 0-.491-.474-.983-1.068-.983zM37.424 45.719h24.441v1.228H37.424zM47.508 65.368H37.424V52.351h10.084v13.017zM38.61 64.14h7.712V53.58H38.61V64.14zM37.424 68.807h13.169v1.228H37.424zM37.424 73.474h13.169v1.228H37.424zM37.424 78.263h13.169v1.228H37.424z"/>
            <g fill="#D74227">
                <path d="M70.407 78.632L57.356 65c-.593-.614-.83-1.35-.83-2.21 0-.86.355-1.597.949-2.211.593-.614 1.305-.86 2.135-.86.83 0 1.543.369 2.136.983l-.83.86c-.357-.369-.831-.615-1.306-.615-.474 0-.949.246-1.305.614-.356.369-.593.86-.593 1.351 0 .492.237.983.593 1.351l13.05 13.632-.948.737z"/>
                <path d="M70.288 71.263L58.424 58.86c-.593-.614-.83-1.351-.83-2.21 0-.86.355-1.597.948-2.211.594-.614 1.305-.86 2.136-.86.83 0 1.542.368 2.136.982L74.44 66.72l-.83.86L61.982 55.42c-.356-.368-.83-.614-1.305-.614s-.95.246-1.305.614c-.356.368-.593.86-.593 1.35 0 .492.237.983.593 1.352l11.864 12.403-.949.737z"/>
                <path d="M70.17 63.895c-.594-.614-.831-1.351-.831-2.21 0-.86.356-1.597.95-2.211 1.186-1.228 3.084-1.228 4.389 0l3.203 3.315-.83.86-3.204-3.316c-.949-.86-2.135-.86-2.847-.122-.356.368-.593.86-.593 1.35 0 .492.237.983.593 1.351l-.83.983z"/>
                <path d="M82.034 89.193l-6.763-1.597c-.237-.122-3.44-1.35-4.627-2.456-.83-.736-6.17-3.315-9.491-4.912l-.356-.246v-.49s.593-4.176 5.695-3.562c1.186.123 2.847.491 3.677.737l-.237 1.228c-.83-.246-2.373-.491-3.56-.614-3.084-.369-4.033 1.228-4.27 2.087 1.898.86 8.305 3.93 9.373 4.913.83.737 3.322 1.842 4.27 2.21l5.933 1.351 10.203-10.438c.712-.737.95-3.685-1.542-6.14L78.831 59.227c-.594-.737-1.78-.982-2.492-.246-.83.86-.356 1.965.237 2.58l-.83.86a3.916 3.916 0 0 1-1.068-2.089c-.119-.86.237-1.596.83-2.21 1.187-1.228 2.967-1.105 4.153.245l11.508 12.036c2.848 2.947 2.73 6.631 1.543 7.982L82.034 89.193z"/>
            </g>
            <path fill="#3E4045" d="M86.305 55.912c-6.05 0-11.034-5.158-11.034-11.42 0-6.264 4.983-11.422 11.034-11.422 6.05 0 11.034 5.158 11.034 11.421 0 6.263-4.983 11.421-11.034 11.421zm0-21.614c-5.458 0-9.847 4.544-9.847 10.193 0 5.65 4.39 10.193 9.847 10.193 5.458 0 9.848-4.544 9.848-10.193s-4.509-10.193-9.848-10.193z"/>
            <path fill="#3E4045" d="M85.712 37.368h1.186v8.228h-1.186zM85.712 30.737h1.186v2.947h-1.186zM93.286 36.448l2.013-2.013.868.868-2.013 2.013z"/>
        </g>
    </g>
</svg>
