<svg xmlns="http://www.w3.org/2000/svg" width="129" height="129" viewBox="0 0 129 129">
    <g fill="none" fill-rule="evenodd">
        <circle cx="63.5" cy="63.5" r="63.5" stroke="#979797" transform="translate(1 1)"/>
        <path fill="#3E4044" d="M45.254 53.084l8.285 29h32.783l10.357-29H45.254zm1.326 1h48.68l-9.643 27H54.294l-7.714-27z"/>
        <path fill="#3E4044" d="M48.162 63.09h45.005v-1H48.162zM51.344 73.078h37.843v-1H51.344z"/>
        <path fill="#3E4044" d="M61.398 81.672l-5.036-28 .984-.177 5.036 28zM69.48 81.584h1v-28h-1zM78.472 81.67l-.984-.173 4.875-28 .984.172zM32 39v1h9.457l11.979 41.721.961-.276L42.21 39z"/>
        <g fill="#D74227">
            <path d="M62.417 82.084c-1.654 0-3 1.345-3 3 0 1.653 1.346 3 3 3s3-1.347 3-3c0-1.655-1.346-3-3-3m0 7c-2.206 0-4-1.795-4-4 0-2.207 1.794-4 4-4s4 1.793 4 4c0 2.205-1.794 4-4 4M77.37 82.084c-1.654 0-3 1.345-3 3 0 1.653 1.346 3 3 3s3-1.347 3-3c0-1.655-1.346-3-3-3m0 7c-2.206 0-4-1.795-4-4 0-2.207 1.794-4 4-4s4 1.793 4 4c0 2.205-1.794 4-4 4"/>
        </g>
    </g>
</svg>
