<?xml version="1.0" encoding="UTF-8"?>
<svg width="144px" height="59px" viewBox="0 0 144 59" version="1.1" xmlns="http://www.w3.org/2000/svg" xmlns:xlink="http://www.w3.org/1999/xlink">
    <!-- Generator: sketchtool 44.1 (41455) - http://www.bohemiancoding.com/sketch -->
    <title>4EE32F56-4D71-48DD-812A-E745DD90C9DA</title>
    <desc>Created with sketchtool.</desc>
    <defs></defs>
    <g id="Page-1" stroke="none" stroke-width="1" fill="none" fill-rule="evenodd">
        <g id="Case-Study---Landing--Copy" transform="translate(-1368.000000, -1790.000000)" fill="#FFFFFF">
            <g id="P&amp;G" transform="translate(1280.000000, 1659.000000)">
                <g id="P_and_G" transform="translate(88.000000, 131.000000)">
                    <path d="M114.717632,0.887892377 L112.581525,9.6415426 L111.67426,9.6415426 C111.546404,6.32566816 110.861919,6.18941704 109.619516,4.74102242 C108.393256,3.27519283 106.665901,2.54163229 104.436807,2.54163229 C102.14443,2.54163229 99.8514081,3.43210762 97.5583857,5.21176682 C95.266009,6.97463677 93.3074798,9.70611659 91.6827982,13.4055605 C90.0749058,17.0875695 89.2709596,20.962009 89.2709596,25.0275874 C89.2709596,28.5184574 89.9877309,31.1879462 91.4206278,33.037991 C92.8535247,34.8699552 94.5330942,35.7862601 96.4599821,35.7862601 C97.2723229,35.7862601 98.2590135,35.53313 99.4213453,35.02687 L101.905507,25.6558924 C102.31878,24.0854529 102.526063,23.0561435 102.526063,22.5673184 C102.526063,21.9215785 102.265184,21.5289686 101.762152,20.944574 C101.320466,20.4299193 101.432825,20.2639641 100.207211,20.2633184 L100.446135,19.2688789 L112.369076,19.2688789 L112.154045,20.2633184 C111.378511,20.589417 111.697507,20.4906188 111.220305,20.7870135 C110.757955,21.0672646 110.391821,21.485704 110.121256,22.0436233 C109.961758,22.3755336 109.715085,23.2304933 109.381238,24.6085022 L106.443121,35.5240897 C103.09948,36.9201794 99.5801973,37.6175785 95.886565,37.6182242 C93.0362691,37.6182242 90.608287,37.0506188 88.6019731,35.9173453 C86.6118027,34.783426 84.9554798,32.9856861 83.634296,30.5247713 C82.3286099,28.0638565 81.6757668,25.2632825 81.6757668,22.1217578 C81.6757668,15.4209148 84.3904574,9.89790135 89.8204843,5.55271749 C94.0713901,2.18453812 98.895713,0.50109417 104.294099,0.50044843 C105.232359,0.50044843 106.100879,0.552753363 106.897076,0.657363229 C107.485991,0.744538117 108.520466,0.989273543 110.001794,1.39027803 C110.957489,1.65180269 111.609686,1.78288789 111.960323,1.78288789 C112.660305,1.78288789 113.212413,1.74349776 113.83426,0.887892377 L114.717632,0.887892377" id="Fill-1"></path>
                    <path d="M64.7599641,22.2961076 C64.6682691,21.5948341 64.5972377,20.9658834 64.5455785,20.4073184 C64.4932735,19.83713 64.4674439,19.3373274 64.4674439,18.9085561 C64.4674439,16.3133274 65.2720359,14.159139 66.8818655,12.4446996 C68.4910493,10.7192825 70.3921076,9.85657399 72.5856861,9.85592825 C73.9875874,9.85592825 75.1098834,10.2517668 75.9538655,11.0434439 C76.8107623,11.8357668 77.2388879,12.7824215 77.2388879,13.8853453 C77.2388879,15.2743318 76.8236771,16.4689507 75.9932556,17.4679103 C74.7592466,18.9737758 72.7865112,20.304 70.0744036,21.458583 C70.9435695,24.2494709 71.5408789,26.0536682 71.8656861,26.8711749 C72.1898475,27.6886816 72.6244305,28.5778655 73.1700807,29.5380807 C73.9100987,28.720574 74.4415426,27.9288969 74.7663498,27.1630493 C75.0905112,26.384287 75.2525919,25.7488789 75.2532377,25.2548879 C75.2532377,24.8403229 75.1299013,24.4767713 74.8832287,24.1648789 C74.6365561,23.8536323 74.2342601,23.6263318 73.6763408,23.4836233 L73.9100987,22.7823498 L81.3858296,22.7823498 L81.0933094,23.4836233 C80.3926816,23.6528072 79.8024753,23.9382242 79.3220448,24.3398744 C78.8416143,24.7428161 77.9524305,25.8134529 76.655139,27.5524305 C75.7330224,28.7987085 74.818009,29.8951749 73.9100987,30.8424753 C74.9478027,32.2831211 75.8951031,33.2762691 76.752,33.8212735 C77.2976502,34.1854709 77.9201435,34.366278 78.6207713,34.366278 C79.023713,34.366278 79.373704,34.301704 79.6726816,34.1712646 C79.9703677,34.0421166 80.3339193,33.7954439 80.7626906,33.4318924 L81.3858296,33.4318924 C80.7626906,34.7692197 79.9387265,35.7746368 78.9132915,36.449435 C77.8872108,37.1242332 76.7261704,37.4613094 75.4282332,37.4619552 C74.3382242,37.4619552 73.357991,37.2475695 72.4888251,36.8194439 C71.6183677,36.3784036 70.6975426,35.6383857 69.7244126,34.6000359 C68.3870852,35.5479821 67.0374888,36.2615247 65.6749776,36.7413094 C64.3247354,37.2217399 62.9615785,37.4613094 61.5861525,37.4619552 C59.5869417,37.4619552 57.99713,36.9033901 56.8167175,35.7875516 C55.6350135,34.671713 55.0448072,33.360861 55.0448072,31.8549955 C55.0448072,30.6610224 55.2979372,29.596843 55.8041973,28.6624574 C56.3104574,27.7280717 57.2706726,26.7284664 58.6854888,25.664287 C60.1003049,24.6001076 62.1246996,23.4771659 64.7599641,22.2961076 Z M69.7244126,19.998565 C70.800861,19.2333632 71.5860807,18.4481435 72.0800717,17.6429058 C72.767139,16.5399821 73.1113184,15.3660269 73.1113184,14.1191031 C73.1113184,13.1847175 72.9169507,12.4647175 72.5275695,11.9584574 C72.2163229,11.581991 71.8198386,11.3947265 71.3400538,11.393435 C70.7556592,11.393435 70.2946009,11.6271928 69.9575247,12.0947085 C69.4641794,12.7953363 69.2181525,13.8795336 69.2181525,15.346009 C69.2181525,16.0078924 69.2568969,16.7278924 69.3350314,17.5066547 C69.425435,18.2725022 69.554583,19.1029238 69.7244126,19.998565 Z M65.0518386,23.7561256 C63.5588879,24.5736323 62.4882511,25.4240717 61.8392825,26.3061525 C61.2032287,27.1766099 60.8855247,28.221417 60.8855247,29.440574 C60.8855247,30.9335247 61.3459372,32.1927175 62.2680538,33.2175067 C63.2024395,34.2300269 64.2401435,34.736287 65.3824574,34.736287 C65.8758027,34.736287 66.4201614,34.6265112 67.0181166,34.4050224 C67.6147803,34.1854709 68.2631031,33.8606637 68.9650224,33.4318924 C68.1726996,32.2379193 67.4074978,30.7326996 66.6674798,28.9149417 C65.9403767,27.0984753 65.4024753,25.37887 65.0518386,23.7561256 L65.0518386,23.7561256 Z" id="Fill-2"></path>
                    <path d="M45.3851839,20.6811121 L42.3947623,30.957417 C41.9776143,32.4077489 41.7696861,33.4318924 41.7696861,34.0298475 C41.7696861,34.8641435 42.0415426,35.4982601 42.5852556,35.932843 C43.1289686,36.349991 42.5394081,36.079426 43.9503498,36.6128072 L43.5964843,37.6182242 L30.2645381,37.6182242 L30.5635157,36.6128072 C31.3590673,36.2473184 30.8314978,36.4500807 31.4662601,36.1775785 C32.0997309,35.8876413 32.6253632,35.4259372 33.0425112,34.7911749 C33.3505291,34.3746726 33.8122332,33.0967534 34.4289148,30.957417 L41.2530942,7.54999103 C41.7238386,5.99246637 41.9595336,4.87791928 41.9601794,4.20634978 C41.9601794,3.53607175 41.6612018,2.97427803 41.0626009,2.52096861 C40.4646457,2.05022422 41.1601076,2.66238565 40.1327354,1.75964126 L40.1843946,0.754224215 L52.6981883,0.754224215 C56.7030673,0.754224215 59.5850045,1.26177578 61.344,2.27623318 C64.062565,3.8718565 65.4218475,6.26432287 65.4218475,9.45363229 C65.4218475,12.5351031 64.062565,15.2536682 61.344,17.6093274 C58.64287,19.9475516 55.0002511,21.1163408 50.414852,21.1163408 C49.036843,21.1163408 47.3605022,20.9723408 45.3851839,20.6811121 Z M45.9288969,18.5882691 C47.1067265,18.7335605 48.0850224,18.8058834 48.8650762,18.8058834 C51.3660269,18.8058834 53.3323049,17.6635695 54.7645561,15.3802332 C56.1961614,13.0962511 56.9116413,10.7134709 56.912287,8.22995516 C56.912287,6.54457399 56.4499372,5.23953363 55.5258834,4.31547982 C54.6018296,3.37334529 53.3239103,2.9026009 51.6927713,2.90130942 C51.3479462,2.90130942 50.9217578,2.92003587 50.414852,2.95619731 L45.9288969,18.5882691 L45.9288969,18.5882691 Z" id="Fill-3"></path>
                    <path d="M6.52907623,52.4973632 L5.51526457,55.9817758 C5.37320179,56.4738296 5.30281614,56.8205919 5.30281614,57.0233543 C5.30281614,57.3061883 5.39515695,57.5212197 5.57983857,57.6684484 C5.76387444,57.8098655 6.18166816,57.8867085 6.83321973,57.8989776 L6.71311211,58.2399283 L0.610869955,58.2399283 L0.712251121,57.8989776 C1.22884305,57.8931659 1.59433184,57.8440897 1.80936323,57.7517489 C2.02439462,57.6535964 2.20261883,57.4966816 2.34403587,57.2810045 C2.44864574,57.1402332 2.6049148,56.7069417 2.81413453,55.9817758 L5.12782063,48.0449865 C5.28731839,47.5167713 5.36739013,47.1390135 5.36739013,46.911713 C5.36739013,46.6837668 5.26600897,46.4932735 5.06324664,46.3395874 C4.8604843,46.1800897 4.49176682,46.0942063 3.95709417,46.0819372 L4.05847534,45.7403408 L9.00871749,45.7403408 C10.3667085,45.7403408 11.3430673,45.9133991 11.9397309,46.2569327 C12.8618475,46.7980628 13.3222601,47.6091121 13.3222601,48.6900807 C13.3222601,49.7348879 12.8618475,50.6570045 11.9397309,51.4557848 C11.0240717,52.2487534 9.7887713,52.6445919 8.23447534,52.6445919 C7.76695964,52.6445919 7.19870852,52.5961614 6.52907623,52.4973632 Z M6.71311211,51.7876951 C7.11282511,51.8367713 7.44408969,51.8613094 7.70884305,51.8613094 C8.55669955,51.8613094 9.22310314,51.4738655 9.70934529,50.7002691 C10.194296,49.9253812 10.4370942,49.1175605 10.4370942,48.2755157 C10.4370942,47.7040359 10.2801794,47.261704 9.96699552,46.9485202 C9.65381166,46.6288789 9.22052018,46.4687354 8.66712108,46.4687354 C8.55024215,46.4687354 8.40624215,46.4751928 8.23447534,46.4874619 L6.71311211,51.7876951 L6.71311211,51.7876951 Z" id="Fill-4"></path>
                    <path d="M17.1753901,49.6954978 L15.7838206,54.8756233 C16.9267803,52.3501345 17.7869058,50.7951928 18.364843,50.2114439 C18.702565,49.8672646 19.0590135,49.6954978 19.4341883,49.6954978 C19.6918386,49.6954978 19.9004126,49.7904215 20.0605561,49.9809148 C20.2206996,50.1649507 20.3001256,50.429704 20.3007713,50.7732377 C20.3007713,51.3699013 20.1554798,51.8703498 19.8674798,52.2765202 C19.6827982,52.5341704 19.4768072,52.6633184 19.2495067,52.6633184 C19.0034798,52.6633184 18.8194439,52.5496682 18.6967534,52.3223677 C18.573417,52.0950673 18.4875336,51.9633363 18.4384574,51.9258834 C18.3893812,51.8832646 18.3370762,51.8613094 18.2815426,51.8613094 C18.2201973,51.8613094 18.1556233,51.8800359 18.0878206,51.916843 C17.952861,51.9904574 17.7746368,52.1719103 17.5537937,52.4605561 C17.3381166,52.7433901 17.0707803,53.2199462 16.751139,53.8895785 C16.4314978,54.5592108 16.1828879,55.1274619 16.0046637,55.5943318 C15.8264395,56.0553901 15.5778296,56.9374709 15.2581883,58.2399283 L13.027157,58.2399283 L14.5485202,52.1286457 C14.6589417,51.6740448 14.7144753,51.37313 14.7144753,51.2252556 C14.7144753,51.0593004 14.6834798,50.9301525 14.6221345,50.8378117 C14.5672466,50.7461166 14.4871749,50.6783139 14.382565,50.6356951 C14.2837668,50.5924305 14.0751928,50.5711211 13.7555516,50.5711211 L13.838852,50.303139 L16.6226368,49.6954978 L17.1753901,49.6954978" id="Fill-5"></path>
                    <path d="M26.255139,49.6954978 C26.7407354,49.6954978 27.1946906,49.809148 27.6195874,50.0364484 C28.0496502,50.2572915 28.3725202,50.5678924 28.5875516,50.9669596 C28.8083946,51.3666726 28.9188161,51.8090045 28.9188161,52.2946009 C28.9188161,53.2896861 28.6392108,54.285417 28.08,55.281148 C27.5272466,56.2768789 26.7956233,57.0633901 25.8864215,57.6406816 C24.976574,58.2121614 24.0615605,58.4982242 23.1394439,58.4982242 C22.3038565,58.4982242 21.6555336,58.2496143 21.1944753,57.7517489 C20.7398744,57.2538834 20.512574,56.6455964 20.512574,55.9262422 C20.512574,55.072574 20.6811121,54.2737937 21.0194798,53.5299013 C21.3636592,52.7801973 21.7963049,52.1286457 22.3193543,51.5758924 C22.8475695,51.0160359 23.4526278,50.5646637 24.1351749,50.2204843 C24.8170762,49.8704933 25.5235157,49.6954978 26.255139,49.6954978 Z M25.8773812,50.1836771 C25.5512825,50.1836771 25.2807175,50.2792466 25.0656861,50.4697399 C24.6356233,50.8565381 24.1500269,51.763157 23.6095426,53.1889507 C23.0684126,54.608287 22.7984933,55.889435 22.7984933,57.0323946 C22.7984933,57.3152287 22.8843767,57.5489865 23.0567892,57.7330224 C23.2285561,57.9170583 23.4313184,58.0100448 23.6650762,58.0100448 C23.9046457,58.0100448 24.1164484,57.9357848 24.30113,57.7885561 C24.5710493,57.5670673 24.9029596,57.0724305 25.2962152,56.304 C25.6894709,55.5304036 26.0123408,54.6793184 26.2641794,53.7507444 C26.5160179,52.8170045 26.6419372,51.9633363 26.6419372,51.1884484 C26.6419372,50.8688072 26.5650942,50.623426 26.4114081,50.4510135 C26.2583677,50.2727892 26.0801435,50.1836771 25.8773812,50.1836771 L25.8773812,50.1836771 Z" id="Fill-6"></path>
                    <path d="M36.5792287,56.018583 L36.8556054,56.2671928 C36.2595874,56.9807354 35.6726099,57.5024933 35.0953184,57.8344036 C34.3268879,58.2773812 33.5306906,58.4982242 32.7073722,58.4982242 C32.1546188,58.4982242 31.662565,58.3813453 31.2325022,58.1475874 C30.8088969,57.9080179 30.495713,57.5767534 30.2923049,57.1525022 C30.0895426,56.7224395 29.9881614,56.2833363 29.9881614,55.8339013 C29.9881614,54.8265471 30.2619552,53.8372735 30.8088969,52.8660807 C31.3558386,51.8890762 32.0777758,51.1180628 32.9747085,50.5523946 C33.872287,49.9809148 34.753722,49.6954978 35.6203049,49.6954978 C36.3144753,49.6954978 36.8368789,49.8491839 37.1875157,50.1559103 C37.5375067,50.4632825 37.7125022,50.8442691 37.7125022,51.29887 C37.7125022,51.710852 37.5807713,52.0614888 37.3166637,52.3501345 C37.0519103,52.6387803 36.7568072,52.783426 36.432,52.783426 C36.1491659,52.783426 35.9121794,52.6910852 35.7216861,52.5064036 C35.5376502,52.3223677 35.4453094,52.1041076 35.4453094,51.8522691 C35.4453094,51.5203587 35.6112646,51.231713 35.9431749,50.9856861 C36.1704753,50.8132735 36.2841256,50.6628161 36.2841256,50.5336682 C36.2841256,50.4232466 36.238278,50.3341345 36.1459372,50.2669776 C36.0226009,50.1681794 35.8631031,50.1197489 35.6661525,50.1191031 C35.1502063,50.1191031 34.6646099,50.3283229 34.210009,50.7461166 C33.6075336,51.29887 33.1471211,51.9994978 32.8274798,52.8473543 C32.5078386,53.6958565 32.3483408,54.5004484 32.3483408,55.2630673 C32.3483408,55.8648969 32.5110673,56.3472646 32.8365202,56.7101704 C33.1626188,57.0666188 33.549417,57.2441973 33.9982063,57.2441973 C34.3914619,57.2441973 34.815713,57.1434619 35.2703139,56.9406996 C35.7313722,56.7372915 36.1672466,56.430565 36.5792287,56.018583" id="Fill-7"></path>
                    <path d="M43.2807175,47.4457399 L42.5432825,49.953148 L43.7508161,49.953148 L43.4279462,51.0134529 L42.239139,51.0134529 L40.6996951,56.3595336 C40.6008969,56.6914439 40.5518206,56.9439283 40.5518206,57.1156951 C40.5518206,57.1957668 40.5795874,57.2661525 40.6351211,57.3274978 C40.690009,57.3830314 40.7513543,57.4107982 40.819157,57.4107982 C40.9237668,57.4107982 41.0309596,57.3675336 41.1420269,57.2810045 C41.4242152,57.0666188 41.7535426,56.6914439 42.1280717,56.1567713 L42.4509417,56.3595336 C42.0273363,57.0969686 41.5598206,57.6380987 41.0496861,57.982278 C40.5395516,58.3258117 40.0384574,58.4975785 39.5470493,58.4982242 C39.1292556,58.4982242 38.803157,58.3936143 38.5700448,58.1850404 C38.3427444,57.970009 38.2290942,57.6994439 38.2290942,57.373991 C38.2290942,57.0175426 38.3091659,56.559713 38.4686637,56.0005022 L39.9254529,51.0134529 L38.671426,51.0134529 L38.8561076,50.3309058 C39.6426188,50.0429058 40.3064395,49.7045381 40.8469238,49.3170942 C41.3874081,48.9296502 42.0389596,48.3065112 42.8009327,47.4457399 L43.2807175,47.4457399" id="Fill-8"></path>
                    <path d="M46.0645022,54.7832825 C46.0089686,55.1829955 45.9812018,55.5116771 45.9812018,55.7699731 C45.9812018,56.2303857 46.1135785,56.5991031 46.3776861,56.8761256 C46.6476054,57.1525022 47.0072825,57.2906906 47.4560717,57.2906906 C47.8861345,57.2906906 48.3161973,57.1867265 48.7469058,56.9775067 C49.1827803,56.768287 49.6864574,56.4027982 50.258583,55.8803946 L50.5349596,56.1290045 C49.8278744,56.9839641 49.1401614,57.5916054 48.4705291,57.9538655 C47.8002511,58.3167713 47.0595874,58.4975785 46.2485381,58.4982242 C45.2224574,58.4982242 44.5127892,58.2521973 44.1195336,57.7607892 C43.7256323,57.2693812 43.5293274,56.70113 43.5293274,56.0553901 C43.5293274,55.0480359 43.8212018,54.0400359 44.4049507,53.0320359 C44.995157,52.0240359 45.7939372,51.216861 46.8019372,50.6079283 C47.8157489,49.9996413 48.8327892,49.6954978 49.8530583,49.6954978 C50.3690045,49.6954978 50.7590314,49.8181883 51.0237848,50.0635695 C51.2878924,50.3095964 51.4196233,50.6201973 51.4196233,50.9947265 C51.4196233,51.4435157 51.2911211,51.8800359 51.0328251,52.3036413 C50.6763767,52.8815785 50.2275874,53.3484484 49.6871031,53.7048969 C49.1459731,54.0548879 48.5409148,54.32287 47.8712825,54.5069058 C47.4224933,54.6302422 46.8200179,54.7219372 46.0645022,54.7832825 Z M46.147157,54.3041435 C46.6876413,54.2240717 47.105435,54.1168789 47.4005381,53.9812735 C47.7020987,53.8405022 47.9939731,53.6190135 48.2768072,53.3174529 C48.5654529,53.0107265 48.8140628,52.6265112 49.0232825,52.1654529 C49.2318565,51.698583 49.3364664,51.2627085 49.3364664,50.8565381 C49.3364664,50.6847713 49.2873901,50.5498117 49.1892377,50.4510135 C49.0968969,50.352861 48.977435,50.3037848 48.8295605,50.303139 C48.5344574,50.303139 48.2031928,50.5097758 47.8344753,50.9211121 C47.1577399,51.6708161 46.5959462,52.7989238 46.147157,54.3041435 L46.147157,54.3041435 Z" id="Fill-9"></path>
                    <path d="M55.9643408,49.6954978 L54.5721256,54.8756233 C55.7150852,52.3501345 56.5752108,50.7951928 57.153148,50.2114439 C57.4915157,49.8672646 57.8479641,49.6954978 58.2224933,49.6954978 C58.4807892,49.6954978 58.6893632,49.7904215 58.8495067,49.9809148 C59.0090045,50.1649507 59.0884305,50.429704 59.0890762,50.7732377 C59.0890762,51.3699013 58.9444305,51.8703498 58.6557848,52.2765202 C58.4717489,52.5341704 58.2657578,52.6633184 58.0384574,52.6633184 C57.7924305,52.6633184 57.6077489,52.5496682 57.485704,52.3223677 C57.3623677,52.0950673 57.2758386,51.9633363 57.2274081,51.9258834 C57.1776861,51.8832646 57.1253812,51.8613094 57.0704933,51.8613094 C57.0085022,51.8613094 56.944574,51.8800359 56.8767713,51.916843 C56.7418117,51.9904574 56.5635874,52.1719103 56.3420987,52.4605561 C56.1270673,52.7433901 55.8597309,53.2199462 55.5400897,53.8895785 C55.2204484,54.5592108 54.9718386,55.1274619 54.7936143,55.5943318 C54.6153901,56.0553901 54.3661345,56.9374709 54.047139,58.2399283 L51.8161076,58.2399283 L53.3374709,52.1286457 C53.4478924,51.6740448 53.503426,51.37313 53.503426,51.2252556 C53.503426,51.0593004 53.4724305,50.9301525 53.4110852,50.8378117 C53.3555516,50.7461166 53.2754798,50.6783139 53.1715157,50.6356951 C53.0727175,50.5924305 52.8641435,50.5711211 52.5445022,50.5711211 L52.6278027,50.303139 L55.4115874,49.6954978 L55.9643408,49.6954978" id="Fill-10"></path>
                    <path d="M69.0263677,51.3453632 C68.9831031,51.0134529 68.9488789,50.7157668 68.9243408,50.4510135 C68.8998027,50.1804484 68.8875336,49.9441076 68.8875336,49.7413453 C68.8875336,48.5125022 69.2685202,47.4922332 70.0304933,46.6805381 C70.7924664,45.8636771 71.6926278,45.4555695 72.7316233,45.4549238 C73.3954439,45.4549238 73.9268879,45.6428341 74.3266009,46.0173632 C74.7321256,46.3925381 74.9342422,46.8406816 74.9342422,47.3630852 C74.9342422,48.0204484 74.7379372,48.5861166 74.3446816,49.0594439 C73.7609327,49.7723408 72.8265471,50.4019372 71.5428161,50.9488789 C71.9541525,52.2700628 72.2369865,53.1243767 72.3906726,53.5111749 C72.543713,53.8986188 72.749704,54.3196413 73.008,54.7742422 C73.3586368,54.3867982 73.6104753,54.0122691 73.7635157,53.6493632 C73.9178475,53.2806457 73.9940448,52.9797309 73.9940448,52.7466188 C73.9940448,52.5496682 73.9359283,52.3779013 73.8190493,52.2300269 C73.7021704,52.0827982 73.5116771,51.9749596 73.2475695,51.907157 L73.3586368,51.5758924 L76.8979372,51.5758924 L76.7597489,51.907157 C76.4278386,51.9872287 76.1482332,52.1228341 75.9209327,52.3133274 C75.6936323,52.5038206 75.2726099,53.0107265 74.6578655,53.8340448 C74.2213453,54.4236054 73.7886996,54.943426 73.3586368,55.3915695 C73.8500448,56.0734709 74.2981883,56.5442152 74.7043587,56.8018655 C74.962009,56.974278 75.2571121,57.0601614 75.5890224,57.0601614 C75.7795157,57.0601614 75.9454709,57.0298117 76.0868879,56.9678206 C76.2283049,56.9071211 76.4000717,56.7902422 76.6028341,56.6178296 L76.8979372,56.6178296 C76.6028341,57.2506547 76.2128072,57.7272108 75.7272108,58.046852 C75.2416143,58.3658475 74.6914439,58.5253453 74.0773453,58.525991 C73.5613991,58.525991 73.0971121,58.4246099 72.6857758,58.2218475 C72.2737937,58.0126278 71.8372735,57.6626368 71.376861,57.170583 C70.7433901,57.6193722 70.1047534,57.9570942 69.4590135,58.1850404 C68.8203767,58.4116951 68.1746368,58.5253453 67.5230852,58.525991 C66.5770762,58.525991 65.8241435,58.2612377 65.2649327,57.7330224 C64.705722,57.2048072 64.4267623,56.5842511 64.4267623,55.8707085 C64.4267623,55.3056861 64.5462242,54.802009 64.7857937,54.3596771 C65.0253632,53.9166996 65.4799641,53.4440179 66.1502422,52.9396951 C66.8198744,52.4360179 67.7781525,51.904574 69.0263677,51.3453632 Z M71.376861,50.2572915 C71.8863498,49.8950314 72.258296,49.5230852 72.4920538,49.1420987 C72.8175067,48.6196951 72.9802332,48.063713 72.9808789,47.4735067 C72.9808789,47.0311749 72.8885381,46.6902242 72.7038565,46.4506547 C72.5566278,46.2724305 72.3687175,46.1833184 72.141417,46.1826726 C71.8650404,46.1826726 71.6467803,46.2937399 71.4872825,46.5152287 C71.2535247,46.8464933 71.1372915,47.3598565 71.1372915,48.0540269 C71.1372915,48.3678565 71.1553722,48.7088072 71.1921794,49.0775247 C71.2347982,49.4397848 71.2967892,49.8330404 71.376861,50.2572915 Z M69.1639103,52.0363049 C68.4574709,52.4237489 67.9499193,52.8266906 67.6431928,53.2438386 C67.342278,53.6558206 67.1918206,54.1504574 67.1918206,54.7277489 C67.1918206,55.4348341 67.4100807,56.030852 67.8459552,56.5164484 C68.288287,56.9955874 68.7803408,57.235157 69.3208251,57.235157 C69.5539372,57.235157 69.8122332,57.1834978 70.0950673,57.0788879 C70.3779013,56.974278 70.6846278,56.8205919 71.0171839,56.6178296 C70.642009,56.0528072 70.2797489,55.3399103 69.9297578,54.479139 C69.5849327,53.6190135 69.3298655,52.8047354 69.1639103,52.0363049 L69.1639103,52.0363049 Z" id="Fill-11"></path>
                    <path d="M97.0663318,45.4549238 L96.2003946,49.4649686 L95.8504036,49.4649686 C95.8006816,48.2968251 95.536574,47.4586547 95.057435,46.9485202 C94.5841076,46.4319283 93.9170583,46.1736323 93.0569327,46.1736323 C92.1722691,46.1736323 91.2869596,46.4874619 90.402296,47.1138296 C89.5169865,47.7350314 88.7614709,48.6965381 88.1344574,49.9996413 C87.5139013,51.296287 87.2033004,52.6600897 87.2033004,54.0923408 C87.2033004,55.3211839 87.4803229,56.2613812 88.0330762,56.9129327 C88.5858296,57.5580269 89.2347982,57.8808969 89.9780448,57.8808969 C90.2918744,57.8808969 90.672861,57.7917848 91.1210045,57.6135605 L92.0799283,54.3131839 C92.239426,53.7597848 92.3194978,53.3975247 92.3194978,53.2257578 C92.3194978,52.9984574 92.2213453,52.8079641 92.0243946,52.6536323 C91.8339013,52.4941345 91.501991,52.4147085 91.0293094,52.4140628 L91.1210045,52.0640717 L96.5135785,52.0640717 L96.430278,52.4140628 C96.1106368,52.4327892 95.8594439,52.4941345 95.6747623,52.5987444 C95.4965381,52.6968969 95.3551211,52.8447713 95.2505112,53.0410762 C95.1891659,53.1579552 95.0942422,53.4595157 94.9650942,53.9444664 L93.8311749,57.7885561 C92.5409865,58.2799641 91.1829955,58.5253453 89.7572018,58.525991 C88.656861,58.525991 87.7198924,58.3258117 86.9456502,57.9267444 C86.1772197,57.5270314 85.5379372,56.8942063 85.0284484,56.0276233 C84.5241256,55.1610404 84.272287,54.1749955 84.272287,53.068843 C84.272287,50.7093094 85.3196771,48.7643408 87.4157489,47.2339372 C89.056574,46.047713 90.9182422,45.4555695 93.0013991,45.4549238 C93.3643049,45.4549238 93.6994439,45.4730045 94.0068161,45.5104574 C94.2341166,45.5408072 94.6331839,45.6273363 95.2046637,45.7681076 C95.5733812,45.8604484 95.8252197,45.906296 95.9601794,45.906296 C96.2307444,45.906296 96.4858117,45.7558386 96.7253812,45.4549238 L97.0663318,45.4549238" id="Fill-12"></path>
                    <path d="M105.639175,49.824 L103.851121,55.954009 L103.667085,56.7004843 C103.648359,56.7928251 103.639318,56.8606278 103.639318,56.9038924 C103.639318,56.9775067 103.663857,57.041435 103.712933,57.0969686 C103.767821,57.1525022 103.823354,57.1802691 103.878888,57.1802691 C104.00739,57.1802691 104.185614,57.0814709 104.413561,56.8851659 C104.505256,56.8050942 104.726744,56.5229058 105.077381,56.0366637 L105.399605,56.2032646 C104.963085,57.0020448 104.496215,57.5857937 103.99835,57.9538655 C103.506942,58.3167713 102.975498,58.4975785 102.404018,58.4982242 C102.054027,58.4982242 101.786045,58.4091121 101.602009,58.2308879 C101.417973,58.046852 101.325632,57.8163229 101.325632,57.5393004 C101.325632,57.2997309 101.423785,56.8541704 101.620735,56.2032646 L101.841578,55.4561435 C101.128682,56.6791749 100.443552,57.5457578 99.7861883,58.0558924 C99.4052018,58.3503498 98.9996771,58.4982242 98.5696143,58.4982242 C98.0039462,58.4982242 97.5951928,58.2676951 97.3433543,57.8072825 C97.09087,57.3397668 96.9655964,56.8141345 96.9655964,56.2303857 C96.9655964,55.3638027 97.229704,54.3719462 97.7579193,53.2535247 C98.2861345,52.1286457 98.9809507,51.2252556 99.8410762,50.5433543 C100.548161,49.9783318 101.211336,49.6954978 101.832538,49.6954978 C102.176072,49.6954978 102.453094,49.7962332 102.661668,49.9996413 C102.870888,50.1959462 103.024574,50.558852 103.122726,51.0870673 L103.454637,49.953148 L105.639175,49.824 Z M102.689435,51.5758924 C102.689435,51.0780269 102.612592,50.7183498 102.458906,50.496861 C102.348484,50.3431749 102.198027,50.2669776 102.007534,50.2669776 C101.81704,50.2669776 101.620735,50.3586726 101.417973,50.5433543 C101.005991,50.9243408 100.56043,51.698583 100.080646,52.8660807 C99.6073184,54.0277668 99.3709776,55.0325381 99.3709776,55.8803946 C99.3709776,56.2058475 99.4232825,56.4428341 99.5278924,56.5900628 C99.6383139,56.7314798 99.7584215,56.8018655 99.8875695,56.8018655 C100.163946,56.8018655 100.443552,56.6423677 100.726386,56.3227265 C101.13191,55.8681256 101.497399,55.3121435 101.823498,54.6541345 C102.400789,53.4995516 102.689435,52.4728251 102.689435,51.5758924 L102.689435,51.5758924 Z" id="Fill-13"></path>
                    <path d="M111.050475,49.6954978 L109.870709,53.6590493 C110.663031,52.4418296 111.240969,51.6217399 111.603229,51.1974888 C112.137901,50.5769327 112.577004,50.1714081 112.92183,49.9809148 C113.271821,49.7904215 113.622457,49.6954978 113.972448,49.6954978 C114.371516,49.6954978 114.660807,49.8149596 114.839031,50.0545291 C115.01661,50.2940987 115.105722,50.558852 115.105722,50.8474978 C115.105722,51.1490583 115.023067,51.5907444 114.857112,52.1744933 L114.442547,53.6590493 C115.241327,52.4295605 115.816036,51.6126996 116.166027,51.2065291 C116.706511,50.5801614 117.17661,50.1559103 117.576323,49.9350673 C117.8527,49.7749238 118.147803,49.6954978 118.461632,49.6954978 C118.787085,49.6954978 119.05765,49.8059193 119.272682,50.0267623 C119.493525,50.2424395 119.604592,50.5246278 119.604592,50.8752646 C119.604592,51.2685202 119.512251,51.7786547 119.328215,52.4050224 L118.304717,55.8435874 C118.151031,56.353722 118.074188,56.6824036 118.074188,56.8296323 C118.074188,56.8787085 118.092915,56.9252018 118.129722,56.9678206 C118.172341,57.0110852 118.218834,57.0323946 118.26791,57.0323946 C118.335067,57.0323946 118.39383,57.0110852 118.442906,56.9678206 C118.664395,56.7902422 118.897507,56.5287175 119.143534,56.1845381 C119.199067,56.1109238 119.281722,55.9972735 119.392789,55.8435874 L119.705973,56.0463498 C119.281722,56.8393184 118.814852,57.4198386 118.304717,57.7885561 C117.800395,58.1572735 117.333525,58.3413094 116.903462,58.3413094 C116.528933,58.3413094 116.227372,58.2399283 116.000072,58.0371659 C115.772771,57.8285919 115.659121,57.5857937 115.659121,57.309417 C115.659121,57.0446637 115.735964,56.6455964 115.88965,56.1109238 L116.931229,52.5160897 C117.072646,52.0182242 117.143031,51.7076233 117.143031,51.5849327 C117.143031,51.5416682 117.121722,51.502278 117.079103,51.4648251 C117.035839,51.4222063 116.992574,51.4008969 116.949309,51.4002511 C116.869238,51.4002511 116.789812,51.4189776 116.70974,51.4557848 C116.592861,51.51713 116.412054,51.6766278 116.166027,51.9349238 C115.926457,52.1932197 115.579049,52.656861 115.124448,53.3264933 C114.669848,53.9903139 114.352789,54.5101345 114.175211,54.8846637 C114.002798,55.2598386 113.831031,55.745435 113.659265,56.3408072 L113.096825,58.2399283 L110.764413,58.2399283 L112.488538,52.2209865 C112.580233,51.8955336 112.626726,51.6708161 112.626726,51.5481256 C112.626726,51.504861 112.604771,51.4654709 112.562152,51.4280179 C112.525345,51.3912108 112.485309,51.37313 112.442045,51.37313 C112.214744,51.37313 111.855067,51.6708161 111.363659,52.2668341 C110.613955,53.1889507 109.932054,54.2976861 109.317309,55.5943318 L108.570834,58.2399283 L106.220341,58.2399283 L107.952861,52.3133274 C108.124628,51.7295785 108.211157,51.3143677 108.211157,51.0683408 C108.211157,50.9701883 108.186619,50.8875336 108.137543,50.8197309 C108.088466,50.7461166 108.008395,50.690583 107.897973,50.6537758 C107.786906,50.611157 107.575103,50.5898475 107.261274,50.5892018 L107.35426,50.2392108 L110.497076,49.6954978 L111.050475,49.6954978" id="Fill-14"></path>
                    <path d="M126.683839,45.4549238 L125.088861,51.0134529 C125.574457,50.4852377 125.979982,50.1346009 126.306081,49.9628341 C126.631534,49.7846099 126.984753,49.6954978 127.36574,49.6954978 C128.103175,49.6954978 128.653345,49.9628341 129.015605,50.496861 C129.384323,51.025722 129.569004,51.6372377 129.569004,52.3314081 C129.569004,53.9903139 128.966529,55.4716413 127.762224,56.7740987 C126.692879,57.9235157 125.476305,58.4975785 124.111857,58.4982242 C123.098045,58.4982242 122.025471,58.2005381 120.89478,57.6038744 L123.715372,47.8234978 C123.850332,47.3630852 123.918135,47.0466726 123.918135,46.8742601 C123.918135,46.7270314 123.856789,46.6101525 123.734099,46.5242691 C123.561686,46.4015785 123.300807,46.3492735 122.95017,46.3673543 L123.052197,45.9986368 L126.130439,45.4549238 L126.683839,45.4549238 Z M123.143892,57.6962152 C123.432538,57.8808969 123.694063,57.9725919 123.927821,57.9725919 C124.253274,57.9725919 124.526422,57.9080179 124.74791,57.7795157 C125.097901,57.570296 125.464036,57.1925381 125.845022,56.6455964 C126.231821,56.0986547 126.554691,55.4380628 126.812987,54.6638206 C127.070637,53.8895785 127.199785,53.1179193 127.199785,52.3501345 C127.199785,51.9136143 127.101632,51.581704 126.904682,51.3544036 C126.708377,51.1271031 126.481076,51.0134529 126.22278,51.0134529 C125.792717,51.0134529 125.417543,51.2226726 125.097901,51.6398206 C124.883516,51.9103857 124.649758,52.4850942 124.397919,53.3639462 L123.143892,57.6962152 L123.143892,57.6962152 Z" id="Fill-15"></path>
                    <path d="M136.131659,45.4549238 L133.081184,55.8339013 C132.90296,56.4492915 132.813848,56.832861 132.813848,56.9865471 C132.813848,57.0666188 132.838386,57.1337758 132.887462,57.1893094 C132.94235,57.2441973 133.001112,57.2719641 133.062457,57.2719641 C133.172879,57.2719641 133.277489,57.2293453 133.375641,57.1434619 C133.670744,56.9038924 133.999426,56.497722 134.362332,55.9262422 L134.722009,56.0921973 C134.13826,57.026583 133.562906,57.6936323 132.997883,58.0926996 C132.611085,58.3626188 132.199103,58.4975785 131.762583,58.4982242 C131.357058,58.4982242 131.034188,58.3903857 130.794619,58.1753543 C130.555049,57.9538655 130.435587,57.6904036 130.435587,57.3830314 C130.435587,57.1557309 130.509202,56.7902422 130.65643,56.2859193 L133.145112,47.7866906 C133.280717,47.3198206 133.347874,47.0098655 133.347874,46.8561794 C133.347874,46.7083049 133.283946,46.5920717 133.154798,46.5055426 C132.982386,46.382852 132.721507,46.3305471 132.371516,46.3486278 L132.472251,45.9986368 L135.578906,45.4549238 L136.131659,45.4549238" id="Fill-16"></path>
                    <path d="M138.35365,54.7832825 C138.298117,55.1829955 138.27035,55.5116771 138.27035,55.7699731 C138.27035,56.2303857 138.402726,56.5991031 138.666834,56.8761256 C138.937399,57.1525022 139.29643,57.2906906 139.74522,57.2906906 C140.175283,57.2906906 140.605345,57.1867265 141.036054,56.9775067 C141.471928,56.768287 141.975605,56.4027982 142.547731,55.8803946 L142.824108,56.1290045 C142.117668,56.9839641 141.429309,57.5916054 140.759031,57.9538655 C140.089399,58.3167713 139.348735,58.4975785 138.538332,58.4982242 C137.511605,58.4982242 136.801937,58.2521973 136.408682,57.7607892 C136.01478,57.2693812 135.818475,56.70113 135.818475,56.0553901 C135.818475,55.0480359 136.11035,54.0400359 136.694744,53.0320359 C137.284305,52.0240359 138.083085,51.216861 139.091085,50.6079283 C140.104897,49.9996413 141.121937,49.6954978 142.142206,49.6954978 C142.658152,49.6954978 143.048179,49.8181883 143.312287,50.0635695 C143.57704,50.3095964 143.708771,50.6201973 143.709417,50.9947265 C143.709417,51.4435157 143.580269,51.8800359 143.321973,52.3036413 C142.965525,52.8815785 142.516735,53.3484484 141.976251,53.7048969 C141.435121,54.0548879 140.830063,54.32287 140.16043,54.5069058 C139.711641,54.6302422 139.109166,54.7219372 138.35365,54.7832825 Z M138.436305,54.3041435 C138.977435,54.2240717 139.395229,54.1168789 139.690332,53.9812735 C139.991247,53.8405022 140.283121,53.6190135 140.565955,53.3174529 C140.854601,53.0107265 141.103211,52.6265112 141.31243,52.1654529 C141.52165,51.698583 141.625614,51.2627085 141.625614,50.8565381 C141.625614,50.6847713 141.576538,50.5498117 141.478386,50.4510135 C141.386045,50.352861 141.266583,50.3037848 141.119354,50.303139 C140.824251,50.303139 140.492341,50.5097758 140.123623,50.9211121 C139.447534,51.6708161 138.885094,52.7989238 138.436305,54.3041435 L138.436305,54.3041435 Z" id="Fill-17"></path>
                </g>
            </g>
        </g>
    </g>
</svg>