<svg xmlns="http://www.w3.org/2000/svg" xmlns:xlink="http://www.w3.org/1999/xlink" width="37" height="40" viewBox="0 0 37 40">
    <defs>
        <path id="a" d="M12.18.018H0v31.525h24.36V.018z"/>
        <path id="c" d="M.032 3.49h14.74V.05H.032z"/>
    </defs>
    <g fill="none" fill-rule="evenodd">
        <g transform="translate(0 .036)">
            <mask id="b" fill="#fff">
                <use xlink:href="#a"/>
            </mask>
            <path fill="#888" d="M.144.018A.144.144 0 0 0 0 .163V4.91c0 .08.064.142.144.142h1.995v20.855H.144a.144.144 0 0 0-.144.142v4.747c0 .081.064.144.144.144h4.921l1.174-1.876a11.102 11.102 0 0 0 7.01 2.479c6.138 0 11.112-4.948 11.112-11.052 0-6.105-4.974-11.052-11.112-11.052-1.46 0-2.853.283-4.132.795a.133.133 0 0 0-.072.12v5.694c0 .04.033.074.076.074.02 0 .039-.009.054-.02a6.002 6.002 0 0 1 4.074-1.587c3.319 0 6.01 2.674 6.01 5.976 0 3.299-2.691 5.977-6.01 5.977-3.317 0-6.008-2.678-6.008-5.977V2.556A2.543 2.543 0 0 0 4.69.018H.144z" mask="url(#b)"/>
        </g>
        <path fill="#3A3A3A" d="M30.243 17.798c2.312 0 4.18-1.865 4.18-4.16a4.17 4.17 0 0 0-4.18-4.163c-2.354 0-4.229 1.867-4.229 4.163 0 2.295 1.875 4.16 4.23 4.16m0 13.78a4.169 4.169 0 0 0 4.179-4.16 4.17 4.17 0 0 0-4.18-4.162c-2.354 0-4.229 1.865-4.229 4.162 0 2.295 1.875 4.16 4.23 4.16M.54 38.737v-4.146H0v-.428h1.098V35.9c.389-.218.719-.307.997-.307.99 0 1.276.748 1.276 1.753 0 .923-.34 1.69-1.44 1.69-.457 0-.968-.103-1.392-.3zm.558-2.401v2.103c.28.122.567.156.799.156.56 0 .9-.298.9-1.235 0-1.052-.326-1.304-.79-1.304-.322 0-.664.136-.909.28zm5.46 2.231h.526l.033.32c-.163.089-.504.137-.66.137-.254 0-.411-.06-.417-.409-.01 0-.01-.006-.01-.006-.51.435-.933.435-1.137.435-.772 0-.962-.57-.962-.95 0-.572.414-.936 1.25-.992l.844-.054v-.218c0-.57-.163-.752-.71-.752-.327 0-.688.066-1.023.183a10.75 10.75 0 0 1-.117-.374c.376-.17.854-.265 1.27-.265.702 0 1.113.285 1.113 1.1v1.846zm-1.372-1.106c-.429.028-.67.26-.67.578 0 .387.186.556.616.556.279 0 .634-.156.887-.394v-.794l-.833.054zm2.926 1.106h1.581v-.521h.437v.943H7.42v-.387l1.967-2.491H7.995v.536H7.57v-.971h2.505v.388l-1.964 2.503zm5.01 0h.525l.034.32c-.163.089-.504.137-.662.137-.252 0-.409-.06-.417-.409-.006 0-.006-.006-.014-.006-.503.435-.927.435-1.13.435-.772 0-.964-.57-.964-.95 0-.572.417-.936 1.25-.992l.844-.054v-.218c0-.57-.163-.752-.708-.752-.328 0-.69.066-1.023.183a8.04 8.04 0 0 1-.116-.374c.375-.17.853-.265 1.268-.265.703 0 1.114.285 1.114 1.1v1.846zm-1.372-1.106c-.429.028-.67.26-.67.578 0 .387.186.556.616.556.28 0 .635-.156.886-.394v-.794l-.832.054zm4.813 1.106h.525l.033.32c-.164.089-.503.137-.661.137-.253 0-.41-.06-.417-.409 0 0-.007-.006-.013-.006-.505.435-.929.435-1.133.435-.77 0-.962-.57-.962-.95 0-.572.414-.936 1.247-.992l.848-.054v-.218c0-.57-.165-.752-.71-.752-.327 0-.688.066-1.024.183a6.877 6.877 0 0 1-.116-.374c.376-.17.853-.265 1.27-.265.702 0 1.113.285 1.113 1.1v1.846zm-1.373-1.106c-.43.028-.67.26-.67.578 0 .387.185.556.615.556.28 0 .634-.156.888-.394v-.794l-.833.054zm3.283-1.324c.266-.224.785-.542 1.193-.542.11 0 .171.048.171.19 0 .15-.069.401-.183.537l-1.181.06v2.185h.523v.422h-1.568v-.422h.485v-2.456h-.479v-.435h1.024v.461h.015z"/>
        <g transform="translate(20.137 35.584)">
            <mask id="d" fill="#fff">
                <use xlink:href="#c"/>
            </mask>
            <path fill="#888" d="M.032.123h.802l.472 1.467.417 1.376h.027c.116-.4.252-.806.369-1.2.136-.408.259-.794.389-1.21h-.314V.123h1.201v.433H3.06c-.334.966-.668 1.915-1.01 2.88h-.667L.405.556H.032V.123zm5.09 3.367c-1.087 0-1.434-.795-1.434-1.69 0-.883.41-1.744 1.494-1.744 1.112 0 1.447.861 1.447 1.73 0 .849-.348 1.704-1.508 1.704zm.08-2.987c-.75 0-.935.665-.935 1.297 0 .659.13 1.249.908 1.249.723 0 .88-.653.88-1.249 0-.586-.137-1.297-.853-1.297zm1.842.053V.13h.901v2.884h.5v.334c-.173.08-.424.128-.583.128-.312 0-.462-.109-.47-.475V.556h-.348zM11.41.225V1.1h-.425V.578a1.77 1.77 0 0 0-.449-.062c-.716 0-1.05.484-1.05 1.297 0 .761.258 1.222.94 1.222.35 0 .643-.069.984-.203l.136.386c-.287.164-.724.272-1.16.272-1.118 0-1.468-.727-1.468-1.67 0-.705.26-1.77 1.509-1.77.368 0 .71.06.983.175zm3.362 1.405v.299H12.56c-.005.625.193 1.126.935 1.126.39 0 .677-.073 1.051-.23l.152.359c-.397.21-.8.306-1.244.306-1.187 0-1.466-.822-1.466-1.703 0-.59.225-1.738 1.46-1.738 1.29 0 1.324 1.173 1.324 1.58zm-2.197-.122h1.659c-.015-.584-.185-1.026-.792-1.026-.587 0-.833.482-.867 1.026z" mask="url(#d)"/>
        </g>
        <path fill="#3A3A3A" d="M34.315 31.58v-.136h.177v-1.192h-.338v.227h-.14v-.366h1.134v.366h-.14v-.227h-.335v1.192h.178v.136h-.536zm1.804-.351c.037-.084.073-.178.11-.259l.377-.855h.37v.137h-.133v1.193h.133v.135h-.454v-.135h.134v-1.05h-.005l-.094.221c-.05.113-.099.227-.151.34-.069.153-.137.305-.203.459h-.188c-.123-.274-.245-.538-.365-.814-.03-.069-.063-.137-.09-.206h-.007l-.002 1.05h.14v.135h-.453v-.135h.138v-1.193h-.138v-.137h.38c.088.19.234.525.36.807.049.112.094.223.13.307h.011z"/>
    </g>
</svg>
