<svg xmlns="http://www.w3.org/2000/svg" width="129" height="129" viewBox="0 0 129 129">
    <g fill="none" fill-rule="evenodd" transform="translate(1 1)">
        <circle cx="63.5" cy="63.5" r="63.5" stroke="#979797"/>
        <g fill-rule="nonzero">
            <path fill="#3E4045" d="M47.678 85.614h30.847v1.228H47.678zM83.034 75.421h-1.187V30.965H44.593V75.42h-1.186V29.614h39.627z"/>
            <path fill="#3E4045" d="M44 35.386h38.441v1.228H44zM47.678 78.86h30.966v1.228H47.678zM61.441 32.807h4.034v1.228h-4.034zM67.017 32.807h2.254v1.228h-2.254zM63.22 85c-1.186 0-2.135-.982-2.135-2.21 0-1.229.949-2.211 2.135-2.211 1.187 0 2.136.982 2.136 2.21 0 1.229-.95 2.211-2.136 2.211zm0-3.07c-.474 0-.83.368-.83.86 0 .49.356.86.83.86.475 0 .83-.37.83-.86 0-.492-.355-.86-.83-.86z"/>
            <g fill="#3E4045">
                <path d="M48.39 88.561h-1.187v-9.456l3.204-3.316c2.373-2.456 1.068-5.035.356-6.14l-8.424 8.474-.83-.983 9.372-9.333.475.491c1.305 1.474 3.085 5.158 0 8.474l-2.848 2.947v8.842h-.118z"/>
                <path d="M53.492 98.263H37.593V80.211c0-2.334 1.899-3.685 1.899-3.807l4.033-4.422.95.86-4.153 4.544c-.119.123-1.542 1.228-1.542 2.825v16.701h13.525v-1.35c0-.123.119-1.351 1.187-2.58.949-.982 7.118-7.122 7.474-7.368l.83.982c-.118.123-6.406 6.264-7.355 7.246-.83.86-.83 1.72-.83 1.72l-.12 2.701z"/>
            </g>
            <g fill="#3E4045">
                <path d="M79.237 88.561h-1.186v-8.965l-2.848-2.947c-3.084-3.193-1.423-6.877 0-8.474l.475-.49 9.373 9.333-.83.982-8.662-8.474c-.712 1.106-2.017 3.685.356 6.14l3.204 3.316v9.58h.118z"/>
                <path d="M88.729 98.263H72.83v-2.702s-.12-.86-.831-1.596c-.95-.983-7.356-7.246-7.356-7.246l.83-.982c.238.245 6.407 6.263 7.475 7.368 1.068 1.106 1.187 2.456 1.187 2.456v1.351H87.66V80.211c0-1.597-1.424-2.702-1.424-2.702l-4.27-4.667.948-.86 4.153 4.544s1.898 1.474 1.898 3.685v18.052h-.237z"/>
            </g>
            <path fill="#3E4045" d="M50.763 60.439H75.56v1H50.763zM50.763 64H75.56v1H50.763z"/>
            <path fill="#D74227" d="M63.102 56.754c-4.39 0-8.068-3.807-8.068-8.35 0-4.544 3.678-8.351 8.068-8.351s8.067 3.807 8.067 8.35c.12 4.667-3.559 8.351-8.067 8.351zm0-15.719c-3.916 0-7.119 3.316-7.119 7.369 0 4.052 3.203 7.368 7.119 7.368 3.915 0 7.118-3.316 7.118-7.368 0-4.053-3.084-7.369-7.118-7.369z"/>
            <path fill="#D74227" d="M63.102 50c-1.78 0-3.322-1.596-3.322-3.439 0-1.842 1.542-3.438 3.322-3.438s3.322 1.596 3.322 3.438C66.424 48.404 65 50 63.102 50zm0-5.772c-1.305 0-2.373 1.105-2.373 2.456s1.068 2.456 2.373 2.456c1.305 0 2.373-1.105 2.373-2.456 0-1.35-1.068-2.456-2.373-2.456z"/>
            <path fill="#D74227" d="M68.203 54.421h-.949c0-2.456-1.898-4.421-4.27-4.421-2.374 0-4.153 1.965-4.153 4.421h-.95c0-2.947 2.255-5.403 5.22-5.403 2.848 0 5.102 2.456 5.102 5.403zM55.034 70.14h5.339v1h-5.34zM65.949 70.14h5.339v1h-5.34z"/>
        </g>
    </g>
</svg>
