<?xml version="1.0" encoding="UTF-8"?>
<svg width="157px" height="82px" viewBox="0 0 157 82" version="1.1" xmlns="http://www.w3.org/2000/svg" xmlns:xlink="http://www.w3.org/1999/xlink">
    <!-- Generator: sketchtool 44.1 (41455) - http://www.bohemiancoding.com/sketch -->
    <title>3DBF0563-189E-4776-AE93-E137627AC3C1</title>
    <desc>Created with sketchtool.</desc>
    <defs></defs>
    <g id="Page-1" stroke="none" stroke-width="1" fill="none" fill-rule="evenodd">
        <g id="Case-Study---Landing-" transform="translate(-1041.000000, -2293.000000)" fill="#FFFFFF">
            <g id="Red-Dot-style" transform="translate(960.000000, 2174.000000)">
                <g id="Red-Dot-Style" transform="translate(81.000000, 119.000000)">
                    <g id="Group">
                        <path d="M0.925806452,77.6354839 L2.77741935,77.6354839 L2.77741935,73.6677419 C2.77741935,70.7580645 4.1,69.9645161 5.68709677,69.9645161 L5.68709677,67.9806452 C3.83548387,67.9806452 3.04193548,69.3032258 2.77741935,70.0967742 L2.77741935,70.0967742 L2.77741935,68.2451613 L0.925806452,68.2451613 L0.925806452,77.6354839 L0.925806452,77.6354839 Z" id="Shape" fill-rule="nonzero"></path>
                        <path d="M13.8870968,76.1806452 C13.4903226,76.3129032 12.9612903,76.5774194 12.0354839,76.5774194 C9.39032258,76.5774194 8.59677419,74.0645161 8.59677419,72.3451613 L14.0193548,72.3451613 L14.0193548,71.9483871 C14.0193548,69.7 12.9612903,68.1129032 10.5806452,68.1129032 C9.39032258,68.1129032 6.74516129,68.5096774 6.74516129,72.6096774 C6.74516129,76.3129032 8.59677419,78.0322581 11.3741935,78.0322581 C12.4322581,78.0322581 12.9612903,77.9 13.7548387,77.7677419 L13.7548387,76.1806452 L13.8870968,76.1806452 Z M8.72903226,71.0225806 C8.72903226,70.6258065 9.12580645,69.3032258 10.5806452,69.3032258 C11.9032258,69.3032258 12.3,70.3612903 12.3,71.0225806 L8.72903226,71.0225806 L8.72903226,71.0225806 Z" id="Shape"></path>
                        <path d="M21.5580645,77.6354839 L23.4096774,77.6354839 L23.4096774,63.8806452 L21.5580645,63.8806452 L21.5580645,69.4354839 L21.5580645,69.4354839 C21.2935484,68.9064516 20.6322581,67.8483871 19.0451613,67.8483871 C16.9290323,67.8483871 15.7387097,69.8322581 15.7387097,73.0064516 C15.7387097,75.6516129 16.6645161,77.7677419 19.0451613,77.7677419 C20.6322581,77.7677419 21.4258065,76.5774194 21.6903226,76.0483871 L21.6903226,76.0483871 L21.6903226,77.6354839 L21.5580645,77.6354839 Z M17.5903226,72.8741935 C17.5903226,70.8903226 17.9870968,69.3032258 19.4419355,69.3032258 C21.0290323,69.3032258 21.5580645,71.1548387 21.5580645,72.8741935 C21.5580645,74.4612903 20.8967742,76.4451613 19.5741935,76.4451613 C17.8548387,76.4451613 17.5903226,74.3290323 17.5903226,72.8741935 L17.5903226,72.8741935 Z" id="Shape"></path>
                        <path d="M31.4774194,77.6354839 L33.3290323,77.6354839 L33.3290323,63.8806452 L31.4774194,63.8806452 L31.4774194,69.4354839 L31.4774194,69.4354839 C31.2129032,68.9064516 30.5516129,67.8483871 28.9645161,67.8483871 C26.8483871,67.8483871 25.6580645,69.8322581 25.6580645,73.0064516 C25.6580645,75.6516129 26.583871,77.7677419 28.9645161,77.7677419 C30.5516129,77.7677419 31.3451613,76.5774194 31.6096774,76.0483871 L31.6096774,76.0483871 L31.6096774,77.6354839 L31.4774194,77.6354839 Z M27.6419355,72.8741935 C27.6419355,70.8903226 28.0387097,69.3032258 29.4935484,69.3032258 C31.0806452,69.3032258 31.6096774,71.1548387 31.6096774,72.8741935 C31.6096774,74.4612903 30.9483871,76.4451613 29.6258065,76.4451613 C27.7741935,76.4451613 27.6419355,74.3290323 27.6419355,72.8741935 L27.6419355,72.8741935 Z" id="Shape"></path>
                        <path d="M39.6774194,77.9 C42.4548387,77.9 43.9096774,75.916129 43.9096774,73.0064516 C43.9096774,69.9645161 42.5870968,68.1129032 39.6774194,68.1129032 C36.7677419,68.1129032 35.4451613,70.0967742 35.4451613,73.0064516 C35.5774194,75.916129 36.9,77.9 39.6774194,77.9 L39.6774194,77.9 Z M37.5612903,72.8741935 C37.5612903,71.2870968 37.8258065,69.3032258 39.8096774,69.3032258 C41.7935484,69.3032258 42.0580645,71.2870968 42.0580645,72.8741935 C42.0580645,74.3290323 41.7935484,76.4451613 39.8096774,76.4451613 C37.8258065,76.4451613 37.5612903,74.4612903 37.5612903,72.8741935 L37.5612903,72.8741935 Z" id="Shape"></path>
                        <path d="M51.183871,76.3129032 C50.9193548,76.4451613 50.5225806,76.4451613 50.2580645,76.4451613 C48.8032258,76.4451613 48.8032258,75.3870968 48.8032258,74.5935484 L48.8032258,69.5677419 L51.4483871,69.5677419 L51.4483871,68.1129032 L48.8032258,68.1129032 L48.8032258,64.8064516 L46.9516129,65.8645161 L46.9516129,68.1129032 L45.2322581,68.1129032 L45.2322581,69.5677419 L46.9516129,69.5677419 L46.9516129,75.5193548 C46.9516129,76.8419355 47.4806452,77.7677419 49.7290323,77.7677419 C50.2580645,77.7677419 50.6548387,77.7677419 51.183871,77.6354839 L51.183871,76.3129032 L51.183871,76.3129032 Z" id="Shape" fill-rule="nonzero"></path>
                        <path d="M28.1709677,3.96774194 C27.9064516,4.76129032 27.3774194,5.68709677 26.583871,6.48064516 C25.7903226,7.40645161 24.7322581,8.2 23.5419355,9.12580645 C22.3516129,9.91935484 20.8967742,10.8451613 19.4419355,11.5064516 C17.9870968,12.1677419 16.4,12.8290323 14.8129032,13.2258065 C13.2258065,13.6225806 11.9032258,13.8870968 10.7129032,13.8870968 C9.52258065,13.8870968 8.59677419,13.7548387 7.80322581,13.4903226 C7.00967742,13.2258065 6.61290323,12.8290323 6.3483871,12.1677419 C6.08387097,11.6387097 6.21612903,10.8451613 6.61290323,10.0516129 C6.74516129,9.78709677 6.87741935,9.52258065 7.00967742,9.25806452 C7.14193548,8.99354839 7.40645161,8.72903226 7.53870968,8.46451613 C7.80322581,8.2 7.93548387,7.93548387 8.2,7.67096774 C8.46451613,7.40645161 8.72903226,7.14193548 8.99354839,6.87741935 L9.78709677,6.21612903 L10.4483871,5.68709677 L11.1096774,5.15806452 L11.7709677,4.62903226 L12.4322581,4.23225806 L13.0935484,3.83548387 L13.7548387,3.43870968 C13.7548387,3.43870968 12.4322581,4.49677419 11.7709677,5.29032258 C11.3741935,5.68709677 11.1096774,6.21612903 10.9774194,6.61290323 C10.8451613,7.00967742 10.8451613,7.40645161 10.9774194,7.67096774 C11.1096774,7.93548387 11.3741935,8.2 11.7709677,8.33225806 C12.1677419,8.46451613 12.6967742,8.46451613 13.2258065,8.46451613 C13.7548387,8.46451613 14.5483871,8.33225806 15.2096774,8.06774194 C16.0032258,7.80322581 16.6645161,7.53870968 17.4580645,7.27419355 C18.1193548,6.87741935 18.9129032,6.48064516 19.4419355,6.08387097 C19.9709677,5.68709677 20.5,5.29032258 20.8967742,4.76129032 C21.2935484,4.36451613 21.5580645,3.96774194 21.6903226,3.57096774 C21.8225806,3.17419355 21.8225806,2.90967742 21.6903226,2.64516129 C21.5580645,2.38064516 21.2935484,2.2483871 20.8967742,2.11612903 C20.5,1.98387097 19.9709677,1.98387097 19.4419355,2.11612903 C18.9129032,2.2483871 18.2516129,2.2483871 17.4580645,2.51290323 C16.9290323,2.64516129 16.6645161,2.77741935 16.2677419,2.90967742 C17.5903226,2.2483871 18.516129,1.8516129 19.9709677,1.45483871 C20.8967742,1.19032258 21.5580645,0.925806452 22.483871,0.793548387 C23.5419355,0.661290323 24.3354839,0.661290323 25.1290323,0.661290323 C25.9225806,0.661290323 26.583871,0.925806452 27.1129032,1.19032258 C27.6419355,1.45483871 28.0387097,1.8516129 28.1709677,2.2483871 C28.4354839,2.77741935 28.4354839,3.30645161 28.1709677,3.96774194 L28.1709677,3.96774194 Z" id="Shape" fill-rule="nonzero"></path>
                        <path d="M47.3483871,38.0903226 C47.3483871,38.0903226 46.9516129,39.016129 46.6870968,39.5451613 C46.4225806,40.0741935 45.8935484,40.7354839 45.8935484,40.7354839 C45.8935484,40.7354839 45.7612903,41 45.6290323,41.1322581 C45.2322581,41.5290323 44.7032258,42.1903226 44.7032258,42.1903226 L43.9096774,42.983871 C43.116129,43.7774194 42.1903226,44.5709677 41.2645161,45.3645161 C40.2064516,46.1580645 39.1483871,46.8193548 38.0903226,47.4806452 C36.9,48.1419355 35.7096774,48.6709677 34.5193548,49.2 C33.3290323,49.7290323 32.0064516,49.9935484 30.683871,50.2580645 C30.4193548,50.2580645 30.1548387,50.3903226 29.8903226,50.3903226 C29.6258065,50.3903226 29.3612903,50.5225806 29.0967742,50.5225806 C28.8322581,50.5225806 28.5677419,50.5225806 28.4354839,50.6548387 L27.7741935,50.6548387 L26.3193548,50.6548387 L26.0548387,50.6548387 L24.6,50.6548387 L23.0129032,50.5225806 L22.616129,50.5225806 C21.9548387,50.3903226 21.5580645,50.3903226 21.0290323,50.2580645 C20.3677419,50.1258065 19.4419355,49.8612903 19.4419355,49.8612903 L18.6483871,49.5967742 L18.383871,49.4645161 C18.9129032,49.7290323 19.7064516,49.8612903 20.5,49.9935484 C21.2935484,50.1258065 22.0870968,50.1258065 22.8806452,50.1258065 C23.8064516,50.1258065 24.6,50.1258065 25.6580645,49.9935484 C26.583871,49.8612903 27.6419355,49.7290323 28.5677419,49.4645161 C30.9483871,48.9354839 33.1967742,48.1419355 35.4451613,47.216129 C37.6935484,46.2903226 39.8096774,45.1 41.6612903,43.7774194 C43.5129032,42.4548387 45.1,41 46.4225806,39.5451613 C46.6870968,39.1483871 46.9516129,38.7516129 47.3483871,38.0903226 L47.3483871,38.0903226 L47.3483871,38.0903226 Z" id="Shape" fill-rule="nonzero"></path>
                        <path d="M33.8580645,1.98387097 L35.4451613,2.64516129 L37.0322581,3.43870968 L37.5612903,3.70322581 C37.9580645,3.96774194 38.3548387,4.23225806 38.7516129,4.49677419 C39.1483871,4.76129032 39.4129032,5.15806452 39.5451613,5.55483871 C39.8096774,5.9516129 39.9419355,6.3483871 39.9419355,6.87741935 C39.9419355,7.40645161 39.9419355,7.93548387 39.8096774,8.46451613 C39.5451613,9.91935484 38.6193548,11.5064516 37.2967742,13.2258065 C35.9741935,14.9451613 34.1225806,16.5322581 32.0064516,18.1193548 C29.8903226,19.7064516 27.3774194,21.1612903 24.6,22.483871 C21.9548387,23.8064516 19.0451613,24.8645161 16.2677419,25.5258065 C13.7548387,26.1870968 11.3741935,26.4516129 9.39032258,26.583871 C7.40645161,26.583871 5.68709677,26.4516129 4.36451613,25.9225806 C3.04193548,25.3935484 2.11612903,24.7322581 1.58709677,23.8064516 C1.05806452,22.8806452 0.925806452,21.8225806 1.19032258,20.6322581 L1.32258065,20.1032258 L1.8516129,18.383871 L2.38064516,16.6645161 L3.04193548,15.2096774 L3.57096774,14.0193548 L3.43870968,14.283871 L3.43870968,14.283871 C2.90967742,15.4741935 2.77741935,16.4 3.04193548,17.3258065 C3.30645161,18.2516129 3.96774194,18.9129032 5.02580645,19.3096774 C6.08387097,19.8387097 7.40645161,19.9709677 9.12580645,19.9709677 C10.8451613,19.9709677 12.8290323,19.5741935 15.0774194,19.0451613 C17.3258065,18.383871 19.5741935,17.5903226 21.6903226,16.5322581 C23.8064516,15.4741935 25.7903226,14.283871 27.6419355,13.0935484 C29.3612903,11.9032258 30.816129,10.5806452 32.0064516,9.25806452 C33.0645161,7.93548387 33.8580645,6.74516129 34.1225806,5.55483871 C34.2548387,4.89354839 34.2548387,4.36451613 34.2548387,3.96774194 C34.1225806,3.43870968 33.9903226,3.04193548 33.5935484,2.64516129 C33.3290323,2.2483871 32.9322581,1.98387097 32.4032258,1.71935484 C32.0064516,1.58709677 31.7419355,1.45483871 31.3451613,1.32258065 L30.683871,1.19032258 C30.9483871,1.19032258 31.0806452,1.19032258 31.3451613,1.32258065 C31.3451613,1.32258065 31.8741935,1.45483871 32.2709677,1.58709677 C33.0645161,1.71935484 33.8580645,1.98387097 33.8580645,1.98387097 L33.8580645,1.98387097 Z" id="Shape" fill-rule="nonzero"></path>
                        <path d="M44.8354839,9.25806452 L46.0258065,10.8451613 L47.083871,12.5645161 L47.6129032,13.3580645 C47.7451613,13.6225806 47.8774194,13.8870968 48.0096774,14.1516129 C48.1419355,14.416129 48.1419355,14.6806452 48.2741935,15.0774194 C48.2741935,15.3419355 48.4064516,15.7387097 48.4064516,16.0032258 L48.4064516,17.0612903 C48.1419355,18.9129032 47.216129,21.0290323 45.7612903,23.0129032 C44.1741935,25.1290323 42.0580645,27.2451613 39.5451613,29.0967742 C36.9,31.0806452 33.9903226,32.9322581 30.683871,34.5193548 C27.3774194,36.1064516 23.9387097,37.2967742 20.5,38.0903226 C17.9870968,38.6193548 15.7387097,39.016129 13.6225806,39.016129 C11.6387097,39.1483871 9.78709677,38.883871 8.2,38.6193548 C6.61290323,38.2225806 5.42258065,37.6935484 4.36451613,36.9 C3.43870968,36.2387097 2.64516129,35.3129032 2.38064516,34.2548387 L1.98387097,33.1967742 L1.45483871,31.2129032 L1.05806452,29.2290323 L0.925806452,28.7 L0.793548387,27.6419355 C0.793548387,27.5096774 0.793548387,27.6419355 0.793548387,27.6419355 C0.925806452,28.7 1.32258065,29.6258065 2.11612903,30.2870968 C2.90967742,31.0806452 4.1,31.7419355 5.55483871,32.2709677 C7.00967742,32.6677419 8.86129032,32.9322581 10.9774194,32.8 C13.0935484,32.8 15.4741935,32.4032258 18.1193548,31.7419355 C21.4258065,30.9483871 24.6,29.7580645 27.6419355,28.3032258 C30.683871,26.8483871 33.5935484,25.1290323 35.9741935,23.2774194 C38.3548387,21.4258065 40.4709677,19.5741935 41.9258065,17.5903226 C43.3806452,15.7387097 44.3064516,13.8870968 44.5709677,12.0354839 C44.7032258,11.5064516 44.7032258,11.1096774 44.7032258,10.7129032 C44.7032258,10.316129 44.5709677,9.91935484 44.4387097,9.52258065 C44.3064516,9.12580645 44.1741935,8.72903226 43.9096774,8.46451613 C43.7774194,8.2 43.6451613,8.06774194 43.5129032,7.93548387 L43.5129032,7.93548387 L44.5709677,8.99354839 L44.8354839,9.25806452 L44.8354839,9.25806452 Z" id="Shape" fill-rule="nonzero"></path>
                        <path d="M50.9193548,23.6741935 C51.0516129,25.2612903 51.0516129,26.1870968 50.9193548,27.6419355 C50.5225806,30.0225806 49.8612903,31.4774194 48.5387097,33.4612903 C47.216129,35.4451613 45.2322581,37.4290323 42.983871,39.2806452 C40.7354839,41.1322581 37.9580645,42.8516129 35.0483871,44.1741935 C32.1387097,45.6290323 28.9645161,46.6870968 25.9225806,47.3483871 C24.3354839,47.7451613 22.7483871,47.8774194 21.2935484,48.0096774 C19.8387097,48.1419355 18.516129,48.1419355 17.3258065,48.0096774 C16.1354839,47.8774194 14.9451613,47.6129032 14.0193548,47.3483871 C13.0935484,46.9516129 12.1677419,46.5548387 11.5064516,46.0258065 L10.0516129,44.8354839 L8.72903226,43.6451613 C8.72903226,43.6451613 7.80322581,42.8516129 7.40645161,42.1903226 C7.00967742,41.7935484 6.48064516,41.1322581 6.48064516,41.1322581 C6.3483871,41 6.48064516,41.1322581 6.48064516,41.1322581 C7.00967742,41.7935484 7.80322581,42.3225806 8.72903226,42.8516129 C9.78709677,43.3806452 11.1096774,43.7774194 12.4322581,44.0419355 C13.8870968,44.3064516 15.6064516,44.4387097 17.3258065,44.3064516 C19.1774194,44.1741935 21.1612903,43.9096774 23.2774194,43.5129032 C26.716129,42.7193548 30.0225806,41.5290323 33.3290323,40.0741935 C36.5032258,38.4870968 39.4129032,36.7677419 41.9258065,34.783871 C44.4387097,32.8 46.5548387,30.683871 48.0096774,28.5677419 C49.4645161,26.4516129 50.3903226,24.4677419 50.5225806,22.483871 L50.5225806,21.8225806 L50.5225806,21.1612903 C50.5225806,20.8967742 50.7870968,22.0870968 50.7870968,22.0870968 C50.7870968,22.0870968 50.7870968,23.1451613 50.9193548,23.6741935 L50.9193548,23.6741935 Z" id="Shape" fill-rule="nonzero"></path>
                    </g>
                    <g id="Group" transform="translate(56.870968, 62.161290)" fill-rule="nonzero">
                        <path d="M5.9516129,12.9612903 C5.9516129,12.5645161 5.81935484,12.3 5.55483871,12.0354839 C5.29032258,11.7709677 4.76129032,11.5064516 4.1,11.1096774 C3.04193548,10.7129032 2.38064516,10.316129 1.8516129,9.78709677 C1.32258065,9.39032258 1.05806452,8.72903226 1.05806452,8.06774194 C1.05806452,7.27419355 1.32258065,6.61290323 1.98387097,6.08387097 C2.64516129,5.55483871 3.30645161,5.29032258 4.36451613,5.29032258 C5.42258065,5.29032258 6.21612903,5.55483871 6.74516129,6.21612903 C7.40645161,6.74516129 7.67096774,7.53870968 7.67096774,8.33225806 L7.67096774,8.33225806 L5.9516129,8.33225806 C5.9516129,7.80322581 5.81935484,7.40645161 5.55483871,7.14193548 C5.29032258,6.74516129 4.89354839,6.61290323 4.49677419,6.61290323 C4.1,6.61290323 3.70322581,6.74516129 3.43870968,7.00967742 C3.17419355,7.27419355 3.04193548,7.53870968 3.04193548,7.93548387 C3.04193548,8.33225806 3.17419355,8.59677419 3.43870968,8.86129032 C3.70322581,9.12580645 4.1,9.39032258 4.89354839,9.65483871 C5.9516129,10.0516129 6.74516129,10.4483871 7.14193548,10.9774194 C7.67096774,11.5064516 7.93548387,12.0354839 7.93548387,12.8290323 C7.93548387,13.6225806 7.67096774,14.283871 7.00967742,14.8129032 C6.3483871,15.3419355 5.55483871,15.6064516 4.62903226,15.6064516 C3.57096774,15.6064516 2.64516129,15.3419355 2.11612903,14.6806452 C1.58709677,14.0193548 1.19032258,13.3580645 1.19032258,12.5645161 L1.19032258,12.5645161 L2.90967742,12.5645161 C2.90967742,13.2258065 3.17419355,13.6225806 3.43870968,13.8870968 C3.70322581,14.1516129 4.23225806,14.283871 4.62903226,14.283871 C5.15806452,14.283871 5.42258065,14.1516129 5.81935484,13.8870968 C5.81935484,13.7548387 5.9516129,13.3580645 5.9516129,12.9612903 Z" id="Shape"></path>
                        <path d="M12.3,3.17419355 L12.3,5.68709677 L13.8870968,5.68709677 L13.8870968,7.00967742 L12.3,7.00967742 L12.3,12.8290323 C12.3,13.3580645 12.4322581,13.7548387 12.5645161,13.8870968 C12.6967742,14.1516129 12.9612903,14.1516129 13.0935484,14.1516129 L13.4903226,14.1516129 C13.6225806,14.1516129 13.7548387,14.1516129 13.8870968,14.0193548 L14.0193548,15.3419355 C13.7548387,15.4741935 13.6225806,15.4741935 13.3580645,15.6064516 C13.0935484,15.7387097 12.8290323,15.7387097 12.5645161,15.7387097 C11.9032258,15.7387097 11.3741935,15.4741935 10.9774194,15.0774194 C10.5806452,14.6806452 10.4483871,13.8870968 10.4483871,12.9612903 L10.4483871,7.14193548 L9.12580645,7.14193548 L9.12580645,5.81935484 L10.4483871,5.81935484 L10.4483871,3.30645161 L12.3,3.30645161 L12.3,3.17419355 Z" id="Shape"></path>
                        <path d="M18.7806452,12.0354839 L18.9129032,12.6967742 L18.9129032,12.6967742 L20.7645161,5.55483871 L22.7483871,5.55483871 L19.3096774,16.9290323 C19.0451613,17.5903226 18.7806452,18.2516129 18.383871,18.6483871 C17.9870968,19.0451613 17.4580645,19.3096774 16.6645161,19.3096774 L16.1354839,19.3096774 C16.0032258,19.3096774 15.7387097,19.1774194 15.6064516,19.1774194 L15.8709677,17.8548387 L16.1354839,17.8548387 L16.4,17.8548387 C16.7967742,17.8548387 17.0612903,17.7225806 17.1935484,17.4580645 C17.4580645,17.1935484 17.5903226,16.7967742 17.7225806,16.4 L17.9870968,15.3419355 L14.9451613,5.55483871 L16.9290323,5.55483871 L18.7806452,12.0354839 Z" id="Shape"></path>
                        <polygon id="Shape" points="26.583871 15.4741935 24.7322581 15.4741935 24.7322581 1.19032258 26.583871 1.19032258"></polygon>
                        <path d="M32.8,15.7387097 C31.6096774,15.7387097 30.683871,15.3419355 30.0225806,14.5483871 C29.3612903,13.7548387 28.9645161,12.6967742 28.9645161,11.3741935 L28.9645161,9.91935484 C28.9645161,8.59677419 29.3612903,7.53870968 30.0225806,6.74516129 C30.683871,5.9516129 31.6096774,5.42258065 32.6677419,5.42258065 C33.7258065,5.42258065 34.6516129,5.81935484 35.3129032,6.61290323 C35.9741935,7.40645161 36.2387097,8.46451613 36.2387097,9.65483871 L36.2387097,10.9774194 L30.9483871,10.9774194 L30.9483871,11.3741935 C30.9483871,12.1677419 31.0806452,12.9612903 31.4774194,13.4903226 C31.8741935,14.0193548 32.4032258,14.283871 33.0645161,14.283871 C33.5935484,14.283871 33.9903226,14.1516129 34.3870968,14.0193548 C34.783871,13.8870968 35.0483871,13.6225806 35.4451613,13.3580645 L35.9741935,14.5483871 C35.7096774,14.9451613 35.3129032,15.2096774 34.783871,15.4741935 C34.1225806,15.6064516 33.4612903,15.7387097 32.8,15.7387097 Z M32.6677419,6.87741935 C32.1387097,6.87741935 31.7419355,7.14193548 31.3451613,7.67096774 C31.0806452,8.2 30.816129,8.86129032 30.816129,9.65483871 L34.2548387,9.65483871 L34.2548387,9.25806452 C34.2548387,8.59677419 34.1225806,7.93548387 33.8580645,7.53870968 C33.5935484,7.00967742 33.1967742,6.87741935 32.6677419,6.87741935 Z" id="Shape"></path>
                        <path d="M46.1580645,14.283871 C46.5548387,14.283871 46.9516129,14.1516129 47.3483871,13.7548387 C47.6129032,13.3580645 47.8774194,12.9612903 47.8774194,12.3 L49.5967742,12.3 L49.5967742,12.3 C49.5967742,13.2258065 49.3322581,14.0193548 48.6709677,14.6806452 C48.0096774,15.3419355 47.216129,15.6064516 46.2903226,15.6064516 C45.1,15.6064516 44.1741935,15.2096774 43.5129032,14.416129 C42.8516129,13.6225806 42.5870968,12.5645161 42.5870968,11.2419355 L42.5870968,9.91935484 C42.5870968,8.59677419 42.8516129,7.53870968 43.5129032,6.74516129 C44.1741935,5.9516129 45.1,5.42258065 46.2903226,5.42258065 C47.3483871,5.42258065 48.1419355,5.81935484 48.6709677,6.48064516 C49.3322581,7.14193548 49.5967742,8.06774194 49.5967742,9.12580645 L49.5967742,9.12580645 L47.8774194,9.12580645 C47.8774194,8.46451613 47.7451613,7.93548387 47.4806452,7.53870968 C47.216129,7.14193548 46.8193548,6.87741935 46.2903226,6.87741935 C45.6290323,6.87741935 45.1,7.14193548 44.8354839,7.80322581 C44.5709677,8.33225806 44.4387097,9.12580645 44.4387097,9.91935484 L44.4387097,11.2419355 C44.4387097,12.1677419 44.5709677,12.8290323 44.8354839,13.4903226 C44.8354839,14.0193548 45.3645161,14.283871 46.1580645,14.283871 Z" id="Shape"></path>
                        <path d="M53.3,6.87741935 C53.5645161,6.3483871 53.9612903,6.08387097 54.3580645,5.81935484 C54.7548387,5.55483871 55.1516129,5.42258065 55.6806452,5.42258065 C56.6064516,5.42258065 57.2677419,5.68709677 57.7967742,6.3483871 C58.3258065,7.00967742 58.5903226,8.06774194 58.5903226,9.39032258 L58.5903226,15.4741935 L56.7387097,15.4741935 L56.7387097,9.39032258 C56.7387097,8.46451613 56.6064516,7.80322581 56.3419355,7.40645161 C56.0774194,7.00967742 55.6806452,6.74516129 55.1516129,6.74516129 C54.7548387,6.74516129 54.4903226,6.87741935 54.0935484,7.00967742 C53.8290323,7.27419355 53.5645161,7.53870968 53.4322581,7.93548387 L53.4322581,15.3419355 L51.5806452,15.3419355 L51.5806452,1.05806452 L53.4322581,1.05806452 L53.4322581,6.87741935 L53.3,6.87741935 Z" id="Shape"></path>
                        <path d="M65.9967742,15.4741935 C65.8645161,15.2096774 65.8645161,15.0774194 65.8645161,14.8129032 C65.8645161,14.5483871 65.7322581,14.416129 65.7322581,14.1516129 C65.4677419,14.5483871 65.0709677,14.9451613 64.6741935,15.2096774 C64.2774194,15.4741935 63.7483871,15.6064516 63.3516129,15.6064516 C62.5580645,15.6064516 61.8967742,15.3419355 61.3677419,14.8129032 C60.8387097,14.283871 60.7064516,13.6225806 60.7064516,12.6967742 C60.7064516,11.7709677 60.9709677,10.9774194 61.6322581,10.4483871 C62.2935484,9.91935484 63.2193548,9.65483871 64.2774194,9.65483871 L65.6,9.65483871 L65.6,8.59677419 C65.6,7.93548387 65.4677419,7.53870968 65.2032258,7.14193548 C64.9387097,6.74516129 64.5419355,6.61290323 64.0129032,6.61290323 C63.616129,6.61290323 63.2193548,6.74516129 62.9548387,7.00967742 C62.6903226,7.27419355 62.5580645,7.67096774 62.5580645,8.2 L60.8387097,8.2 L60.8387097,8.2 C60.8387097,7.40645161 61.1032258,6.74516129 61.7645161,6.21612903 C62.4258065,5.55483871 63.2193548,5.29032258 64.2774194,5.29032258 C65.2032258,5.29032258 65.9967742,5.55483871 66.6580645,6.21612903 C67.3193548,6.74516129 67.583871,7.67096774 67.583871,8.72903226 L67.583871,13.3580645 C67.583871,13.7548387 67.583871,14.1516129 67.716129,14.416129 C67.716129,14.8129032 67.8483871,15.0774194 67.9806452,15.4741935 L65.9967742,15.4741935 L65.9967742,15.4741935 Z M63.8806452,14.283871 C64.2774194,14.283871 64.6741935,14.1516129 65.0709677,13.8870968 C65.4677419,13.6225806 65.7322581,13.3580645 65.8645161,12.9612903 L65.8645161,10.9774194 L64.4096774,10.9774194 C63.8806452,10.9774194 63.3516129,11.1096774 63.0870968,11.5064516 C62.8225806,11.9032258 62.5580645,12.3 62.5580645,12.8290323 C62.5580645,13.2258065 62.6903226,13.6225806 62.8225806,13.8870968 C63.0870968,14.1516129 63.483871,14.283871 63.8806452,14.283871 Z" id="Shape"></path>
                        <path d="M71.816129,5.55483871 L71.9483871,7.00967742 C72.2129032,6.48064516 72.6096774,6.08387097 73.0064516,5.81935484 C73.4032258,5.55483871 73.9322581,5.42258065 74.4612903,5.42258065 C75.3870968,5.42258065 76.0483871,5.68709677 76.4451613,6.3483871 C76.9741935,7.00967742 77.1064516,7.93548387 77.1064516,9.39032258 L77.1064516,15.4741935 L75.2548387,15.4741935 L75.2548387,9.39032258 C75.2548387,8.46451613 75.1225806,7.80322581 74.8580645,7.40645161 C74.5935484,7.00967742 74.1967742,6.87741935 73.6677419,6.87741935 C73.2709677,6.87741935 73.0064516,7.00967742 72.6096774,7.27419355 C72.3451613,7.53870968 72.0806452,7.80322581 71.9483871,8.2 L71.9483871,15.4741935 L70.0967742,15.4741935 L70.0967742,5.55483871 L71.816129,5.55483871 Z" id="Shape"></path>
                        <path d="M81.3387097,5.55483871 L81.4709677,7.00967742 C81.7354839,6.48064516 82.1322581,6.08387097 82.5290323,5.81935484 C82.9258065,5.55483871 83.4548387,5.42258065 83.983871,5.42258065 C84.9096774,5.42258065 85.5709677,5.68709677 85.9677419,6.3483871 C86.4967742,7.00967742 86.6290323,7.93548387 86.6290323,9.39032258 L86.6290323,15.4741935 L84.7774194,15.4741935 L84.7774194,9.39032258 C84.7774194,8.46451613 84.6451613,7.80322581 84.3806452,7.40645161 C84.116129,7.00967742 83.7193548,6.87741935 83.1903226,6.87741935 C82.7935484,6.87741935 82.5290323,7.00967742 82.1322581,7.27419355 C81.8677419,7.53870968 81.6032258,7.80322581 81.4709677,8.2 L81.4709677,15.4741935 L79.6193548,15.4741935 L79.6193548,5.55483871 L81.3387097,5.55483871 Z" id="Shape"></path>
                        <path d="M92.7129032,15.7387097 C91.5225806,15.7387097 90.5967742,15.3419355 89.9354839,14.5483871 C89.2741935,13.7548387 88.8774194,12.6967742 88.8774194,11.3741935 L88.8774194,9.91935484 C88.8774194,8.59677419 89.2741935,7.53870968 89.9354839,6.74516129 C90.5967742,5.9516129 91.5225806,5.42258065 92.5806452,5.42258065 C93.6387097,5.42258065 94.5645161,5.81935484 95.2258065,6.61290323 C95.8870968,7.40645161 96.1516129,8.46451613 96.1516129,9.65483871 L96.1516129,10.9774194 L90.8612903,10.9774194 L90.8612903,11.3741935 C90.8612903,12.1677419 90.9935484,12.9612903 91.3903226,13.4903226 C91.7870968,14.0193548 92.316129,14.283871 92.9774194,14.283871 C93.5064516,14.283871 93.9032258,14.1516129 94.3,14.0193548 C94.6967742,13.8870968 94.9612903,13.6225806 95.3580645,13.3580645 L95.8870968,14.5483871 C95.6225806,14.9451613 95.2258065,15.2096774 94.6967742,15.4741935 C94.0354839,15.6064516 93.5064516,15.7387097 92.7129032,15.7387097 Z M92.5806452,6.87741935 C92.0516129,6.87741935 91.6548387,7.14193548 91.2580645,7.67096774 C90.9935484,8.2 90.7290323,8.86129032 90.7290323,9.65483871 L94.1677419,9.65483871 L94.1677419,9.25806452 C94.1677419,8.59677419 94.0354839,7.93548387 93.7709677,7.53870968 C93.5064516,7.00967742 93.1096774,6.87741935 92.5806452,6.87741935 Z" id="Shape"></path>
                        <polygon id="Shape" points="100.119355 15.4741935 98.2677419 15.4741935 98.2677419 1.19032258 100.119355 1.19032258"></polygon>
                    </g>
                </g>
            </g>
        </g>
    </g>
</svg>