<svg xmlns="http://www.w3.org/2000/svg" width="65" height="32" viewBox="0 0 65 32">
    <g fill="none" fill-rule="evenodd">
        <path fill="#6A6A6A" fill-rule="nonzero" d="M.087 31.904H32.79L64.858.086H.088v31.818"/>
        <path fill="#FFF" d="M38.493 6.066h-6.337v15.05l-5.578-15.05h-5.45l-4.817 12.586c-.507-3.17-3.802-4.267-6.464-5.087-1.648-.551-3.549-1.361-3.422-2.247 0-.735.887-1.41 2.788-1.309 1.268.065 2.409.17 4.69 1.249l2.282-3.834C14.03 6.387 11.24 5.732 8.96 5.729c-2.789 0-5.07.87-6.465 2.314-.887 1.004-1.52 2.278-1.52 3.691 0 1.944.76 3.323 2.154 4.422 1.394.924 2.916 1.527 4.437 1.969 1.774.544 3.168 1.016 3.168 2.028 0 .373-.126.713-.38.986-.507.452-1.14.623-2.155.644-1.774.033-3.042-.248-5.197-1.497L.974 24.167c2.155 1.203 4.69 1.91 7.225 1.91l.38-.002c2.155-.04 4.057-.676 5.45-1.83.128-.069.128-.132.254-.195l-.633 1.69h5.83l.888-2.929c1.014.337 2.154.534 3.422.534a10.5 10.5 0 0 0 3.295-.51L28.1 25.74h9.38v-6.076h2.155c4.943 0 7.859-2.517 7.859-6.74 0-4.7-2.789-6.858-9-6.858zM23.79 18.951c-.76 0-1.394-.13-2.028-.36l2.028-6.33 2.028 6.35a6.052 6.052 0 0 1-2.028.34zm15.083-3.641H37.48v-5.104h1.394c1.902 0 3.423.617 3.423 2.526 0 1.963-1.521 2.578-3.423 2.578z"/>
        <path fill="#6A6A6A" fill-rule="nonzero" d="M40.775 29.87c0-.972.76-1.713 1.648-1.713.887 0 1.647.741 1.647 1.714 0 1.009-.76 1.736-1.647 1.736-.888 0-1.648-.727-1.648-1.736zm1.648 2.082c1.14 0 2.154-.882 2.154-2.081 0-1.182-1.014-2.05-2.154-2.05-1.141 0-2.155.868-2.155 2.05 0 1.199 1.014 2.08 2.155 2.08zm-.38-1.91h.38l.633 1.028h.38l-.633-1.047c.253-.043.634-.228.634-.65 0-.475-.38-.684-.888-.684h-.887v2.38h.38v-1.026zm0-.306v-.744h.506c.127 0 .507.058.507.359 0 .361-.38.385-.633.385h-.38z"/>
    </g>
</svg>
