<?xml version="1.0" encoding="UTF-8"?>
<svg width="102px" height="28px" viewBox="0 0 102 28" version="1.1" xmlns="http://www.w3.org/2000/svg" xmlns:xlink="http://www.w3.org/1999/xlink">
    <!-- Generator: sketchtool 44.1 (41455) - http://www.bohemiancoding.com/sketch -->
    <title>668230DA-B816-4FCC-A48E-4A9127C0DD5D</title>
    <desc>Created with sketchtool.</desc>
    <defs></defs>
    <g id="Page-1" stroke="none" stroke-width="1" fill="none" fill-rule="evenodd">
        <g id="Case-Study---Landing--Copy" transform="translate(-748.000000, -1485.000000)" fill="#FFFFFF">
            <g id="SBMS" transform="translate(640.000000, 1339.000000)">
                <path d="M129.096,151.94 C127.188,148.052 123.12,146.936 119.196,146.936 C114.552,146.972 109.44,149.096 109.44,154.28 C109.44,159.932 114.192,161.3 119.34,161.912 C122.688,162.272 125.172,163.244 125.172,165.62 C125.172,168.356 122.364,169.4 119.376,169.4 C116.316,169.4 113.4,168.176 112.284,165.404 L108.324,167.456 C110.196,172.064 114.156,173.648 119.304,173.648 C124.92,173.648 129.888,171.236 129.888,165.62 C129.888,159.608 124.992,158.24 119.736,157.592 C116.712,157.232 114.12,156.62 114.12,154.424 C114.12,152.552 115.812,151.076 119.34,151.076 C122.076,151.076 124.452,152.444 125.316,153.884 L129.096,151.94 Z M138.096,162.092 L138.096,168.572 L145.368,168.572 C147.312,168.572 150.084,167.924 150.084,165.548 C150.084,163.28 147.312,162.092 145.368,162.092 L138.096,162.092 Z M138.096,152.12 L138.096,157.916 L145.368,157.916 C148.356,157.916 149.328,156.656 149.328,155.216 C149.328,154.064 148.392,152.12 145.368,152.12 L138.096,152.12 Z M145.368,147.8 C150.336,147.8 154.044,150.032 154.044,155.108 C154.044,157.052 153.108,158.924 150.768,159.968 C153.72,160.868 154.8,164 154.8,165.584 C154.8,171.2 150.588,173 145.368,173 L133.416,173 L133.416,147.8 L145.368,147.8 Z M180.108,173.036 L184.86,173.036 L184.86,147.836 L179.424,147.836 L171.54,158.672 L163.656,147.836 L158.184,147.836 L158.184,173.036 L162.936,173.036 L162.936,154.712 L170.964,165.692 L171.9,165.692 L180.108,154.748 L180.108,173.036 Z M208.656,151.94 C206.748,148.052 202.68,146.936 198.756,146.936 C194.112,146.972 189,149.096 189,154.28 C189,159.932 193.752,161.3 198.9,161.912 C202.248,162.272 204.732,163.244 204.732,165.62 C204.732,168.356 201.924,169.4 198.936,169.4 C195.876,169.4 192.96,168.176 191.844,165.404 L187.884,167.456 C189.756,172.064 193.716,173.648 198.864,173.648 C204.48,173.648 209.448,171.236 209.448,165.62 C209.448,159.608 204.552,158.24 199.296,157.592 C196.272,157.232 193.68,156.62 193.68,154.424 C193.68,152.552 195.372,151.076 198.9,151.076 C201.636,151.076 204.012,152.444 204.876,153.884 L208.656,151.94 Z"></path>
            </g>
        </g>
    </g>
</svg>