<svg xmlns="http://www.w3.org/2000/svg" width="129" height="129" viewBox="0 0 129 129">
    <g fill="none" fill-rule="evenodd" transform="translate(1 1)">
        <circle cx="63.5" cy="63.5" r="63.5" stroke="#979797"/>
        <g fill-rule="nonzero">
            <path fill="#3E4045" d="M83.339 80.965c-6.288 0-10.678-4.176-14.237-7.614l-.594-.737-9.847-11.544c-1.305-1.596-5.102-5.035-5.22-5.158-2.848-2.579-6.288-3.93-9.848-3.93-7.356 0-13.288 6.14-13.288 13.755 0 7.614 5.932 13.877 13.288 13.877 5.695 0 9.966-4.053 13.407-7.246l.83.983c-3.559 3.438-8.067 7.614-14.237 7.614C35.525 80.965 29 74.21 29 65.86s6.525-15.106 14.593-15.106c4.034 0 7.712 1.474 10.678 4.299.119.122 4.034 3.561 5.34 5.28l10.321 12.158c3.44 3.07 7.712 7.123 13.407 7.123 7.356 0 13.288-6.14 13.288-13.754S90.695 52.105 83.34 52.105c-3.678 0-7.119 1.351-9.847 3.93 0 0-1.187 1.105-2.848 2.702l-.83-.983c1.66-1.596 2.847-2.701 2.847-2.701 3.085-2.825 6.763-4.299 10.678-4.299 8.068 0 14.593 6.755 14.593 15.106 0 8.35-6.525 15.105-14.593 15.105z"/>
            <path fill="#D74227" d="M83.339 61.684l-14-3.07 3.915-13.754 1.187.368L71 57.632l12.576 2.824z"/>
        </g>
    </g>
</svg>
