<svg xmlns="http://www.w3.org/2000/svg" width="119" height="125" viewBox="0 0 119 125">
    <g fill="#FFF" fill-rule="evenodd">
        <path d="M.156 53.5h2.386v23.707H.156zM9.649 77.207V53.5h.518l15.77 18.156V53.5h2.334v23.707h-.518L12.087 59.258v17.949zM35.69 53.5h11.878v2.334h-9.492v7.418h9.492v2.335h-9.492v11.62h-2.387V53.5zM52.963 53.5h2.387v23.707h-2.387zM62.456 53.5h.519l15.77 18.156V53.5h2.334v23.707h-.519L64.894 59.258v17.949h-2.438zM88.134 53.5h2.386v23.707h-2.386zM107.275 53.5l11.05 23.707h-2.542l-3.735-7.782h-10.22l-3.682 7.782H95.5L106.705 53.5h.57zm-.31 5.032l-4.047 8.56h8.092l-4.046-8.56z"/>
        <g>
            <path d="M102.288 2.227c-.777-.57-2.28-1.088-3.214-1.295-4.666-1.087-9.384-.621-14.05.156-9.798 1.709-19.026 5.127-28.099 9.115-1.296.57-1.918.415-2.903-.621C48.216 3.418 41.165-.104 32.507.622c-7.673.621-13.946 4.298-19.286 9.633C9.8 13.674 7.52 17.713 7.156 22.634c-.415 5.283 2.074 7.613 6.428 7.924 2.593.207 5.133.052 7.725-.466 9.85-1.865 18.82-5.956 27.477-10.773 7.258-4.04 14.412-8.235 22.189-11.291 9.643-3.78 19.441-6.733 29.965-5.956l1.348.155zM50.497 13.518c-6.532 3.263-12.91 6.785-19.856 9.064a44.247 44.247 0 0 1-11.613 2.175c-3.214.208-5.133-1.398-5.08-4.195.051-3.418 1.917-6.008 4.095-8.39 3.577-3.885 8.191-6.06 13.375-6.94 7.518-1.296 14.05.672 19.39 6.163 1.244 1.294 1.244 1.346-.311 2.123zM15.658 37.084c.778.57 2.281 1.088 3.214 1.295 4.666 1.088 9.384.622 14.05-.155 9.798-1.71 19.026-5.128 28.1-9.116 1.295-.57 1.917-.414 2.902.622 5.859 6.163 12.857 9.685 21.515 8.96 7.673-.622 13.946-4.3 19.286-9.634 3.422-3.418 5.703-7.458 6.066-12.378.414-5.283-2.074-7.614-6.429-7.925a27.716 27.716 0 0 0-7.725.466c-9.85 1.865-18.819 5.957-27.477 10.773-7.258 4.04-14.412 8.235-22.189 11.291-9.642 3.781-19.44 6.733-29.965 5.957l-1.348-.156zm51.74-11.239c6.532-3.263 12.909-6.785 19.856-9.064a44.247 44.247 0 0 1 11.613-2.175c3.214-.207 5.08 1.398 5.08 4.195-.051 3.418-1.918 6.008-4.095 8.39-3.577 3.885-8.192 6.06-13.376 6.941-7.517 1.295-14.05-.673-19.39-6.163-1.192-1.295-1.192-1.399.312-2.124z"/>
        </g>
        <rect width="20.69" height="1" y="94.828" rx=".5"/>
        <rect width="20.69" height="1" x="98.276" y="94.828" rx=".5"/>
        <path d="M11.296 119.456h-.328a6.473 6.473 0 0 1-.508 1.802 4.814 4.814 0 0 1-.982 1.441c-.404.404-.885.72-1.442.95-.557.23-1.185.344-1.883.344-.787 0-1.488-.158-2.105-.475a4.834 4.834 0 0 1-1.564-1.261 5.48 5.48 0 0 1-.967-1.818 7.048 7.048 0 0 1-.327-2.146c0-.611.09-1.261.27-1.949.18-.688.472-1.324.876-1.908a4.956 4.956 0 0 1 1.597-1.458c.66-.388 1.472-.581 2.433-.581.633 0 1.209.1 1.728.303a4.53 4.53 0 0 1 1.343.794c.376.328.674.696.892 1.106.219.41.344.827.377 1.253h.328c-.011-.36-.115-.76-.312-1.196a4.184 4.184 0 0 0-.876-1.237 4.739 4.739 0 0 0-1.45-.966c-.578-.257-1.255-.385-2.03-.385-.994 0-1.84.191-2.54.573a5.087 5.087 0 0 0-1.703 1.474c-.437.601-.756 1.27-.958 2.007a8.188 8.188 0 0 0-.303 2.17c0 .874.131 1.679.393 2.416a5.79 5.79 0 0 0 1.09 1.9 4.963 4.963 0 0 0 3.808 1.695c.742 0 1.408-.12 1.998-.36a4.65 4.65 0 0 0 1.531-1 5.136 5.136 0 0 0 1.057-1.53 6.956 6.956 0 0 0 .557-1.958zm6.76-1.343h8.19v5.93h.328v-11.696h-.327v5.438h-8.19v-5.438h-.328v11.695h.328v-5.93zm15.787 5.602v-5.602h6.994v-.328h-6.994v-5.11h7.436v-.328h-7.763v11.695h7.829v-.327h-7.502zm23.6-4.259h-.328a6.473 6.473 0 0 1-.508 1.802 4.814 4.814 0 0 1-.983 1.441c-.404.404-.884.72-1.441.95-.557.23-1.185.344-1.884.344-.786 0-1.488-.158-2.105-.475a4.834 4.834 0 0 1-1.564-1.261 5.48 5.48 0 0 1-.966-1.818 7.048 7.048 0 0 1-.328-2.146c0-.611.09-1.261.27-1.949.18-.688.473-1.324.877-1.908a4.956 4.956 0 0 1 1.597-1.458c.66-.388 1.471-.581 2.432-.581.633 0 1.21.1 1.728.303a4.53 4.53 0 0 1 1.343.794c.377.328.674.696.893 1.106.218.41.344.827.377 1.253h.327c-.01-.36-.114-.76-.311-1.196a4.184 4.184 0 0 0-.876-1.237 4.739 4.739 0 0 0-1.45-.966c-.579-.257-1.256-.385-2.03-.385-.995 0-1.84.191-2.54.573a5.087 5.087 0 0 0-1.703 1.474c-.437.601-.756 1.27-.958 2.007a8.188 8.188 0 0 0-.303 2.17c0 .874.13 1.679.393 2.416a5.79 5.79 0 0 0 1.089 1.9 4.963 4.963 0 0 0 3.808 1.695c.743 0 1.409-.12 1.998-.36a4.65 4.65 0 0 0 1.532-1 5.136 5.136 0 0 0 1.056-1.53 6.956 6.956 0 0 0 .557-1.958zm6.76.442l2.687-2.375 5.798 6.52h.442l-5.978-6.716 5.65-4.98h-.49l-8.109 7.109v-7.109h-.327v11.695h.327v-4.144zm14.198-1.703c0-.83.117-1.616.352-2.359a5.843 5.843 0 0 1 1.032-1.949 4.93 4.93 0 0 1 1.687-1.327c.672-.327 1.444-.491 2.318-.491.873 0 1.646.164 2.317.491a4.93 4.93 0 0 1 1.687 1.327 5.843 5.843 0 0 1 1.032 1.95c.235.742.352 1.528.352 2.358 0 .83-.117 1.616-.352 2.358a5.843 5.843 0 0 1-1.032 1.95 4.843 4.843 0 0 1-1.687 1.318c-.671.322-1.444.483-2.317.483-.874 0-1.646-.16-2.318-.483a4.843 4.843 0 0 1-1.687-1.318 5.843 5.843 0 0 1-1.032-1.95 7.778 7.778 0 0 1-.352-2.358zm.327 0c.011.84.134 1.616.369 2.326s.568 1.321 1 1.834c.43.513.957.915 1.58 1.204.622.29 1.326.434 2.113.434.786 0 1.49-.145 2.113-.434.622-.29 1.149-.69 1.58-1.204a5.501 5.501 0 0 0 1-1.834 7.69 7.69 0 0 0 .368-2.326 7.69 7.69 0 0 0-.369-2.326 5.501 5.501 0 0 0-.999-1.835 4.533 4.533 0 0 0-1.58-1.203c-.623-.29-1.327-.434-2.113-.434-.787 0-1.49.144-2.113.434-.623.289-1.15.69-1.58 1.203a5.501 5.501 0 0 0-1 1.835 7.69 7.69 0 0 0-.369 2.326zm25.27-5.848v7.338c0 1.409-.322 2.48-.966 3.21-.644.732-1.643 1.098-2.998 1.098-1.354 0-2.353-.366-2.997-1.097-.644-.732-.966-1.802-.966-3.21v-7.339h-.328v7.338c0 1.573.366 2.736 1.098 3.49.731.753 1.796 1.13 3.193 1.13 1.398 0 2.463-.377 3.194-1.13.732-.754 1.098-1.917 1.098-3.49v-7.338h-.328zm6.123.328h4.193v11.367h.327v-11.367h4.21v-.328h-8.73v.328zM41.762 92.347h.328c-.033-.655-.159-1.209-.377-1.662a2.972 2.972 0 0 0-.876-1.097 3.549 3.549 0 0 0-1.278-.607 6.375 6.375 0 0 0-1.597-.188c-.47 0-.942.05-1.417.148a4.088 4.088 0 0 0-1.286.49c-.382.23-.693.539-.933.926-.24.388-.36.871-.36 1.45 0 .568.114 1.03.343 1.384.23.355.533.639.91.852.376.213.8.38 1.269.5.47.12.939.234 1.408.343.448.11.915.216 1.4.32.487.103.929.256 1.328.458.398.202.726.475.982.82.257.343.385.81.385 1.4 0 .502-.112.933-.335 1.294-.224.36-.516.655-.877.884-.36.23-.767.396-1.22.5a6.11 6.11 0 0 1-1.368.155 6.718 6.718 0 0 1-1.711-.204 3.523 3.523 0 0 1-1.343-.664 3.03 3.03 0 0 1-.877-1.187c-.207-.486-.311-1.079-.311-1.778h-.328c-.01.743.096 1.376.32 1.9.224.525.54.953.95 1.286.41.333.895.576 1.458.73a7.01 7.01 0 0 0 1.842.228c.503 0 1-.057 1.49-.172.492-.114.934-.3 1.328-.556.393-.257.71-.582.95-.975s.36-.868.36-1.425c0-.611-.107-1.097-.32-1.458a2.47 2.47 0 0 0-.86-.868 4.9 4.9 0 0 0-1.269-.524c-.486-.131-1.002-.268-1.548-.41-.502-.12-.993-.234-1.474-.343a5.318 5.318 0 0 1-1.286-.46 2.642 2.642 0 0 1-.917-.769c-.235-.317-.352-.737-.352-1.261 0-.524.115-.958.344-1.302.23-.344.521-.62.876-.827.355-.208.751-.353 1.188-.434a6.843 6.843 0 0 1 1.261-.123c.524 0 1.015.054 1.474.163.459.11.855.293 1.188.55.333.256.6.589.802.998.202.41.314.915.336 1.515zm7.695 8.092v-5.602h6.994v-.328h-6.994V89.4h7.436v-.327h-7.764v11.694h7.83v-.327h-7.502zm20.798 0h-6.83V89.072h-.328v11.694h7.158v-.327zm6.22-5.93V89.4h6.88v-.327h-7.207v11.694h.328v-5.929H82.7v-.328h-6.224z"/>
    </g>
</svg>
