<svg xmlns="http://www.w3.org/2000/svg" width="111" height="27" viewBox="0 0 111 27">
    <defs>
        <linearGradient id="a" x1="17.142%" x2="61.41%" y1="89.704%" y2="61.175%">
            <stop offset="0%" stop-color="#9A9A9A"/>
            <stop offset="29.41%" stop-color="#B3B3B3"/>
            <stop offset="100%" stop-color="#EDEDED"/>
        </linearGradient>
        <linearGradient id="b" x1="2.438%" x2="12.81%" y1="55.874%" y2="55.874%">
            <stop offset="0%" stop-color="#9D9D9D"/>
            <stop offset="100%" stop-color="#DEDEDE"/>
        </linearGradient>
        <radialGradient id="c" cx="43.344%" cy="42.523%" r="44.178%" fx="43.344%" fy="42.523%" gradientTransform="matrix(.68823 0 0 1 .135 0)">
            <stop offset="0%" stop-color="#6C6C6C"/>
            <stop offset="100%" stop-color="#484848"/>
        </radialGradient>
    </defs>
    <g fill="none" fill-rule="nonzero" opacity=".8">
        <path fill="url(#a)" d="M15.32 12.347l-5.174 1.66-4.502 1.991-1.277.332c-.336.332-.672.598-1.007.93-.404.332-.74.663-1.076.863-.335.265-.806.73-1.007.995-.336.465-.605.93-.74 1.262-.201.664-.134 1.327.336 1.925.538.796 1.613 1.593 2.822 2.124.605.266 1.68.598 2.487.797 1.343.332 3.897.664 5.308.73h.671l.538-.93c.873-1.725 1.478-3.385 1.814-4.78.202-.862.336-1.99.47-3.318 0-.399.068-1.66 0-2.058-.067-.664-.067-1.261-.201-1.792v-.133s.067 0 .672-.2l-.135-.398zm-1.21.664c.067 0 .202 1.195.202 1.925v.266s-.672-.399-1.143-.664c-.403-.266-1.142-.73-1.276-.797-.067 0-.067 0 .268-.132.605-.133 1.949-.598 1.949-.598zm-2.62.863c.067 0 .134.066.336.2.806.53 1.88 1.128 2.351 1.327.135.066.135.066-.201.265-.74.465-1.613.93-2.688 1.395-.202.066-.336.132-.336.132s0-.066.067-.199c.269-.996.403-1.925.403-2.722 0-.398 0-.398.068-.398zm-.538.2v1.128c-.067.597-.202 1.062-.336 1.66-.067.132-.067.265-.067.265l-.74-.73c-.335-.332-.537-.664-.738-1.062-.067-.2-.202-.532-.202-.532 0 .067 2.083-.73 2.083-.73zm-2.553.995s.067.066.067.133c.134.332.403.863.672 1.128.269.332.605.73.873.996a.968.968 0 0 0 .202.133l-.605.265c-.739.266-1.545.531-2.486.863-.201.067-.47.133-.672.2-.067 0 0 0 .067-.2.47-.73 1.143-2.124 1.546-3.053.067-.2.134-.332.134-.399.067 0 .067 0 .202-.066-.067 0 0 0 0 0zm-.806.332l-.404.797c-.403.73-.806 1.46-1.343 2.323-.068.133-.202.265-.202.332l-.067-.133c-.135-.265-.269-.597-.269-.93a3.184 3.184 0 0 1 0-1.128c.067-.265.067-.265.134-.265.538-.266 2.15-.996 2.15-.996zm6.786.265v.133c0 .863-.067 2.058-.202 2.921 0 .133-.067.266-.067.266s-.134 0-.269-.067c-.604-.199-1.21-.464-1.814-.73-.403-.2-.94-.531-.94-.531s.201-.066.335-.2c.74-.397 1.479-.796 2.15-1.26.27-.133.672-.399.807-.532zm-9.743 1.195v.2c0 .132-.067.265-.067.398 0 .597.067.996.336 1.527l.134.265s-2.62.797-3.426.996c-.27.066-.47.133-.47.133v-.067c.066-.597.537-1.327 1.141-1.925.404-.398.74-.664 1.277-.996.403-.199 1.008-.53 1.075-.53zm6.114 1.063s.068.066.202.132c.806.465 2.016.93 3.024 1.129h.067l-.135.066c-.537.266-2.217.996-3.964 1.66-.269.066-.537.199-.537.199h-.068s.068-.133.135-.332c.47-.93 1.008-1.992 1.21-2.788.066 0 .066-.066.066-.066zm-.604.199s0 .066-.067.199c-.336.796-.807 1.726-1.344 2.722a4.788 4.788 0 0 1-.269.464l-.269-.133c-.806-.53-1.545-1.128-2.015-1.726l-.068-.066.336-.066a22.912 22.912 0 0 0 3.427-1.195c.134-.133.269-.2.269-.2zm3.83 1.327c0 .067-.202.863-.336 1.46-.135.465-.27.864-.47 1.528-.068.265-.202.53-.202.53H12.9c-1.143-.199-2.218-.53-3.158-.862-.27-.133-.672-.266-.672-.332 0 0 .201-.133.537-.266 1.814-.796 3.629-1.66 4.233-1.991.067-.067.135-.067.135-.067zm-8.937.266s-.47.73-1.21 1.66c-.268.331-.537.73-.604.862-.134.133-.269.399-.336.531l-.134.266-.202-.133-.739-.73c-.336-.398-.537-.863-.672-1.261-.067-.2-.067-.266 0-.266s1.075-.265 2.083-.464c.538-.133 1.142-.266 1.411-.332.269-.067.403-.133.403-.133zm.538.199l.134.133a7.597 7.597 0 0 0 1.814 1.46c.135.067.202.133.202.133s-2.419.863-3.494 1.261c-.605.2-1.142.399-1.142.399s-.067 0-.067-.067l-.068-.066.135-.133c.336-.531.806-1.128 1.814-2.323l.672-.797zm3.09 2.257l.404.133c.537.199.94.332 1.478.464.672.2 1.612.332 2.217.399h.135l-1.008.332c-.672.199-2.755.796-4.435 1.261-.336.066-.605.133-.605.2-.067 0-.201 0-.201-.067 0 0 .067-.133.201-.266.538-.664 1.143-1.394 1.613-2.124.134-.2.202-.332.202-.332zm-.671 0s-.27.465-.74 1.195c-.201.332-.47.664-.537.797a2.064 2.064 0 0 1-.269.398l-.134.199h-.067c-.135-.066-1.143-.398-1.411-.465-.336-.132-.672-.265-.941-.398l-.672-.398s.538-.133 1.21-.332c1.747-.465 2.687-.73 3.292-.93.201-.066.269-.066.269-.066zm4.905 1.129c0 .066-.605 1.792-.874 2.323l-.067.133c-.067 0-1.008-.133-1.545-.2-1.008-.132-2.62-.398-3.024-.53h-.067l.604-.133c1.277-.266 1.882-.399 2.487-.598.739-.199 1.545-.53 2.284-.863.067-.066.134-.132.202-.132z" transform="translate(.483 .492)"/>
        <path fill="url(#b)" d="M9.944.398c-.067 0-1.478.465-2.351.863-1.21.465-2.15.93-2.755 1.328-.202.133-.47.398-.538.531v.133l.538.464 1.276.399 2.957.53 3.426.598.068-.265-.47-.067-.068-.132c-.47-.797-.94-1.793-1.277-2.457-.201-.53-.47-1.128-.604-1.526-.135-.332-.135-.399-.202-.399zm-.067.2s0 .132.067.265c.067.531.202 1.062.403 1.66.135.398.135.398 0 .331-.403-.132-2.217-.398-3.494-.597-.201 0-.403-.066-.403-.066s.94-.531 1.344-.73c.538-.2 2.016-.797 2.083-.864zM6.114 2.322l.135.067c.806.265 2.889.664 4.098.796h.27l-.27.133c-.537.266-1.142.598-1.612.863l-.269.133H8.13l-.403-.398-1.411-1.394-.202-.2zm-.134.133l.537.664c.27.398.605.73.672.797l.135.132-1.21-.199c-.403-.066-.604-.133-.873-.199l-.202-.066v-.067c0-.199.336-.597.94-1.062zm4.703.93s.067.066.067.132c.135.266.538 1.062.672 1.195 0 .067.068.067-.47-.066a137.62 137.62 0 0 1-1.747-.266s.067 0 .067-.066c.403-.2.807-.531 1.21-.797.067 0 .134-.066.201-.132z" transform="translate(.483 .492)"/>
        <path fill="url(#c)" d="M4.367 3.12s-.067.133 0 .332c.068.133.202.265.336.398 0 0 1.747 1.66 1.949 1.925.94 1.129 1.41 2.191 1.41 3.651 0 .93-.134 1.793-.604 2.789-.806 1.726-2.553 3.717-5.174 5.841l.404-.133c.268-.199.604-.398 1.41-.796 1.815-.996 3.898-1.925 6.45-2.855 3.696-1.394 9.676-2.987 13.103-3.452l.336-.066-.067-.066c-.336-.465-.538-.797-.806-1.062-.74-.93-1.68-1.66-2.755-2.257-1.546-.863-3.494-1.527-6.047-1.992-.47-.066-1.546-.265-2.352-.398-1.814-.266-2.956-.465-4.233-.664-.47-.066-1.142-.2-1.613-.266-.201-.066-.672-.132-1.008-.265-.268-.266-.671-.398-.739-.664zm1.008.93s.067 0 .135.066c.134.066.336.133.537.199.202.066.336.066.538.133l.403.132s.403 1.262.537 1.726c.068.2.068.332.068.332s-.068-.066-.068-.132c-.47-.797-1.21-1.594-2.015-2.257a.822.822 0 0 0-.135-.2zm1.949.53s.134 0 .201.067c.672.133 1.882.398 2.62.53.135 0 .202.067.202.067s-.067.067-.134.067c-.134.066-.672.398-.806.464A7.522 7.522 0 0 0 8.13 6.837s0-.066-.067-.132A13.198 13.198 0 0 0 7.39 4.78c-.067-.133-.067-.2-.067-.2zm3.36.664s.066.133.134.399c.134.53.201 1.194.201 1.792v.398l-.201-.066a18.718 18.718 0 0 0-1.68-.465c-.336-.066-.605-.199-.605-.199s.47-.531.672-.664c.403-.398 1.478-1.261 1.478-1.195zm.268 0s1.613.266 2.352.399c.537.132 1.344.265 1.41.265 0 0-.066.066-.335.2-1.008.464-1.814.862-2.553 1.393-.202.133-.336.266-.404.266V7.5c0-.73-.134-1.46-.403-2.124-.067-.066-.067-.133-.067-.133zm4.166.797s-.067.332-.067.53c-.135.598-.538 1.461-1.008 2.258l-.135.266s-.134-.067-.201-.133c-.47-.266-.94-.531-1.546-.73l-.268-.133s1.21-.863 1.881-1.262c.47-.331 1.344-.796 1.344-.796zm.336.066c.067 0 .739.2 1.142.332.94.266 1.949.664 2.688.996l.268.133-.201.066c-1.68.398-3.09.797-4.502 1.394-.134.067-.201.067-.201.067s0-.067.067-.2c.403-.863.672-1.792.739-2.589-.067-.132-.067-.199 0-.199zM8.332 7.7s.537.133.873.2c.47.132 1.411.464 1.411.464s-.134.067-.201.2c-.538.398-1.008.862-1.613 1.46l-.336.332v-.067a9.198 9.198 0 0 0-.067-2.323c-.067-.133-.067-.266-.067-.266zm11.422.067s-.269.398-.403.664c-.202.332-.605.796-1.344 1.726-.403.53-.873 1.062-1.008 1.26-.134.2-.269.333-.269.333l-.134-.133c-.47-.664-.94-1.195-1.613-1.726-.134-.066-.268-.199-.268-.199l-.067-.066s.671-.266 1.142-.465c.873-.332 2.083-.797 3.023-1.062.47-.2.941-.399.941-.332zm.336.066s.134.067.202.133c.94.531 1.88 1.261 2.62 1.925l.739.73h-.403c-1.68.133-3.763.465-5.778.93-.135 0-.27.066-.27.066l.337-.332c1.21-1.128 1.747-1.859 2.351-3.12.068-.199.202-.332.202-.332zm-8.735.863c.067 0 .538.266.94.465.337.199.874.465.942.465 0 0-.202.132-.404.199-.739.332-1.343.73-2.015 1.128-.202.133-.336.2-.336.2l.067-.2c.336-.664.605-1.394.806-2.124-.067-.066 0-.133 0-.133zm-.537.067s-.135.464-.202.73a8.068 8.068 0 0 1-.672 1.593c-.067.133-.134.266-.201.332l-.068.133-.201-.2a2.57 2.57 0 0 0-.74-.53.832.832 0 0 1-.2-.133s.671-.598 1.209-1.062c.336-.266 1.075-.863 1.075-.863zm3.158 1.26l.201.134c.47.265.94.663 1.344.995.202.2.672.598.74.664l.066.067-.336.066c-1.814.465-3.158.93-4.77 1.527-.202.066-.336.133-.336.133s-.067 0 .336-.332c1.008-.93 1.948-1.992 2.62-2.988l.135-.265zm-.874.2s-.537.73-.873 1.195c-.403.531-1.075 1.328-1.546 1.925-.201.2-.336.398-.403.398v-.132a3.28 3.28 0 0 0-.336-1.394c-.067-.2-.134-.2-.067-.266s1.21-.73 1.949-1.062c.537-.266 1.276-.664 1.276-.664zm-4.905 1.261s.135.067.202.133c.269.133.47.266.672.465l-.202.199c-.403.265-.94.664-1.276.93-.336.265-.336.265-.336.198.268-.398.403-.597.537-.863.134-.265.269-.53.336-.796 0-.2.067-.266.067-.266zm1.277.996s.067 0 .134.2c.202.331.403.796.47 1.128v.066l-.537.2c-.94.398-1.814.73-2.419.995-.201.066-.47.2-.672.332-.201.066-.336.2-.336.2s.135-.067.27-.2c1.141-.863 2.216-1.792 2.955-2.655.068-.2.135-.266.135-.266zm-.605.133s-.403.53-.739.796c-.74.73-1.478 1.328-2.419 1.926-.134.066-.201.132-.201.132l.403-.464c.269-.266.47-.531.672-.797.134-.2.201-.2.403-.398.537-.332 1.881-1.195 1.881-1.195z" transform="translate(.483 .492)"/>
        <path fill="#202020" d="M41.448 10.267h-.354c-2.598.116-4.37 1.283-5.432 3.5-.827 1.983-.827 4.666 0 6.65.944 1.983 2.361 3.033 4.841 3.383.473.117.827.35 1.89 1.517l1.298 1.4h2.244L44.4 25.2c-.827-.817-1.535-1.517-1.535-1.633 0-.117.354-.234.708-.35 1.3-.35 2.362-1.4 3.07-2.8.591-1.167.71-1.517.827-3.034.236-4.316-2.125-7.116-6.022-7.116zm1.89 11.666c-1.064.584-2.717.584-3.78.234-1.062-.35-2.125-1.517-2.597-2.8-.473-1.4-.473-3.967.118-5.017.944-1.867 2.243-2.683 4.133-2.683 2.716 0 4.369 1.633 4.487 4.783.236 2.683-.59 4.667-2.362 5.483zm39.322-7.816c-.945 0-1.654.35-2.126 1.166l-.354.584V14.35h-1.653v9.333h1.653v-2.916c0-2.684 0-3.034.472-3.734.472-1.05 1.417-1.516 2.362-1.283l.59.117v-1.634l-.944-.116zM72.977 14c-.355 0-.709 0-1.063.117-2.244.583-3.425 2.683-3.425 4.783 0 1.75.355 2.683 1.181 3.617 1.771 1.516 3.425 1.633 5.668.816.355-.116.827-.35.827-.35v-1.516l-.827.35c-1.771.816-3.07.816-4.25-.117-.71-.7-.945-1.517-1.182-2.45h6.613v-1.283c.236-2.45-1.299-4.084-3.542-3.967zm-2.716 4.083s.236-1.633 1.18-2.216c.473-.35.945-.467 1.418-.467.472 0 .944.117 1.417.467.826.583.944 2.216.944 2.216h-4.96zm-39.795-1.75c-1.771-1.05-2.598-1.866-2.48-2.8.236-2.566 3.425-2.216 5.196-1.166v-1.75s-.945-.467-2.362-.467c-2.125 0-3.542.7-4.133 2.1-.944 2.1-.118 3.617 2.952 5.367 1.654.933 2.48 1.866 2.48 2.8 0 1.866-2.362 2.566-4.723 1.4l-.945-.467c-.118.583 0 1.867 0 1.867s.709.35 1.89.466c2.715.584 5.195-.7 5.431-2.8.118-1.866-.59-2.916-3.306-4.55zM97.302 14c-.354 0-.708 0-1.063.117-2.243.583-3.424 2.683-3.306 4.783 0 1.75.354 2.683 1.18 3.617 1.772 1.516 3.425 1.633 5.669.816.354-.116.827-.35.827-.35v-1.516l-.827.35c-1.771.816-3.07.816-4.251-.117-.709-.7-.945-1.517-1.181-2.45h6.613v-1.283c.118-2.45-1.417-4.084-3.66-3.967zm-2.716 3.967s.236-1.634 1.181-2.217c.472-.35.945-.467 1.417-.467.472 0 .945.117 1.417.467.827.583.945 2.217.945 2.217h-4.96zm-30.23-1.634c-1.77-1.05-2.597-1.866-2.48-2.8.237-2.566 3.425-2.216 5.196-1.166v-1.75s-.944-.467-2.361-.467c-2.126 0-3.543.7-4.133 2.1-.945 2.1-.118 3.617 2.952 5.367 1.653.933 2.48 1.866 2.48 2.683 0 1.867-2.362 2.567-4.724 1.4l-.945-.467c-.118.584 0 1.867 0 1.867s.709.35 1.89.467c2.716.583 5.196-.7 5.432-2.8 0-1.75-.709-2.8-3.307-4.434zM106.986 14c-.946 0-1.654.35-2.126 1.167l-.355.583v-1.517h-1.653v9.334h1.653V20.65c0-2.683 0-3.033.473-3.733.472-1.05 1.417-1.517 2.361-1.284l.59.117v-1.633h-.944V14zm-55.737 2.333v-5.95h-1.653V23.45h6.967v-1.517h-5.314v-5.6zM89.745 18.2l-1.417 3.5-1.3-3.5-1.298-3.967h-1.653c1.062 3.15 2.361 6.184 3.542 9.334h1.535l1.89-4.55 1.889-4.667H91.28c-.118-.117-.827 1.75-1.535 3.85zM55.028 6.883c.236 0 .472-.116.708-.233.236-.233.236-.35.236-.7 0-.233-.118-.467-.236-.7-.236-.117-.354-.233-.708-.233-.237 0-.473.116-.709.233-.236.233-.236.35-.236.7 0 .233.118.467.236.7.236.117.472.233.709.233zm-.59-1.516a.908.908 0 0 1 .59-.234c.236 0 .472.117.59.234.118.116.236.35.236.583a.886.886 0 0 1-.236.583.908.908 0 0 1-.59.234.908.908 0 0 1-.59-.234.886.886 0 0 1-.237-.583c0-.233.118-.467.236-.583zm.353.7c.237 0 .237.116.355.233l.118.233h.236l-.118-.35c-.118-.116-.118-.233-.236-.233.118 0 .118 0 .236-.117 0 0 .118-.116.118-.233s0-.117-.118-.233c-.118-.117-.236-.117-.354-.117h-.355v1.167h.118v-.35zm0-.584h.355V5.6c0 .117-.118.233-.236.233h-.237l.118-.35zm-27.395.467v-.933c0 .233.118.35.118.466l1.653 3.5h.236l1.653-3.616c0-.117.118-.234.118-.467v4.083h.59V4.317h-.708L29.64 7.583c0 .117-.118.35-.236.584 0-.117-.118-.35-.236-.584L27.75 4.317h-.709v4.666h.473l-.118-3.033zm5.432 0h.472v2.917h-.472V5.95zm.236-1.05c.118 0 .236 0 .236-.117.118-.116.118-.116.118-.233s0-.233-.118-.233c-.118-.117-.118-.117-.236-.117s-.236 0-.236.117c-.118.116-.118.116-.118.233s0 .233.118.233c0 0 .118.117.236.117zm3.542 3.967V8.4c-.236.233-.59.233-.826.233-.354 0-.59-.116-.827-.35-.236-.233-.354-.583-.354-.933 0-.35.118-.7.354-.933.236-.234.473-.35.827-.35.236 0 .59.116.826.233v-.583c-.236-.117-.472-.117-.826-.117-.59 0-.945.117-1.3.467-.353.35-.471.816-.471 1.283 0 .467.118.933.472 1.167.354.35.708.466 1.18.466.355.117.71 0 .945-.116zm1.417-1.517c0-.35.118-.7.237-.933.118-.234.354-.234.59-.234s.354 0 .354.117v-.583h-.354c-.236 0-.354.116-.472.233s-.237.35-.355.583v-.7h-.59V9.1h.59V7.35zm3.07 1.75c.473 0 .945-.117 1.181-.467.355-.35.473-.7.473-1.283s-.118-.933-.473-1.283c-.236-.35-.708-.467-1.18-.467-.473 0-.945.117-1.181.467-.354.35-.473.816-.473 1.283 0 .467.119.933.473 1.167.236.466.59.583 1.18.583zm-.826-2.683c.236-.234.472-.35.827-.35.354 0 .59.116.826.35.236.233.236.583.236.933 0 .35-.118.7-.236.933-.236.234-.472.35-.826.35-.355 0-.59-.116-.827-.35-.236-.233-.354-.583-.354-.933.118-.35.118-.7.354-.933zm4.842 2.333c.236-.233.354-.35.354-.7a.886.886 0 0 0-.236-.583c-.118-.117-.355-.234-.59-.35l-.473-.234c-.118-.116-.118-.233-.118-.35 0-.116 0-.233.118-.35.118-.116.236-.116.472-.116s.59.116.709.233v-.583c-.236-.117-.473-.117-.709-.117-.354 0-.59.117-.826.233-.237.234-.355.467-.355.7 0 .234.118.467.236.584.119.116.355.233.59.35.237.116.473.233.591.35.118.116.118.233.118.35 0 .35-.236.466-.59.466s-.59-.116-.827-.35v.584c.237.116.473.233.827.233.118 0 .472-.117.709-.35zm2.48-3.15c-.473 0-.945.117-1.182.467-.354.35-.472.816-.472 1.283 0 .467.118.933.472 1.167.355.35.709.466 1.181.466.473 0 .945-.116 1.181-.466.354-.35.472-.7.472-1.284 0-.583-.118-.933-.472-1.283-.236-.117-.708-.35-1.18-.35zm1.062 1.75c0 .35-.118.7-.236.933-.236.234-.472.35-.827.35-.354 0-.59-.116-.826-.35-.236-.233-.355-.583-.355-.933 0-.467.119-.7.355-.933.236-.234.472-.35.826-.35.355 0 .59.116.827.35.118.233.236.583.236.933zm1.417 1.633h.59V6.067h.827V5.6h-.826v-.467c0-.466.236-.7.59-.7.118 0 .236 0 .354.117v-.467h-.354c-.236 0-.472.117-.709.234-.236.233-.354.466-.354.816v.584h-.59v.466h.59l-.118 2.8zm2.244-.816c0 .7.236.933.826.933.236 0 .355 0 .473-.117v-.466c-.118.116-.237.116-.355.116-.236 0-.354 0-.354-.116-.118-.117-.118-.234-.118-.467V6.183h.827v-.466h-.827v-.934c-.236.117-.354.117-.59.117v.817h-.59v.466h.59l.118 1.984zm57.507 6.066c-.236-.116-.354-.233-.708-.233-.237 0-.473.117-.709.233-.236.234-.236.35-.236.7 0 .234.118.467.236.7.236.117.354.234.709.234.236 0 .472-.117.708-.234.236-.233.236-.35.236-.7.118-.35 0-.583-.236-.7zm-.118 1.284a.908.908 0 0 1-.59.233.908.908 0 0 1-.59-.233.886.886 0 0 1-.237-.584c0-.233.118-.466.236-.583a.908.908 0 0 1 .59-.233c.237 0 .473.116.591.233s.236.35.236.583c.118.234 0 .35-.236.584zm-.472-.584c.118 0 .118-.116.236-.116 0 0 .118-.117.118-.234 0-.116 0-.116-.118-.233s-.236-.117-.354-.117h-.355V15.4h.118v-.467h.119c.118 0 .118.117.236.234l.118.233h.236l-.118-.35c-.118 0-.118-.117-.236-.117zm-.118-.116h-.237v-.35h.355v.116c.118.117.118.234-.118.234zm-.827-1.634h.118v-1.166h.354V11.9h-.944v.117h.354v1.166h.118zm.945-.933v-.233.116l.472 1.05h.118l.472-1.05v-.116V13.183h.119V11.9h-.237l-.472.933s0 .117-.118.117c0 0 0-.117-.118-.117l-.472-.933h-.237v1.283h.118l.355-.933z"/>
    </g>
</svg>
