<svg xmlns="http://www.w3.org/2000/svg" width="129" height="129" viewBox="0 0 129 129">
    <g fill="none" fill-rule="evenodd" transform="translate(1 1)">
        <circle cx="63.5" cy="63.5" r="63.5" stroke="#979797"/>
        <g fill-rule="nonzero">
            <path fill="#D74227" d="M79.714 49.486c-1.028 0-2.057-.343-2.971-1.143-.914-.8-1.372-1.829-1.486-3.086-.114-1.143.343-2.286 1.143-3.2.8-.914 1.829-1.371 3.086-1.486 2.4-.114 4.571 1.715 4.685 4.115.115 1.143-.342 2.285-1.142 3.2-.8.914-1.829 1.371-3.086 1.485 0 .115-.114.115-.229.115zm0-7.772h-.228c-1.829.115-3.2 1.715-3.086 3.429 0 .914.457 1.714 1.143 2.286.686.571 1.486.914 2.4.8.914 0 1.714-.458 2.286-1.143.571-.686.914-1.486.8-2.4-.115-1.6-1.6-2.972-3.315-2.972z"/>
            <path fill="#D74227" d="M78 57.6l-.114-2.629c-.915-.228-1.829-.457-2.743-.914L73.429 56l-3.772-3.314 1.714-1.943c-.571-.8-.914-1.6-1.257-2.514l-2.628.114-.343-5.029 2.628-.114c.229-.914.458-1.829.915-2.743l-1.943-1.714 3.314-3.772 1.943 1.6c.8-.571 1.6-.914 2.514-1.257l-.114-2.628 5.029-.343.114 2.628c.914.229 1.828.458 2.743.915L86 33.943l3.771 3.314-1.714 1.943c.572.8.914 1.6 1.257 2.514l2.629-.114.343 5.029-2.629.114c-.228.914-.457 1.828-.914 2.743l1.943 1.714-3.315 3.771-1.942-1.485c-.8.571-1.6.914-2.515 1.257l.115 2.628L78 57.6zm-3.086-4.914l.457.228c1.029.572 2.058.915 3.2 1.029l.458.114.114 2.4 2.743-.228-.115-2.4.458-.115c1.028-.343 2.057-.8 2.971-1.485l.343-.229 1.828 1.6 1.829-2.057-1.829-1.6.229-.457c.571-1.029.914-2.057 1.143-3.2l.114-.457 2.286-.115-.229-2.743-2.4.115-.114-.457c-.343-1.029-.8-2.058-1.486-2.972l-.228-.343 1.6-1.828-2.057-1.829-1.6 1.829-.458-.229c-1.028-.571-2.057-.914-3.2-1.028l-.457-.115-.114-2.4-2.743.229.114 2.4-.457.114c-1.028.343-2.057.8-2.971 1.486l-.343.114-1.829-1.6-1.828 2.057 1.828 1.6-.228.457c-.572 1.029-.914 2.058-1.029 3.2l-.114.458-2.4.114.229 2.743 2.4-.115.114.458c.343 1.028.8 2.057 1.486 2.971l.228.343-1.6 1.828 2.057 1.829 1.6-1.714z"/>
            <path fill="#3E4045" d="M58.571 96l-1.257-4.571c-1.028 0-1.943 0-2.971-.115l-1.6 4.457-7.886-2.857 1.6-4.457c-.8-.571-1.6-1.143-2.286-1.828l-3.885 2.628-4.686-6.971 3.886-2.629c-.229-.457-.343-.914-.457-1.371-.115-.457-.229-.915-.343-1.486L34 76.686l.343-8.343 4.686.228c.228-.914.571-1.942 1.028-2.742l-3.771-2.972 5.143-6.628 3.657 2.857c.8-.572 1.6-1.143 2.514-1.715L46.343 52.8l8-2.286 1.257 4.572c1.029 0 1.943 0 2.971.114l1.6-4.457 7.886 2.857-1.6 4.457c.8.572 1.6 1.143 2.286 1.829l3.886-2.629 4.685 6.972-3.885 2.628c.228.457.342.914.457 1.372.114.457.228.914.343 1.485l4.685.229-.343 8.343L74 78.17c-.229.915-.571 1.943-1.029 2.743l3.658 2.857-5.143 6.629-3.657-2.857c-.8.571-1.6 1.143-2.515 1.714l1.257 4.572-8 2.171zm-.342-5.714l1.257 4.343 5.828-1.715-1.257-4.343.457-.228a24.126 24.126 0 0 0 3.086-2.057l.343-.343 3.543 2.743 3.771-4.8-3.543-2.743.229-.457c.571-1.029.914-2.286 1.257-3.429l.114-.457 4.457.114.229-6.057-4.457-.114-.114-.457c-.115-.572-.229-1.257-.458-1.829-.114-.571-.342-1.143-.571-1.714l-.229-.457 3.772-2.515-3.429-5.028-3.771 2.514-.343-.343c-.914-.914-1.829-1.6-2.857-2.285L65.2 58.4l1.6-4.229-5.714-2.057-1.6 4.229-.457-.114c-1.258-.229-2.4-.229-3.658-.115h-.457l-1.257-4.343-5.828 1.943 1.257 4.343-.457.229a24.126 24.126 0 0 0-3.086 2.057l-.343.228-3.543-2.742-3.771 4.8 3.543 2.742-.229.458c-.571 1.028-.914 2.285-1.257 3.428v.457l-4.457-.114-.343 5.943 4.571.228v.458c.115.571.229 1.257.457 1.828.115.572.343 1.143.572 1.714l.228.458-3.771 2.514 3.429 5.028 3.657-2.514.343.343c.914.914 1.828 1.6 2.857 2.286l.343.228-1.6 4.229 5.714 2.057 1.6-4.229.457.115c1.257.228 2.4.228 3.657.114l.572-.114z"/>
            <path fill="#3E4045" d="M56.514 81.6c-3.543 0-6.857-2.4-7.885-5.943-1.258-4.343 1.257-8.914 5.714-10.171a8.614 8.614 0 0 1 6.286.685c1.942 1.029 3.314 2.858 3.885 4.915a8.614 8.614 0 0 1-.685 6.285c-1.029 1.943-2.858 3.315-4.915 3.886-.914.229-1.6.343-2.4.343zm-6.743-6.286c1.029 3.772 5.029 5.943 8.686 4.915 1.829-.572 3.314-1.715 4.229-3.315a6.758 6.758 0 0 0 .571-5.371c-1.028-3.772-5.028-5.943-8.686-4.914a6.888 6.888 0 0 0-4.8 8.685z"/>
        </g>
    </g>
</svg>
