<svg xmlns="http://www.w3.org/2000/svg" width="129" height="129" viewBox="0 0 129 129">
    <g fill="none" fill-rule="evenodd">
        <circle cx="63.5" cy="63.5" r="63.5" stroke="#979797" transform="translate(1 1)"/>
        <path stroke="#3D3F44" d="M70.532 38.314c12.954 2.657 22.697 14.061 22.697 27.79 0 3.875-.775 7.639-2.215 11.071M62.142 93.201c-2.147-.35-4.26-1.048-6.384-1.993-12.44-5.54-19.042-19.022-16.245-31.835"/>
        <path stroke="#CA4127" d="M34.344 61.194l5.937-2.447 2.155 6.05M96.229 77.046l-6.422.333-.11-6.311"/>
        <path fill="#000" d="M59.763 72V57.723h.996V72h-.996zm8.76 0h-1.006V58.66h-4.64v-.937h10.284v.937h-4.639V72z"/>
    </g>
</svg>
