<svg xmlns="http://www.w3.org/2000/svg" width="129" height="129" viewBox="0 0 129 129">
    <g fill="none" fill-rule="evenodd" transform="translate(1 1)">
        <circle cx="63.5" cy="63.5" r="63.5" stroke="#979797"/>
        <g fill-rule="nonzero">
            <path fill="#3E4045" d="M67.61 84.65c-1.186 0-2.135-.983-2.135-2.211 0-1.228.949-2.21 2.135-2.21 1.187 0 2.136.982 2.136 2.21s-.95 2.21-2.136 2.21zm0-3.071a.952.952 0 0 0-.949.982c0 .614.356.983.95.983.592 0 .948-.369.948-.983s-.356-.982-.949-.982zM43.17 56.158c-7 0-12.695-5.895-12.695-13.14C30.475 35.772 36.169 30 43.169 30c3.204 0 6.289 1.228 8.662 3.561l-.831.86c-2.136-1.965-4.983-3.193-7.83-3.193-6.289 0-11.509 5.28-11.509 11.912 0 6.632 5.102 11.913 11.508 11.913 2.967 0 5.814-1.106 7.95-3.316l.83.86c-2.491 2.333-5.576 3.56-8.78 3.56z"/>
            <path fill="#D74227" d="M43.05 52.228L37 46.825c-.119-.123-3.44-2.58-2.373-6.14.475-1.843 2.136-3.317 4.034-3.562 1.661-.369 3.203.245 4.39 1.596 1.068-1.228 3.203-2.456 5.813-1.228l-.474 1.105c-2.966-1.35-4.746 1.351-4.865 1.474l-.474.737-.475-.737c-.949-1.35-2.254-1.965-3.796-1.842-1.424.246-2.61 1.35-3.085 2.825-.83 2.824 1.898 4.79 2.017 4.912l5.22 4.667 4.627-4.544.83.86-5.338 5.28zM59.661 47.807c-3.44 0-6.288-2.947-6.288-6.509 0-3.561 2.847-6.509 6.288-6.509 2.492 0 4.746 1.597 5.814 3.93l-1.068.492c-.83-1.965-2.61-3.193-4.746-3.193-2.847 0-5.102 2.333-5.102 5.28 0 2.948 2.255 5.28 5.102 5.28 1.661 0 3.085-.736 4.034-2.087l.95.737c-1.187 1.597-3.086 2.579-4.984 2.579z"/>
            <path fill="#D74227" d="M62.983 51.737h-6.525v-4.912h1.186v3.684h4.153v-3.684h1.186z"/>
            <path fill="#3E4045" d="M59.661 56.158c-7 0-12.695-5.895-12.695-13.14C46.966 35.772 52.661 30 59.661 30c3.203 0 6.288 1.228 8.661 3.561l-.83.86c-2.136-1.965-4.865-3.193-7.831-3.193-6.288 0-11.508 5.28-11.508 11.912 0 6.632 5.101 11.913 11.508 11.913 2.966 0 5.814-1.106 7.95-3.316l.83.86c-2.373 2.333-5.458 3.56-8.78 3.56z"/>
            <path fill="#D74227" d="M82.322 49.772l-6.288-.368-3.322-1.351.474-1.106 3.204 1.351 5.932.246c.119 0 .475-.123.593-.246 0-.123 0-.368-.237-.86l-.475-.613.712-.246c.119-.123.593-.246.593-.614 0 0 .12-.246-.118-.491l-.356-.492.474-.368c.12-.123.594-.614.712-.982 0-.123 0-.246-.237-.492l-.356-.368.237-.368c.238-.369.475-.983.356-1.229-.118-.122-.356-.122-.712-.122h-2.966l.119-.737c.119-.983.356-3.93-.475-4.912-.118-.123-.237-.246-.474-.246l-.95 4.053-2.254 2.701H72.95v-1.228h2.966l1.78-2.088 1.068-4.789h.474c.712 0 1.305.246 1.78.737 1.068 1.35.95 3.93.83 5.28h1.543c.83 0 1.424.369 1.66.86.357.737.12 1.597-.118 2.088.237.368.237.614.237.982 0 .614-.474 1.228-.711 1.597.118.491.118.86 0 1.105-.119.491-.475.737-.712.983.237.614.237 1.105 0 1.473-.238.86-1.305.86-1.424.86z"/>
            <path fill="#3E4045" d="M76.153 56.158c-7 0-12.695-5.895-12.695-13.14C63.458 35.772 69.27 30 76.153 30c6.88 0 12.694 5.895 12.694 13.14 0 7.246-5.694 13.018-12.694 13.018zm0-24.93c-6.289 0-11.509 5.28-11.509 11.912 0 6.632 5.102 11.913 11.509 11.913 6.406 0 11.508-5.281 11.508-11.913 0-6.631-5.102-11.912-11.508-11.912z"/>
            <path fill="#3E4045" d="M97.034 86.86H38.305V58.982h1.187v26.65h56.355v-48.14h-5.22v-1.229h6.407z"/>
            <path fill="#3E4045" d="M38.898 78.263h57.424v1.228H38.898z"/>
            <path fill="#D74227" d="M73.542 49.526h-5.457v-9.701h5.457v9.701zm-4.27-1.228h3.084v-7.245H69.27v7.245z"/>
            <path fill="#3E4045" d="M55.153 94.842h25.034v1.228H55.153zM65.95 74.333H44.592v-7.49h21.238v7.49h.118zm-20.17-1.228h18.864V68.07H45.78v5.035zM89.44 74.333H68.204v-7.49h21.238v7.49zm-20.05-1.228h18.864V68.07H69.39v5.035zM89.44 62.175H44.594v-3.193h1.187v1.965h42.474v-5.403h1.187z"/>
            <path fill="#3E4045" d="M59.068 86.246h1.186v9.211h-1.186zM75.559 86.246h1.186v9.211h-1.186z"/>
        </g>
    </g>
</svg>
