<svg xmlns="http://www.w3.org/2000/svg" width="65" height="37" viewBox="0 0 65 37">
    <g fill="none" fill-rule="nonzero" transform="translate(.393 .329)">
        <ellipse cx="17.991" cy="18.139" fill="#757575" rx="17.936" ry="18.081"/>
        <ellipse cx="46.209" cy="18.139" fill="#C7C7C7" rx="17.936" ry="18.081"/>
        <path fill="#FFF" d="M17.752 20.486c0 .643-.065 1.244-.195 1.803a4.2 4.2 0 0 1-.637 1.472 3.115 3.115 0 0 1-1.16 1c-.477.243-1.065.365-1.76.365-.697 0-1.278-.122-1.745-.365a3.154 3.154 0 0 1-1.141-1 4.083 4.083 0 0 1-.629-1.472 8.321 8.321 0 0 1-.186-1.803v-8.298h1.593v8.138c0 .428.033.841.098 1.24s.177.753.336 1.062c.16.31.378.556.655.74.278.185.629.277 1.054.277.424 0 .773-.092 1.044-.276.271-.185.487-.432.646-.741.16-.31.272-.663.337-1.062.064-.399.097-.812.097-1.24v-8.138h1.593v8.298zm5.06-3.587l2.054-4.711h1.646l-2.85 5.978 3.186 6.657h-1.735l-2.354-5.318-2.355 5.318h-1.681l3.169-6.675-2.85-5.96h1.681l2.09 4.711z"/>
        <path fill="#000" d="M47.89 20.486c0 .643-.065 1.244-.195 1.803a4.2 4.2 0 0 1-.637 1.472 3.115 3.115 0 0 1-1.16 1c-.477.243-1.065.365-1.76.365-.697 0-1.278-.122-1.745-.365a3.154 3.154 0 0 1-1.142-1 4.083 4.083 0 0 1-.628-1.472 8.321 8.321 0 0 1-.186-1.803v-8.298h1.593v8.138c0 .428.033.841.098 1.24s.177.753.336 1.062c.16.31.378.556.655.74.278.185.629.277 1.054.277.424 0 .773-.092 1.044-.276.271-.185.487-.432.646-.741.16-.31.272-.663.337-1.062.064-.399.097-.812.097-1.24v-8.138h1.593v8.298zm2.263 4.337V12.188h1.593v12.635h-1.593z"/>
    </g>
</svg>
