<svg xmlns="http://www.w3.org/2000/svg" xmlns:xlink="http://www.w3.org/1999/xlink" width="129" height="129" viewBox="0 0 129 129">
    <defs>
        <path id="a" d="M0 54.673h45.45V.282H0z"/>
    </defs>
    <g fill="none" fill-rule="evenodd">
        <circle cx="63.5" cy="63.5" r="63.5" stroke="#979797" transform="translate(1 1)"/>
        <path fill="#3E4044" d="M41.06 83.618h40.653v-38.23H41.059v38.23zm1.162-1.163H80.55V46.55H42.222v35.904z"/>
        <path fill="#3E4044" d="M80.55 69.604h5.96V59.09h-5.96v10.514zm1.163-1.163h3.633v-8.187h-3.633v8.187z"/>
        <g transform="translate(41.06 36.943)">
            <path fill="#D74227" d="M19.895 14.636c-6.9 0-12.514 5.614-12.514 12.513 0 6.9 5.613 12.513 12.514 12.513 6.899 0 12.513-5.613 12.513-12.513 0-6.9-5.614-12.513-12.513-12.513zm0 26.19c-7.542 0-13.677-6.135-13.677-13.677 0-7.541 6.135-13.676 13.677-13.676 7.541 0 13.676 6.135 13.676 13.676 0 7.542-6.135 13.677-13.676 13.677z"/>
            <mask id="b" fill="#fff">
                <use xlink:href="#a"/>
            </mask>
            <path fill="#3E4044" d="M8.2 54.673h1.163V45.82H8.2zM32.555 54.673h1.163V45.82h-1.163zM8.2 9.135h1.163V.282H8.2zM32.555 9.135h1.163V.282h-1.163z" mask="url(#b)"/>
        </g>
    </g>
</svg>
