<svg xmlns="http://www.w3.org/2000/svg" width="129" height="129" viewBox="0 0 129 129">
    <g fill="none" fill-rule="evenodd" transform="translate(1 1)">
        <circle cx="63.5" cy="63.5" r="63.5" stroke="#979797"/>
        <g fill-rule="nonzero">
            <path fill="#3E4045" d="M33.003 82.736L33.155 36l60.754.066-.154 46.67.005 1.025H33v-1.025zm.986 0h58.78l.154-45.549-58.782-.065-.152 45.614z"/>
            <path fill="#3E4045" d="M33.416 77.311h59.507v1.025H33zM63.036 82.253c-.83 0-1.494-.69-1.494-1.553 0-.862.664-1.552 1.494-1.552s1.494.69 1.494 1.552c0 .863-.664 1.553-1.494 1.553zm0-2.157c-.332 0-.581.26-.581.604 0 .345.249.604.58.604.333 0 .582-.259.582-.604s-.25-.604-.581-.604zM52.278 62.707h20.197v1H52.278zM52.278 65.46h20.197v1H52.278z"/>
            <path fill="#D74227" d="M62.965 59.203c-3.649 0-6.706-3.178-6.706-6.97s3.057-6.97 6.706-6.97c3.649 0 6.706 3.178 6.706 6.97.099 3.895-2.958 6.97-6.706 6.97zm0-13.12c-3.254 0-5.917 2.768-5.917 6.15 0 3.382 2.663 6.15 5.917 6.15s5.917-2.768 5.917-6.15c0-3.382-2.564-6.15-5.917-6.15z"/>
            <path fill="#D74227" d="M62.965 53.566c-1.48 0-2.761-1.333-2.761-2.87 0-1.538 1.282-2.87 2.761-2.87 1.48 0 2.761 1.332 2.761 2.87 0 1.537-1.183 2.87-2.76 2.87zm0-4.817c-1.085 0-1.972.922-1.972 2.05 0 1.127.887 2.05 1.972 2.05s1.972-.923 1.972-2.05c0-1.128-.887-2.05-1.972-2.05z"/>
            <path fill="#D74227" d="M67.206 57.255h-.79c0-2.05-1.577-3.69-3.55-3.69-1.972 0-3.451 1.64-3.451 3.69h-.789c0-2.46 1.874-4.51 4.34-4.51 2.366 0 4.24 2.05 4.24 4.51zM55.95 69.967h4.59v1h-4.59zM64.213 69.967h4.59v1h-4.59z"/>
        </g>
        <path fill="#3E4045" d="M54.115 90.247h18.361v1H54.115z"/>
        <path fill="#3E4045" d="M56.869 84.656v5.818h-1v-5.818zM70.64 84.656v5.818h-1v-5.818z"/>
    </g>
</svg>
