<svg xmlns="http://www.w3.org/2000/svg" width="44" height="43" viewBox="0 0 44 43">
    <g fill="none" fill-rule="evenodd">
        <path fill="#231F20" fill-rule="nonzero" d="M32.324 23.983h5.338V11.33l-6.014-5.937-3.775 3.726 4.45 4.394v10.469zm5.352 2.641h-18.62l-4.45-4.393 1.887-1.863 3.676 3.628h7.563l-7.45-7.368 1.901-1.877 7.45 7.355V14.64l-3.661-3.615 1.873-1.85L18.592 0H0l5.324 5.255v.014h11.042l3.902 3.851-5.705 5.631-3.901-3.851V7.91H5.324v5.173l9.24 9.12-3.761 3.712 6.014 5.937H43l-5.324-5.228z"/>
        <path fill="#A3A3A3" d="M7.089 38.162h-.997l-1.079 3.403-1.179-3.403h-.58L2.11 41.565.997 38.162H0l1.732 4.717h.755l.572-1.47.492-1.502.499 1.49.586 1.482h.755l1.698-4.717zm4.063 3.84H8.504v-1.064h2.554v-.829H8.504v-1.085h2.648v-.862h-3.53v4.717h3.53v-.876zm1.537-1.165v1.213h1.36c.365 0 .884-.121.884-.566 0-.425-.52-.647-.883-.647h-1.361zm0-1.867v1.085h1.36c.56 0 .742-.236.742-.505 0-.216-.175-.58-.741-.58h-1.361zm1.36-.808c.93 0 1.625.418 1.625 1.368 0 .364-.175.714-.613.91.552.168.754.754.754 1.05 0 1.052-.788 1.389-1.765 1.389h-2.237v-4.717h2.237zm6.153.775c-.357-.728-1.118-.937-1.853-.937-.87.007-1.826.404-1.826 1.375 0 1.058.89 1.314 1.853 1.428.627.068 1.092.25 1.092.694 0 .512-.526.708-1.085.708-.573 0-1.119-.23-1.328-.748l-.741.384c.35.863 1.092 1.159 2.055 1.159 1.051 0 1.981-.451 1.981-1.503 0-1.125-.916-1.381-1.9-1.502-.566-.068-1.051-.182-1.051-.593 0-.35.317-.627.977-.627.512 0 .957.256 1.119.526l.707-.364zm3.053-.87c1.624 0 2.432 1.247 2.419 2.48-.014 1.22-.762 2.44-2.42 2.44-1.657 0-2.425-1.193-2.425-2.433 0-1.24.795-2.487 2.426-2.487zm0 .809c-1.112 0-1.57.896-1.55 1.691.02.775.438 1.604 1.55 1.604s1.53-.835 1.543-1.61c.013-.796-.431-1.685-1.543-1.685zm6.624 2.797c-.31.31-.775.478-1.186.478-1.166 0-1.618-.815-1.624-1.597-.007-.789.485-1.638 1.624-1.638.41 0 .829.142 1.139.445l.593-.573a2.434 2.434 0 0 0-1.732-.72c-1.705 0-2.507 1.253-2.5 2.486.006 1.226.748 2.433 2.5 2.433.68 0 1.307-.223 1.792-.701l-.606-.613zm4.899-3.511h-1.105l-1.793 1.994v-1.994h-.89v4.717h.89v-2.09l1.974 2.09h1.099v-.054l-2.271-2.379 2.096-2.257v-.027zm4.144 3.84h-2.648v-1.064h2.553v-.829h-2.553v-1.085h2.648v-.862H35.39v4.717h3.53v-.876zm2.183.877h.89V38.97h1.496v-.808h-3.882v.808h1.496v3.909z"/>
    </g>
</svg>
