<svg xmlns="http://www.w3.org/2000/svg" width="38" height="64" viewBox="0 0 38 64">
    <g fill="none" fill-rule="nonzero">
        <path fill="#3E4045" d="M34.7 41.8L23.8 40l.2-.6c.1-.2 7.2-18.6-5.5-37.2-12.7 18.6-5.6 37-5.5 37.2l.2.6-10.8 1.8-.1-.5c-1.3-12 6-20.8 6-20.9l.9.6c-.1.1-6.9 8.3-5.9 19.6l8.6-1.4c-1.1-3.4-6.1-20.8 6.2-38.1l.4-.6.5.6c12.3 17.4 7.4 34.8 6.2 38.1l8.6 1.4C34.8 29.4 28 21.1 28 21l.8-.6c.1.1 7.3 8.9 6 20.9l-.1.5z"/>
        <path fill="#3E4045" d="M34.7 41.8l-10.3-1.7.2-1 9.2 1.5C34.8 29.3 28 21 27.9 21l.8-.6c.1.1 7.3 8.9 6 20.9v.5z"/>
        <path fill="#D74227" d="M18.6 22v-1c1.7 0 3.1-1.4 3.1-3.1 0-1.7-1.4-3.1-3.1-3.1-1.7 0-3.1 1.4-3.1 3.1 0 1.1.6 2.1 1.5 2.6l-.5.9c-1.2-.8-2-2.1-2-3.5 0-2.3 1.8-4.1 4.1-4.1s4.1 1.8 4.1 4.1-1.9 4.1-4.1 4.1z"/>
        <path fill="#3E4045" d="M14 24.7h9.8v1H14zM14 29.8h9.8v1H14zM19 39.9c-2.8 0-4.8-1.1-5-1.2l.5-.9s4.3 2.3 8.8 0l.5.9c-1.6.9-3.3 1.2-4.8 1.2zM19.4 58.2l-.4-.3c-.2-.2-6-4.6-6-12.7h1c0 6.6 4.2 10.7 5.3 11.7 5.6-5.1 4.9-12.1 4.6-14-6 2-10.4-.1-10.6-.2l.4-.9s4.5 2.1 10.4 0l.5-.2.1.5c0 .1 2.4 9.5-5.1 15.8l-.2.3z"/>
        <path fill="#D74227" d="M.761 49.453l2.658-2.12.624.782-2.658 2.12zM5.562 54.14l2.033-2.725.802.598-2.034 2.725zM11.69 57.322l1.064-3.23.95.313-1.064 3.23zM24.965 54.464l.942-.336 1.178 3.296-.942.336zM30.154 52.075l.789-.615 2.151 2.761-.789.615zM34.575 48.19l.61-.793 2.772 2.137-.61.792z"/>
        <path fill="#3E4045" d="M4 62.5h5.2v1H4zM10.6 62.5h7.8v1h-7.8zM20.7 62.5H23v1h-2.3zM25 62.5h5v1h-5zM31.1 62.5h2.7v1h-2.7z"/>
    </g>
</svg>
