<svg xmlns="http://www.w3.org/2000/svg" width="51" height="56" viewBox="0 0 51 56">
    <g fill="none" fill-rule="nonzero">
        <path fill="#D74227" d="M40 15.3c-.9 0-1.8-.3-2.6-1s-1.2-1.6-1.3-2.7c-.1-1 .3-2 1-2.8.7-.8 1.6-1.2 2.7-1.3 2.1-.1 4 1.5 4.1 3.6.1 1-.3 2-1 2.8-.7.8-1.6 1.2-2.7 1.3 0 .1-.1.1-.2.1zm0-6.8h-.2c-1.6.1-2.8 1.5-2.7 3 0 .8.4 1.5 1 2s1.3.8 2.1.7c.8 0 1.5-.4 2-1s.8-1.3.7-2.1c-.1-1.4-1.4-2.6-2.9-2.6z"/>
        <path fill="#D74227" d="M38.5 22.4l-.1-2.3c-.8-.2-1.6-.4-2.4-.8L34.5 21l-3.3-2.9 1.5-1.7c-.5-.7-.8-1.4-1.1-2.2l-2.3.1-.3-4.4 2.3-.1c.2-.8.4-1.6.8-2.4l-1.7-1.5 2.9-3.3L35 4c.7-.5 1.4-.8 2.2-1.1L37.1.6l4.4-.3.1 2.3c.8.2 1.6.4 2.4.8l1.5-1.7 3.3 2.9-1.5 1.7c.5.7.8 1.4 1.1 2.2l2.3-.1.3 4.4-2.3.1c-.2.8-.4 1.6-.8 2.4l1.7 1.5-2.9 3.3-1.7-1.3c-.7.5-1.4.8-2.2 1.1l.1 2.3-4.4.2zm-2.7-4.3l.4.2c.9.5 1.8.8 2.8.9l.4.1.1 2.1 2.4-.2-.1-2.1.4-.1c.9-.3 1.8-.7 2.6-1.3l.3-.2 1.6 1.4 1.6-1.8-1.6-1.4.2-.4c.5-.9.8-1.8 1-2.8l.1-.4 2-.1-.2-2.4-2.1.1-.1-.4c-.3-.9-.7-1.8-1.3-2.6l-.2-.3 1.4-1.6-1.8-1.6-1.4 1.6-.4-.2c-.9-.5-1.8-.8-2.8-.9l-.4-.1-.1-2.1-2.4.2.1 2.1-.4.1c-.9.3-1.8.7-2.6 1.3l-.3.1-1.6-1.4-1.6 1.8 1.6 1.4-.2.4c-.5.9-.8 1.8-.9 2.8l-.1.4-2.1.1.2 2.4 2.1-.1.1.4c.3.9.7 1.8 1.3 2.6l.2.3-1.4 1.6 1.8 1.6 1.4-1.5z"/>
        <path fill="#3E4045" d="M21.5 56l-1.1-4c-.9 0-1.7 0-2.6-.1l-1.4 3.9-6.9-2.5 1.4-3.9c-.7-.5-1.4-1-2-1.6l-3.4 2.3L1.4 44l3.4-2.3c-.2-.4-.3-.8-.4-1.2-.1-.4-.2-.8-.3-1.3L0 39.1l.3-7.3 4.1.2c.2-.8.5-1.7.9-2.4L2 27l4.5-5.8 3.2 2.5c.7-.5 1.4-1 2.2-1.5l-1.1-4 7-2 1.1 4c.9 0 1.7 0 2.6.1l1.4-3.9 6.9 2.5-1.4 3.9c.7.5 1.4 1 2 1.6l3.4-2.3 4.1 6.1-3.4 2.3c.2.4.3.8.4 1.2.1.4.2.8.3 1.3l4.1.2-.3 7.3-4-.1c-.2.8-.5 1.7-.9 2.4l3.2 2.5-4.5 5.8-3.2-2.5c-.7.5-1.4 1-2.2 1.5l1.1 4-7 1.9zm-.3-5l1.1 3.8 5.1-1.5-1.1-3.8.4-.2c.9-.5 1.8-1.1 2.7-1.8l.3-.3 3.1 2.4 3.3-4.2L33 43l.2-.4c.5-.9.8-2 1.1-3l.1-.4 3.9.1.2-5.3-3.9-.1-.1-.4c-.1-.5-.2-1.1-.4-1.6-.1-.5-.3-1-.5-1.5l-.2-.4 3.3-2.2-3-4.4-3.3 2.2-.3-.3c-.8-.8-1.6-1.4-2.5-2l-.3-.2 1.4-3.7-5-1.8-1.4 3.7-.4-.1c-1.1-.2-2.1-.2-3.2-.1h-.4l-1.1-3.8-5.1 1.7 1.1 3.8-.4.2c-.9.5-1.8 1.1-2.7 1.8l-.3.2-3.1-2.4-3.3 4.2 3.1 2.4-.2.4c-.5.9-.8 2-1.1 3v.4l-3.9-.1-.3 5.2 4 .2v.4c.1.5.2 1.1.4 1.6.1.5.3 1 .5 1.5l.2.4-3.3 2.2 3 4.4L9 46.6l.3.3c.8.8 1.6 1.4 2.5 2l.3.2-1.4 3.7 5 1.8 1.4-3.7.4.1c1.1.2 2.1.2 3.2.1l.5-.1z"/>
        <path fill="#3E4045" d="M19.7 43.4c-3.1 0-6-2.1-6.9-5.2-1.1-3.8 1.1-7.8 5-8.9 1.8-.5 3.8-.3 5.5.6 1.7.9 2.9 2.5 3.4 4.3.5 1.8.3 3.8-.6 5.5-.9 1.7-2.5 2.9-4.3 3.4-.8.2-1.4.3-2.1.3zm-5.9-5.5c.9 3.3 4.4 5.2 7.6 4.3 1.6-.5 2.9-1.5 3.7-2.9.8-1.4 1-3.1.5-4.7-.9-3.3-4.4-5.2-7.6-4.3-3.3.9-5.2 4.3-4.2 7.6z"/>
    </g>
</svg>
