<svg xmlns="http://www.w3.org/2000/svg" width="58" height="54" viewBox="0 0 58 54">
    <g fill="none" fill-rule="nonzero">
        <path fill="#3E4045" d="M12.8 17.3h-1V.5h33.4v7.3h-1V1.5H12.8zM45.2 53.9H11.8V38.2h1v14.7h31.4V19.5h1zM44.2 13.3h1v3.3h-1z"/>
        <path fill="#3E4045" d="M12.3 46h32.4v1H12.3zM19.9 30.6H37v1H19.9zM19.9 34.3H37v1H19.9zM3.5 21h8.8v1H3.5zM3.5 25.1h8.8v1H3.5zM3.5 29.3h8.8v1H3.5zM3.5 33.5h4.9v1H3.5zM28.5 52.3c-1.2 0-2.2-1-2.2-2.2 0-1.2 1-2.2 2.2-2.2 1.2 0 2.2 1 2.2 2.2 0 1.2-1 2.2-2.2 2.2zm0-3.5c-.7 0-1.2.6-1.2 1.2s.6 1.2 1.2 1.2 1.2-.6 1.2-1.2-.5-1.2-1.2-1.2z"/>
        <path fill="#D74227" d="M28.5 26.9c-4.7 0-8.6-3.9-8.6-8.6 0-4.7 3.9-8.6 8.6-8.6 4.7 0 8.6 3.9 8.6 8.6 0 4.8-3.9 8.6-8.6 8.6zm0-16.1c-4.2 0-7.6 3.4-7.6 7.6 0 4.2 3.4 7.6 7.6 7.6 4.2 0 7.6-3.4 7.6-7.6 0-4.2-3.4-7.6-7.6-7.6z"/>
        <path fill="#D74227" d="M28.5 20c-1.9 0-3.5-1.6-3.5-3.5s1.6-3.5 3.5-3.5 3.5 1.6 3.5 3.5-1.6 3.5-3.5 3.5zm0-5.9c-1.4 0-2.5 1.1-2.5 2.5s1.1 2.5 2.5 2.5S31 18 31 16.6s-1.2-2.5-2.5-2.5z"/>
        <path fill="#D74227" d="M33.9 24.5h-1c0-2.5-2-4.5-4.5-4.5S24 22 24 24.5h-1c0-3 2.4-5.5 5.5-5.5 3 0 5.4 2.5 5.4 5.5z"/>
        <path fill="#3E4045" d="M53.5 14.1H41V7.3h12.5v6.8zm-11.5-1h10.5V8.3H42v4.8zM57.5 20H41v-3.9h16.5V20zM42 19h14.5v-1.9H42V19zM15.2 38.7H.6V16.8h14.5v21.9h.1zm-13.6-1h12.5V17.8H1.6v19.9z"/>
        <path fill="#D74227" d="M19.9 40.6h5.6v1h-5.6zM31.4 40.6H37v1h-5.6z"/>
    </g>
</svg>
