<svg xmlns="http://www.w3.org/2000/svg" xmlns:xlink="http://www.w3.org/1999/xlink" width="1920" height="476" viewBox="0 0 1920 476">
    <defs>
        <path id="a" d="M59.55.816H.733V56.83H59.55V.816z"/>
    </defs>
    <g fill="none" fill-rule="evenodd">
        <path fill="#F0F1F2" fill-rule="nonzero" d="M0 0h1921v475.135H0z"/>
        <g fill="#3D3F44" opacity=".3">
            <path d="M1482.246 192.533l.936 1.336 6.392-4.475 18.643 26.625-43.572 30.51-18.643-26.626 6.235-4.366-.936-1.336-7.575 5.304 20.515 29.298 46.25-32.385-20.514-29.298z"/>
            <path d="M1477.618 218.688l-32.758.2.007 1.632 33.89-.206 11.784-31.776-1.532-.564z"/>
            <path d="M1444.077 219.487l1.574.434 2.981-10.77-1.574-.434zM1471.995 187.668l-17.043-1.35-4.56 16.477-1.575-.434 4.921-17.777 18.388 1.456zM1489.71 189.07l-11.14-.881.13-1.628 11.14.882zM1458.222 213.21l20.883-14.622-.935-1.337-20.884 14.623zM1455.193 208.886l20.884-14.623-.936-1.337-20.883 14.623z"/>
            <path d="M1486.801 197.613l-1.338.937-9.437-13.476-29.45 20.622 9.435 13.476-1.338.937-10.372-14.813 32.128-22.496z"/>
        </g>
        <g fill="#3D3F44" opacity=".3">
            <path d="M1346.024 230.291c-10.33-4.174-22.125.821-26.292 11.135-4.167 10.313.847 22.1 11.178 26.273 10.331 4.174 22.124-.821 26.29-11.134 4.168-10.314-.845-22.1-11.176-26.274m-15.64 38.712c-11.05-4.465-16.415-17.073-11.958-28.104 4.458-11.032 17.074-16.376 28.124-11.91 11.05 4.464 16.414 17.071 11.956 28.103-4.457 11.032-17.072 16.375-28.122 11.91"/>
            <path d="M1332.076 258.388c.403-.997 1.013-1.332 1.829-1.002.836.338 1.052 1.006.649 2.004-.403.997-1.023 1.328-1.86.99-.815-.33-1.021-.994-.618-1.992zm2.35-4.362l.228-.565c.505-1.252 1.11-2.198 1.814-2.838.703-.64 1.752-1.204 3.15-1.695l1.879-.644c.985-.323 1.759-.727 2.321-1.21.563-.484 1.005-1.123 1.326-1.917.522-1.293.512-2.493-.03-3.601-.544-1.107-1.509-1.941-2.896-2.501a9.915 9.915 0 0 0-2.372-.648c-.775-.106-1.65-.125-2.628-.058l-.072-1.45c1.32-.036 2.391.019 3.218.162.825.145 1.64.38 2.447.705 1.866.754 3.131 1.849 3.797 3.284.666 1.436.644 3.029-.063 4.78-.28.692-.617 1.26-1.01 1.706a5.852 5.852 0 0 1-1.355 1.131 9.166 9.166 0 0 1-1.72.798c-.635.223-1.335.458-2.1.706-.874.286-1.579.584-2.114.895-.535.31-.982.684-1.341 1.119-.36.435-.74 1.147-1.138 2.134l-.087.214-1.255-.507z"/>
        </g>
        <g opacity=".3">
            <g transform="rotate(26 107.26 3295.243)">
                <mask id="b" fill="#fff">
                    <use xlink:href="#a"/>
                </mask>
                <path fill="#3D3F44" d="M3.948 23.317l11.287 13.736-1.282 17.1 16.19-6.253 16.187 6.252-1.279-17.1 11.287-13.735-16.982-3.813-9.214-15.246-9.214 15.246-16.98 3.813zM48.317 56.83l-18.175-7.019-18.174 7.02 1.438-19.196L.734 22.21l19.063-4.28L30.142.815l10.344 17.116 19.063 4.28-12.67 15.424 1.438 19.195z" mask="url(#b)"/>
            </g>
            <path fill="#3D3F44" d="M1464.936 337.226l6.504 7.004 3.494-8.772 8.903-4.077-7.486-5.985-.879-9.773-8.242 5.324-9.324-2.214 2.269 9.526-4.763 8.154 9.524.813zm7.115 10.28l-7.953-8.562-11.644-.996 5.823-9.97-2.775-11.647 11.402 2.705 10.077-6.507 1.076 11.947 9.153 7.32-10.887 4.983-4.272 10.727z"/>
        </g>
        <g fill="#3D3F44" opacity=".3">
            <path d="M567.5 278.604l-4.695-17.896-16.377-10.04 16.038-9.872 4.074-18.801 14.785 12.307 18.715-2.094-6.855 18.349-1.77-.659 5.781-15.473-16.463 1.842-13.007-10.827-3.584 16.54-14.108 8.684 14.406 8.833 4.131 15.742 13.207-11.104 1.215 1.443z"/>
            <path d="M593.126 267.503l9.04.324-3.524-8.188 3.239-8.67-9.017 1.01-7.125-5.932-1.964 9.06-7.728 4.758 7.891 4.837 2.264 8.622 6.924-5.821zm11.958 2.318l-11.3-.406-8.654 7.276-2.826-10.776-9.862-6.046 9.657-5.945 2.453-11.322 8.904 7.412 11.269-1.26-4.049 10.833 4.408 10.234z"/>
        </g>
        <g fill="#3D3F44" opacity=".3">
            <path d="M553.265 393.422l26.663 15.394 20.23-35.041-19.654-11.348-11.226 3.259-16.013 27.736zm27.211 17.338l-29.17-16.84 16.997-29.44 12.361-3.588 21.453 12.386-21.641 37.482z"/>
            <path d="M576.467 370.33l-7.99-4.614.705-1.22 6.736 3.889 4.079-7.065 1.253.724zM568.653 394.757l2.423 1.399 5.91-10.236 3.078 1.777-.944-8.27-7.634 3.318 3.077 1.776-5.91 10.236zm2.972 3.343l-4.93-2.846 5.91-10.236-4.275-2.467 11.994-5.21 1.485 12.992-4.275-2.468-5.91 10.235z"/>
        </g>
        <g fill="#3D3F44" opacity=".3">
            <path d="M449.331 232.293c-17.665 0-32.036-14.43-32.036-32.166 0-17.737 14.37-32.168 32.036-32.168 17.666 0 32.038 14.43 32.038 32.168h-2.19c0-16.526-13.389-29.97-29.848-29.97-16.457 0-29.847 13.444-29.847 29.97 0 16.525 13.39 29.969 29.847 29.969 8.275 0 15.967-3.321 21.663-9.353l1.588 1.513c-6.112 6.472-14.37 10.037-23.25 10.037"/>
            <path d="M480.702 201.867l-12.8-13.028 1.557-1.544 10.77 10.962 7.591-13.379 1.902 1.086z"/>
        </g>
        <g fill="#3D3F44" opacity=".3">
            <path d="M430.336 349.507l20.142-5.775 12.24 5.08-2.275-7.938 8.224-2.358-7.161-24.972-38.33 10.99 7.16 24.973zm34.888 2.112l-14.846-6.162-21.163 6.069-8.06-28.109 41.472-11.892 8.06 28.109-8.224 2.358 2.76 9.627z"/>
            <path d="M423.289 371.348l-2.575-8.98-7.619 2.184-7.499-26.151 19.31-5.369.45 1.569-17.739 4.917 6.6 23.015 7.618-2.184 2.09 7.29 7.06-9.914 16.73-4.816-2.001-6.981 1.57-.45 2.452 8.55-17.75 5.108zM436.385 331.43a1.659 1.659 0 0 0-1.137 2.048 1.659 1.659 0 0 0 3.187-.914 1.659 1.659 0 0 0-2.05-1.134m1.362 4.75a3.293 3.293 0 0 1-4.07-2.252 3.292 3.292 0 0 1 6.329-1.815 3.293 3.293 0 0 1-2.259 4.067M445.171 328.91a1.659 1.659 0 0 0-1.137 2.048 1.659 1.659 0 0 0 3.187-.913 1.659 1.659 0 0 0-2.05-1.134m1.362 4.75a3.293 3.293 0 0 1-4.07-2.252 3.292 3.292 0 0 1 6.329-1.815 3.293 3.293 0 0 1-2.259 4.067M453.957 326.391a1.659 1.659 0 0 0-1.137 2.048 1.659 1.659 0 0 0 3.187-.914 1.659 1.659 0 0 0-2.05-1.134m1.362 4.75a3.293 3.293 0 0 1-4.07-2.252 3.292 3.292 0 0 1 6.329-1.814 3.293 3.293 0 0 1-2.259 4.066"/>
        </g>
        <path fill="#3D3F44" d="M1324.15 397.499l8.228 14.82c1.309 2.356 3.511 3.514 5.613 2.951l10.857-2.909c2-.536 3.164-1.686 4.288-2.799 1.03-1.02 2.004-1.983 3.62-2.416l1.448-.388a.748.748 0 1 0-.387-1.445l-1.448.388c-2 .536-3.164 1.686-4.288 2.8-1.03 1.02-2.004 1.983-3.62 2.416l-10.857 2.909c-1.72.46-3.185-.914-3.916-2.231l-8.235-14.836c-.516-.89-.667-1.593-.457-2.104.264-.634 1.09-.975 1.735-1.148l10.132-2.715a3.745 3.745 0 0 0 1.978-1.3l.773 2.886c.977 3.647 4.603 5.737 8.257 4.758a.75.75 0 0 0 .53-.917.75.75 0 0 0-.917-.528c-2.841.761-5.662-.864-6.422-3.7l-3.872-14.45c-.861-3.215.49-5.553 3.711-6.416 1.177-.315 2.436.41 2.751 1.586l1.936 7.225c1.13 4.213 5.152 6.726 9.358 5.978l6.398 23.874c.107.4.518.636.917.529l10.131-2.715a.748.748 0 0 0 .53-.916l-7.357-27.457a.748.748 0 0 0-.917-.528l-10.131 2.715a.749.749 0 1 0 .387 1.444l9.408-2.52 6.97 26.01-8.685 2.327-6.39-23.843a.748.748 0 0 0-.916-.528c-3.653.979-7.277-1.111-8.255-4.758l-1.935-7.225a3.748 3.748 0 0 0-4.587-2.643c-4.017 1.077-5.847 4.237-4.772 8.248l2.323 8.67a2.222 2.222 0 0 1-1.59 2.75l-10.131 2.714c-1.394.374-2.339 1.073-2.73 2.02-.4.965-.219 2.113.535 3.417m43.076 5.293a1.499 1.499 0 0 1-2.895.776 1.5 1.5 0 0 1 2.895-.776" opacity=".3"/>
    </g>
</svg>
