<svg xmlns="http://www.w3.org/2000/svg" width="82" height="31" viewBox="0 0 82 31">
    <g fill="none" fill-rule="nonzero" opacity=".7">
        <path fill="#9F9F9F" d="M23.21 10.81l-4.66-1.55V2.53l4.66 1.38v6.9M24.43 3.9l4.66-1.38-.02 6.73-4.64 1.56V3.9M28.14 1.79L23.8.45l-4.29 1.34 4.29 1.15 4.34-1.15M34.95 10.81l-4.66-1.55V2.53l4.66 1.38v6.9M36.17 3.9l4.66-1.38-.02 6.73-4.64 1.56V3.9M39.88 1.79L35.54.45l-4.29 1.34 4.29 1.15 4.34-1.15M5.61 13.74L.95 12.36v6.73l4.66 1.55v-6.9M6.82 13.74l4.66-1.38-.02 6.73-4.64 1.56v-6.91M10.53 11.63l-4.34-1.34-4.29 1.34 4.29 1.15 4.34-1.15M17.34 20.65l-4.66-1.55v-6.73l4.66 1.38v6.9M18.56 13.74l4.66-1.38-.02 6.73-4.64 1.56v-6.91M22.27 11.63l-4.34-1.34-4.29 1.34 4.29 1.15 4.34-1.15M11.48 30.49l-4.66-1.55v-6.73l4.66 1.38v6.9M12.69 23.58l4.66-1.38-.02 6.73-4.64 1.56v-6.91M16.4 21.47l-4.34-1.34-4.29 1.34 4.29 1.15 4.34-1.15"/>
        <path fill="#0F0F0F" d="M32.09 24.54h-.34c-.13 0-.29.08-.33.22l-1.04 3.66-1.03-3.65c-.03-.11-.14-.23-.29-.23h-.41c-.15 0-.25.12-.28.23l-.96 3.61-.99-3.63c-.04-.13-.2-.22-.33-.22h-.49c-.11 0-.2.05-.26.12-.04.05-.05.11-.03.15l1.53 5.4c.03.11.13.23.28.23h.49c.13 0 .25-.1.28-.23l.94-3.6 1.02 3.6c.03.11.13.23.27.23h.48c.13 0 .25-.09.28-.23l1.47-5.4a.16.16 0 0 0-.03-.16c-.03-.06-.12-.1-.23-.1M36.33 26.83h-2.59c.06-.73.53-1.48 1.33-1.51.85.03 1.24.76 1.26 1.51zm-1.26-2.33c-1.75 0-2.55 1.55-2.55 2.98 0 1.79.99 2.95 2.52 2.95 1.1 0 1.93-.55 2.29-1.52.02-.06.01-.12-.02-.17a.289.289 0 0 0-.19-.13l-.49-.09a.33.33 0 0 0-.33.17c-.24.54-.67.84-1.21.86-.52-.02-1-.32-1.21-.79-.18-.38-.2-.75-.21-1.12h3.51c.07 0 .15-.03.2-.09.05-.05.07-.1.07-.16.02-1.4-.62-2.89-2.38-2.89zM41.8 27.49c0 .33-.06 1.98-1.23 2.02-.39-.02-.79-.25-1.01-.59-.16-.26-.26-.62-.28-1.06v-.97c.02-.74.54-1.56 1.29-1.59 1.18.05 1.23 1.83 1.23 2.19zm-1.04-3.04h-.09c-.58 0-1.04.24-1.39.74v-2.28c0-.13-.13-.24-.28-.24h-.51c-.13 0-.28.1-.28.24v7.11c0 .13.13.25.28.25h.15c.14 0 .24-.11.27-.22l.16-.5c.37.52.92.83 1.51.83h.09c1.56 0 2.26-1.52 2.26-3.02 0-.75-.18-1.46-.51-1.96-.37-.59-1.01-.95-1.66-.95zM48.47 27.33c-.33-.24-.72-.32-1.12-.39l-.76-.14c-.54-.09-.86-.24-.86-.72 0-.51.53-.7.97-.71.55.01.96.26 1.15.68.05.1.15.17.26.17.02 0 .04 0 .06-.01l.47-.1c.08-.02.15-.07.19-.14.03-.05.04-.11.02-.17-.29-.84-1.03-1.29-2.14-1.29-1.01 0-2.08.45-2.08 1.7 0 .85.54 1.4 1.6 1.61l.85.16c.47.09.94.25.94.75 0 .74-.86.82-1.12.82-.59-.01-1.25-.27-1.41-.83-.03-.12-.19-.21-.32-.18l-.5.1c-.07.02-.14.06-.18.13a.26.26 0 0 0-.03.17c.26.92 1.14 1.47 2.37 1.48h.03c1.1 0 2.27-.47 2.27-1.79 0-.52-.24-1-.66-1.3M53.48 26.83h-2.59c.06-.73.53-1.48 1.33-1.51.85.03 1.24.77 1.26 1.51zm-1.26-2.33c-1.75 0-2.55 1.55-2.55 2.98 0 1.79.99 2.95 2.52 2.95 1.1 0 1.93-.55 2.29-1.52.02-.06.01-.12-.02-.17a.289.289 0 0 0-.19-.13l-.49-.09a.323.323 0 0 0-.33.17c-.24.54-.67.84-1.2.86-.52-.02-1-.32-1.21-.79-.18-.38-.2-.75-.21-1.12h3.51c.07 0 .15-.03.2-.09.05-.05.07-.1.07-.16.01-1.4-.63-2.89-2.39-2.89zM57.95 24.57c-.07-.01-.13-.01-.2-.01-.59 0-1.07.32-1.4.93v-.54c0-.13-.13-.24-.28-.24h-.44c-.14 0-.27.11-.27.25v5.21c0 .13.13.25.27.25h.51c.13 0 .28-.1.28-.25v-2.63c0-.43.04-.76.25-1.15.3-.55.71-.82 1.26-.82.14 0 .26-.12.26-.26v-.49c.01-.13-.1-.24-.24-.25M63.32 24.46h-.4c-.13 0-.29.09-.33.22l-1.31 4.12-1.34-4.12c-.04-.14-.2-.23-.33-.23h-.58c-.11 0-.21.05-.26.12-.04.05-.04.1-.03.16l1.83 5.44c.04.11.13.23.28.23h.7c.13 0 .23-.09.28-.23l1.78-5.43a.16.16 0 0 0-.03-.16.324.324 0 0 0-.26-.12M64.65 22.38a.68.68 0 1 0 .001 1.361.68.68 0 0 0-.001-1.361M64.93 24.43h-.55c-.15 0-.29.12-.29.26v5.53c0 .07.03.13.09.18.05.04.12.07.19.07h.56c.15 0 .29-.12.29-.25v-5.53c0-.14-.14-.26-.29-.26M70.11 28.18h-.46a.31.31 0 0 0-.29.21c-.17.73-.55 1.11-1.13 1.12-1.13-.03-1.22-1.61-1.22-2.09 0-.96.33-2 1.26-2.03.56.02.97.42 1.09 1.08.02.13.13.24.27.25h.5c.15-.02.26-.13.26-.27-.18-1.19-1-1.95-2.1-1.95h-.08c-1.6 0-2.31 1.49-2.31 2.97 0 1.35.6 2.94 2.3 2.94h.08c1.07 0 1.88-.75 2.11-1.97a.166.166 0 0 0-.06-.16.325.325 0 0 0-.22-.1M74.69 26.83H72.1c.06-.73.53-1.48 1.33-1.51.85.03 1.24.77 1.26 1.51zm-1.26-2.33c-1.75 0-2.55 1.55-2.55 2.98 0 1.79.99 2.95 2.52 2.95 1.1 0 1.93-.55 2.29-1.52.02-.06.01-.12-.02-.17a.289.289 0 0 0-.19-.13l-.49-.09a.323.323 0 0 0-.33.17c-.24.54-.67.84-1.21.86-.52-.02-1-.33-1.21-.79-.18-.38-.2-.75-.21-1.12h3.51c.07 0 .15-.03.2-.09.04-.05.07-.1.07-.16.02-1.4-.62-2.89-2.38-2.89zM80.24 27.33c-.33-.24-.72-.32-1.12-.39l-.76-.14c-.54-.09-.86-.24-.86-.72 0-.66.81-.71.97-.71.55.01.96.26 1.15.68.05.1.15.17.26.17.02 0 .04 0 .06-.01l.47-.1c.08-.02.15-.07.19-.14.03-.05.04-.11.02-.17-.29-.84-1.03-1.29-2.14-1.29-1.01 0-2.08.45-2.08 1.7 0 .85.54 1.4 1.6 1.61l.85.16c.47.09.94.25.94.75 0 .74-.86.82-1.12.82-.54-.01-1.24-.24-1.41-.83-.03-.12-.18-.21-.32-.18l-.49.1c-.07.02-.14.06-.18.13a.26.26 0 0 0-.03.17c.25.92 1.14 1.47 2.37 1.48h.03c1.1 0 2.27-.47 2.27-1.79-.01-.52-.25-1-.67-1.3M57.7 13.78v-1.26c0-.19.15-.32.32-.32h5.63c.18 0 .32.13.32.32v1.08c0 .18-.15.42-.42.79l-2.92 4.16c1.08-.03 2.23.14 3.21.69.22.12.28.31.3.49v1.34c0 .18-.2.4-.41.29-1.73-.91-4.03-1.01-5.95.01-.2.1-.4-.11-.4-.29v-1.27c0-.2 0-.55.21-.86l3.38-4.85h-2.94c-.19-.01-.33-.14-.33-.32M37.16 21.62h-1.71a.331.331 0 0 1-.31-.29v-8.79c0-.18.15-.32.33-.32h1.6c.17.01.3.14.31.3v1.15h.03c.42-1.11 1.2-1.63 2.25-1.63 1.07 0 1.74.52 2.22 1.63.42-1.11 1.36-1.63 2.37-1.63.72 0 1.5.3 1.98.96.54.74.43 1.81.43 2.76v5.55c0 .18-.15.32-.33.32h-1.71a.327.327 0 0 1-.31-.32v-4.66c0-.37.03-1.3-.05-1.65-.13-.59-.51-.76-1.01-.76-.42 0-.85.28-1.02.72-.18.44-.16 1.18-.16 1.68v4.66c0 .18-.15.32-.33.32h-1.71a.327.327 0 0 1-.31-.32v-4.66c0-.98.16-2.42-1.05-2.42-1.23 0-1.18 1.41-1.18 2.42v4.66c0 .18-.15.32-.33.32M68.83 13.83c-1.26 0-1.34 1.72-1.34 2.79s-.02 3.37 1.33 3.37c1.33 0 1.39-1.85 1.39-2.98 0-.74-.03-1.63-.26-2.33-.19-.61-.57-.85-1.12-.85zm-.01-1.79c2.54 0 3.92 2.18 3.92 4.96 0 2.68-1.52 4.81-3.92 4.81-2.49 0-3.85-2.18-3.85-4.9-.01-2.74 1.37-4.87 3.85-4.87zM76.03 21.62h-1.71a.327.327 0 0 1-.31-.32v-8.8c.01-.16.16-.29.33-.29h1.59c.15.01.27.11.3.25v1.35h.03c.48-1.2 1.15-1.78 2.33-1.78.77 0 1.52.28 2 1.04.45.7.45 1.89.45 2.74v5.53c-.02.16-.16.28-.33.28h-1.72a.331.331 0 0 1-.31-.28v-4.77c0-.96.11-2.37-1.07-2.37-.42 0-.8.28-.99.7-.24.54-.27 1.07-.27 1.67v4.73c.01.18-.14.32-.32.32M56.26 20.01c-.31-.43-.65-.78-.65-1.59v-2.67c0-1.13.08-2.17-.75-2.95-.66-.63-1.75-.85-2.58-.85-1.63 0-3.45.61-3.83 2.62-.04.21.11.33.26.36l1.66.18c.16-.01.27-.16.3-.31.14-.69.72-1.03 1.38-1.03.35 0 .75.13.96.44.24.35.21.83.21 1.24v.22c-.99.11-2.29.19-3.22.59-1.07.46-1.83 1.41-1.83 2.8 0 1.78 1.12 2.67 2.56 2.67 1.22 0 1.88-.29 2.82-1.25.31.45.41.67.98 1.14.13.07.29.06.4-.04.34-.3.96-.84 1.31-1.14.15-.09.13-.27.02-.43zm-3.37-.77c-.27.48-.71.78-1.19.78-.66 0-1.04-.5-1.04-1.24 0-1.46 1.31-1.72 2.55-1.72v.37c0 .66.01 1.22-.32 1.81zM33.8 20.01c-.31-.43-.65-.78-.65-1.59v-2.67c0-1.13.08-2.17-.75-2.95-.66-.63-1.75-.85-2.58-.85-1.63 0-3.45.61-3.83 2.62-.04.21.12.33.26.36l1.66.18c.16-.01.27-.16.3-.31.14-.69.72-1.03 1.38-1.03.35 0 .75.13.96.44.24.35.21.83.21 1.24v.22c-.99.11-2.29.19-3.22.59-1.07.46-1.83 1.41-1.83 2.8 0 1.78 1.12 2.67 2.56 2.67 1.22 0 1.88-.29 2.82-1.25.31.45.41.67.98 1.14.13.07.29.06.41-.04.34-.3.96-.84 1.31-1.14.15-.09.12-.27.01-.43zm-3.37-.77c-.27.48-.71.78-1.19.78-.66 0-1.04-.5-1.04-1.24 0-1.46 1.31-1.72 2.55-1.72v.37c0 .66.02 1.22-.32 1.81z"/>
    </g>
</svg>
