<svg xmlns="http://www.w3.org/2000/svg" xmlns:xlink="http://www.w3.org/1999/xlink" width="50" height="47" viewBox="0 0 50 47">
    <defs>
        <path id="a" d="M0 46.99h49.989V0H0z"/>
    </defs>
    <g fill="none" fill-rule="evenodd">
        <mask id="b" fill="#fff">
            <use xlink:href="#a"/>
        </mask>
        <path fill="#777" d="M40.676 46.986h1.454v-6.789h-1.454v6.789zm-6.92-3.492c0-1.155.89-2.092 1.985-2.092 1.097 0 1.986.937 1.986 2.092 0 1.156-.89 2.093-1.986 2.093s-1.985-.937-1.985-2.093zm-1.33 0c0 1.93 1.484 3.495 3.315 3.495 1.832 0 3.317-1.564 3.317-3.495 0-1.93-1.485-3.494-3.317-3.494-1.831 0-3.316 1.565-3.316 3.494zm-2.25 1.2c.618-.341.925-.966.925-2.035 0-1.882-.989-2.462-2.915-2.462H24.99v1.476h3.274c1.24 0 1.462.4 1.462.966s-.179 1.052-1.42 1.052h-3.274l-.002 1.355h3.287c.643.072 1.13.621 1.13 1.276 0 .212.037.412-.054.589.001.024.088.05.088.075h1.32s.24-1.446-.625-2.293zm19.813-1.145c0-1.956-1.28-3.352-3.206-3.352h-3.196v1.476h3.274c1.24 0 1.753.878 1.753 1.856 0 .978-.531 1.981-1.773 1.981h-3.273v1.46h3.196c1.926 0 3.225-1.465 3.225-3.42zm-26.444 0c0-1.956-1.278-3.352-3.204-3.352h-3.197v1.476h3.274c1.24 0 1.754.878 1.754 1.856 0 .978-.532 1.981-1.773 1.981h-3.274v1.46h3.197c1.925 0 3.223-1.465 3.223-3.42zm-11.34-3.607c-1.926 0-3.487 1.339-3.487 3.369v3.675h1.418v-3.757c0-1.307 1.105-2.061 2.069-2.061.962 0 2.049.754 2.049 2.061l-.001 3.757h1.439V43.31c0-2.03-1.561-3.369-3.487-3.369zm-4.803 7.044v-6.789h-3.77C1.626 40.197 0 41.717 0 43.592c0 1.874 1.626 3.394 3.632 3.394h1.155V45.51h-1.15c-1.166 0-2.116-.83-2.116-1.918 0-1.09.927-1.92 2.093-1.92h2.339v5.314h1.45zM29.122 6.994c-.57 0-1.031-.467-1.031-1.043 0-.575.462-1.041 1.031-1.041.57 0 1.032.466 1.032 1.042 0 .575-.462 1.042-1.032 1.042zm-7.993 0c-.57 0-1.031-.466-1.032-1.042 0-.575.462-1.042 1.031-1.042h.001c.57 0 1.031.467 1.031 1.042s-.462 1.041-1.03 1.042zm8.35-3.98L31.202.488c.102-.15.077-.347-.057-.44-.133-.093-.324-.047-.426.103l-1.79 2.624a10.454 10.454 0 0 0-3.867-.731c-1.38 0-2.69.261-3.868.73L19.405.152c-.103-.15-.294-.196-.428-.103-.133.093-.159.29-.056.44l1.722 2.526C17.905 4.3 15.985 6.745 15.74 9.599h18.64c-.244-2.854-2.164-5.299-4.901-6.585zm-13.696 7.953v15.347c0 .912.731 1.651 1.633 1.651h1.867v4.674c0 1.187.938 2.15 2.095 2.15 1.157 0 2.095-.963 2.095-2.15v-4.674h3.26v4.674c0 1.187.938 2.15 2.095 2.15 1.157 0 2.095-.963 2.095-2.15v-4.674h1.866c.902 0 1.634-.739 1.634-1.65V10.966h-18.64zm-3.356-.066c-1.157 0-2.095.963-2.095 2.15v8.4c0 1.188.938 2.15 2.095 2.15 1.157 0 2.095-.962 2.095-2.15v-8.4c0-1.187-.938-2.15-2.095-2.15zm25.268 0c-1.157 0-2.095.963-2.095 2.15v8.4c0 1.188.938 2.15 2.095 2.15 1.157 0 2.095-.962 2.095-2.15v-8.4c0-1.187-.938-2.15-2.095-2.15z" mask="url(#b)"/>
    </g>
</svg>
