<svg xmlns="http://www.w3.org/2000/svg" width="94" height="24" viewBox="0 0 94 24">
    <g fill="none" fill-rule="nonzero" opacity=".85">
        <path fill="#CCC" d="M25.8 7.8l5.8 7.6V7.8h1.2v9.5h-1.3l-5.8-7.8v7.8h-1.1V7.8zM42.2 16.9c-.8.3-1.6.4-2.5.4-3.4 0-5.2-1.7-5.2-5 0-3.1 1.7-4.7 5-4.7 1 0 1.8.1 2.7.4v1.1c-.8-.3-1.7-.5-2.5-.5-2.6 0-3.9 1.2-3.9 3.7 0 2.6 1.3 4 3.8 4 .4 0 .9-.1 1.4-.2v-3.2h1.2v4zM44.2 13.6V7.8h1.2v5.8c0 1.8.9 2.7 2.7 2.7 1.8 0 2.7-.9 2.7-2.7V7.8H52v5.8c0 2.5-1.3 3.7-4 3.7-2.5 0-3.8-1.2-3.8-3.7zM60.5 16.3v1h-6.2V7.8h1.2v8.5zM65.7 6.5l4.8 10.8h-1.4l-1.2-3h-3.2l.4-1h2.4L65.7 9l-3.4 8.3H61zM71.8 17.3V7.8h4.1c1.8 0 2.7.8 2.7 2.3 0 1.2-.9 2.2-2.7 2.7l3.3 4.5h-1.6l-3-4.3v-.8c1.8-.3 2.7-1 2.7-2.1 0-.9-.5-1.3-1.5-1.3H73v8.5h-1.2zM83.8 7.8v6.8c0 1.8-1.1 2.7-3.2 2.7v-1c1.3 0 2-.6 2-1.7V7.8h1.2zM86 16.9v-1.1c1 .4 2.1.5 3.2.5 1.6 0 2.5-.6 2.5-1.8 0-1-.6-1.5-1.8-1.5h-1.2c-2 0-3-.9-3-2.6 0-1.8 1.3-2.7 3.8-2.7 1.1 0 2.1.1 3.1.4v1.1c-1-.4-2-.5-3.1-.5-1.7 0-2.6.6-2.6 1.7 0 1 .6 1.5 1.8 1.5h1.2c2 0 3 .9 3 2.6 0 1.9-1.2 2.8-3.7 2.8-1.2 0-2.2-.1-3.2-.4z"/>
        <path fill="#000" d="M26.1 7.5l5.8 7.6V7.5h1.2V17h-1.2L26 9.2V17h-1.1V7.5zM42.5 16.6c-.8.3-1.6.4-2.5.4-3.4 0-5.2-1.7-5.2-5 0-3.1 1.7-4.7 5-4.7 1 0 1.8.1 2.7.4v1.1c-.8-.3-1.7-.5-2.5-.5-2.6 0-3.9 1.2-3.9 3.7 0 2.6 1.3 4 3.8 4 .4 0 .9-.1 1.4-.2v-3.2h1.2v4zM44.5 13.3V7.5h1.2v5.8c0 1.8.9 2.7 2.7 2.7 1.8 0 2.7-.9 2.7-2.7V7.5h1.2v5.8c0 2.5-1.3 3.7-4 3.7-2.5 0-3.8-1.2-3.8-3.7zM60.8 16v1h-6.2V7.5h1.2V16zM66.1 6.2L70.8 17h-1.4l-1.2-3H65l.4-1h2.4L66 8.7 62.6 17h-1.3zM72.1 17V7.5h4.1c1.8 0 2.7.8 2.7 2.3 0 1.2-.9 2.2-2.7 2.7l3.3 4.5h-1.6l-3-4.3v-.8c1.8-.3 2.7-1 2.7-2.1 0-.9-.5-1.3-1.5-1.3h-2.7V17h-1.3z"/>
        <path fill="#3E3E3E" d="M84.1 7.5v6.8c0 1.8-1.1 2.7-3.2 2.7v-1c1.3 0 2-.6 2-1.7V7.5h1.2zM86.3 16.6v-1.1c1 .4 2.1.5 3.2.5 1.6 0 2.5-.6 2.5-1.8 0-1-.6-1.5-1.8-1.5H89c-2 0-3-.9-3-2.6 0-1.8 1.3-2.7 3.8-2.7 1.1 0 2.1.1 3.1.4v1.1c-1-.4-2-.5-3.1-.5-1.7 0-2.6.6-2.6 1.7 0 1 .6 1.5 1.8 1.5h1.2c2 0 3 .9 3 2.6 0 1.9-1.2 2.8-3.7 2.8-1.1 0-2.2-.1-3.2-.4z"/>
        <path fill="#000" d="M74.9 22l-.5-1.4h-.3l.6 1.7s0 .1-.1.2c0 .1-.1.1-.1.1l-.1.1h-.1-.2v.3h.2c.2 0 .3 0 .3-.1.1-.1.2-.4.3-.8.1-.2.2-.4.3-.7.1-.4.2-.6.3-.7h-.3l-.3 1.3zm-1.7.2c-.2 0-.3-.1-.4-.3 0-.1-.1-.2-.1-.4s0-.4.1-.5c.1-.1.2-.1.3-.1.1 0 .3.1.3.2.1.1.1.3.1.4 0 .2 0 .4-.1.5.1.1 0 .2-.2.2zm-.7.2h.3v-.2l.2.2c.1.1.2.1.3.1.2 0 .4-.1.5-.3.1-.2.2-.4.2-.7 0-.3-.1-.5-.2-.6-.1-.1-.3-.2-.5-.2-.1 0-.2 0-.3.1-.1 0-.2.1-.2.2v-.8h-.3v2.2z"/>
        <g>
            <path fill="#B3B3B3" d="M2.6 18.6l9.3 5.1 9.4-5.2L23.1 4 11.9.1.8 4z"/>
            <path fill="#3E3E3E" d="M11.9 22.5l8.5-4.7 1.6-13-10.1-3.4z"/>
            <path fill="#555" d="M11.9 22.5V1.4L2.1 4.9l1.5 13z"/>
            <path fill="#F2F2F2" d="M14.7 12.6l-2.8 1.3H9l-1.4 3.4H5L11.9 2l2.8 10.6zm-.3-.6l-2.5-4.9-2 4.9h4.5z"/>
            <path fill="#B3B3B3" d="M14.2 11.9h-2.3v2h3.2l1.5 3.5 2.5.1-7.2-15.4V7z"/>
        </g>
        <g fill="#000">
            <path d="M83.6 21.1c0 .7-.6 1.3-1.3 1.3-.7 0-1.3-.6-1.3-1.3 0-.8.6-1.3 1.3-1.3.7 0 1.3.6 1.3 1.3zm-.5 0c0-.5-.3-.8-.7-.8-.4 0-.7.3-.7.8s.3.8.7.8c.4 0 .7-.3.7-.8zM86.5 21.1c0 .7-.6 1.3-1.3 1.3-.7 0-1.3-.6-1.3-1.3 0-.8.6-1.3 1.3-1.3.7 0 1.3.6 1.3 1.3zm-.6 0c0-.5-.3-.8-.7-.8-.4 0-.7.3-.7.8s.3.8.7.8c.4 0 .7-.3.7-.8zM89.1 19.9v2.3c0 1-.6 1.4-1.2 1.4s-1-.4-1.2-.8l.5-.2c.1.2.3.5.7.5.4 0 .7-.3.7-.8v-.2c-.1.2-.4.3-.7.3-.6 0-1.2-.6-1.2-1.3 0-.7.6-1.3 1.2-1.3.3 0 .6.1.7.3v-.2h.5zm-.5 1.2c0-.5-.3-.8-.7-.8-.4 0-.7.3-.7.8s.3.8.7.8c.4 0 .7-.3.7-.8zM90 18.6v3.8h-.6v-3.8zM92.2 21.6l.4.3c-.1.2-.5.6-1.1.6-.7 0-1.3-.6-1.3-1.3 0-.8.6-1.3 1.2-1.3.7 0 1 .5 1.1.8l.1.1-1.7.7c.1.3.3.4.6.4.4 0 .6-.1.7-.3zm-1.4-.5l1.2-.5c-.1-.2-.3-.3-.5-.3-.3 0-.7.3-.7.8zM78.9 20.8v-.6h1.9v.3c0 .4-.1.9-.5 1.3s-.8.6-1.4.6c-1.1 0-2-.9-2-2s.9-2 2-2c.6 0 1.1.2 1.4.6l-.4.4c-.2-.2-.6-.4-1-.4-.8 0-1.4.7-1.4 1.5s.6 1.5 1.4 1.5c.5 0 .8-.2 1-.4.2-.2.3-.4.3-.7l-1.3-.1z"/>
        </g>
    </g>
</svg>
