<svg xmlns="http://www.w3.org/2000/svg" width="80" height="25" viewBox="0 0 80 25">
    <g fill="#8A8A8A" fill-rule="nonzero" opacity=".7">
        <path d="M.9 4.1l9.8-1.3v9.4H.9V4.1zm9.8 9.3v9.3L.9 21.4v-8h9.8zm1.1-10.8l13-1.8v11.3h-13V2.6zm12.9 10.8v11.2l-13-1.8v-9.5h13v.1zM43.5 19.5h-1.8l-1.5-4h-6l-1.4 4H31l5.4-14.1h1.7l5.4 14.1zM39.7 14l-2.4-6.6-2.4 6.6h4.8zM52.4 9.8l-6 8.3h5.9v1.4H44V19l6-8.2h-5.4V9.4h7.8zM62.1 19.5h-1.6v-1.6c-.7 1.2-1.7 1.8-3.1 1.8-2.4 0-3.6-1.4-3.6-4.3v-6h1.6v5.8c0 2.1.8 3.2 2.4 3.2.8 0 1.5-.3 2-.9.5-.6.7-1.3.7-2.3V9.4h1.6v10.1zM70 11c-.3-.2-.7-.3-1.2-.3-.7 0-1.3.3-1.7 1-.4.7-.7 1.5-.7 2.6v5.1h-1.6V9.3h1.6v2.1c.2-.7.6-1.2 1-1.7.5-.4 1-.6 1.6-.6.4 0 .7 0 1 .1V11zM79.1 14.8H72c0 1.1.3 2 .9 2.6.6.6 1.4.9 2.4.9 1.1 0 2.2-.4 3.1-1.1v1.5c-.9.7-2.1 1-3.5 1s-2.6-.5-3.4-1.4c-.8-.9-1.2-2.2-1.2-3.9 0-1 .2-1.9.6-2.7.4-.8 1-1.5 1.7-1.9.7-.5 1.5-.7 2.4-.7 1.3 0 2.3.4 3.1 1.3.7.9 1.1 2 1.1 3.6v.8h-.1zm-1.7-1.4c0-.9-.2-1.7-.7-2.2-.4-.5-1.1-.8-1.8-.8s-1.4.3-1.9.8-.9 1.3-1 2.1h5.4v.1z"/>
    </g>
</svg>
