<svg xmlns="http://www.w3.org/2000/svg" width="60" height="56" viewBox="0 0 60 56">
    <g fill="none" fill-rule="evenodd" stroke-width=".75" transform="translate(1)">
        <path stroke="#5A5F63" d="M30.9 37.4H0V.5h49.7v19.7M.2 7h49.7"/>
        <ellipse cx="3.4" cy="3.8" stroke="#5A5F63" rx="1.2" ry="1.2"/>
        <ellipse cx="7" cy="3.8" stroke="#5A5F63" rx="1.2" ry="1.2"/>
        <ellipse cx="10.5" cy="3.8" stroke="#5A5F63" rx="1.2" ry="1.2"/>
        <path stroke="#5A5F63" d="M5.8 14.8h23.5M5.8 17.7h17.5"/>
        <path stroke="#D64127" d="M57.7 29.2l-2.2-4.6L52 26c-.6-.7-1.3-1.3-2-1.8l1-3.5-4.8-1.7-1.4 3.4c-.9-.1-1.8 0-2.7.2l-1.8-3.2-4.6 2.2 1.4 3.4c-.7.6-1.3 1.3-1.8 2l-3.5-1-1.7 4.8 3.4 1.4c-.1.9 0 1.8.2 2.7l-3.2 1.8 2.2 4.6 3.4-1.4c.6.7 1.3 1.3 2 1.8l-1 3.5 4.8 1.7 1.4-3.4c.9.1 1.8 0 2.7-.2l1.8 3.2 4.6-2.2-1.4-3.4c.7-.6 1.3-1.3 1.8-2l3.5 1 1.7-4.8-3.4-1.4c.1-.9 0-1.8-.2-2.7l3.3-1.8zm-10.9 9.3c-3.1 1.5-6.8.2-8.3-2.9-1.5-3.1-.2-6.8 2.9-8.3 3.1-1.5 6.8-.2 8.3 2.9 1.5 3.1.2 6.8-2.9 8.3z"/>
        <path stroke="#5A5F63" d="M30 40.9L27.6 39l-1.4 1.5c-.5-.2-1.1-.4-1.6-.4l-.4-2-3.1.4.1 2c-.5.2-1 .5-1.5.8L18 40.2l-1.9 2.4 1.5 1.4c-.2.5-.4 1.1-.4 1.6l-2 .4.4 3.1 2-.1c.2.5.5 1 .8 1.5l-1.1 1.7 2.4 1.9 1.4-1.5c.5.2 1.1.4 1.6.4l.4 2 3.1-.4-.1-2c.5-.2 1-.5 1.5-.8l1.7 1.1 1.9-2.4-1.5-1.4c.2-.5.4-1.1.4-1.6l2-.4-.4-3.1-2 .1c-.2-.5-.5-1-.8-1.5l1.1-1.7zm-4 7.4c-1 1.3-2.9 1.5-4.2.5-1.3-1-1.5-2.9-.5-4.2 1-1.3 2.9-1.5 4.2-.5 1.3 1.1 1.5 2.9.5 4.2z"/>
    </g>
</svg>
