<svg xmlns="http://www.w3.org/2000/svg" width="58" height="55" viewBox="0 0 58 55">
    <g fill="none" fill-rule="evenodd" stroke-width=".75">
        <path stroke="#5A5F63" d="M46 14.6c.2-.8.3-1.7.3-2.6C46.3 5.6 41.1.5 34.8.5 30.1.5 26 3.4 24.2 7.4c-1.4-1.1-3.3-1.8-5.2-1.8-4.7 0-8.4 3.8-8.4 8.4 0 .4 0 .8.1 1.2-3 1.7-5.1 4.9-5.1 8.6 0 5.4 4.3 9.7 9.7 9.8h27.4c5.4 0 9.8-4.4 9.8-9.8 0-4.2-2.7-7.8-6.5-9.2z"/>
        <path stroke="#D64127" d="M.5 37.9h19.2V51H.5zM38.4 37.9h19.2V51H38.4z"/>
        <path stroke="#5A5F63" d="M25.3 33.7v11.1h-5.7M32.7 33.7v11.1h5.7M6.5 54.4h7.2M44.3 54.4h7.2M10.1 54.4V51M47.9 54.4V51"/>
    </g>
</svg>
