<svg xmlns="http://www.w3.org/2000/svg" width="86" height="30" viewBox="0 0 86 30">
    <g fill="none" fill-rule="nonzero">
        <path fill="#FFF" d="M29.6 15.7c0-2.5-1.5-4.7-3.9-5.5.1-.5.2-1 .2-1.6C25.9 4 22.1.2 17.5.2c-2.7 0-5.2 1.3-6.8 3.5-.8-.6-1.7-.9-2.7-.9-2.4 0-4.4 2-4.4 4.4 0 .5.1 1.1.3 1.5-2.3.8-3.9 3.1-3.9 5.5 0 2.5 1.5 4.7 3.9 5.5-.1.5-.2 1.1-.2 1.6 0 4.6 3.7 8.3 8.3 8.3 2.7 0 5.2-1.3 6.8-3.5.8.6 1.7.9 2.7.9 2.4 0 4.4-2 4.4-4.4 0-.5-.1-1.1-.3-1.5 2.4-.7 4-3 4-5.4"/>
        <path fill="#C8C8C8" d="M11.6 12.9l6.5 3 6.5-5.7c.1-.5.1-.9.1-1.4 0-4-3.3-7.3-7.3-7.3-2.4 0-4.7 1.2-6 3.2l-1.1 5.6 1.3 2.6z"/>
        <path fill="#8B8B8B" d="M4.9 19.8c-.1.5-.1 1-.1 1.5 0 4 3.3 7.3 7.3 7.3 2.4 0 4.7-1.2 6.1-3.2l1.1-5.6-1.4-2.8-6.5-3-6.5 5.8z"/>
        <path fill="#878787" d="M4.9 8.6l4.4 1 1-5.1c-.6-.5-1.4-.7-2.1-.7-1.9 0-3.5 1.6-3.5 3.5-.1.5 0 .9.2 1.3"/>
        <path fill="#818181" d="M4.5 9.6c-2 .7-3.4 2.6-3.4 4.7 0 2 1.3 3.9 3.2 4.6l6.2-5.6-1.1-2.4-4.9-1.3z"/>
        <path fill="#A8A8A8" d="M19.3 25.4c.6.5 1.4.7 2.1.7 1.9 0 3.5-1.6 3.5-3.5 0-.4-.1-.8-.2-1.2l-4.4-1-1 5z"/>
        <path fill="#5A5A5A" d="M20.2 19.2l4.9 1.1c2-.7 3.4-2.6 3.4-4.7 0-2-1.3-3.9-3.2-4.6l-6.4 5.6 1.3 2.6z"/>
        <g fill="#202020">
            <path d="M41.4 20.9l.6-.1V22c-1.6.2-2.9.3-4 .3-1.5 0-2.5-.4-3.1-1.3-.6-.9-.9-2.2-.9-4 0-3.6 1.4-5.4 4.3-5.4 1.4 0 2.4.4 3.1 1.2.7.8 1 2 1 3.6l-.1 1.2h-6.7c0 1.1.2 2 .6 2.5.4.5 1.1.8 2.1.8 1 .2 2 .1 3.1 0zm-.6-4.4c0-1.3-.2-2.1-.6-2.7-.4-.5-1.1-.8-2-.8-.9 0-1.6.3-2 .8-.5.5-.7 1.4-.7 2.6h5.3v.1zM44.5 22.3V8.9H46v13.4zM55.7 15.1v5.1c0 .5 1.3.5 1.3.5l-.1 1.4c-1.1 0-2 .1-2.5-.4-1.2.5-2.4.8-3.7.8-.9 0-1.7-.3-2.1-.8-.5-.5-.7-1.3-.7-2.3 0-1 .3-1.7.8-2.2.5-.5 1.3-.8 2.4-.9l3.2-.3v-.9c0-.7-.1-1.2-.4-1.5-.3-.3-.7-.4-1.2-.4h-4v-1.4h3.9c1.2 0 2 .3 2.5.8.3.5.6 1.4.6 2.5zm-6.3 4.1c0 1.3.5 1.9 1.6 1.9.9 0 1.8-.2 2.7-.5l.5-.2V17l-3 .3c-.6.1-1.1.2-1.3.5-.4.4-.5.9-.5 1.4zM61.6 13.2c-1.5 0-2.2.5-2.2 1.6 0 .5.2.8.5 1 .3.2 1.1.4 2.3.6 1.2.2 2.1.5 2.6.9s.8 1.1.8 2.1-.3 1.8-1 2.3c-.7.5-1.7.7-2.9.7-.8 0-3.7-.3-3.7-.3l.1-1.3c1.6.2 2.8.3 3.6.3.8 0 1.4-.1 1.8-.4.4-.3.6-.7.6-1.3 0-.6-.2-1-.5-1.2-.4-.2-1.1-.4-2.3-.6-1.2-.2-2-.5-2.6-.8-.5-.4-.8-1-.8-2s.4-1.7 1.1-2.2c.7-.5 1.6-.7 2.6-.7.8 0 3.7.2 3.7.2v1.3c-1.6-.1-2.8-.2-3.7-.2zM73 13.3h-3.2v4.9c0 1.2.1 1.9.3 2.3.2.4.6.6 1.2.6l1.8-.1.1 1.3c-.9.1-1.6.2-2.1.2-1.1 0-1.8-.3-2.2-.8-.4-.5-.6-1.5-.6-3v-5.4h-1.4V12h1.4V8.9h1.5V12H73v1.3zM75.1 10.7V8.9h1.5v1.8h-1.5zm0 11.6V12h1.5v10.3h-1.5zM83.2 11.8c.4 0 1.2.1 2.3.2l.5.1-.1 1.2c-1.1-.1-1.9-.2-2.4-.2-1.2 0-1.9.3-2.4.8-.4.6-.6 1.6-.6 3.1s.2 2.5.6 3.1c.4.6 1.2.9 2.4.9l2.4-.2.1 1.3c-1.3.2-2.2.3-2.8.3-1.6 0-2.7-.4-3.3-1.2-.6-.8-.9-2.2-.9-4.1 0-1.9.3-3.3 1-4.1.6-.8 1.7-1.2 3.2-1.2z"/>
        </g>
    </g>
</svg>
