<svg xmlns="http://www.w3.org/2000/svg" width="28" height="39" viewBox="0 0 28 39">
    <g fill="none" fill-rule="evenodd">
        <path fill="#7B7C7F" d="M13.922 7.603H0l2.609 28.013 11.313 3.174 11.31-3.174 2.613-28.013z"/>
        <path fill="#221F20" d="M21.002 0v5.23h4.25V3.47h-2.476V0h-1.774zm-2.784 0l-1.1 1.789L16.015 0h-1.844v5.23h1.72V2.62l1.221 1.883.004.003.005-.003 1.254-1.937V5.23h1.72V0h-1.878zM8.525 0v1.76h1.546v3.47h1.778V1.76h1.546V0h-4.87zm-2.55 0v1.735H4.366V0H2.59v5.23h1.777V3.495h1.609V5.23h1.774V0H5.975z"/>
        <path fill="#8A8C8F" d="M13.922 9.885v26.533l9.162-2.57 2.23-23.963z"/>
        <path fill="#FEFEFE" d="M22.68 13.322H5.16l.98 10.49.021-.067h11.97l-.39 4.437-3.819 1.09-3.876-1.106-.233-2.685H6.294l.503 5.366 7.125 2.002 7.125-2.002.981-10.53h-12.7l-.329-3.512h13.358z"/>
        <path fill="#F0F0F1" d="M9.813 25.48H6.294l.503 5.367 7.125 1.997v-3.573l-3.876-1.105-.233-2.685zm4.11-12.158H5.16l.98 10.49.022-.067h7.76v-3.429H9.327L9 16.805h4.923v-3.483z"/>
    </g>
</svg>
