<svg xmlns="http://www.w3.org/2000/svg" width="75" height="30" viewBox="0 0 75 30">
    <g fill="#464646" fill-rule="evenodd" opacity=".7">
        <path d="M3.2 28.7H3l-.2.1h-.1l-.1.1H2l-.1-.1h-.1l-.1-.1-.1-.1v-.1l-.1-.1v-.3h1.9V27.4l-.1-.2-.1-.1V27l-.1-.2-.1-.1v-.1l-.1-.1-.1-.1h-.1l-.1-.1h-.1l-.1-.1H2l-.1.1h-.1l-.3.1-.1.1-.1.1-.1.3-.1.1-.1.2-.1.1v.2l-.1.1v.8l.1.2v.1l.2.4.1.1.1.1.1.1.1.1h.1l.1.1h.1l.2.1h.1l.2-.1h.3l.1-.1h.1l.2-.1.2-.2-.1-.1.1-.4zm-1.7-1.3v-.3l.1-.1v-.1l.1-.1h.1v-.1h.1l.1-.1h.4l.1.1v.1l.1.1v.4H1.5v.1zM6.1 27.5v-.1H4.3v.7h1.8zM9.1 28.7l-.2.1H8.6l-.1.1-.2-.1h-.2l-.1-.1v-.1l-.1-.1V27.1L8 27v-.1l.1-.1h.1l.1-.1h.3l.1.1h.2l.2.1v.1l.1-.1.2-.4V26.2H9.1l-.3-.2h-.6l-.2.1-.2.1h-.1l-.3.2-.1.1-.2.3v.1l-.1.2V27.7l-.1.2.1.1V28.6l.1.2v.1l.2.1v.1l.3.3.3.1h.2l.1.1h.2l.2-.1h.3l.2-.1h.2l.1-.1v-.2zM11.4 28.9l-.1-.1h-.1v-.1l-.1-.1v-.2l-.1-.1v-1l.1-.1V27l.1-.1v-.1h.1l.1-.1h.3l.1.1h.1l.1.1v.1l.1.1v.4l.1.1v.4l-.1.2v.1l-.1.1v.1l-.1.1v.1l-.1.1h-.1l-.3.1zm1.5-1.1v-.2l-.1-.1v-.2l-.1-.1v-.1l-.1-.3-.1-.1-.1-.1-.1-.1-.3-.1-.1-.1-.1-.1h-.7l-.4.2-.1.1-.1.1-.1.1h-.1v.1l-.2.4v.1l-.1.2v.7l.1.1v.2l.2.4.1.1v.1l.1.1.1.1.3.1h.1l.1.1h.3l.2-.1h.1l.1-.1.3-.1.1-.1.1-.1.1-.1h.1l.1-.3v-.1l.1-.2v-.1l.1-.1v-.3h.1zM18.2 27.1v-.6h-.1v-.1l-.1-.1v-.1h-.1l-.1-.1h-.1l-.1-.1h-.4l-.2.1h-.1l-.2.1-.2.1-.1.2v-.1l-.2-.2h-.1l-.2-.2h-.4l-.2.1h-.1l-.2.1-.2.1-.1.2v-.3l-.2-.1V26h-.1l-.6.2V26.5l.1.2v2.7h.8V27l.1-.1.2-.1h.3v-.1l.1.1h.2v2.6h.8V27l.2-.1.1-.1h.3v-.1l.1.1h.2v2.6h.9zM23.6 27.1v-.4l-.1-.2v-.1l-.1-.2h-.1l-.1-.1-.2-.1h-.4l-.1.1h-.2l-.1.1-.2.1-.2.2-.4-.4-.1-.1h-.4l-.1.1h-.2l-.1.1-.2.1-.2.2-.1-.3V26h-.2l-.5.2h-.1v.2l.1.1v.4l.1.5v2h.8V27l.1-.1.1-.1h.2l.2-.1v.1h.1l.1.1v.1l.1.1v2.3h.8V27l.1-.1.1-.1h.2l.2-.1.1.1h.1v.3l.1.2v2.1h.8zM27 28.7h-.1l-.2.1h-.1l-.1.1h-.7l-.1-.1-.1-.1h-.1l-.1-.1v-.1l-.1-.1v-.3h1.9l.1-.1v-.5l-.1-.2v-.2l-.1-.1v-.1l-.1-.2-.4-.4h-.1l-.1-.1h-.1l-.1-.1h-.4l-.1.1h-.1l-.3.1-.1.1-.1.1-.1.1-.2.2-.1.2v.1l-.1.2v.4l-.1.1.1.2v.5l.1.1v.1l.1.1.1.1.3.3.1.1h.1l.1.1h.1l.1.1h.1l.3-.1h.3l.1-.1h.1l.2-.1.2-.2h-.1v-.1l.1-.2zm-1.6-1.3v-.3l.1-.1v-.1l.1-.1.1-.1h.5l.1.1v.1l.1.1v.1l.1.1v.2h-1.1zM29.1 27.1l.3-.3h.6l.3-.6-.1-.1h-.1L30 26h-.3l-.2.1-.1.1h-.2v.1l-.2.2v-.1l-.1-.2-.1-.1V26h-.1l-.5.2-.1.1.1.1v.5l.1.1v2.4h.8zM32.8 28.7h-.2l-.1.1h-.2l-.1.1-.2-.1H31.7v-.2l-.1-.1-.1-.1v-.3l-.1-.1v-.2l.1-.2v-.3l.1-.2.1-.1v-.2h.2l.1-.1h.3v.1H32.6l.1.1.1.1v-.1l.3-.4v-.1l-.1-.1v-.1h-.2l-.2-.1-.2-.1h-.6l-.2.1-.3.1-.1.1-.1.1-.1.1-.2.3v.1l-.1.2-.1.2v1.1l.1.2.1.2v.1l.1.1.1.1.2.3h.1l.3.1h.1l.2.1h.1l.3-.1h.3l.1-.1h.2v-.1l.1-.1v-.1zM36.1 28.7H36l-.2.1h-.1l-.1.1H35l-.1-.1h-.1l-.1-.1-.1-.1v-.1l-.1-.1v-.3h1.9V27.5l-.1-.2V27l-.1-.1-.1-.2-.1-.1v-.1l-.1-.1-.1-.1-.1-.1h-.1l-.1-.1h-.1l-.1-.1H35l-.1.1h-.1l-.3.1-.1.1-.1.1-.1.3-.1.1-.1.2-.1.1-.1.2v1.2l.1.1v.1l.2.4.1.1.1.1.1.1.1.1h.1l.1.1h.1l.1.1h.2l.2-.1h.3l.1-.1h.1l.2-.1.1-.1h.1v-.1l-.1-.1v-.4zm-1.6-1.3v-.1l.1-.1v-.1l.1-.1h.1v-.1l.1-.1h.5l.1.1v.1l.1.1v.4h-1.1v-.1z"/>
        <g>
            <path d="M47.6 26.5v-.1l-.1-.2h-.2l-.3-.1h-.2l-.2-.1-.2.1h-.2l-.1.1h-.2l-.1.1-.2.2-.1.2v.1l-.1.1v.4l.1.1v.1l.1.2.2.2.1.1h.2l.2.1.1.1h.1l.2.1h.1v.1l.1.1v.1l-.1.1v.1h-.1l-.2.1h-.1l-.1-.1h-.5l-.1-.1-.1-.1h-.1v.1l-.2.4v.1h.1v.1l.1.1H45.8l.2.1h.3l.1.1h.3l.1-.1h.2l.2-.1h.1v-.2h.2v-.1l.1-.1V28.7l.1-.1v-.1l-.1-.2V28l-.1-.1-.2-.2h-.2l-.1-.1-.3-.2H46.4l-.1-.2h-.1l-.1-.1V27l.1-.1v-.1h.2l.1-.1h.1l.1.1h.2l.4.1h.1v-.1zM50.4 28.9l-.1-.1h-.1l-.1-.1v-.1H50v-.1l-.1-.1v-.2l-.1-.1v-.4l.1-.2v-.1l.1-.1v-.1l.1-.1V27h.1l.1-.1h.1l.1-.1.1.1h.2l.1.1v.1l.1.1v.1l.1.1v1l-.1.1v.1l-.1.1-.1.1v.1h-.4zm1.4-1.1v-.4l-.1-.1v-.2l-.1-.3-.1-.1-.1-.3-.1-.1-.1-.1h-.1l-.1-.1h-.1l-.1-.1h-.1l-.1-.1-.2.1H50l-.1.1h-.1l-.1.1-.1.1-.1.1-.1.3-.1.1v.1l-.1.1-.1.2v1.1l.1.3v.1l.2.2.1.1.1.1v.1h.1l.3.1h.1l.1.1h.4l.1-.1h.1l.1-.1.1-.1.3-.1.1-.1.1-.1.2-.4v-.1l.1-.2v-.3zM54.4 26.8h.6l.1-.1.1-.4v-.1h-.8V25.4h.1l.1-.1h.3l.1.1.1.1h.1v-.1l.1-.5v-.1l-.1-.1h-1.1l-.2.1h-.1l-.1.2-.1.2v.1l-.1.1v.8h-.6v.6h.6v2.6h.8l.1-.1zM58.2 28.7l-.2.1h-.4v-.1h-.1v-1.9h.7v-.1l.1-.4.1-.1h-.9v-1.1h-.2l-.6.1v1h-.6v.6h.6V29.1l.1.2.2.2h.3l.1.1h.2l.3-.1h.3l.1-.1h.1v-.2zM60.2 26.2h-.1v-.1H60l-.6.1h-.1l.1.1v.1l.8 3v.1h.6l.1-.1.4-1.7.1-.2V27v.4l.1.1v.2l.3 1.7h.1v.1h.7v-.1l.9-3v-.1l.1-.1h-.1l-.6-.1-.1.1-.4 1.5v.3l-.1.3v.5-.5l-.1-.6-.3-1.5H61l-.3 1.5v.4l-.1.4v.3l-.1-.5v-.6zM67.2 29.4v-.2l-.1-.1V29l-.1-.1v-2l-.1-.1v-.1l-.1-.1v-.1l-.1-.1h-.1l-.1-.1h-.1l-.1-.1h-.2l-.1-.1-.3.1h-.2l-.4.1H65l-.1.1h-.1v.1l.1.1.1.4v.1h.2l.3-.1h.2l.1-.1.1.1h.1l.1.1v.5h-.6l-.1.1h-.1l-.3.1-.1.1h-.1l-.1.1-.1.1-.1.1v.1l-.1.1v.4l.1.1v.1l.1.1v.1l.2.2h.1l.1.1h.2l.1.1h.2l.1-.1h.3l.4-.4.1.1v.1l.1.1v-.1h.1l.6.1zm-1-.7l-.2.2h-.1l-.1.1-.1-.1h-.1l-.1-.1h-.1v-.1l-.1-.1v-.4l.1-.1V28l.1-.1.1-.1h.2l.1-.1h.3v1zM69.6 27.1l.3-.3h.4l.1.1v-.1l.2-.6h-.1v-.1h-.1l-.1-.1-.2.1H70l-.1.1h-.2v.1l-.1.1-.2.2v-.4h-.1v-.1h-.1V26l-.1.1-.5.2h-.1v.2l.1.1.1.2v2.6h.9zM74 28.7h-.1l-.2.1-.1.1h-.7l-.1-.1-.1-.1-.1-.1v-.1l-.1-.1v-.2h1.9V27.6l-.1-.2v-.1l-.1-.1v-.1l-.1-.3H74l-.1-.2v-.1h-.1l-.1-.1h-.1l-.1-.1h-.2l-.1-.1-.1.1H73l-.1.1h-.1l-.1.1-.3.3-.4.7v1.2l.3.6.1.1h.1l.1.1.1.1h.1l.1.1h.2l.1.1h.1l.2-.1h.3l.2-.1.1-.1h.1l.1-.1h.1v-.2l-.4-.5zm-1.7-1.3v-.1l.1-.1v-.1l.1-.1v-.1l.1-.1h.4l.1.1h.1v.1l.1.1v.4h-1v-.1z"/>
        </g>
        <g>
            <path d="M15.9 1.6l.2.6.1.5.2 1.2.1.5.2.6.3 2.4V9.2l.1.6v2.4l-.1.6v1.7l-.3 2.4-.2.6-.1.6v.5l-.3 1.2-.2.5-.5.2-1.2.3-.6.1-.6.1-.5.1-.7.1h-.5v-2.4h.7l.3-.1.3-.1 1.4-.3.2-.9.3-1.8.2-.9v-.9l.1-1V9.1l-.1-.4V7.3l-.6-3.2-.1-.4-.7-.2-.4-.1-.6-.1-.7-.2h-.3V.7l.5.1.7.1h.5l.6.2.6.1 1.2.3zM6.2 21.2L4.4 21l-.6-.1-.5-.1-1.8-.5-.1-.5-.1-.6-.2-1.1-.2-.6-.3-3V14l-.1-.6v-.6l-.1-.6V9.8l.1-.6v-.6L.6 8v-.6l.1-1.2.1-.6.1-1.2.2-.5v-.6l.2-.6.1-.5.1-.6 1.8-.4.5-.1.6-.2L6.2.7v2.4l-.6.1-.4.1h-.3l-.7.2-.7.2-.2.9-.4 2.7-.1.9-.1.9v.9l-.1 1 .1.9v1.4l.1.5v.4l.1.9.1.5.1.4.1.5.2 1.4.1.4.7.2h.3l.4.1.3.1.7.1h.3z"/>
            <path d="M9.8 5.9l-.3.9-.3.9-.3 1-.3.9-.3-.9-.4-1-.2-.9-.3-.9h-.5l-1.1.2-.4.1.2 1.4.1.7.1.3v.3l.3.7.1.7.2.6.3.6.3.8.2.6.3.6.3.6.6 1.2.4.6.3.6h1.5l.2-.1.6-.1-.4-.9-.4-.9-.5-.9-.4-1 .4-.8.4-.8.3-.7.2-.4.1-.5.3-.8.3-.7.1-.8.2-.9h-.3l-.2-.1-.6-.1-.5-.1zM71.4 21h-.9l-.4-.1-.3-.1-.2-.1h-.2l-.3-.1v-.2l-.2-.1-.3-.3-.1-.1-.1-.2-.1-.2v-.1l-.1-.3v-.2l-.1-.2-.1-.3v-1.7h2v.2l.1.4v1.5l.1.3.1.3V19.7l.1.1v.1l.1.1.5.2h.1l.2.1h.2l.1-.1h.1l.4-.4.1-.1.1-.2v-.1l.1-.2V19l.1-.3v-1.3l-.1-.3v-.2l-.1-.1v-.2l-.2-.4-.2-.4-.5-.6-2.3-2.8-.2-.3-.4-.7-.2-.4-.2-.4-.2-.3V10l-.1-.2v-.3l-.1-.3.1-.4v-.2l.1-.3.1-.3v-.2l.1-.1.1-.1.1-.2.2-.3.2-.2.1-.1.1-.1.2-.1.1-.1.8-.4h.1l.2-.1h.2l.1-.1h1.3l.2.1h.2l.1.1.3.1h.2v.1l.3.2h.1l.2.1v.2h.1l.2.3.1.1.2.5v.1l.2.3v.2l.1.1v1.9h-1.9v-2l-.1-.2v-.3l-.1-.2v-.2l-.1-.1v-.2H72V7h-.2l-.1-.1-.1-.1H71l-.2.1h-.1l-.2.1v.1h-.2v.2l-.2.1H70V7.7l-.1.3v1.1l.1.3.1.5.2.3.1.2.4.6 1.1 1.4 1.3 1.7.3.3.3.4.1.4.3.6.2.7v.2l.1.2.1.5v1.1l-.1.2-.1.1v.2l-.2.4-.2.3-.1.1-.7.7-.1.1H73l-.1.1-.1.1-.2.1-.3.1zM34.9 20.9V7.6l-.1-.2h-.1v-.1l-.1-.1-.2-.1H33.4l-.1.1h-.1l-.1.2H33l-.1.1v.2l-.1.1v13.1h-2.1V.6h2.1v5.9l.1-.1.1-.1h.2l.1-.1h.4l.2-.1h1.2l.2.1h.4l.2.2.2.1.2.1.1.1.1.1h.1l.1.3.1.1.1.2v.2l.1.2v13.1zM39.4 30l.9-3.8.3-1.2.3-1.2.2-.9.2-.8-2.7-15.5h1.9l1.7 10.2 1.9-10.2h1.7l-.9 5L44 17l-.2.7-.1.8-.4 1.8-.7 3.7-.5 1.8-.4 1.6-.6 2.6zM61.4 7.4l-.3-.1-.3-.1-.2-.1H60v.1h-.1l-.2.1h-.1l-.2.1h-.1l-.1.1-.1.1-.1.1h-.1l-.1.2V8l-.1.1-.1.1v12.7h-1.9V6.2h1.9v.6l.3-.2.4-.1.3-.1.1-.1h.5l.3-.1h.6l.6.3v.9zM51.1 20h.3l.3-.1v-.1l.1-.1.1-.1.1-.1v-12l-.1-.1v-.1l-.2-.2-.1-.1-.1-.1h-.2l-.1-.1-.2.1h-.2l-.1.1h-.1l-.1.1-.1.1-.1.1-.4.4v11.7l.1.1.1.1.2.1.2.1.1.1.2.1h.3zm3-.7v.1l-.1.2v.1l-.1.1v.1l-.1.1-.6.6h-.1l-.1.1-.2.1-.1.1h-.4l-.2.1h-.4l-.2-.1h-.3l-.9-.3-.3-.1-.2-.1v.4h-2V.7h2v5.7l.1-.1h.1l.1-.1.2-.1h.4l.1-.1h.8l.2.1h.2l.7.2.1.1.2.1.3.3.2.1.1.3.1.1.1.1v.1l.1.1v11.7h.2zM64.9 2.8h-1.6V.9h1.9v1.9h-.3zm.4 18.1h-1.9V6.2h1.9v14.7z"/>
        </g>
    </g>
</svg>
