<svg xmlns="http://www.w3.org/2000/svg" width="44" height="45" viewBox="0 0 44 45">
    <g fill="none" fill-rule="evenodd">
        <text fill="#5E5E5E" font-family="OpenSans-Semibold, Open Sans" font-size="11" font-weight="500" transform="translate(-8)">
            <tspan x="7.994" y="44">Ideation</tspan>
        </text>
        <g stroke="#5E5E5E" transform="translate(9)">
            <path d="M16.4 22.6V25c0 1.9-1.6 3.4-3.5 3.4-2 0-3.5-1.5-3.5-3.4v-2.4h7zM12.9 23.1v-7.8"/>
            <circle cx="12.9" cy="13.9" r="1.5"/>
            <path d="M9.3 22.8s.7-1-1.7-4.7-2.1-6.3-1.3-8.2c.8-1.9 3.3-4.3 6.6-4.3s7.2 2.5 7.4 6.8c.2 4.3-3.5 5.7-3.9 10.1M3.7 15.3l-3.1.3M12.9 3.7V.4M18.6 5.1l1.7-2.8M22 9.3l2.8-1.2M7.3 5.1L5.6 2.3M3.9 9.3L1.1 8.1M22.5 15.2l3.1.2"/>
        </g>
    </g>
</svg>
