<svg xmlns="http://www.w3.org/2000/svg" xmlns:xlink="http://www.w3.org/1999/xlink" width="55" height="28" viewBox="0 0 55 28">
    <defs>
        <path id="a" d="M54.993 28V0H0v28h54.993z"/>
    </defs>
    <g fill="none" fill-rule="evenodd">
        <mask id="b" fill="#fff">
            <use xlink:href="#a"/>
        </mask>
        <path fill="#777" d="M54.993 19.62c0 1.159-.403 2.1-1.21 2.827-.885.794-2.12 1.191-3.706 1.191-1.463 0-2.637-.282-3.525-.848l.504-1.816c.953.566 2 .848 3.142.848.819 0 1.457-.185 1.913-.556.456-.37.684-.864.684-1.484 0-.552-.188-1.016-.564-1.393-.376-.377-1-.728-1.873-1.05-2.376-.888-3.565-2.187-3.565-3.897 0-1.117.42-2.032 1.259-2.746.839-.713 1.95-1.07 3.333-1.07 1.236 0 2.263.215 3.082.646l-.542 1.777c-.766-.417-1.632-.626-2.598-.626-.765 0-1.363.189-1.792.566a1.618 1.618 0 0 0-.544 1.232c0 .539.208.983.624 1.332.363.322 1.021.673 1.974 1.05 1.169.47 2.027 1.023 2.578 1.655.55.633.826 1.42.826 2.362zm-12.367-3.048c0-1.345-.302-2.503-.906-3.473-.698-1.157-1.679-1.736-2.941-1.736-1.302 0-2.303.592-3 1.776-.592.97-.888 2.148-.888 3.535 0 1.36.302 2.524.906 3.492.711 1.158 1.699 1.736 2.96 1.736 1.303 0 2.304-.592 3.002-1.776.578-.97.867-2.153.867-3.554zm2.316-.08c0 2.06-.523 3.742-1.57 5.048-1.128 1.413-2.693 2.12-4.693 2.12-1.893 0-3.397-.693-4.511-2.08-1.035-1.279-1.552-2.894-1.552-4.846 0-1.992.537-3.654 1.612-4.987 1.154-1.426 2.698-2.14 4.631-2.14 1.907 0 3.417.686 4.532 2.06 1.034 1.265 1.55 2.874 1.55 4.825zm-14.5 6.945h-2.177v-9.812h2.175v9.812h.001zm.24-12.74c0 .39-.127.706-.382.948s-.584.364-.987.364a1.24 1.24 0 0 1-.916-.374 1.27 1.27 0 0 1-.373-.938c0-.377.128-.686.383-.928.255-.244.57-.364.946-.364s.69.12.946.364c.256.242.384.552.384.928zM15.48 4.47c.976-1.184 1.632-2.83 1.452-4.47-1.404.057-3.105.938-4.114 2.121-.903 1.048-1.694 2.723-1.48 4.33 1.565.122 3.166-.798 4.142-1.98zm3.511 10.393c-.038-3.543 2.88-5.25 3.01-5.332-1.644-2.405-4.2-2.73-5.11-2.77-2.176-.217-4.242 1.29-5.345 1.292-1.102.001-2.808-1.247-4.61-1.21-2.372.037-4.555 1.387-5.774 3.515C-1.294 14.646.547 20.99 2.95 24.462c1.175 1.697 2.576 3.608 4.413 3.536 1.77-.071 2.436-1.15 4.573-1.152 2.138-.003 2.741 1.143 4.612 1.104 1.903-.036 3.107-1.736 4.269-3.443 1.345-1.975 1.896-3.886 1.929-3.984-.041-.02-3.713-1.424-3.756-5.66z" mask="url(#b)"/>
    </g>
</svg>
