<svg xmlns="http://www.w3.org/2000/svg" width="27" height="48" viewBox="0 0 27 48">
    <g fill="none" fill-rule="nonzero" stroke-width=".094" opacity=".7">
        <path fill="#5A5A5A" stroke="#5A5A5A" d="M16.8.6c.7.8 1 2 .8 3.1-.2 1.2-.9 2.3-1.7 3.2-.6.7-1.4 1.4-2.1 2-.9.7-1.8 1.5-2.3 2.5-.5.8-.6 1.8-.3 2.7.5 1.5 1.8 2.7 2.4 4.1-.7-.7-1.5-1.3-2.1-2-.7-.8-1.4-1.6-1.8-2.5-.3-.7-.4-1.4-.2-2.1.2-.7.7-1.3 1.3-1.8 1.4-1.4 3.2-2.5 4.6-3.9.8-.8 1.4-1.7 1.6-2.8.1-.9 0-1.7-.2-2.5z"/>
        <path fill="#5A5A5A" stroke="#5A5A5A" d="M15.6 9.6c1.5-1.1 3.3-1.8 5.1-2.4-1.4.9-2.9 1.7-4.2 2.9-.4.4-.9.9-1.1 1.5-.1.4-.1.9.1 1.4.3.8.9 1.4 1.3 2.1.4.6.4 1.3.1 2-.4.9-1.2 1.6-2.1 2.2-.1.1-.2.2-.3.2.6-.5 1-1.2 1-2 0-.6-.3-1.1-.7-1.5-.8-.9-1.4-2.1-1.3-3.4.3-1.3 1.2-2.3 2.1-3z"/>
        <path fill="#595959" stroke="#595959" d="M21.1 18.7c.3-.4.9-.5 1.3-.6.8-.1 1.7.1 2.4.7.5.5.8 1.2.7 1.9-.1.8-.7 1.5-1.3 2-1.1.9-2.5 1.4-3.9 1.8.1-.1.2-.2.3-.2 1-.6 2.1-1.2 2.8-2.1.5-.6.8-1.3.7-2.1-.2-.9-1-1.5-1.9-1.5-.4-.2-.7 0-1.1.1zM5.2 19.4c1.4-.6 3-1 4.6-1-.9.3-1.9.5-2.7.9-.2.1-.4.2-.6.4-.1.2.1.3.2.3.5.2 1.1.3 1.7.3 2 .1 4 .1 6-.1 2-.1 4-.4 5.9-.7-.4.2-.9.4-1.3.7-.2.1-.5.2-.7.2-2.4.5-4.9.7-7.3.7-1 0-1.9 0-2.8-.1-1.1-.1-2.1-.1-3.2-.4-.3-.1-.6-.2-.9-.4-.1-.1-.1-.3 0-.4.4-.1.8-.3 1.1-.4zM7.1 22.7c.4-.3.9-.5 1.4-.7-.2.2-.4.4-.4.6 0 .2.1.3.3.4.3.1.6.2.8.2 1.5.2 3 .2 4.6.1 1.4-.1 2.8-.3 4.2-.5.4.4.8.6 1.3.8-1.7.5-3.4.8-5.1.9-1.6.1-3.3.1-4.9-.2-.6-.1-1.3-.3-1.9-.6-.2-.1-.5-.3-.6-.6-.1 0 .1-.2.3-.4zM8 26.2c.4-.3.8-.4 1.3-.6-.1.1-.4.3-.3.5.2.3.6.3.9.4 1.3.2 2.7.3 4 .2 1-.1 2-.2 3-.4l1.8.9c-.9.4-1.9.7-2.9.9-1.7.3-3.4.3-5.1.1-.7-.1-1.5-.3-2.2-.7-.3-.1-.5-.3-.6-.6-.2-.3-.1-.6.1-.7z"/>
        <path fill="#595959" stroke="#595959" d="M3.6 28.4c.7-.2 1.5-.4 2.2-.5.3 0 .6 0 .9.2-.9.1-1.8.3-2.6.7-.2.1-.4.2-.5.4 0 .2.3.3.5.4 1.1.4 2.4.6 3.6.7 3.6.3 7.2.2 10.7-.1 1.3-.1 2.7-.3 4-.7.4-.1.9-.3 1.2-.7.2-.2.1-.5-.1-.7.3.1.6.3.6.7-.1.4-.5.6-.8.8-1 .5-2.1.8-3.2 1-3.2.6-6.5.8-9.8.7-2.5-.1-4.9-.3-7.3-.7-.4-.1-.9-.2-1.2-.5-.2-.2 0-.6.2-.7.4-.5 1-.8 1.6-1z"/>
        <path fill="#595959" stroke="#595959" d="M23.3 31.1c.8-.3 1.6-.6 2.2-1.2-.1.7-.7 1.2-1.3 1.5-1.1.6-2.4.9-3.6 1.1-2.6.4-5.3.5-8 .5-1.8-.1-3.7-.1-5.4-.5-.4-.1-.9-.2-1.3-.4 1.6.3 3.2.4 4.8.4 2.7.1 5.3 0 8-.4 1.5-.3 3.1-.5 4.6-1z"/>
        <path fill="#5A5A5A" stroke="#5A5A5A" d="M2.5 42.8V35h1.6v8.7c0 .8 0 1.7-.4 2.4-.4.8-1.2 1.3-2 1.6-.3-.3-.5-.6-.8-.9.7-.4 1.3-.9 1.5-1.7.1-.7.1-1.5.1-2.3zM5.6 38.1c1.1-.5 2.2-.7 3.4-.6.6.1 1.2.3 1.6.8.3.4.4.9.4 1.4V45H9.8c0-.3-.1-.5-.1-.8-.4.4-.9.7-1.5.8-.6.2-1.3.1-2-.1-.5-.2-.9-.6-1-1.1-.2-.7-.1-1.6.4-2.2.5-.5 1.2-.8 1.9-.9.6-.1 1.3-.1 1.9-.1 0-.5.1-1-.2-1.5-.2-.3-.6-.5-1-.5-.8-.1-1.7.1-2.5.4 0-.2 0-.5-.1-.9zm2 3.7c-.3.1-.7.4-.8.7-.1.4-.1.9.2 1.2.3.3.7.4 1.1.4.6-.1 1-.4 1.5-.7v-1.8c-.7 0-1.4 0-2 .2zM19.5 38.1c1.1-.5 2.3-.7 3.4-.6.6.1 1.2.3 1.6.7.4.4.5 1 .5 1.6V45h-1.2c0-.3-.1-.5-.1-.8-.6.5-1.2.9-2 .9-.7.1-1.5 0-2-.5-.6-.5-.7-1.4-.5-2.1.1-.7.6-1.2 1.2-1.5.9-.5 2-.5 3-.5 0-.5.1-1-.2-1.4-.2-.3-.6-.5-1-.5-.9-.1-1.7.1-2.6.4 0-.2-.1-.5-.1-.9zm1.9 3.7c-.3.1-.6.4-.7.7-.1.4-.1.9.2 1.2.3.3.7.4 1.1.4.5-.1 1-.4 1.4-.7v-1.7c-.7-.1-1.4-.1-2 .1zM11.9 37.7h1.7c.3 1 .6 2.1 1 3.1.2.6.4 1.3.6 1.9.1.3.1.6.2.9.7-1.9 1.2-3.9 1.5-5.9h1.6c-.5 2.6-1.2 5.1-2.3 7.4h-1.9c-.8-2.5-1.6-5-2.4-7.4z"/>
        <g fill="#5A5A5A" stroke="#5A5A5A">
            <path d="M25.2 37.5H25v-.1h.5v.1h-.3l.1.6h-.1zM26.1 37.8v-.3c0 .1-.1.2 0 .3l-.2.3h-.1l-.1-.3c0-.1-.1-.2-.1-.2v.6h-.1v-.6h.1l.1.3c0 .1 0 .1.1.2 0-.1 0-.1.1-.2l.1-.3h.1v.6H26l.1-.4z"/>
        </g>
    </g>
</svg>
