<svg xmlns="http://www.w3.org/2000/svg" width="90" height="26" viewBox="0 0 90 26">
    <defs>
        <linearGradient id="a" x1="-69.568%" x2="163.168%" y1="43.822%" y2="55.748%">
            <stop offset="23.08%" stop-color="#949494"/>
            <stop offset="57.67%" stop-color="#969696"/>
            <stop offset="70.13%" stop-color="#9D9D9D"/>
            <stop offset="79.01%" stop-color="#A9A9A9"/>
            <stop offset="86.19%" stop-color="#BABABA"/>
            <stop offset="92.34%" stop-color="#D0D0D0"/>
            <stop offset="97.69%" stop-color="#EAEAEA"/>
            <stop offset="100%" stop-color="#F8F8F8"/>
        </linearGradient>
        <linearGradient id="b" x1="-17.159%" x2="77.951%" y1=".323%" y2="97.251%">
            <stop offset="0%" stop-color="#7F7F7F"/>
            <stop offset="100%" stop-color="#707070"/>
        </linearGradient>
        <linearGradient id="c" x1="-9.124%" x2="153.088%" y1="55.913%" y2="46.121%">
            <stop offset="0%" stop-color="#7B7B7B"/>
            <stop offset="49.98%" stop-color="#858585"/>
            <stop offset="100%" stop-color="#949494"/>
        </linearGradient>
    </defs>
    <g fill="none" fill-rule="nonzero">
        <path fill="url(#a)" d="M6.7 25.5l-.7-.2s.1-3.4-1.1-3.6c-.8-.9.1-39.5 3-.1 0 0-1 .5-1.2 1.3-.1.8 0 2.6 0 2.6z" transform="translate(0 -1)"/>
        <path fill="url(#b)" d="M7.1 22.3s5.8-3.8 4.4-11.7C10.2 4.9 7.1 3 6.8 2.3 6.4 1.8 6.1.9 6.1.9l.2 16c0-.1-.5 4.8.8 5.4z" transform="translate(0 -1)"/>
        <path fill="url(#c)" d="M5.7 22.5S.3 18.8.6 12.3C.9 5.8 4.7 2.6 5.5 2c.5-.5.5-.7.5-1.2.3.7.3 10.8.3 12 .2 4.5-.2 8.8-.6 9.7z" transform="translate(0 -1)"/>
        <path fill="#BFBFBF" d="M67.5 9.4c.3 0 1.5.1 2 .1 1 0 1.7-.1 3.6-.1 1.6 0 3 .4 3.9 1.3 1.2 1 1.8 2.4 1.8 4.1 0 2.4-1.1 3.8-2.2 4.6-1.1.8-2.6 1.3-4.6 1.3-1.1 0-3 0-4.5-.1-.1-.1.1-.7.3-.7.4 0 .5-.1.7-.1.3-.1.4-.3.4-.9.1-1.1 0-2.4 0-4V11c-.1-.6-.3-.7-.8-.8-.2-.1-.6-.1-1-.2 0 0 .3-.5.4-.6zm3.6 10c.4.3 1.1.4 1.8.4.9 0 1.7-.2 2.6-.9.9-.8 1.4-2 1.4-3.9 0-1.8-.7-3.3-2.1-4.2-.8-.5-1.8-.7-3-.7-.3 0-.7 0-.9.1-.1 0-.2.2-.2.3v8c.1.3.2.7.4.9zM80.4 9.4c.2 0 .6.1 1.9.1h3.2c1.4 0 3.3.5 3.3 2.6 0 1-.7 1.9-1.7 2.2-.1 0-.1.1 0 .1 1.3.3 2.5 1.2 2.5 2.8 0 1.5-1 2.5-2.4 3.1-.9.4-1.9.5-3 .5-.8 0-3-.1-4.2-.1-.1-.1.1-.6.2-.7.3 0 .5 0 .8-.1.4-.1.5-.2.5-.9v-7.9c0-.5-.2-.7-.5-.8-.3-.1-.7-.1-1.1-.2.1-.1.4-.7.5-.7zm7.4 8c0-1.6-1.2-2.5-3.3-2.5h-.9c-.1 0-.1.1-.1.1v3.7c0 .3.3.7.5.9.3.2.9.2 1.4.2 1.3 0 2.4-.7 2.4-2.4zm-4.1-7.2c-.1 0-.2.2-.2.3V14l.1.1h1.3c.7 0 1.1-.1 1.3-.2.6-.3.9-.9.9-1.6 0-1.6-1.1-2.2-2.7-2.2-.2.1-.5.1-.7.1z"/>
        <path fill="#474747" d="M15.2 20.7s-.1-.2-.1-.4c0-.1 0-.2.1-.2.3-.1.5-.1.7-.1.3-.1.4-.3.5-.7.1-1 .1-2.8 0-4.1 0-.1 0-.3-.2-.5-.3-.2-.6-.3-1-.4-.2 0-.2-.1-.2-.2s.1-.2.3-.2c.5-.1 1.9-.4 2.5-.6 0 0 .1.1.1.3v.8c0 .1.1.1.1.1h.1c1-.8 2-1.1 2.4-1.1.8 0 1.4.4 1.9 1.1l.1.1s.1 0 .1-.1c1-.7 1.9-1.2 2.5-1.2 1.5 0 2.4 1.1 2.4 3v3.3c0 .1.1.3.3.4.2.1.5.2.9.2 0 .1 0 .5-.1.6H27c-1 0-1.5 0-2 .1 0-.1-.1-.5 0-.6.3-.1.4-.1.6-.1.3-.1.4-.2.4-.7 0-.3.1-2.9 0-3.5-.1-.6-.6-1.4-1.6-1.4-.4 0-1 .2-1.6.6 0 0-.1.1-.1.2.1.3.1.7.1 1.3v3c0 .4.2.4.4.5.1 0 .2 0 .2.1.1 0 .3.1.5.1v.5c0 .1 0 .1-.1.2H20.2s-.1-.1-.1-.3c0-.2 0-.3.1-.3h.2c.2 0 .4-.1.5-.1.3-.1.4-.2.4-.6.1-.8.1-3.1 0-3.7-.2-.9-.7-1.4-1.6-1.4-.5 0-1.1.2-1.6.6-.1.1-.2.2-.2.4v4.2c0 .2.1.4.4.5.1 0 .2 0 .4.1.1 0 .2 0 .3.1v.6h-3.2c-.2-.6-.4-.5-.6-.5zM33.6 20.8c-2.7 0-3.7-2-3.7-3.9 0-1.3.5-2.3 1.6-3 .8-.5 1.7-.7 2.5-.7 2.1 0 3.5 1.5 3.5 3.6 0 1.5-.6 2.6-1.7 3.3-.6.4-1.5.7-2.2.7zm-.3-6.9c-.3 0-.6.1-.9.2-.6.4-1 1.2-1 2.3 0 2.1 1.1 3.6 2.6 3.6.4 0 .8-.1 1.1-.4.5-.4.7-1.2.7-2.2 0-2.1-1-3.5-2.5-3.5zM61.9 20.8c-2.7 0-3.7-2-3.7-3.9 0-1.3.5-2.3 1.6-3 .8-.5 1.7-.7 2.5-.7 2.1 0 3.5 1.5 3.5 3.6 0 1.5-.6 2.6-1.7 3.3-.5.4-1.4.7-2.2.7zm-.3-6.9c-.3 0-.6.1-.9.2-.6.4-1 1.2-1 2.3 0 2.1 1.1 3.6 2.6 3.6.4 0 .8-.1 1.1-.4.5-.4.7-1.2.7-2.2.1-2.1-.9-3.5-2.5-3.5zM52.5 25.1c-1 0-1.7-.2-2.3-.7-.6-.5-.9-1.1-.9-1.6 0-.1 0-.5.3-.8.2-.2.6-.6 1.5-1.2v-.1s0-.1-.1-.1c-.8-.3-1-.8-1.1-1 0-.1 0-.2.1-.3.1-.1.3-.2.5-.3.3-.2.6-.3.7-.5v-.1s0-.1-.1-.1c-1.1-.4-1.7-1.2-1.7-2.5 0-.8.4-1.6 1-2 .4-.4 1.6-.8 2.3-.8.8 0 1.2.2 1.8.4.3.1.6.2 1 .2.6 0 .9-.2 1.1-.4 0 0 0 .1.1.3 0 .2 0 .5-.2.7-.1.2-.4.3-.7.3h-.1c-.3 0-.4-.1-.4-.1h-.1v.1c0 .1.1.6.1.7 0 1.3-.5 1.9-1.1 2.3-.5.4-1.2.7-1.9.7h-.4c-.1 0-.4.2-.4.5 0 .2.1.5.8.6h.4c.9.1 2.1.1 2.6.3.7.3 1.2.9 1.2 1.7 0 1.2-.8 2.3-2.3 3-.3.7-1 .8-1.7.8zm-.1-4.1c-.3 0-.5.1-.7.2-.7.4-1 .9-1 1.3 0 .5.2.8.6 1.2.5.4 1.1.6 1.9.6 1.6 0 2.4-.9 2.4-1.8 0-.6-.3-1-.9-1.2-.6-.2-1.4-.3-2.3-.3zm.1-7.1c-.8 0-1.4.7-1.4 1.7s.5 2.3 1.8 2.3c.2 0 .6-.1.8-.3.3-.3.5-.9.5-1.5 0-1.4-.6-2.2-1.7-2.2zM48 20c-.4-.1-.7-.1-1-.3-.1 0-.1-.2-.1-.3v-3.2c0-.9-.1-1.6-.5-2.2-.4-.6-1.1-1-1.9-1-.7 0-1.7.5-2.4 1.2 0 0-.1.1-.1 0v-.8c0-.3-.1-.3-.1-.3-.5.3-1.6.6-2.2.6-.4.1-3.8.7.2.8v1.4h-.6c.4 0 .7-.6.9-.4.2.1.1-.1.1 0v3.9c0 .4-.1.4-.4.5v-.1c-.2.1-.4.1-.7.1-.1.1-.1.6 0 .7.2 0 1.1-.1 1.9-.1 1.1 0 1.6.1 1.9.1.1-.1.1-.6.1-.7-.3 0-.5-.1-.7-.1-.3-.1-.4-.2-.4-.5v-3.9c0-.3.1-.5.2-.6.4-.3 1-.5 1.5-.5s.9.2 1.1.4c.3.3.5.7.5 1 .1.7.1 2.1.1 3.2 0 .6-.1.8-.3.9-.1.1-.4.1-.7.1-.1.1-.1.6 0 .7.5 0 1-.1 1.8-.1 1 0 1.6.1 1.9.1 0 0 0-.5-.1-.6z"/>
    </g>
</svg>
