<svg xmlns="http://www.w3.org/2000/svg" width="74" height="35" viewBox="0 0 74 35">
    <g fill="none" fill-rule="nonzero" opacity=".8">
        <path fill="#A7A7A7" d="M27.4 12.1c0 4-3.2 7.2-7.2 7.2-3.9 0-7.2-3.2-7.2-7.2s3.2-7.2 7.2-7.3c4 0 7.2 3.2 7.2 7.3z"/>
        <path fill="#444" d="M20.2 19.9c-4.3 0-7.8-3.5-7.8-7.8 0-2.1.8-4.1 2.3-5.5 1.5-1.5 3.4-2.3 5.5-2.3s4 .8 5.5 2.3C27.2 8.1 28 10 28 12.1s-.8 4.1-2.3 5.5c-1.5 1.5-3.4 2.3-5.5 2.3zm0-14.5c-1.8 0-3.5.7-4.7 2-1.2 1.3-1.9 2.9-1.9 4.7 0 3.6 3 6.6 6.6 6.6 1.8 0 3.4-.7 4.7-1.9 1.3-1.3 1.9-2.9 1.9-4.7 0-1.8-.7-3.5-1.9-4.7-1.3-1.3-2.9-2-4.7-2z"/>
        <path fill="#A7A7A7" d="M9.7 33.9c-3.3 0-6-2.7-6-6s2.7-6 6-6 6 2.7 6 6c.1 3.3-2.7 6-6 6z"/>
        <path fill="#444" d="M9.7 34.5c-1.8 0-3.4-.7-4.7-1.9-1.2-1.2-1.9-2.9-1.9-4.7 0-1.8.7-3.4 1.9-4.6 1.2-1.2 2.9-1.9 4.6-1.9 3.6 0 6.6 3 6.6 6.6 0 1.8-.7 3.4-1.9 4.6-1.1 1.2-2.8 1.9-4.6 1.9zm0-12c-1.4 0-2.8.6-3.8 1.6s-1.6 2.4-1.6 3.8c0 3.1 2.4 5.5 5.4 5.5 1.5 0 2.9-.6 3.9-1.6s1.6-2.4 1.6-3.8c0-3.1-2.5-5.5-5.5-5.5z"/>
        <path fill="#A7A7A7" d="M1.2 4.8c0-2.2 1.8-4 4-4s4 1.8 4 4-1.9 4-4 4c-2.2 0-4-1.8-4-4z"/>
        <path fill="#444" d="M5.3 9.3h-.1C4 9.3 2.9 8.8 2 7.9 1.2 7.1.7 5.9.7 4.7.7 2.2 2.7.3 5.2.3c1.2 0 2.3.5 3.2 1.3.8.9 1.3 2 1.3 3.2C9.7 6 9.2 7.2 8.3 8c-.8.8-1.9 1.3-3 1.3zM1.7 4.8c0 2 1.5 3.5 3.5 3.6.9 0 1.8-.3 2.4-1 .7-.7 1.1-1.6 1.1-2.5 0-.9-.3-1.8-1-2.5s-1.5-1-2.5-1.1c-1.9 0-3.5 1.5-3.5 3.5zM3.1 12.1c-.6 0-1.1-.5-1.1-1.2 0-.6.5-1.1 1.1-1.1.6 0 1.1.5 1.1 1.1.1.7-.5 1.2-1.1 1.2zm.2 3.2c-.6 0-1.1-.5-1.1-1.1 0-.6.5-1.1 1.1-1.1.6 0 1.2.5 1.2 1.1-.1.7-.6 1.1-1.2 1.1zm16.2 8c-.6 0-1.1-.5-1.1-1.2 0-.6.5-1.1 1.2-1.1.6 0 1.1.5 1.1 1.1-.1.7-.6 1.2-1.2 1.2zm-7-19.9c0 .6-.5 1.1-1.2 1.1-.6 0-1.1-.5-1.1-1.2 0-.6.5-1.1 1.1-1.1.7.1 1.2.5 1.2 1.2zm5 20.1c.6 0 1.2.5 1.1 1.1 0 .6-.5 1.1-1.2 1.1-.6 0-1.1-.5-1.1-1.1.1-.6.6-1.1 1.2-1.1zM5 17.8c0 .6-.5 1.1-1.1 1.1-.6 0-1.1-.5-1.1-1.2 0-.6.5-1.1 1.1-1.1.6 0 1.1.5 1.1 1.2zm9.3-12.3c-.7 0-1.1-.4-1.1-1.1 0-.7.5-1.1 1.1-1.1.6 0 1.1.5 1.1 1.1 0 .7-.5 1.1-1.1 1.1zm-8.8 14c.6 0 1.1.5 1.1 1.2s-.5 1.1-1.2 1.1c-.6 0-1.1-.5-1-1.2 0-.6.5-1.1 1.1-1.1z"/>
        <g fill="#444">
            <path d="M40.7 5.7c0 .2-.1.2-.2.2h-1.2v11.6c0 .2-.1.3-.3.3h-1c-.1 0-.2-.1-.3-.2l-4.4-9.5c-.2-.5-.4-1-.6-1.7.1.7.2 1.2.2 1.7v8.4h1.2c.2 0 .2.1.2.2v.8c0 .2-.1.2-.2.2h-3.8c-.2 0-.2-.1-.2-.2v-.8c0-.2.1-.2.2-.2h1.2V5.8h-1.2c-.2 0-.2-.1-.2-.2v-.8c0-.2.1-.2.2-.2H33c.1 0 .2.1.3.2l4.2 8.9c.2.4.3.9.5 1.5-.1-.5-.1-1-.1-1.5V5.9h-1.2c-.2 0-.2-.1-.2-.2v-.8c0-.2.1-.2.2-.2h3.8c.2 0 .2.1.2.2v.8z"/>
            <path d="M39 18h-1c-.1 0-.3 0-.4-.3l-4.4-9.5c0-.1-.1-.1-.1-.2V16.4h1.1c.2 0 .4.1.4.4v.8c0 .2-.1.4-.4.4h-3.8c-.2 0-.4-.1-.4-.4v-.8c0-.2.1-.4.4-.4h1.1V6h-1.1c-.2 0-.4-.1-.4-.4v-.8c0-.2.1-.4.4-.4h2.7c.2 0 .3.1.4.3l4.2 8.9c0 .1.1.1.1.2V5.9h-1.1c-.2 0-.4-.1-.4-.4v-.8c0-.2.1-.4.4-.4h3.8c.2 0 .4.1.4.4v.8c0 .2-.1.4-.4.4h-1.1v11.5c0 .4-.1.6-.4.6zM32.9 6.5c.2.6.3 1.2.5 1.6l4.4 9.5c0 .1.1.1.2.1h1c.1 0 .1 0 .1-.1V5.8h1.4c.1 0 .1 0 .1-.1v-.8c0-.1 0-.1-.1-.1h-3.8c-.1 0-.1 0-.1.1v.8c0 .1 0 .1.1.1h1.4v8c0 .5 0 1 .1 1.5l-.3.1c-.2-.6-.3-1.1-.5-1.5L33.2 5c0-.1-.1-.1-.2-.1h-2.7c-.1 0-.1 0-.1.1v.8c0 .1 0 .1.1.1h1.4v11h-1.4c-.1 0-.1 0-.1.1v.8c0 .1 0 .1.1.1h3.8c.1 0 .1 0 .1-.1V17c0-.1 0-.1-.1-.1h-1.4V8.4c0-.5-.1-1.1-.2-1.7l.4-.2zM49.2 13.2c0 .2-.1.3-.2.3h-5.5c.1 2.2.9 3.2 2.5 3.2.7 0 1.4-.2 2.2-.7.1 0 .1-.1.2-.1s.1 0 .1.1l.3.7v.1c0 .1-.2.3-.7.5-.8.4-1.6.5-2.4.5-1.2 0-2.2-.4-2.9-1.3-.7-.9-1.1-2.1-1.1-3.5 0-1.5.3-2.7 1-3.6.7-.9 1.6-1.3 2.8-1.3 1.6 0 2.7.8 3.2 2.3.4.9.5 1.7.5 2.8zm-1.6-.8c0-1.9-.7-2.8-2-2.8s-2 .9-2.1 2.8h4.1z"/>
            <path d="M45.9 18.3c-1.3 0-2.3-.5-3-1.4-.7-.9-1.1-2.1-1.1-3.6s.4-2.7 1.1-3.6c.7-.9 1.7-1.4 2.9-1.4 1.7 0 2.8.8 3.3 2.4.2.6.3 1.4.3 2.6 0 .4-.2.5-.4.5h-5.3c.1 2 .9 3 2.4 3 .6 0 1.4-.2 2.1-.7.1-.1.2-.1.3-.1.1 0 .2 0 .3.2l.3.7c0 .1.1.1.1.2 0 .2-.2.4-.8.7-.9.3-1.7.5-2.5.5zm-.2-9.8c-1.1 0-2 .4-2.6 1.3-.7.9-1 2-1 3.5 0 1.4.4 2.6 1 3.4.7.8 1.6 1.3 2.8 1.3.8 0 1.6-.2 2.3-.5.6-.3.6-.4.6-.4V17l-.3-.7h-.1c-.8.5-1.6.7-2.3.7-1.7 0-2.6-1.1-2.7-3.4v-.2H49c.1 0 .1-.1.1-.2 0-1.1-.1-2-.3-2.5-.5-1.4-1.5-2.2-3.1-2.2zm2.1 4h-4.4v-.2c.1-2 .9-3 2.3-3s2.1 1 2.2 3l-.1.2zm-4.1-.2h3.8c-.1-1.7-.7-2.5-1.9-2.5-1.2-.1-1.8.7-1.9 2.5zM58.6 13.2c0 1.5-.3 2.8-1 3.6-.7.9-1.7 1.3-2.9 1.3s-2.1-.4-2.7-1.3c-.7-.8-1-2-1-3.6 0-1.5.3-2.7 1-3.6.7-.9 1.7-1.3 2.9-1.3s2.1.4 2.7 1.3c.7.9 1 2.1 1 3.6zm-1.5 0c0-2.4-.8-3.6-2.3-3.6-1.5 0-2.2 1.2-2.2 3.5 0 1.3.2 2.3.6 3 .3.6.9.8 1.7.8.8 0 1.3-.3 1.6-.8.4-.7.6-1.6.6-2.9z"/>
            <path d="M54.7 18.3c-1.2 0-2.2-.4-2.8-1.3-.7-.9-1-2.1-1-3.6 0-1.6.4-2.8 1.1-3.7.7-.9 1.7-1.3 3-1.3 1.2 0 2.2.4 2.8 1.3.7.9 1 2.1 1 3.6 0 1.6-.4 2.8-1.1 3.7-.7.8-1.7 1.3-3 1.3zm.2-9.8c-1.2 0-2.1.4-2.8 1.2-.7.8-1 2-1 3.5s.3 2.6.9 3.5c.6.8 1.5 1.2 2.6 1.2 1.2 0 2.1-.4 2.8-1.2.7-.8 1-2 1-3.5s-.3-2.6-.9-3.4c-.6-.9-1.4-1.3-2.6-1.3zm0 8.5c-.8 0-1.5-.3-1.8-.9-.4-.7-.6-1.7-.6-3 0-2.4.8-3.6 2.4-3.6 1.6 0 2.4 1.2 2.4 3.7 0 1.3-.2 2.3-.6 3-.5.6-1 .8-1.8.8zm-.1-7.2c-1.4 0-2.1 1.1-2.1 3.3 0 1.3.2 2.2.6 2.9.3.5.8.8 1.6.8.7 0 1.2-.2 1.5-.7.4-.6.6-1.6.6-2.8-.1-2.4-.7-3.5-2.2-3.5z"/>
            <g>
                <path d="M68.8 14.9c0 .2-.1.3-.3.3H67v2.7c0 .2-.1.3-.3.3h-.9c-.2 0-.3-.1-.3-.3v-2.7h-4.9c-.2 0-.3-.1-.3-.3v-1.1l5-8.2c.1-.1.1-.2.2-.2h.1l1 .2c.2 0 .2.1.2.2s0 .1-.1.2l-4.9 8h3.7l.2-3.1c0-.2.1-.3.3-.3h.7c.2 0 .3.1.3.3V14h1.5c.2 0 .3.1.3.3v.6z"/>
                <path d="M66.8 18.3h-.9c-.3 0-.4-.2-.4-.4v-2.6h-4.7c-.3 0-.4-.2-.4-.4v-1.1l5-8.2c.1-.1.2-.2.3-.2h.1l1 .2c.3.1.4.2.4.3 0 .1 0 .2-.1.3L62.3 14h3.3l.2-3c0-.2.2-.4.4-.4h.7c.3 0 .4.2.4.4v2.9h1.4c.3 0 .4.2.4.4v.7c0 .3-.2.4-.4.4h-1.4V18c-.1.1-.3.3-.5.3zm-6.2-4.5v1c0 .1 0 .1.1.1h5v2.9c0 .1 0 .1.1.1h.9c.1 0 .1 0 .1-.1v-2.9h1.7c.1 0 .1 0 .1-.1v-.7c0-.1 0-.1-.1-.1h-1.7v-3.2c0-.1 0-.1-.1-.1H66c-.1 0-.1 0-.1.1l-.2 3.2h-4.1l5-8.2v-.1h-.1l-.9-.1h-.1l-.1.1-4.8 8.1z"/>
            </g>
            <g>
                <path d="M73.2 18.9c0 1-.2 1.7-.6 2.2-.5.6-1.2.8-2.1.8-.5 0-1-.1-1.5-.3-.6-.2-.8-.3-.8-.5v-.2l.4-.8c0-.1.1-.1.2-.1h.1c.6.3 1.2.5 1.7.5.6 0 1-.2 1.1-.6.1-.3.2-.8.2-1.5V9.7h-1.5c-.1 0-.2-.1-.2-.2v-.7c0-.2.1-.2.2-.2h2.8c.1 0 .2.1.2.2v10.1h-.2zm.3-13.6c0 .3-.1.6-.3.8-.2.2-.5.3-.8.3-.3 0-.6-.1-.8-.3-.2-.2-.3-.5-.3-.8 0-.3.1-.6.3-.8.2-.2.5-.3.8-.3.3 0 .6.1.8.3.1.2.3.5.3.8z"/>
                <path d="M70.4 22.1c-.5 0-1-.1-1.6-.3-.7-.2-.9-.4-.9-.6 0-.1 0-.1.1-.2l.4-.8c0-.1.2-.2.3-.2h.2c.6.3 1.1.5 1.6.5s.8-.2 1-.5c.1-.3.1-.8.1-1.4v-8.5h-1.4c-.2 0-.4-.1-.4-.4V9c0-.2.1-.4.4-.4H73c.2 0 .4.1.4.4v10c0 1-.2 1.8-.7 2.3-.6.5-1.4.8-2.3.8zm-2.2-.9s.1.1.7.3c.5.2 1 .3 1.5.3.9 0 1.5-.3 2-.8.4-.4.6-1.1.6-2.1v-10c0-.1 0-.1-.1-.1h-2.8s-.1 0-.1.1v.7c0 .1 0 .1.1.1h1.7v8.8c0 .7-.1 1.2-.2 1.5-.2.5-.6.7-1.2.7s-1.1-.2-1.8-.5h-.1l-.3 1c0-.1 0-.1 0 0zm4.1-14.6c-.4 0-.7-.1-.9-.4-.3-.3-.4-.6-.4-.9 0-.4.1-.7.4-.9.3-.2.6-.4.9-.4.3 0 .6.1.9.4.2.3.4.6.4.9 0 .4-.1.7-.4.9-.2.3-.5.4-.9.4zm0-2.3c-.3 0-.5.1-.7.3-.2.2-.3.4-.3.7 0 .3.1.5.3.7.2.2.4.3.7.3.3 0 .5-.1.7-.3.2-.2.3-.4.3-.7 0-.3-.1-.5-.3-.7-.2-.2-.4-.3-.7-.3z"/>
            </g>
        </g>
    </g>
</svg>
