<svg xmlns="http://www.w3.org/2000/svg" width="78" height="10" viewBox="0 0 78 10">
    <g fill="#4D4D4D" fill-rule="nonzero" opacity=".8">
        <path d="M32.7 6.6h4.9L35 2.4 30.2 10H28L33.8.9c.2-.4.7-.6 1.1-.6.5 0 .9.2 1.1.6l5.8 9.1h-2.2l-1-1.7h-5l-.9-1.7zm22.6 1.7V.4h-1.9v8.7c0 .2.1.5.3.6.2.2.4.3.7.3h8.4l1.1-1.7h-8.6zM24.7 6.9c1.8 0 3.3-1.5 3.3-3.3C28 1.8 26.5.3 24.7.3h-8.1v9.6h1.8V2h6.1c.9 0 1.6.7 1.6 1.6 0 .9-.7 1.6-1.6 1.6h-5.2l5.5 4.8h2.7l-3.7-3.1h.9zM5.2 10C2.5 10 .4 7.8.4 5.2.4 2.5 2.6.4 5.2.4h5.6c2.7 0 4.8 2.2 4.8 4.8 0 2.7-2.2 4.8-4.8 4.8H5.2zm5.5-1.7c1.7 0 3.1-1.4 3.1-3.1 0-1.7-1.4-3.1-3.1-3.1H5.4c-1.7 0-3.1 1.4-3.1 3.1 0 1.7 1.4 3.1 3.1 3.1h5.3zM45.8 10C43.1 10 41 7.8 41 5.2 41 2.5 43.2.4 45.8.4h6.6l-1.1 1.7h-5.4c-1.7 0-3.1 1.4-3.1 3.1 0 1.7 1.4 3.1 3.1 3.1h6.7L51.5 10h-5.7zm22.7-1.7c-1.4 0-2.6-1-3-2.3h7.9l1.1-1.7h-9c.4-1.3 1.6-2.3 3-2.3h5.4L75 .3h-6.6c-2.7 0-4.8 2.2-4.8 4.8 0 2.7 2.2 4.8 4.8 4.8h5.7l1.1-1.7h-6.7v.1zM76 1.4c0-.5.4-.8.9-.8s.8.4.8.8c0 .5-.4.9-.8.9-.5 0-.9-.4-.9-.9zm.8 1.1c.6 0 1.1-.5 1.1-1.1 0-.6-.5-1.1-1.1-1.1-.6 0-1.1.5-1.1 1.1 0 .6.5 1.1 1.1 1.1zM76.7.8h.3c.2.1.2.3.2.3v.1s0 .1-.2.2h-.1l.3.5h-.3l-.2-.5h-.2v.5h-.2V.7h.4v.1zm.1.5c.1 0 .2 0 .2-.1v-.1c0-.1 0-.1-.1-.1H76.6v.3h.2z"/>
    </g>
</svg>
