<svg xmlns="http://www.w3.org/2000/svg" width="61" height="32" viewBox="0 0 61 32">
    <defs>
        <radialGradient id="a" cx="30.096%" cy="17.619%" r=".145%" fx="30.096%" fy="17.619%">
            <stop offset="0%" stop-color="#B5B5B5"/>
            <stop offset="30%" stop-color="#B5B5B5"/>
            <stop offset="75%" stop-color="#525252"/>
            <stop offset="100%" stop-color="#525252"/>
        </radialGradient>
    </defs>
    <g fill="none" fill-rule="nonzero" opacity=".7">
        <path fill="url(#a)" d="M.9 16c0 8.6 13.3 15.6 29.6 15.6 16.4 0 29.6-7 29.6-15.6S46.8.4 30.5.4.9 7.4.9 16"/>
        <path fill="gray" d="M30.6 30.46c15.7 0 28.5-6.5 28.5-14.4S46.4 1.66 30.6 1.66c-15.7 0-28.5 6.5-28.5 14.4s12.7 14.4 28.5 14.4"/>
        <path fill="#000" d="M17.03 17.81c1.3 0 2.3-.2 2.9-.7.6-.5 1-1.3 1.2-2.4.2-1.1.1-1.8-.2-2.2-.4-.4-1.2-.6-2.3-.6h-2.1l-1.1 5.9h1.6zm-6.8 7.3c-.1 0-.2 0-.2-.1-.1-.1-.1-.2-.1-.3l3-15.6c0-.2.2-.3.3-.3h6.5c2.1 0 3.6.6 4.5 1.7 1 1.1 1.3 2.7.9 4.6-.2.8-.4 1.5-.8 2.2-.4.7-.9 1.3-1.4 1.8-.7.7-1.5 1.1-2.4 1.4-.9.3-2 .4-3.3.4h-2.5l-.8 3.9c0 .2-.2.3-.3.3h-3.4z"/>
        <path fill="#FFF" d="M16.72 12.21h1.8c1.4 0 1.9.3 2.1.5.3.3.3 1 .2 1.9-.2 1-.6 1.8-1.1 2.2-.6.4-1.5.6-2.7.6h-1.3l1-5.2zm3.1-3.7h-6.5c-.3 0-.6.2-.6.5l-3 15.6c0 .2 0 .4.1.5.1.1.3.2.5.2h3.4c.3 0 .6-.2.6-.5l.7-3.6h2.4c1.3 0 2.5-.1 3.4-.4.9-.3 1.8-.8 2.5-1.5.6-.6 1.1-1.2 1.5-1.9.4-.7.7-1.5.8-2.3.4-2 .1-3.7-1-4.9-1-1.1-2.6-1.7-4.8-1.7zm-4.9 9.6h2.1c1.4 0 2.4-.3 3.1-.8.7-.5 1.1-1.4 1.4-2.6.2-1.2.1-2-.3-2.5s-1.3-.7-2.6-.7h-2.4l-1.3 6.6zm4.9-9c2 0 3.4.5 4.3 1.5.9 1 1.2 2.5.8 4.3-.1.8-.4 1.5-.8 2.1-.4.6-.8 1.2-1.4 1.7-.7.6-1.4 1.1-2.3 1.4-.8.3-1.9.4-3.2.4h-2.9l-.8 4.2h-3.3l3-15.6h6.6z"/>
        <path fill="#000" d="M33.08 20.91c-.1 0-.2 0-.2-.1-.1-.1-.1-.2-.1-.3l1.3-6.9c.1-.7.1-1.1-.1-1.3-.1-.1-.5-.3-1.5-.3h-2.4l-1.7 8.7c0 .2-.2.3-.3.3h-3.4c-.1 0-.2 0-.2-.1-.1-.1-.1-.2-.1-.3l3-15.6c0-.2.2-.3.3-.3h3.4c.1 0 .2 0 .2.1.1.1.1.2.1.3l-.7 3.8h2.6c2 0 3.3.4 4.1 1.1.8.7 1.1 1.9.7 3.5l-1.4 7.3c0 .2-.2.3-.3.3h-3.3v-.2z"/>
        <path fill="#FFF" d="M31.16 4.36h-3.4c-.3 0-.6.2-.6.5l-3 15.6c0 .2 0 .4.1.5.1.1.3.2.5.2h3.4c.3 0 .6-.2.6-.5l1.6-8.4h2.2c1 0 1.2.2 1.2.2.1.1.1.4 0 1l-1.3 6.9c0 .2 0 .4.1.5.1.1.3.2.5.2h3.4c.3 0 .6-.2.6-.5l1.4-7.3c.3-1.7 0-3-.8-3.8-.8-.8-2.3-1.2-4.4-1.2h-2.2l.7-3.4c0-.2 0-.4-.1-.5-.1.1-.3 0-.5 0m0 .6l-.8 4.2h3c1.9 0 3.2.3 3.9 1 .7.7.9 1.7.6 3.2l-1.4 7.3h-3.4l1.3-6.9c.2-.8.1-1.3-.2-1.6-.3-.3-.8-.4-1.7-.4h-2.7l-1.7 8.9h-3.4l3-15.6h3.5"/>
        <path fill="#000" d="M43.55 17.81c1.3 0 2.3-.2 2.9-.7.6-.5 1-1.3 1.2-2.4.2-1.1.1-1.8-.2-2.2-.4-.4-1.2-.6-2.3-.6h-2.1l-1.1 5.9h1.6zm-6.7 7.3c-.1 0-.2 0-.2-.1-.1-.1-.1-.2-.1-.3l3-15.6c0-.2.2-.3.3-.3h6.5c2.1 0 3.6.6 4.5 1.7 1 1.1 1.3 2.7.9 4.6-.2.8-.4 1.5-.8 2.2-.4.7-.9 1.3-1.4 1.8-.7.7-1.5 1.1-2.4 1.4-.9.3-2 .4-3.3.4h-2.6l-.8 3.9c0 .2-.2.3-.3.3h-3.3z"/>
        <path fill="#FFF" d="M43.34 12.21h1.8c1.4 0 1.9.3 2.1.5.3.3.3 1 .2 1.9-.2 1-.6 1.8-1.1 2.2-.6.4-1.5.6-2.7.6h-1.3l1-5.2zm3.1-3.7h-6.5c-.3 0-.6.2-.6.5l-3 15.6c0 .2 0 .4.1.5.1.1.3.2.5.2h3.4c.3 0 .6-.2.6-.5l.7-3.6h2.4c1.3 0 2.5-.1 3.4-.4.9-.3 1.8-.8 2.5-1.5.6-.6 1.1-1.2 1.5-1.9.4-.7.7-1.5.8-2.3.4-2 .1-3.7-1-4.9-1.1-1.1-2.7-1.7-4.8-1.7zm-4.9 9.6h2.1c1.4 0 2.4-.3 3.1-.8.7-.5 1.1-1.4 1.4-2.6.2-1.2.1-2-.3-2.5s-1.3-.7-2.6-.7h-2.3l-1.4 6.6zm4.9-9c2 0 3.4.5 4.3 1.5.9 1 1.2 2.5.8 4.3-.1.8-.4 1.5-.8 2.1-.4.6-.8 1.2-1.4 1.7-.7.6-1.4 1.1-2.3 1.4-.8.3-1.9.4-3.2.4h-2.8l-.8 4.2h-3.4l3-15.6h6.6z"/>
    </g>
</svg>
