<svg xmlns="http://www.w3.org/2000/svg" width="94" height="23" viewBox="0 0 94 23">
    <defs>
        <linearGradient id="a" x1="17.142%" x2="61.41%" y1="89.704%" y2="61.175%">
            <stop offset="0%" stop-color="#9A9A9A"/>
            <stop offset="29.41%" stop-color="#B3B3B3"/>
            <stop offset="100%" stop-color="#EDEDED"/>
        </linearGradient>
        <linearGradient id="b" x1="2.438%" x2="12.81%" y1="55.874%" y2="55.874%">
            <stop offset="0%" stop-color="#9D9D9D"/>
            <stop offset="100%" stop-color="#DEDEDE"/>
        </linearGradient>
        <radialGradient id="c" cx="43.344%" cy="42.523%" r="44.178%" fx="43.344%" fy="42.523%">
            <stop offset="0%" stop-color="#6C6C6C"/>
            <stop offset="100%" stop-color="#484848"/>
        </radialGradient>
    </defs>
    <g fill="none" fill-rule="nonzero" opacity=".8">
        <path fill="url(#a)" d="M12.973 10.583l-4.381 1.423-3.812 1.707-1.082.284c-.284.285-.568.512-.853.797-.341.284-.626.569-.91.74a6.035 6.035 0 0 0-.854.853c-.284.398-.512.797-.626 1.081-.17.57-.114 1.138.285 1.65.455.683 1.365 1.366 2.39 1.821.512.228 1.422.512 2.105.683 1.138.285 3.3.569 4.495.626h.569l.455-.797c.74-1.48 1.252-2.902 1.536-4.096.171-.74.285-1.707.399-2.846 0-.34.057-1.422 0-1.763-.057-.57-.057-1.082-.171-1.537v-.114s.057 0 .569-.17l-.114-.342zm-1.024.57c.057 0 .17 1.024.17 1.65v.227s-.568-.341-.967-.569a23.259 23.259 0 0 0-1.08-.683c-.058 0-.058 0 .227-.114.512-.113 1.65-.512 1.65-.512zm-2.22.74c.058 0 .115.056.285.17.683.455 1.594.967 1.992 1.138.114.057.114.057-.17.227a16.59 16.59 0 0 1-2.277 1.195c-.17.057-.284.114-.284.114s0-.057.057-.17c.227-.854.341-1.65.341-2.334 0-.34 0-.34.057-.34zm-.454.17v.967c-.057.512-.171.91-.285 1.423-.057.113-.057.227-.057.227l-.626-.626c-.284-.284-.455-.569-.626-.91a10.92 10.92 0 0 0-.17-.455c0 .057 1.764-.626 1.764-.626zm-2.163.853s.057.057.057.114c.114.285.342.74.57.967.227.285.512.626.74.854.056.057.17.114.17.114l-.512.227c-.626.228-1.309.456-2.106.74-.17.057-.398.114-.569.17-.056 0 0 0 .057-.17.399-.626.968-1.82 1.309-2.617.057-.171.114-.285.114-.342.057 0 .057 0 .17-.057-.056 0 0 0 0 0zm-.682.285l-.342.683c-.341.625-.683 1.251-1.138 1.991-.057.114-.17.228-.17.285l-.057-.114c-.114-.228-.228-.512-.228-.797a2.762 2.762 0 0 1 0-.967c.057-.228.057-.228.114-.228.455-.227 1.82-.853 1.82-.853zm5.747.227v.114c0 .74-.057 1.764-.171 2.504 0 .114-.057.227-.057.227s-.114 0-.228-.056c-.512-.171-1.024-.399-1.536-.626-.341-.171-.796-.456-.796-.456s.17-.056.284-.17c.626-.342 1.252-.683 1.82-1.081.228-.114.57-.342.684-.456zm-8.25 1.025v.17c0 .114-.058.228-.058.342 0 .512.057.853.285 1.308l.114.228s-2.22.683-2.902.854c-.228.056-.399.113-.399.113v-.057c.057-.512.456-1.138.968-1.65a5.508 5.508 0 0 1 1.08-.853c.342-.17.854-.455.911-.455zm5.177.91s.057.057.17.114a9.187 9.187 0 0 0 2.561.967h.057l-.114.057c-.455.228-1.877.854-3.357 1.422-.227.057-.455.171-.455.171h-.057s.057-.114.114-.284c.398-.797.853-1.707 1.024-2.39.057 0 .057-.057.057-.057zm-.512.17s0 .058-.057.171c-.284.683-.683 1.48-1.138 2.333a4.116 4.116 0 0 1-.228.399l-.227-.114c-.683-.455-1.309-.967-1.707-1.48l-.057-.056.284-.057a19.247 19.247 0 0 0 2.902-1.025c.114-.113.228-.17.228-.17zm3.243 1.139c0 .057-.17.74-.284 1.252-.114.398-.228.74-.399 1.308-.056.228-.17.455-.17.455h-.057c-.968-.17-1.878-.455-2.675-.74-.227-.113-.569-.227-.569-.284 0 0 .171-.114.456-.227 1.536-.683 3.072-1.423 3.584-1.707.057-.057.114-.057.114-.057zm-7.568.227s-.398.626-1.024 1.423a6.012 6.012 0 0 0-.512.74c-.114.113-.227.34-.284.455l-.114.227-.17-.113-.627-.626c-.284-.342-.455-.74-.569-1.081-.057-.171-.057-.228 0-.228s.91-.228 1.764-.398c.455-.114.968-.228 1.195-.285.228-.057.341-.114.341-.114zm.456.171l.114.114c.455.512.967.91 1.536 1.252.114.056.17.113.17.113s-2.048.74-2.958 1.082c-.512.17-.968.34-.968.34s-.056 0-.056-.056l-.057-.057.113-.114c.285-.455.683-.967 1.537-1.991l.569-.683zm2.617 1.935l.341.113c.456.171.797.285 1.252.399.57.17 1.366.284 1.878.341h.114l-.854.285c-.569.17-2.333.682-3.755 1.08-.285.058-.512.114-.512.171-.057 0-.17 0-.17-.056 0 0 .056-.114.17-.228.455-.57.967-1.195 1.365-1.82.114-.172.171-.285.171-.285zm-.569 0s-.228.398-.626 1.024c-.17.284-.398.569-.455.683a1.77 1.77 0 0 1-.228.341l-.113.17h-.057a14.64 14.64 0 0 0-1.195-.398 11.152 11.152 0 0 1-.797-.341l-.569-.341s.455-.114 1.024-.285c1.48-.398 2.276-.626 2.788-.797.171-.056.228-.056.228-.056zm4.154.967c0 .057-.512 1.536-.74 1.991l-.057.114c-.057 0-.853-.114-1.309-.17-.853-.114-2.219-.342-2.56-.456h-.057l.512-.114c1.081-.227 1.593-.34 2.105-.512.626-.17 1.31-.455 1.935-.74.057-.056.114-.113.17-.113z" transform="translate(.409 .422)"/>
        <path fill="url(#b)" d="M8.421.341c-.057 0-1.252.399-1.991.74-1.024.398-1.821.797-2.333 1.138-.17.114-.399.342-.455.455v.114l.455.398 1.08.342 2.505.455 2.901.512.057-.228-.398-.056-.057-.114C9.787 3.414 9.39 2.56 9.104 1.99c-.17-.455-.398-.967-.512-1.308C8.478.398 8.478.34 8.422.34zm-.057.171s0 .114.057.228c.057.455.17.91.342 1.422.113.342.113.342 0 .285-.342-.114-1.878-.342-2.96-.512-.17 0-.34-.057-.34-.057s.796-.455 1.137-.626c.456-.17 1.707-.683 1.764-.74zm-3.186 1.48l.114.056c.683.228 2.446.57 3.47.683h.228l-.227.114c-.456.228-.968.512-1.366.74l-.228.114H6.885l-.341-.342-1.195-1.195-.171-.17zm-.114.113l.455.57c.228.34.512.625.57.682l.113.114-1.024-.17c-.341-.058-.512-.115-.74-.171l-.17-.057v-.057c0-.171.284-.512.796-.91zm3.983.797s.057.057.057.114c.114.227.455.91.569 1.024 0 .057.057.057-.398-.057-1.138-.17-1.48-.228-1.48-.228s.057 0 .057-.056c.342-.171.683-.456 1.024-.683.057 0 .114-.057.171-.114z" transform="translate(.409 .422)"/>
        <path fill="url(#c)" d="M3.699 2.674s-.057.114 0 .285c.056.114.17.227.284.341 0 0 1.48 1.423 1.65 1.65.797.968 1.195 1.878 1.195 3.13 0 .796-.114 1.536-.512 2.39-.683 1.479-2.162 3.186-4.381 5.007l.341-.114c.228-.17.512-.341 1.195-.683 1.536-.853 3.3-1.65 5.462-2.447 3.13-1.194 8.194-2.56 11.096-2.958l.284-.057-.057-.057c-.284-.398-.455-.683-.682-.91-.626-.797-1.423-1.423-2.333-1.935-1.309-.74-2.96-1.309-5.121-1.707-.399-.057-1.309-.228-1.992-.341-1.536-.228-2.503-.399-3.585-.57-.398-.056-.967-.17-1.365-.227-.17-.057-.57-.114-.854-.228-.227-.227-.569-.341-.625-.569zm.853.797s.057 0 .114.057c.114.057.284.114.455.17.17.057.284.057.455.114l.342.114s.341 1.081.455 1.48c.057.17.057.284.057.284s-.057-.057-.057-.114c-.399-.683-1.024-1.365-1.707-1.934-.057-.114-.114-.171-.114-.171zm1.65.455s.114 0 .17.057c.57.114 1.594.341 2.22.455a.25.25 0 0 1 .17.057s-.056.057-.113.057c-.114.057-.57.341-.683.398a6.385 6.385 0 0 0-.91.74l-.171.17s0-.056-.057-.113a11.405 11.405 0 0 0-.569-1.65c-.057-.114-.057-.17-.057-.17zm2.845.57s.057.113.114.34a6.69 6.69 0 0 1 .17 1.537V6.714l-.17-.057c-.341-.114-.91-.284-1.423-.398a2.276 2.276 0 0 1-.512-.17s.399-.456.57-.57c.34-.341 1.251-1.08 1.251-1.024zm.228 0s1.365.227 1.991.34c.455.114 1.138.228 1.195.228 0 0-.057.057-.284.17-.854.4-1.537.74-2.163 1.196-.17.114-.284.227-.341.227V6.43c0-.626-.114-1.252-.341-1.821-.057-.057-.057-.114-.057-.114zm3.527.682s-.056.284-.056.455c-.114.512-.456 1.252-.854 1.935l-.114.227s-.114-.057-.17-.114c-.399-.227-.797-.455-1.31-.625l-.227-.114s1.024-.74 1.594-1.081c.398-.285 1.138-.683 1.138-.683zm.285.057c.057 0 .626.17.967.284.797.228 1.65.57 2.276.854l.228.114-.17.056c-1.423.342-2.618.683-3.813 1.195-.114.057-.17.057-.17.057s0-.057.056-.17c.341-.74.57-1.537.626-2.22-.057-.113-.057-.17 0-.17zM7.056 6.6s.455.114.74.171c.398.114 1.194.398 1.194.398s-.114.057-.17.171c-.456.341-.854.74-1.366 1.252l-.285.284V8.82a7.979 7.979 0 0 0-.056-1.992c-.057-.114-.057-.228-.057-.228zm9.673.057s-.228.342-.342.57c-.17.284-.512.682-1.138 1.479-.341.455-.74.91-.853 1.08-.114.171-.228.285-.228.285l-.114-.114a6.706 6.706 0 0 0-1.365-1.479c-.114-.057-.228-.17-.228-.17l-.057-.057s.57-.228.967-.399c.74-.284 1.764-.683 2.561-.91.398-.17.797-.342.797-.285zm.284.057s.114.057.17.114c.797.455 1.594 1.081 2.22 1.65l.626.626h-.342c-1.422.114-3.186.398-4.893.797-.114 0-.228.056-.228.056l.285-.284c1.024-.967 1.48-1.593 1.991-2.674a.802.802 0 0 1 .171-.285zm-7.397.74c.057 0 .455.228.797.398.284.17.74.399.796.399 0 0-.17.113-.341.17-.626.285-1.138.626-1.707.968-.17.113-.285.17-.285.17l.057-.17a9.985 9.985 0 0 0 .683-1.821c-.057-.057 0-.114 0-.114zm-.455.057s-.114.398-.17.626a6.961 6.961 0 0 1-.57 1.365c-.057.114-.114.228-.17.285l-.057.114-.171-.171a2.178 2.178 0 0 0-.626-.455c-.114-.057-.17-.114-.17-.114s.568-.512 1.024-.91c.284-.228.91-.74.91-.74zm2.674 1.08l.17.115c.4.227.797.569 1.139.853.17.17.569.512.626.57l.057.056-.285.057c-1.536.398-2.674.797-4.04 1.309-.17.057-.284.114-.284.114s-.057 0 .284-.285c.854-.797 1.65-1.707 2.22-2.56l.113-.228zm-.74.172s-.455.626-.74 1.024c-.34.455-.91 1.138-1.308 1.65-.17.17-.284.341-.341.341v-.114a2.84 2.84 0 0 0-.285-1.194c-.057-.171-.114-.171-.057-.228.057-.057 1.024-.626 1.65-.91.456-.228 1.082-.57 1.082-.57zm-4.153 1.08s.114.058.17.114c.228.114.399.228.57.399l-.171.17c-.342.228-.797.57-1.081.797-.285.228-.285.228-.285.17.228-.34.342-.511.455-.739.114-.227.228-.455.285-.683 0-.17.057-.227.057-.227zm1.08.854s.058 0 .115.17c.17.285.341.684.398.968v.057l-.455.17c-.797.342-1.537.627-2.049.854-.17.057-.398.171-.569.285-.17.057-.284.17-.284.17s.114-.056.228-.17c.967-.74 1.877-1.537 2.503-2.276.057-.17.114-.228.114-.228zm-.511.114s-.342.455-.626.683a11.817 11.817 0 0 1-2.048 1.65c-.114.057-.171.114-.171.114l.341-.399c.228-.227.399-.455.57-.682.113-.171.17-.171.34-.342.456-.284 1.594-1.024 1.594-1.024z" transform="translate(.409 .422)"/>
        <path fill="#202020" d="M35.1 8.8h-.3c-2.2.1-3.7 1.1-4.6 3-.7 1.7-.7 4 0 5.7.8 1.7 2 2.6 4.1 2.9.4.1.7.3 1.6 1.3l1.1 1.2h1.9l-1.3-1.3c-.7-.7-1.3-1.3-1.3-1.4 0-.1.3-.2.6-.3 1.1-.3 2-1.2 2.6-2.4.5-1 .6-1.3.7-2.6.2-3.7-1.8-6.1-5.1-6.1zm1.6 10c-.9.5-2.3.5-3.2.2-.9-.3-1.8-1.3-2.2-2.4-.4-1.2-.4-3.4.1-4.3.8-1.6 1.9-2.3 3.5-2.3 2.3 0 3.7 1.4 3.8 4.1.2 2.3-.5 4-2 4.7zM70 12.1c-.8 0-1.4.3-1.8 1l-.3.5v-1.3h-1.4v8h1.4v-2.5c0-2.3 0-2.6.4-3.2.4-.9 1.2-1.3 2-1.1l.5.1v-1.4l-.8-.1zm-8.2-.1c-.3 0-.6 0-.9.1-1.9.5-2.9 2.3-2.9 4.1 0 1.5.3 2.3 1 3.1 1.5 1.3 2.9 1.4 4.8.7.3-.1.7-.3.7-.3v-1.3l-.7.3c-1.5.7-2.6.7-3.6-.1-.6-.6-.8-1.3-1-2.1h5.6v-1.1c.2-2.1-1.1-3.5-3-3.4zm-2.3 3.5s.2-1.4 1-1.9c.4-.3.8-.4 1.2-.4.4 0 .8.1 1.2.4.7.5.8 1.9.8 1.9h-4.2zM25.8 14c-1.5-.9-2.2-1.6-2.1-2.4.2-2.2 2.9-1.9 4.4-1V9.1s-.8-.4-2-.4c-1.8 0-3 .6-3.5 1.8-.8 1.8-.1 3.1 2.5 4.6 1.4.8 2.1 1.6 2.1 2.4 0 1.6-2 2.2-4 1.2l-.8-.4c-.1.5 0 1.6 0 1.6s.6.3 1.6.4c2.3.5 4.4-.6 4.6-2.4.1-1.6-.5-2.5-2.8-3.9zm56.6-2c-.3 0-.6 0-.9.1-1.9.5-2.9 2.3-2.8 4.1 0 1.5.3 2.3 1 3.1 1.5 1.3 2.9 1.4 4.8.7.3-.1.7-.3.7-.3v-1.3l-.7.3c-1.5.7-2.6.7-3.6-.1-.6-.6-.8-1.3-1-2.1h5.6v-1.1c.1-2.1-1.2-3.5-3.1-3.4zm-2.3 3.4s.2-1.4 1-1.9c.4-.3.8-.4 1.2-.4.4 0 .8.1 1.2.4.7.5.8 1.9.8 1.9h-4.2zM54.5 14c-1.5-.9-2.2-1.6-2.1-2.4.2-2.2 2.9-1.9 4.4-1V9.1s-.8-.4-2-.4c-1.8 0-3 .6-3.5 1.8-.8 1.8-.1 3.1 2.5 4.6 1.4.8 2.1 1.6 2.1 2.3 0 1.6-2 2.2-4 1.2l-.8-.4c-.1.5 0 1.6 0 1.6s.6.3 1.6.4c2.3.5 4.4-.6 4.6-2.4 0-1.5-.6-2.4-2.8-3.8zm36.1-2c-.8 0-1.4.3-1.8 1l-.3.5v-1.3h-1.4v8h1.4v-2.5c0-2.3 0-2.6.4-3.2.4-.9 1.2-1.3 2-1.1l.5.1v-1.4h-.8V12zm-47.2 2V8.9H42v11.2h5.9v-1.3h-4.5V14zM76 15.6l-1.2 3-1.1-3-1.1-3.4h-1.4c.9 2.7 2 5.3 3 8h1.3l1.6-3.9 1.6-4h-1.4c-.1-.1-.7 1.5-1.3 3.3zM46.6 5.9c.2 0 .4-.1.6-.2.2-.2.2-.3.2-.6 0-.2-.1-.4-.2-.6-.2-.1-.3-.2-.6-.2-.2 0-.4.1-.6.2-.2.2-.2.3-.2.6 0 .2.1.4.2.6.2.1.4.2.6.2zm-.5-1.3c.1-.1.3-.2.5-.2s.4.1.5.2c.1.1.2.3.2.5s-.1.4-.2.5c-.1.1-.3.2-.5.2s-.4-.1-.5-.2c-.1-.1-.2-.3-.2-.5s.1-.4.2-.5zm.3.6c.2 0 .2.1.3.2l.1.2h.2l-.1-.3c-.1-.1-.1-.2-.2-.2.1 0 .1 0 .2-.1 0 0 .1-.1.1-.2s0-.1-.1-.2-.2-.1-.3-.1h-.3v1h.1v-.3zm0-.5H46.7v.1c0 .1-.1.2-.2.2h-.2l.1-.3zm-23.2.4v-.8c0 .2.1.3.1.4l1.4 3h.2l1.4-3.1c0-.1.1-.2.1-.4v3.5h.5v-4h-.6l-1.2 2.8c0 .1-.1.3-.2.5 0-.1-.1-.3-.2-.5l-1.2-2.8h-.6v4h.4l-.1-2.6zm4.6 0h.4v2.5h-.4V5.1zm.2-.9c.1 0 .2 0 .2-.1.1-.1.1-.1.1-.2s0-.2-.1-.2c-.1-.1-.1-.1-.2-.1s-.2 0-.2.1c-.1.1-.1.1-.1.2s0 .2.1.2c0 0 .1.1.2.1zm3 3.4v-.4c-.2.2-.5.2-.7.2-.3 0-.5-.1-.7-.3-.2-.2-.3-.5-.3-.8 0-.3.1-.6.3-.8.2-.2.4-.3.7-.3.2 0 .5.1.7.2v-.5c-.2-.1-.4-.1-.7-.1-.5 0-.8.1-1.1.4-.3.3-.4.7-.4 1.1 0 .4.1.8.4 1 .3.3.6.4 1 .4.3.1.6 0 .8-.1zm1.2-1.3c0-.3.1-.6.2-.8.1-.2.3-.2.5-.2s.3 0 .3.1v-.5h-.3c-.2 0-.3.1-.4.2-.1.1-.2.3-.3.5V5h-.5v2.8h.5V6.3zm2.6 1.5c.4 0 .8-.1 1-.4.3-.3.4-.6.4-1.1 0-.5-.1-.8-.4-1.1-.2-.3-.6-.4-1-.4s-.8.1-1 .4c-.3.3-.4.7-.4 1.1 0 .4.1.8.4 1 .2.4.5.5 1 .5zm-.7-2.3c.2-.2.4-.3.7-.3.3 0 .5.1.7.3.2.2.2.5.2.8 0 .3-.1.6-.2.8-.2.2-.4.3-.7.3-.3 0-.5-.1-.7-.3-.2-.2-.3-.5-.3-.8.1-.3.1-.6.3-.8zm4.1 2c.2-.2.3-.3.3-.6 0-.2-.1-.4-.2-.5-.1-.1-.3-.2-.5-.3l-.4-.2c-.1-.1-.1-.2-.1-.3 0-.1 0-.2.1-.3.1-.1.2-.1.4-.1s.5.1.6.2v-.5c-.2-.1-.4-.1-.6-.1-.3 0-.5.1-.7.2-.2.2-.3.4-.3.6 0 .2.1.4.2.5.1.1.3.2.5.3.2.1.4.2.5.3.1.1.1.2.1.3 0 .3-.2.4-.5.4s-.5-.1-.7-.3v.5c.2.1.4.2.7.2.1 0 .4-.1.6-.3zm2.1-2.7c-.4 0-.8.1-1 .4-.3.3-.4.7-.4 1.1 0 .4.1.8.4 1 .3.3.6.4 1 .4s.8-.1 1-.4c.3-.3.4-.6.4-1.1 0-.5-.1-.8-.4-1.1-.2-.1-.6-.3-1-.3zm.9 1.5c0 .3-.1.6-.2.8-.2.2-.4.3-.7.3-.3 0-.5-.1-.7-.3-.2-.2-.3-.5-.3-.8 0-.4.1-.6.3-.8.2-.2.4-.3.7-.3.3 0 .5.1.7.3.1.2.2.5.2.8zm1.2 1.4h.5V5.2h.7v-.4h-.7v-.4c0-.4.2-.6.5-.6.1 0 .2 0 .3.1v-.4h-.3c-.2 0-.4.1-.6.2-.2.2-.3.4-.3.7v.5H42v.4h.5l-.1 2.4zm1.9-.7c0 .6.2.8.7.8.2 0 .3 0 .4-.1v-.4c-.1.1-.2.1-.3.1-.2 0-.3 0-.3-.1-.1-.1-.1-.2-.1-.4V5.3h.7v-.4h-.7v-.8c-.2.1-.3.1-.5.1v.7h-.5v.4h.5l.1 1.7zM93 12.2c-.2-.1-.3-.2-.6-.2-.2 0-.4.1-.6.2-.2.2-.2.3-.2.6 0 .2.1.4.2.6.2.1.3.2.6.2.2 0 .4-.1.6-.2.2-.2.2-.3.2-.6.1-.3 0-.5-.2-.6zm-.1 1.1c-.1.1-.3.2-.5.2s-.4-.1-.5-.2c-.1-.1-.2-.3-.2-.5s.1-.4.2-.5c.1-.1.3-.2.5-.2s.4.1.5.2c.1.1.2.3.2.5.1.2 0 .3-.2.5zm-.4-.5c.1 0 .1-.1.2-.1 0 0 .1-.1.1-.2s0-.1-.1-.2-.2-.1-.3-.1h-.3v1h.1v-.4h.1c.1 0 .1.1.2.2l.1.2h.2l-.1-.3c-.1 0-.1-.1-.2-.1zm-.1-.1h-.2v-.3H92.5v.1c.1.1.1.2-.1.2zm-.7-1.4h.1v-1h.3v-.1h-.8v.1h.3v1h.1zm.8-.8v-.2.1l.4.9h.1l.4-.9v-.1 1h.1v-1.1h-.2l-.4.8s0 .1-.1.1c0 0 0-.1-.1-.1l-.4-.8h-.2v1.1h.1l.3-.8z"/>
    </g>
</svg>
