<svg xmlns="http://www.w3.org/2000/svg" width="129" height="129" viewBox="0 0 129 129">
    <g fill="none" fill-rule="evenodd" transform="translate(1 1)">
        <circle cx="63.5" cy="63.5" r="63.5" stroke="#979797"/>
        <path stroke="#3D3F44" d="M68.91 92.768h23.564"/>
        <path fill="#3D3F44" fill-rule="nonzero" d="M95.017 92.898l-3 2.782v-5.59z"/>
        <path stroke="#3D3F44" d="M41.776 66.244c1.585-11.554 11.466-20.418 23.46-20.418 13.053 0 23.674 10.552 23.674 23.637C88.91 82.495 78.34 93.1 65.237 93.1H34.484"/>
        <path fill="#3D3F44" fill-rule="nonzero" d="M53.606 36.692l-.323-4.195-3.878 4.195z"/>
        <path stroke="#3D3F44" d="M52.185 35.22c-1.532-1.899-3.699-3.27-6.235-3.85-5.971-1.32-11.89 2.48-13.21 8.441-1.321 5.962 2.483 11.871 8.454 13.19a11.1 11.1 0 0 0 9.565-2.391M41.617 68.197c0 .422-.053.844-.053 1.266 0 6.49 2.642 12.399 6.922 16.672"/>
        <path fill="#3D3F44" fill-rule="nonzero" d="M49.405 86.63l-4.201-.027 3.954-4.167z"/>
        <g>
            <g fill-rule="nonzero" stroke="#3D3F44" transform="translate(61.558 54.045)">
                <ellipse cx="3.75" cy="2.665" rx="2.034" ry="2.284"/>
                <path d="M0 6.282l2.224-1.269h2.924l2.351 1.27v2.03H0z"/>
            </g>
            <g fill-rule="nonzero" stroke="#3D3F44" transform="translate(53.296 69.91)">
                <ellipse cx="4.131" cy="2.856" rx="2.034" ry="2.284"/>
                <path d="M.381 6.473L2.542 5.14H5.53l2.352 1.333V8.44H.38z"/>
            </g>
            <g fill-rule="nonzero" stroke="#3D3F44" transform="translate(69.184 69.91)">
                <ellipse cx="4.195" cy="2.856" rx="2.034" ry="2.284"/>
                <path d="M.445 6.473l2.16-1.333h2.988l2.351 1.333V8.44h-7.5z"/>
            </g>
            <path stroke="#D64127" d="M66.706 65.722c-.445-.19-.89-.318-1.399-.318a3.415 3.415 0 0 0-3.431 3.427 3.415 3.415 0 0 0 3.431 3.427 3.415 3.415 0 0 0 3.432-3.427"/>
            <path stroke="#D64127" d="M63.782 68.323l1.525 1.587 3.051-3.173"/>
        </g>
    </g>
</svg>
