<svg xmlns="http://www.w3.org/2000/svg" width="134" height="35" viewBox="0 0 134 35">
    <g fill="#FFF" fill-rule="nonzero">
        <path d="M12.3 18.6H7.9l2.4-7.8 2 7.8zm-6.8 8.7L7 22.1h6l1.4 5.2h5.5L14.4 7.6c-.3-1.2-1-1.7-2.2-1.7H4.4v1.8h.7c.8 0 1.3.3 1.3 1 0 .4-.1.8-.4 1.7L.5 27.3h5zM26.8 27.3V7.6c0-1-.6-1.6-1.6-1.6h-4.8v1.8h.3c.8 0 1.2.4 1.2 1.2v18.4h4.9v-.1zM35.4 27.3V7.6c0-1-.6-1.6-1.6-1.6H29v1.8h.3c.8 0 1.2.4 1.2 1.2v18.4h4.9v-.1zM44 7.9c0-1.4-1-2.3-2.8-2.3-1.7 0-2.8.9-2.8 2.3s1 2.3 2.8 2.3c1.8-.1 2.8-.9 2.8-2.3zm0 19.4V12.8c0-1-.6-1.7-1.6-1.7h-4.7V13h.3c.8 0 1.2.4 1.2 1.2v13H44v.1zM55 19.6v3.1c-.8.9-1.9 1.4-2.7 1.4-.9 0-1.2-.4-1.2-1.6 0-1.2.3-1.7 1.1-2.1.6-.3 1.5-.5 2.8-.8zm-6.7-3.7c1.6-.8 3.4-1.2 4.8-1.2 1.3 0 1.8.5 1.8 1.9v.4c-2 .3-2.6.4-3.7.7-.7.2-1.2.3-1.8.6-2 .8-2.9 2.4-2.9 4.8 0 3 1.3 4.5 3.9 4.5 1 0 1.8-.2 2.6-.5.7-.3 1.1-.6 2.1-1.4v.2c0 1 .5 1.5 1.5 1.5h4.6v-1.8H61c-.8 0-1.2-.4-1.2-1.3v-7.6c0-4.1-1.4-5.5-5.4-5.5-1.3 0-2.6.2-3.8.5-1.2.3-1.9.5-3.3 1.3l1 2.9zM68.7 27.3V16.4c.9-.9 1.8-1.4 2.8-1.4 1.1 0 1.4.4 1.4 2v10.2h4.9v-11c0-2.6-.2-3.4-1-4.2-.7-.7-1.7-1.1-3-1.1-2 0-3.3.6-5.2 2.5v-.7c0-1.1-.5-1.6-1.5-1.6h-4.6V13h.3c.8 0 1.2.4 1.2 1.2v13h4.7v.1zM92.7 24h-6.9l6.6-9.3v-3.3H82c-1.2 0-1.7.5-1.7 1.7V16h1.9v-.3c0-.7.4-1.1 1.2-1.1h3.5L80.3 24v3.2h12.4V24zM119 26.3V8.5c0-1.4-.5-1.9-1.8-1.9h-4v1.9H113.8c.2 0 .3.1.4.2.2.2.2.4.2.9v16.6h4.6v.1zm2.3 0h4.5V12.8c0-1.4-.5-1.9-1.9-1.9h-2.7v15.4h.1zm-8.8 0V10.9h-2.7c-1.3 0-1.9.5-1.9 1.9v13.5h4.6zm17.9-9.1c0 8.1-5.8 13.9-13.6 13.9-7.9 0-13.6-5.9-13.6-13.9s5.7-13.9 13.6-13.9c7.8 0 13.6 5.9 13.6 13.9zm3.2 0c0-9.8-7.2-17.2-16.8-17.2-9.6 0-16.9 7.3-16.9 17.2 0 9.9 7.2 17.2 16.9 17.2 9.6 0 16.8-7.3 16.8-17.2z"/>
    </g>
</svg>
