<svg xmlns="http://www.w3.org/2000/svg" width="105" height="37" viewBox="0 0 105 37">
    <g fill="none" fill-rule="nonzero">
        <path fill="#9F9F9F" d="M29.05 12.799l-6.067-1.906V2.62l6.068 1.696V12.8M30.64 4.303l6.067-1.696-.026 8.274-6.042 1.918V4.303M35.47 1.709L29.82.061 24.233 1.71l5.586 1.414 5.651-1.414M44.338 12.799l-6.068-1.906V2.62l6.068 1.696V12.8M45.926 4.303l6.068-1.696-.026 8.274-6.042 1.918V4.303M50.757 1.709L45.107.061 39.52 1.71l5.586 1.414 5.651-1.414M6.133 16.401L.065 14.705v8.274l6.068 1.906V16.4M7.709 16.401l6.068-1.696-.026 8.274-6.042 1.918v-8.496M12.54 13.807L6.888 12.16l-5.586 1.647 5.586 1.414 5.652-1.414M21.407 24.897l-6.068-1.906v-8.274l6.068 1.697v8.483M22.996 16.401l6.068-1.696-.026 8.274-6.042 1.918v-8.496M27.827 13.807l-5.652-1.647-5.586 1.647 5.586 1.414 5.652-1.414M13.777 36.995L7.709 35.09v-8.275l6.068 1.697v8.483M15.352 28.5l6.068-1.697-.026 8.274-6.042 1.918V28.5M20.183 25.905l-5.651-1.647-5.586 1.647 5.586 1.414 5.651-1.414"/>
        <path fill="#0F0F0F" d="M40.614 29.68h-.443c-.17 0-.378.098-.43.27l-1.354 4.5-1.341-4.487a.404.404 0 0 0-.378-.283h-.534a.387.387 0 0 0-.364.283L34.52 34.4l-1.29-4.463c-.052-.16-.26-.27-.43-.27h-.637a.452.452 0 0 0-.339.147c-.052.061-.065.135-.039.184l1.992 6.64c.04.135.17.282.365.282h.638c.17 0 .326-.123.365-.282l1.224-4.426 1.328 4.426c.039.135.17.282.351.282h.626a.37.37 0 0 0 .364-.282l1.914-6.64c.026-.061.013-.135-.039-.196-.039-.074-.156-.123-.3-.123M46.135 32.495h-3.373c.078-.897.69-1.82 1.732-1.856 1.107.037 1.615.934 1.64 1.856zm-1.64-2.864c-2.28 0-3.321 1.905-3.321 3.663 0 2.201 1.289 3.627 3.281 3.627 1.432 0 2.513-.676 2.982-1.868a.236.236 0 0 0-.026-.21.377.377 0 0 0-.248-.16l-.638-.11c-.169-.024-.364.074-.43.21-.312.663-.872 1.032-1.575 1.056-.677-.024-1.302-.393-1.575-.97-.235-.468-.26-.923-.274-1.378h4.57a.356.356 0 0 0 .261-.11.255.255 0 0 0 .091-.197c.026-1.721-.807-3.553-3.099-3.553zM53.257 33.307c0 .405-.078 2.434-1.601 2.483a1.75 1.75 0 0 1-1.315-.725c-.209-.32-.339-.762-.365-1.303v-1.193c.026-.91.703-1.918 1.68-1.955 1.536.062 1.601 2.25 1.601 2.693zm-1.354-3.738h-.117c-.755 0-1.354.295-1.81.91v-2.803c0-.16-.17-.295-.365-.295h-.664c-.169 0-.364.123-.364.295v8.741c0 .16.17.308.364.308h.196a.373.373 0 0 0 .351-.27l.209-.616c.481.64 1.198 1.021 1.966 1.021h.117c2.031 0 2.943-1.869 2.943-3.713 0-.922-.235-1.795-.664-2.41a2.632 2.632 0 0 0-2.162-1.168zM61.943 33.11c-.43-.295-.938-.393-1.459-.48l-.99-.172c-.702-.11-1.12-.295-1.12-.885 0-.627.691-.86 1.264-.873.716.013 1.25.32 1.497.836a.39.39 0 0 0 .339.21c.026 0 .052 0 .078-.013l.612-.123a.392.392 0 0 0 .247-.172.236.236 0 0 0 .027-.21c-.378-1.032-1.342-1.585-2.787-1.585-1.315 0-2.708.553-2.708 2.09 0 1.045.703 1.721 2.083 1.98l1.107.196c.612.11 1.224.308 1.224.922 0 .91-1.12 1.008-1.459 1.008-.768-.012-1.627-.331-1.836-1.02-.039-.148-.247-.258-.416-.221l-.651.123a.382.382 0 0 0-.235.16.304.304 0 0 0-.039.209c.339 1.13 1.485 1.807 3.086 1.82h.04c1.432 0 2.955-.579 2.955-2.202 0-.639-.312-1.23-.86-1.598M68.466 32.495h-3.372c.078-.897.69-1.82 1.732-1.856 1.107.037 1.614.946 1.64 1.856zm-1.64-2.864c-2.279 0-3.32 1.905-3.32 3.663 0 2.201 1.288 3.627 3.28 3.627 1.433 0 2.514-.676 2.983-1.868a.236.236 0 0 0-.026-.21.377.377 0 0 0-.248-.16l-.638-.11c-.143-.024-.351.05-.43.21-.312.663-.872 1.032-1.562 1.056-.677-.024-1.302-.393-1.576-.97-.234-.468-.26-.923-.273-1.378h4.57a.356.356 0 0 0 .26-.11.255.255 0 0 0 .092-.197c.013-1.721-.82-3.553-3.112-3.553zM74.287 29.717c-.091-.013-.17-.013-.26-.013-.769 0-1.394.394-1.823 1.144v-.664c0-.16-.17-.295-.365-.295h-.573c-.182 0-.352.135-.352.307v6.406c0 .16.17.307.352.307h.664c.17 0 .365-.123.365-.307v-3.234c0-.528.052-.934.325-1.414.39-.676.925-1.008 1.641-1.008.182 0 .339-.147.339-.32v-.602c.013-.16-.13-.295-.313-.307M81.28 29.581h-.521c-.17 0-.378.111-.43.27l-1.706 5.066-1.745-5.065c-.052-.172-.26-.283-.43-.283h-.755a.431.431 0 0 0-.338.148c-.052.061-.052.123-.04.196l2.384 6.689c.052.135.169.283.364.283h.912c.169 0 .3-.111.364-.283l2.318-6.676c.026-.062.013-.136-.039-.197a.431.431 0 0 0-.339-.148M83.011 27.024c-.481 0-.885.369-.885.836 0 .455.39.836.885.836.482 0 .886-.369.886-.836 0-.467-.39-.836-.886-.836M83.376 29.545h-.716c-.196 0-.378.147-.378.32v6.798c0 .086.04.16.117.222.065.049.157.086.248.086h.729c.195 0 .378-.148.378-.308v-6.799c0-.172-.183-.32-.378-.32M90.121 34.155h-.599a.401.401 0 0 0-.378.258c-.221.898-.716 1.365-1.471 1.377-1.471-.037-1.589-1.98-1.589-2.57 0-1.18.43-2.458 1.641-2.495.73.024 1.263.516 1.42 1.328a.38.38 0 0 0 .351.307h.651c.195-.025.339-.16.339-.332-.235-1.463-1.303-2.397-2.735-2.397h-.104c-2.083 0-3.008 1.832-3.008 3.651 0 1.66.781 3.615 2.995 3.615h.104c1.393 0 2.448-.922 2.748-2.422a.198.198 0 0 0-.079-.197.434.434 0 0 0-.286-.123M96.085 32.495h-3.373c.078-.897.69-1.82 1.732-1.856 1.107.037 1.615.946 1.64 1.856zm-1.64-2.864c-2.28 0-3.321 1.905-3.321 3.663 0 2.201 1.289 3.627 3.281 3.627 1.432 0 2.513-.676 2.982-1.868a.236.236 0 0 0-.026-.21.377.377 0 0 0-.248-.16l-.638-.11c-.143-.024-.351.05-.43.21-.312.663-.872 1.032-1.575 1.056-.677-.024-1.302-.405-1.575-.97-.235-.468-.26-.923-.274-1.378h4.57a.356.356 0 0 0 .261-.11c.052-.062.091-.123.091-.197.026-1.721-.807-3.553-3.099-3.553zM103.312 33.11c-.43-.295-.938-.393-1.459-.48l-.99-.172c-.703-.11-1.12-.295-1.12-.885 0-.811 1.056-.873 1.264-.873.716.013 1.25.32 1.497.836a.39.39 0 0 0 .339.21c.026 0 .052 0 .078-.013l.612-.123a.392.392 0 0 0 .247-.172.236.236 0 0 0 .026-.21c-.377-1.032-1.34-1.585-2.786-1.585-1.315 0-2.709.553-2.709 2.09 0 1.045.704 1.721 2.084 1.98l1.107.196c.612.11 1.224.308 1.224.922 0 .91-1.12 1.008-1.459 1.008-.703-.012-1.614-.295-1.836-1.02-.039-.148-.234-.258-.416-.221l-.638.123a.382.382 0 0 0-.235.16c-.039.061-.052.147-.039.209.326 1.13 1.485 1.807 3.086 1.82h.04c1.432 0 2.955-.579 2.955-2.202a1.96 1.96 0 0 0-.872-1.598M73.961 16.45v-1.549c0-.233.196-.393.417-.393h7.331c.235 0 .417.16.417.393v1.328c0 .222-.195.517-.547.971l-3.802 5.115c1.406-.037 2.904.172 4.18.849.286.147.364.38.39.602v1.647c0 .222-.26.492-.534.357-2.252-1.119-5.247-1.242-7.747.012-.26.123-.521-.135-.521-.356v-1.562c0-.246 0-.676.273-1.057l4.401-5.963h-3.828c-.247-.012-.43-.172-.43-.393M47.216 26.09h-2.227a.422.422 0 0 1-.404-.357V14.926c0-.221.196-.393.43-.393h2.083c.222.012.391.172.404.368v1.414h.04c.546-1.364 1.562-2.004 2.929-2.004 1.393 0 2.266.64 2.89 2.004.548-1.364 1.772-2.004 3.087-2.004.937 0 1.953.37 2.578 1.18.703.91.56 2.226.56 3.394v6.824c0 .22-.195.393-.43.393H56.93c-.22-.012-.403-.184-.403-.393v-5.73c0-.455.039-1.598-.065-2.029-.17-.725-.664-.934-1.315-.934-.547 0-1.107.344-1.329.885-.234.541-.208 1.451-.208 2.066v5.73c0 .22-.195.393-.43.393h-2.226c-.222-.013-.404-.185-.404-.394v-5.73c0-1.204.208-2.975-1.367-2.975-1.602 0-1.537 1.734-1.537 2.976v5.73c0 .22-.195.393-.43.393M88.454 16.512c-1.64 0-1.745 2.115-1.745 3.43 0 1.316-.026 4.144 1.732 4.144 1.732 0 1.81-2.275 1.81-3.664 0-.91-.039-2.004-.338-2.865-.248-.75-.743-1.045-1.459-1.045zm-.013-2.2c3.308 0 5.105 2.68 5.105 6.097 0 3.295-1.98 5.914-5.105 5.914-3.242 0-5.013-2.68-5.013-6.024-.013-3.369 1.784-5.988 5.013-5.988zM97.83 26.09h-2.227c-.221-.013-.404-.185-.404-.394v-10.82c.013-.196.209-.356.43-.356h2.07c.196.013.352.135.391.308v1.66h.04c.624-1.476 1.497-2.19 3.033-2.19 1.003 0 1.98.345 2.604 1.28.586.86.586 2.323.586 3.368v6.8c-.026.196-.208.344-.43.344h-2.239c-.208-.013-.378-.16-.404-.345v-5.864c0-1.18.144-2.914-1.393-2.914-.547 0-1.042.344-1.29.86-.312.664-.35 1.316-.35 2.054v5.815c.012.222-.183.394-.417.394M72.086 24.11c-.403-.528-.846-.959-.846-1.955v-3.282c0-1.39.104-2.668-.977-3.627-.859-.775-2.278-1.045-3.36-1.045-2.122 0-4.492.75-4.986 3.22-.052.259.143.407.338.443l2.162.222c.208-.013.351-.197.39-.381.183-.849.938-1.267 1.797-1.267.456 0 .977.16 1.25.541.313.43.274 1.02.274 1.525v.27c-1.29.135-2.982.234-4.193.726-1.393.565-2.383 1.733-2.383 3.442 0 2.189 1.458 3.283 3.334 3.283 1.588 0 2.448-.357 3.672-1.537.403.553.533.824 1.276 1.402.169.086.377.073.52-.05.443-.368 1.25-1.032 1.706-1.401.196-.11.17-.332.026-.529zm-4.388-.946c-.351.59-.924.958-1.55.958-.859 0-1.354-.614-1.354-1.524 0-1.795 1.706-2.115 3.32-2.115v.455c0 .812.014 1.5-.416 2.226zM42.84 24.11c-.403-.528-.846-.959-.846-1.955v-3.282c0-1.39.104-2.668-.977-3.627-.859-.775-2.278-1.045-3.36-1.045-2.122 0-4.492.75-4.986 3.22-.052.259.156.407.338.443l2.162.222c.208-.013.351-.197.39-.381.183-.849.938-1.267 1.797-1.267.456 0 .977.16 1.25.541.313.43.274 1.02.274 1.525v.27c-1.29.135-2.982.234-4.193.726-1.393.565-2.383 1.733-2.383 3.442 0 2.189 1.458 3.283 3.334 3.283 1.588 0 2.448-.357 3.672-1.537.403.553.533.824 1.276 1.402.169.086.377.073.534-.05.442-.368 1.25-1.032 1.705-1.401.196-.11.157-.332.013-.529zm-4.388-.946c-.351.59-.924.958-1.55.958-.859 0-1.354-.614-1.354-1.524 0-1.795 1.706-2.115 3.32-2.115v.455c0 .812.027 1.5-.416 2.226z"/>
    </g>
</svg>
