<svg xmlns="http://www.w3.org/2000/svg" width="129" height="129" viewBox="0 0 129 129">
    <g fill="none" fill-rule="evenodd" transform="translate(1 1)">
        <circle cx="63.5" cy="63.5" r="63.5" stroke="#979797"/>
        <path stroke="#3D3F44" d="M82.968 48.127c.234-.938.352-1.994.352-3.05 0-7.508-6.1-13.49-13.492-13.49-5.514 0-10.324 3.402-12.436 8.094-1.643-1.29-3.872-2.112-6.1-2.112-5.515 0-9.856 4.458-9.856 9.854 0 .47 0 .939.117 1.408-3.52 1.994-5.983 5.748-5.983 10.089 0 6.334 5.045 11.379 11.38 11.496h32.146c6.336 0 11.498-5.162 11.498-11.496 0-4.927-3.168-9.15-7.626-10.793z"/>
        <path stroke="#D64127" d="M29.587 75.46h22.526v15.367H29.587zM74.051 75.46h22.526v15.367H74.051z"/>
        <path stroke="#3D3F44" d="M58.682 70.533v13.021h-6.687M67.364 70.533v13.021h6.687M36.626 94.347h8.447M80.973 94.347h8.448M40.732 94.816v-3.988M84.141 94.816v-3.988"/>
    </g>
</svg>
