<svg xmlns="http://www.w3.org/2000/svg" width="115" height="32" viewBox="0 0 115 32">
    <g fill="none" fill-rule="nonzero">
        <path fill="#959595" d="M16.292 9.695v17.968l-1.917 1.034-1.917-1.034V9.695l-4.791 2.844V27.92l6.708 3.878 6.845-3.878V12.54l-4.928-2.844zM14.375.259L.274 8.402v15.383l3.696 2.068V10.471l10.542-6.076 10.542 6.076v15.382l3.696-2.068V8.402L14.375.26z"/>
        <path fill="#C2C2C2" d="M28.613 8.402L14.375.26.274 8.402l3.696 2.069 10.542-6.076 10.542 6.076 3.56-2.069zM16.292 9.695v5.688l4.928-2.844-4.928-2.844zm-8.625 2.844l4.791 2.844V9.695l-4.791 2.844z"/>
        <path fill="#131313" d="M50.244 23.139l-.958-11.764-4.929 11.893h-1.643l-4.928-11.893-.959 11.764h-2.053l1.232-14.737h2.601l4.929 12.151 4.928-12.15h2.601l1.233 14.736h-2.054zm10.268-5.171c-3.97.388-4.792 1.422-4.792 2.456 0 .776.548 1.422 1.643 1.422 1.232 0 2.327-.517 3.286-1.422v-2.456h-.137zm.41 5.17l-.273-1.421c-.822.775-2.054 1.55-3.834 1.55-1.916 0-3.148-1.162-3.148-2.843 0-2.585 2.327-3.62 6.845-4.007v-.388c0-1.293-.822-1.68-2.054-1.68-1.369 0-2.6.387-3.696.904l-.274-1.68c1.232-.517 2.464-.905 4.244-.905 2.601 0 3.97 1.034 3.97 3.232v7.11l-1.78.129zm7.667-9.048c-1.369 0-2.19 1.034-2.19 2.198 0 1.163.821 2.068 2.19 2.068 1.37 0 2.19-.905 2.19-2.198 0-1.034-.82-2.068-2.19-2.068zm-3.012 10.212c0 .776 1.096 1.422 3.286 1.422 2.054 0 3.286-.646 3.286-1.551 0-.647-.548-1.034-2.054-1.293l-1.232-.258c-.548-.13-.958-.13-1.369-.259-1.369.646-1.917 1.293-1.917 1.939zm8.488-11.505l.274 1.68-2.053.13c.274.517.41 1.034.41 1.551 0 2.198-1.916 3.49-4.107 3.49h-.821c-.274.13-.548.388-.548.647 0 .388.411.388 2.328.775l.821.13c2.327.387 3.696 1.034 3.696 2.714 0 2.198-2.464 3.103-5.339 3.103-2.875 0-5.065-.776-5.065-2.586 0-1.034.821-1.81 2.327-2.585-.41-.259-.684-.646-.684-1.034 0-.517.41-1.034 1.095-1.422a3.308 3.308 0 0 1-2.054-3.102c0-2.198 1.917-3.62 4.107-3.62 1.096 0 2.054.259 2.738.905l2.875-.776zm5.066 1.422c-1.232 0-2.327.776-2.601 2.586h5.202c-.274-1.552-1.095-2.586-2.601-2.586zm4.655 4.008h-7.393c0 2.326 1.232 3.49 3.149 3.49 1.506 0 2.738-.517 3.833-1.422l.274 1.68c-1.095.905-2.601 1.422-4.381 1.422-2.875 0-5.066-1.551-5.066-5.3 0-3.231 2.054-5.3 4.792-5.3 3.149 0 4.655 2.327 4.655 5.171l.137.259zm8.488 4.912v-6.98c0-1.035-.41-1.81-1.643-1.81-1.095 0-2.19.646-3.149 1.68v7.11H85.43V12.927h1.642l.274 1.422c.959-.905 2.328-1.68 3.834-1.68 2.053 0 3.148 1.162 3.148 2.972v7.498h-2.053zm7.94.258c-1.916 0-3.149-.646-3.149-2.714v-6.076h-1.642v-1.551h1.642V9.695l1.917-.259v3.75h2.328l.273 1.55h-2.6v5.688c0 .776.41 1.293 1.505 1.293h.958l.274 1.68c-.274-.13-.821 0-1.506 0zm6.709-9.048c-1.917 0-2.875 1.55-2.875 3.748 0 2.069.958 3.749 2.875 3.749 2.053 0 3.012-1.551 3.012-3.749 0-2.068-1.096-3.748-3.012-3.748zm0 9.048c-2.875 0-4.929-1.939-4.929-5.3 0-3.36 2.054-5.3 4.929-5.3 2.875 0 5.065 1.94 5.065 5.3 0 3.361-2.19 5.3-5.065 5.3zm6.434-10.729h-.274v.388h.137c.137 0 .274-.13.274-.259.137-.129.137-.129-.137-.129zm.41 1.163l-.41-.646h-.137v.646h-.274V12.41h.411c.274 0 .548.129.548.387 0 .259-.137.388-.274.388l.41.646h-.273zm-.41-1.81c-.684 0-1.232.389-1.232 1.164 0 .776.548 1.164 1.232 1.164.685 0 1.232-.388 1.232-1.164 0-.775-.547-1.163-1.232-1.163zm0 2.457c-.821 0-1.369-.517-1.369-1.293 0-.775.548-1.293 1.37-1.293.82 0 1.368.518 1.368 1.293.137.776-.547 1.293-1.369 1.293z"/>
    </g>
</svg>
