<svg xmlns="http://www.w3.org/2000/svg" width="58" height="78" viewBox="0 0 58 78">
    <g fill="none" fill-rule="nonzero">
        <path fill="#3969B2" d="M19.452 60.432l2.093-1.233-2.34.616c-3.447.987-3.939 2.097-3.939 2.96.246 2.22 5.91 3.947 12.434 3.947 3.448 0 8.495-.494 13.666-2.714l.739-.246-.739-.247c-2.34-.987-4.186-1.973-4.186-1.973l-.123-.123h-.123c-4.186.74-6.771 1.11-9.48 1.11-1.723 0-3.57-.124-6.155-.37-2.34-.247-2.586-.74-2.586-.864 0-.37.37-.74.739-.863zM43.705 55.622l-.862-.37c-1.846-.617-2.954-1.85-3.077-1.85l-.124-.123h-.123c-5.047.986-8.987 1.356-12.927 1.356-2.216 0-4.432-.123-7.386-.493-1.97-.247-2.463-.74-2.463-.987-.123-.493.616-1.233.862-1.48l1.478-1.11-1.847.617c-3.078.987-4.555 2.097-4.31 3.33.37 2.097 5.787 3.453 13.297 3.453 5.54 0 11.45-.863 16.497-2.343h.985z"/>
        <path fill="#F3492C" d="M29.547 27.75c-.985 3.083 0 6.536 3.078 9.99.985 1.11 1.477 2.342 1.354 3.576-.246 2.343-2.216 4.07-2.216 4.07l-2.216 1.85 2.586-1.357c.246-.123 5.293-2.713 6.155-6.66.37-1.603 0-3.207-.985-4.687l-.492-.74c-1.6-2.343-2.955-4.07-2.462-6.166.615-2.837 4.432-6.043 12.434-10.73l1.847-1.11-2.093.494c-.739.246-14.65 3.7-16.99 11.47z"/>
        <path fill="#3969B2" d="M25.73 74.122c16.375 0 27.947-3.084 28.563-6.044.123-.493-.123-1.356-1.6-2.096l-2.093-.987 1.723 1.48s.493.37.37.863c-.124.37-.493 1.11-2.709 1.727-4.309 1.48-14.158 2.467-23.884 2.467-9.11 0-16.128-.74-19.206-2.097-.369-.123-.615-.37-.615-.493.123-.617 2.708-1.727 4.555-2.097 1.231-.247 1.97-.247 2.34-.247h.122l1.108.124-.862-.864c-.492-.37-1.23-.493-2.216-.493-3.57 0-10.341 2.467-10.587 4.687-.123 1.11 1.23 1.973 4.062 2.343 7.018 1.11 14.035 1.727 20.93 1.727zM22.653 50.072c7.51 0 14.527-.74 19.575-2.096h.123c1.477-.987 3.447-1.85 3.447-1.85l2.462-1.11-2.708.616s-5.786.987-11.45 1.48c-3.94.37-8.125.494-11.695.494-2.709 0-5.048-.124-6.525-.37-2.709-.37-2.709-.864-2.709-.864 0-.74 3.94-2.096 7.633-3.083l1.97-.493-1.97-.124h-.492c-1.724 0-6.28.247-11.573 2.837-.492.247-1.724.863-1.6 1.727.246 2.22 8.494 2.836 15.512 2.836z"/>
        <path fill="#3969B2" d="M46.783 43.659l-.492.863.861-.37s.493-.246 1.6-.37c.247 0 .493-.123.863-.123 1.723 0 3.816 1.11 4.309 3.207.369 1.48.246 5.426-8.372 9.866h-.123v.123c0 .124-.123.247-.246.247l-.985.863 1.23-.37c9.727-2.59 12.805-7.153 12.312-10.606-.37-2.96-3.078-5.057-6.525-5.057-.985 0-1.97.124-2.955.494-.985.493-1.477 1.233-1.477 1.233z"/>
        <path fill="#F3492C" d="M29.178 43.166l1.108.986-.616-1.356c-.615-1.48-1.723-2.96-2.708-4.317-3.324-4.81-6.771-9.62 2.585-17.02 6.156-4.81 9.357-9.62 9.603-14.183.246-4.07-1.97-6.29-2.093-6.413L36.318 0l.247 1.11c2.093 8.263-3.57 12.703-9.11 17.02-2.71 2.22-5.54 4.44-7.388 7.03-3.693 5.673 2.216 11.716 9.11 18.006z"/>
        <path fill="#3969B2" d="M57.125 70.052s-1.232 2.343-11.08 4.193c-5.664 1.11-12.312 1.603-19.206 1.603-5.664 0-11.204-.37-15.39-1.11l-1.107-.246.984.74c.247.123 2.216 1.48 10.957 2.096 2.463.123 5.171.247 7.757.247 13.173 0 27.454-1.974 27.823-7.523l.123-1.727-.861 1.727z"/>
    </g>
</svg>
