<svg xmlns="http://www.w3.org/2000/svg" width="129" height="129" viewBox="0 0 129 129">
    <g fill="none" fill-rule="evenodd" transform="translate(1 1)">
        <circle cx="63.5" cy="63.5" r="63.5" stroke="#979797"/>
        <g transform="translate(31 31)">
            <path stroke="#3D3F44" d="M34.998 42.446H0V.567h56.29v22.359M.227 7.945h56.29"/>
            <ellipse cx="3.851" cy="4.313" stroke="#3D3F44" rx="1.359" ry="1.362"/>
            <ellipse cx="7.928" cy="4.313" stroke="#3D3F44" rx="1.359" ry="1.362"/>
            <ellipse cx="11.892" cy="4.313" stroke="#3D3F44" rx="1.359" ry="1.362"/>
            <path stroke="#3D3F44" d="M6.57 15.889h26.616M6.57 19.294h19.82"/>
            <path stroke="#D64127" d="M65.352 33.14l-2.492-5.22-3.964 1.588c-.68-.794-1.473-1.475-2.265-2.043l1.132-3.972-5.436-1.93-1.586 3.86c-1.02-.114-2.039 0-3.058.226l-2.039-3.631-5.21 2.497 1.586 3.858c-.793.681-1.472 1.476-2.039 2.27l-3.964-1.135-1.925 5.448 3.85 1.589c-.113 1.021 0 2.043.227 3.064l-3.624 2.043 2.491 5.22 3.851-1.588c.68.794 1.473 1.475 2.266 2.043l-1.133 3.972 5.436 1.93 1.586-3.86c1.02.114 2.039 0 3.058-.227l2.039 3.632 5.21-2.497-1.586-3.858c.793-.681 1.473-1.476 2.039-2.27l3.964 1.135 1.925-5.448-3.85-1.589c.113-1.021 0-2.043-.227-3.064l3.738-2.043zM53.006 43.695c-3.51 1.702-7.702.227-9.4-3.291a7.047 7.047 0 0 1 3.284-9.42c3.511-1.703 7.702-.227 9.4 3.29a7.047 7.047 0 0 1-3.284 9.42z"/>
            <path stroke="#3D3F44" d="M35.195 48.514l-2.718-2.156-1.586 1.702c-.566-.227-1.246-.454-1.812-.454l-.453-2.27-3.511.454.113 2.27c-.566.227-1.133.567-1.699.908l-1.925-1.249-2.152 2.724 1.698 1.59c-.226.567-.453 1.248-.453 1.815l-2.265.454.453 3.518 2.265-.113c.227.567.567 1.135.907 1.702l-1.246 1.93 2.718 2.156 1.586-1.702c.566.227 1.245.454 1.812.454l.453 2.27 3.51-.455-.112-2.27c.566-.226 1.132-.567 1.699-.907l1.925 1.248 2.152-2.724-1.699-1.589c.227-.567.453-1.248.453-1.816l2.265-.454-.453-3.518-2.265.114c-.226-.568-.566-1.135-.906-1.703l1.246-1.93zm-4.53 8.398c-1.133 1.476-3.285 1.703-4.758.568-1.472-1.135-1.698-3.291-.566-4.767 1.133-1.475 3.285-1.702 4.757-.567 1.473 1.248 1.699 3.291.566 4.766z"/>
        </g>
    </g>
</svg>
