<svg xmlns="http://www.w3.org/2000/svg" width="76" height="40" viewBox="0 0 76 40">
    <g fill="none" fill-rule="evenodd" opacity=".8">
        <path fill="#313131" d="M.9 35.6h2.5v-9.8l3.8 8.5c.4 1 1.1 1.4 2.3 1.4 1.2 0 1.8-.4 2.3-1.4l3.8-8.5v9.8h2.5v-9.8c0-.9-.4-1.4-1.2-1.6-1.9-.6-3.1-.1-3.7 1.2l-3.8 8.4-3.6-8.4c-.5-1.3-1.8-1.8-3.7-1.2-.8.2-1.2.7-1.2 1.6v9.8zM20 27.6h2.5V33c0 .3.1 1 1.4 1h5.4v-6.4h2.5v8.8c0 2.2-2.7 2.6-3.9 2.7h-7.8v-1.6h7.8c1.6-.2 1.4-1 1.4-1.2v-.6h-5.2c-2.4 0-4-1.1-4-2.3-.1-.4 0-5.7-.1-5.8zM73.3 21.4c-1.5 0-2.7.1-3.7.5-.3.1-.7.1-.8.5.2.2.2.4.3.6.2.4.6.9 1 1.2l1.2.9c.7.5 1.6.7 2.3 1.2.4.3.8.6 1.3.9.2.2.3.4.6.5v-.1l-.3-.6c-.2-.2-.4-.4-.6-.5-.5-.7-1.2-1.4-2-1.9-.6-.4-1.9-1-2.2-1.7.4 0 .9-.2 1.3-.3.6-.2 1.2-.1 1.9-.3l.9-.3v-.2c-.3-.3-.6-.8-.9-1.1-1-.8-2-1.6-3.1-2.3-.6-.4-1.3-.6-2-.9-.2-.1-.6-.2-.7-.4-.3-.4-.5-1-.8-1.5-.5-1-1.1-2.2-1.6-3.3-.3-.7-.5-1.5-1-2.2-2-3.2-4.1-5.2-7.3-7.1-.7-.4-1.5-.6-2.4-.8-.5 0-.9-.1-1.4-.1-.3-.1-.6-.5-.9-.7-1.1-.7-3.9-2.2-4.7-.2-.5 1.2.8 2.4 1.2 3.1.3.4.7.9 1 1.4.1.3.2.7.3 1 .3.8.6 1.8 1 2.5.2.4.4.8.7 1.2.2.2.4.3.5.6-.3.4-.3.9-.4 1.4-.7 2.1-.4 4.8.5 6.4.3.5 1 1.5 2 1.1.9-.3.7-1.4.9-2.4.1-.2 0-.4.1-.5.3.5.5 1 .8 1.6.6.9 1.6 1.9 2.5 2.5.5.3.8.9 1.4 1.1v-.1c-.1-.2-.3-.2-.4-.4-.3-.3-.7-.8-1-1.1-.8-1.1-1.5-2.2-2.1-3.4-.3-.6-.6-1.2-.8-1.8-.1-.2-.1-.6-.3-.7-.3.4-.7.8-.9 1.3-.4.8-.4 1.8-.5 2.9h-.1c-.6-.2-.8-.8-1-1.3-.6-1.3-.7-3.5-.2-5.1.1-.4.7-1.6.5-2-.1-.4-.5-.6-.7-.9-.2-.4-.5-.8-.7-1.2-.5-1.1-.7-2.2-1.2-3.3-.2-.5-.6-1-.9-1.5-.4-.5-.8-.9-1-1.5-.1-.2-.2-.5-.1-.8 0-.2.1-.2.3-.2.2-.2.9.1 1.2.2.7.3 1.3.5 1.9.9.3.2.5.5.9.6h.4c.6.1 1.3 0 1.9.2 1 .3 1.9.8 2.7 1.3 2.5 1.6 4.5 3.8 5.9 6.5.2.4.3.8.5 1.3.4.9.9 1.9 1.3 2.8.4.9.8 1.8 1.3 2.5.3.4 1.4.6 1.9.8.4.2 1 .3 1.3.5.6.4 1.3.9 1.9 1.3.1.6 1 1 1.1 1.4z"/>
        <path fill="#313131" d="M54 4.9c-.3 0-.5 0-.8.1.2.3.4.5.6.8.2.3.3.6.4.9.3-.2.4-.5.4-.9-.1-.1-.1-.3-.2-.4 0-.2-.3-.3-.4-.5z"/>
        <path fill="#858585" d="M33.7 35.6h7.1c.8 0 1.6-.2 2.3-.5 1.1-.5 1.6-1.2 1.6-2v-1.8c0-.7-.6-1.4-1.8-1.8-.6-.2-1.4-.4-2.1-.4h-3c-1 0-1.5-.3-1.6-1v-1.5c.1-.5.4-.6 1.3-.7h7.3v-1.6h-6.9c-1 0-1.5.1-2 .2-1.5.5-2.1 1.2-2.1 2.4v1.4c0 1.1 1.3 2.1 3.4 2.3H40.8c.8.1 1.1.2 1.3.5.2.2.2.3.2.5V33c0 .2-.1.4-.3.6-.2.2-.6.3-1.1.3h-7v1.7h-.2zM60.1 32.7c0 1.7 1.3 2.6 3.8 2.8H71v-1.6h-6.5c-1.4 0-2-.4-2-1.2v-8.5H60v8.5h.1zM46.3 32.8v-5.9c0-1.5 1.1-2.4 3.1-2.7H55.5c2.1.3 3.1 1.2 3.1 2.7v5.9c0 1.2-.4 1.9-1.5 2.3l2.4 2.2h-2.9l-2-1.8-2 .1h-2.7c-.4 0-.9-.1-1.4-.2-1.4-.4-2.2-1.3-2.2-2.6zm2.7-.2c0 .1 0 .2.1.2.1.7.8 1.1 1.8 1.1h2.2l-2-1.9H54l1.8 1.6c.3-.2.5-.5.6-.8v-6c-.1-.6-.8-1-1.7-1H51c-1.1 0-1.8.5-1.8 1.2v5.6H49zM72.2 35.6h.4v-1.4h.5v-.3h-1.3v.3h.5v1.4h-.1zm2.8 0h.3v-1.7h-.5l-.4 1.1-.5-1.1h-.5v1.7h.3v-1.3l.5 1.3h.2l.5-1.3v1.3h.1z"/>
    </g>
</svg>
