<svg xmlns="http://www.w3.org/2000/svg" width="697" height="388" viewBox="0 0 697 388">
    <defs>
        <linearGradient id="a" x1="50%" x2="50%" y1="0%" y2="100%">
            <stop offset="0%" stop-color="#CF533B"/>
            <stop offset="100%" stop-color="#A5A5A5"/>
        </linearGradient>
    </defs>
    <g fill="none" fill-rule="evenodd" transform="translate(-1)">
        <g stroke="#3F3F3F" stroke-width=".75" transform="translate(597 19)">
            <path d="M.6.3h35.8v27.9H.6zM23.1 14.2v5.4M26 9v10.6M29 11.8v7.8M31.9 12.9v6.7M4.4.3v27.9M2.5 13.7v1.5"/>
            <circle cx="13.6" cy="14.5" r="5.4"/>
            <path d="M18.5 16.9l-4.9-2.4V9.1"/>
        </g>
        <g fill="#000">
            <path d="M584.519 81.805v4.977h-.797V75.36h2.719c1.417 0 2.463.262 3.14.785.678.523 1.016 1.311 1.016 2.363 0 .766-.202 1.412-.605 1.938-.404.526-1.017.903-1.84 1.133l3.101 5.203h-.953l-2.945-4.977h-2.836zm0-.687h2.18c.963 0 1.71-.215 2.242-.645.531-.43.797-1.064.797-1.902 0-.87-.26-1.503-.781-1.899-.521-.396-1.37-.593-2.547-.593h-1.891v5.039zm11.945 5.82c-1.234 0-2.196-.38-2.886-1.14-.69-.761-1.036-1.826-1.036-3.196 0-1.354.334-2.439 1-3.254.667-.815 1.566-1.223 2.696-1.223 1 0 1.789.35 2.367 1.047.578.698.867 1.646.867 2.844v.625h-6.117c.01 1.167.283 2.057.816 2.672.534.615 1.299.922 2.293.922.485 0 .91-.034 1.278-.102.367-.067.832-.213 1.394-.437v.703a6.22 6.22 0 0 1-1.328.426 7.371 7.371 0 0 1-1.344.113zm-.226-8.125c-.818 0-1.474.27-1.969.809-.495.539-.784 1.316-.867 2.332h5.25c0-.985-.214-1.754-.64-2.309-.428-.555-1.019-.832-1.774-.832zm10.734 7.969l-.195-1.344h-.063c-.427.547-.866.934-1.316 1.16-.45.227-.983.34-1.598.34-.833 0-1.481-.214-1.945-.64-.464-.428-.695-1.019-.695-1.774 0-.828.345-1.471 1.035-1.93.69-.458 1.689-.7 2.996-.726l1.617-.047v-.563c0-.807-.164-1.416-.492-1.828-.328-.411-.857-.617-1.586-.617-.786 0-1.602.219-2.445.656l-.29-.672c.933-.437 1.855-.656 2.766-.656.933 0 1.63.242 2.09.727.461.484.691 1.24.691 2.265v5.649h-.57zm-3.125-.547c.906 0 1.621-.26 2.145-.778.523-.518.785-1.238.785-2.16v-.836l-1.485.063c-1.192.057-2.042.243-2.55.558-.508.316-.762.806-.762 1.473 0 .531.163.944.488 1.238.326.295.785.442 1.38.442zm7.219.547h-.774V74.625h.774v12.157zm2.14-4v-.64h3.711v.64h-3.71zm8.094 3.468c.49 0 .917-.041 1.282-.125v.625a4.1 4.1 0 0 1-1.297.188c-.75 0-1.304-.2-1.66-.602-.357-.4-.536-1.03-.536-1.89V78.96h-1.257v-.453l1.257-.351.391-1.922h.398v2.055h2.493v.671h-2.493v5.375c0 .651.115 1.133.344 1.446.23.312.589.468 1.078.468zm3.89.532h-.773V78.29h.774v8.492zm-.882-10.852c0-.5.164-.75.492-.75.162 0 .288.065.38.195.09.13.136.316.136.555 0 .235-.046.42-.137.555a.432.432 0 0 1-.379.203c-.328 0-.492-.253-.492-.758zm14.336 10.852v-5.57c0-.829-.161-1.433-.484-1.813-.323-.38-.818-.57-1.485-.57-.87 0-1.513.24-1.93.718-.416.48-.624 1.232-.624 2.258v4.977h-.79v-5.805c0-1.432-.656-2.148-1.968-2.148-.89 0-1.54.259-1.946.777-.406.518-.609 1.348-.609 2.488v4.688h-.773V78.29h.64l.164 1.164h.047a2.435 2.435 0 0 1 1-.98 2.977 2.977 0 0 1 1.43-.349c1.338 0 2.198.503 2.578 1.508h.031a2.887 2.887 0 0 1 1.114-1.117c.466-.26.996-.39 1.59-.39.926 0 1.622.247 2.085.742.464.494.696 1.28.696 2.359v5.555h-.766zm6.945.156c-1.234 0-2.196-.38-2.886-1.14-.69-.761-1.036-1.826-1.036-3.196 0-1.354.334-2.439 1-3.254.667-.815 1.566-1.223 2.696-1.223 1 0 1.789.35 2.367 1.047.578.698.867 1.646.867 2.844v.625h-6.117c.01 1.167.283 2.057.816 2.672.534.615 1.299.922 2.293.922.485 0 .91-.034 1.278-.102.367-.067.832-.213 1.394-.437v.703a6.22 6.22 0 0 1-1.328.426 7.371 7.371 0 0 1-1.344.113zm-.226-8.125c-.818 0-1.474.27-1.969.809-.495.539-.784 1.316-.867 2.332h5.25c0-.985-.214-1.754-.64-2.309-.428-.555-1.019-.832-1.774-.832zM559.567 95.36h3.133c1.412 0 2.448.24 3.11.719.661.479.992 1.203.992 2.171 0 .662-.202 1.213-.606 1.653-.403.44-.993.722-1.77.847v.047c.912.136 1.583.423 2.013.864.43.44.644 1.053.644 1.84 0 1.052-.349 1.861-1.047 2.43-.698.567-1.687.85-2.969.85h-3.5V95.36zm.797 5.086h2.516c1.073 0 1.853-.179 2.34-.535.487-.357.73-.916.73-1.676 0-.76-.274-1.313-.824-1.656-.55-.344-1.368-.516-2.457-.516h-2.305v4.383zm0 .703v4.93h2.688c2.114 0 3.172-.86 3.172-2.579 0-1.567-1.115-2.351-3.344-2.351h-2.516zm9.711-2.86v5.5c0 .855.18 1.476.54 1.864.359.388.916.582 1.671.582 1.01 0 1.754-.255 2.23-.766.477-.51.716-1.34.716-2.492V98.29h.765v8.492h-.656l-.14-1.172h-.048c-.552.885-1.533 1.328-2.945 1.328-1.932 0-2.898-1.034-2.898-3.102V98.29h.765zm14.032 6.282c0 .76-.29 1.345-.868 1.754-.578.409-1.398.613-2.46.613-1.136 0-2.037-.175-2.704-.523v-.836c.854.427 1.755.64 2.703.64.839 0 1.476-.14 1.91-.418.435-.278.653-.65.653-1.113 0-.427-.173-.787-.52-1.078-.346-.292-.915-.578-1.707-.86-.849-.307-1.445-.571-1.789-.793-.343-.22-.603-.47-.777-.75-.175-.278-.262-.618-.262-1.019 0-.635.267-1.138.801-1.508.534-.37 1.28-.555 2.238-.555.917 0 1.787.172 2.61.516l-.29.703c-.833-.344-1.606-.515-2.32-.515-.692 0-1.242.114-1.648.343-.406.23-.61.547-.61.953 0 .443.158.797.473 1.063.315.266.931.562 1.848.89.765.277 1.323.525 1.672.747.349.221.61.472.785.754.174.28.262.612.262.992zm2.96 2.21h-.773V98.29h.773v8.492zm-.882-10.85c0-.5.164-.75.492-.75.161 0 .288.064.379.194.09.13.136.316.136.555 0 .235-.045.42-.136.555a.432.432 0 0 1-.38.203c-.327 0-.491-.253-.491-.758zm9.648 10.85v-5.507c0-.854-.18-1.475-.539-1.863-.36-.388-.917-.582-1.672-.582-1.015 0-1.759.256-2.23.77-.472.512-.707 1.344-.707 2.495v4.688h-.774V98.29h.656l.149 1.164h.047c.552-.886 1.534-1.329 2.945-1.329 1.927 0 2.89 1.034 2.89 3.102v5.555h-.765zm6.945.157c-1.234 0-2.196-.38-2.886-1.14-.69-.761-1.035-1.826-1.035-3.196 0-1.354.333-2.439 1-3.254.666-.815 1.565-1.223 2.695-1.223 1 0 1.789.35 2.367 1.047.578.698.867 1.646.867 2.844v.625h-6.117c.01 1.167.283 2.057.816 2.672.534.615 1.299.922 2.293.922.485 0 .91-.034 1.278-.102.367-.067.832-.213 1.394-.437v.703a6.22 6.22 0 0 1-1.328.426 7.371 7.371 0 0 1-1.344.113zm-.226-8.125c-.818 0-1.474.27-1.969.809-.495.539-.784 1.316-.867 2.332h5.25c0-.985-.214-1.754-.64-2.309-.428-.555-1.019-.832-1.774-.832zm10.844 5.758c0 .76-.29 1.345-.868 1.754-.578.409-1.398.613-2.46.613-1.136 0-2.037-.175-2.704-.523v-.836c.855.427 1.756.64 2.703.64.839 0 1.476-.14 1.91-.418.436-.278.653-.65.653-1.113 0-.427-.173-.787-.52-1.078-.346-.292-.915-.578-1.707-.86-.849-.307-1.445-.571-1.789-.793-.343-.22-.603-.47-.777-.75-.174-.278-.262-.618-.262-1.019 0-.635.267-1.138.801-1.508.534-.37 1.28-.555 2.238-.555.917 0 1.787.172 2.61.516l-.29.703c-.833-.344-1.606-.515-2.32-.515-.692 0-1.242.114-1.648.343-.406.23-.61.547-.61.953 0 .443.158.797.473 1.063.315.266.931.562 1.848.89.765.277 1.323.525 1.672.747.349.221.61.472.785.754.174.28.262.612.262.992zm7.453 0c0 .76-.29 1.345-.867 1.754-.579.409-1.399.613-2.461.613-1.136 0-2.037-.175-2.704-.523v-.836c.855.427 1.756.64 2.704.64.838 0 1.475-.14 1.91-.418.435-.278.652-.65.652-1.113 0-.427-.173-.787-.52-1.078-.346-.292-.915-.578-1.706-.86-.85-.307-1.446-.571-1.79-.793-.343-.22-.602-.47-.777-.75-.174-.278-.262-.618-.262-1.019 0-.635.267-1.138.801-1.508.534-.37 1.28-.555 2.238-.555.917 0 1.787.172 2.61.516l-.29.703c-.833-.344-1.606-.515-2.32-.515-.692 0-1.242.114-1.648.343-.406.23-.61.547-.61.953 0 .443.158.797.473 1.063.315.266.931.562 1.848.89.766.277 1.323.525 1.672.747.349.221.61.472.785.754.174.28.262.612.262.992zm6.539 2.21V95.36h.797v11.422h-.797zm9.758 0v-5.507c0-.854-.18-1.475-.54-1.863-.359-.388-.916-.582-1.671-.582-1.016 0-1.76.256-2.23.77-.472.512-.708 1.344-.708 2.495v4.688h-.773V98.29h.656l.148 1.164h.047c.552-.886 1.534-1.329 2.946-1.329 1.927 0 2.89 1.034 2.89 3.102v5.555h-.765zm8.78-2.21c0 .76-.288 1.345-.866 1.754-.578.409-1.399.613-2.461.613-1.136 0-2.037-.175-2.703-.523v-.836c.854.427 1.755.64 2.703.64.838 0 1.475-.14 1.91-.418.435-.278.652-.65.652-1.113 0-.427-.173-.787-.52-1.078-.346-.292-.915-.578-1.706-.86-.85-.307-1.446-.571-1.79-.793-.343-.22-.602-.47-.777-.75-.174-.278-.261-.618-.261-1.019 0-.635.266-1.138.8-1.508.534-.37 1.28-.555 2.239-.555.916 0 1.786.172 2.609.516l-.29.703c-.832-.344-1.606-.515-2.32-.515-.692 0-1.242.114-1.648.343-.406.23-.61.547-.61.953 0 .443.158.797.473 1.063.316.266.931.562 1.848.89.766.277 1.323.525 1.672.747.349.221.61.472.785.754.175.28.262.612.262.992zm2.962 2.21h-.774V98.29h.774v8.492zm-.883-10.85c0-.5.164-.75.492-.75.162 0 .288.064.38.194.09.13.136.316.136.555 0 .235-.046.42-.137.555a.432.432 0 0 1-.379.203c-.328 0-.492-.253-.492-.758zm10.352 2.359v.539l-1.758.109c.468.583.703 1.224.703 1.922 0 .818-.272 1.48-.817 1.988-.544.508-1.274.762-2.191.762-.385 0-.656-.016-.812-.047-.308.161-.542.352-.704.57-.161.219-.242.45-.242.696 0 .27.103.468.309.593.206.125.55.188 1.035.188h1.484c.922 0 1.628.186 2.118.558.49.373.734.924.734 1.653 0 .896-.363 1.587-1.09 2.074-.727.487-1.762.73-3.105.73-1.068 0-1.895-.205-2.48-.617-.587-.411-.88-.984-.88-1.718 0-.584.181-1.068.543-1.454.362-.385.853-.648 1.473-.789a1.497 1.497 0 0 1-.613-.465c-.154-.2-.23-.43-.23-.69 0-.569.361-1.069 1.085-1.5a2.42 2.42 0 0 1-1.156-.958 2.732 2.732 0 0 1-.414-1.496c0-.849.27-1.53.808-2.043.54-.513 1.267-.77 2.184-.77.557 0 .99.055 1.297.165h2.719zm-6.875 9.93c0 1.166.867 1.75 2.601 1.75 2.23 0 3.344-.712 3.344-2.134 0-.51-.175-.88-.524-1.109-.349-.23-.914-.344-1.695-.344h-1.39c-1.558 0-2.336.612-2.336 1.836zm.648-7.282c0 .656.2 1.165.598 1.527.398.362.93.543 1.597.543.709 0 1.252-.18 1.63-.539.377-.36.566-.88.566-1.562 0-.724-.194-1.267-.582-1.63-.388-.361-.931-.542-1.63-.542-.676 0-1.209.194-1.597.582-.388.388-.582.928-.582 1.621zm13.89 5.844v-5.508c0-.854-.18-1.475-.538-1.863-.36-.388-.917-.582-1.672-.582-1.016 0-1.76.256-2.23.77-.472.512-.708 1.344-.708 2.495v4.688h-.773V94.625h.773v3.868l-.039 1.086h.055c.317-.51.719-.88 1.203-1.11.484-.229 1.086-.344 1.805-.344 1.927 0 2.89 1.034 2.89 3.102v5.555h-.765zm5.758-.532c.49 0 .917-.041 1.282-.125v.625a4.1 4.1 0 0 1-1.297.188c-.75 0-1.304-.2-1.66-.602-.357-.4-.536-1.03-.536-1.89V98.96h-1.257v-.453l1.257-.351.391-1.922h.399v2.055h2.492v.671h-2.492v5.375c0 .651.114 1.133.343 1.446.23.312.589.468 1.078.468z"/>
        </g>
        <circle cx="615.5" cy="33.2" r="32.8" stroke="#3F3F3F" stroke-width=".75"/>
        <g fill="#000">
            <path d="M166.885 78.641c0 1.104-.375 1.95-1.125 2.54-.75.588-1.812.882-3.187.882h-1.766v4.719h-.797V75.36h2.797c2.72 0 4.078 1.094 4.078 3.281zm-6.078 2.734h1.57c1.287 0 2.217-.212 2.79-.636.573-.425.859-1.114.859-2.067 0-.88-.27-1.532-.812-1.957-.542-.424-1.38-.636-2.516-.636h-1.89v5.296zm11.711-3.25c.36 0 .745.037 1.156.11l-.148.742a4.525 4.525 0 0 0-1.102-.133c-.723 0-1.317.307-1.78.922-.464.615-.696 1.39-.696 2.328v4.688h-.774V78.29h.657l.078 1.53h.055c.348-.624.72-1.063 1.117-1.316.396-.252.875-.379 1.437-.379zm9.586 4.399c0 1.385-.336 2.467-1.008 3.246-.672.779-1.599 1.168-2.78 1.168-.746 0-1.402-.18-1.97-.54-.567-.358-1.002-.874-1.304-1.546-.302-.672-.453-1.448-.453-2.328 0-1.386.335-2.465 1.007-3.238.672-.774 1.594-1.16 2.766-1.16 1.167 0 2.082.391 2.746 1.175.664.784.996 1.858.996 3.223zm-6.703 0c0 1.167.257 2.077.77 2.73.513.654 1.238.98 2.175.98.938 0 1.663-.326 2.176-.98.513-.653.77-1.563.77-2.73 0-1.172-.26-2.08-.778-2.727-.518-.646-1.246-.968-2.183-.968-.938 0-1.66.321-2.168.964-.508.644-.762 1.554-.762 2.73zm14.211 4.258l-.195-1.344h-.063c-.427.547-.866.934-1.316 1.16-.45.227-.983.34-1.598.34-.833 0-1.482-.214-1.945-.64-.464-.428-.696-1.019-.696-1.774 0-.828.346-1.471 1.036-1.93.69-.458 1.688-.7 2.996-.726l1.617-.047v-.563c0-.807-.164-1.416-.492-1.828-.328-.411-.857-.617-1.586-.617-.787 0-1.602.219-2.446.656l-.289-.672c.933-.437 1.855-.656 2.766-.656.932 0 1.629.242 2.09.727.46.484.691 1.24.691 2.265v5.649h-.57zm-3.125-.547c.906 0 1.621-.26 2.145-.778.523-.518.785-1.238.785-2.16v-.836l-1.485.063c-1.192.057-2.043.243-2.55.558-.508.316-.762.806-.762 1.473 0 .531.163.944.488 1.238.326.295.785.442 1.379.442zm9.836.703c-1.214 0-2.164-.383-2.852-1.148-.687-.766-1.03-1.834-1.03-3.204 0-1.406.356-2.5 1.07-3.285.713-.784 1.69-1.176 2.93-1.176a5.89 5.89 0 0 1 2.108.383l-.21.688c-.735-.245-1.373-.367-1.915-.367-1.041 0-1.83.321-2.367.964-.536.644-.804 1.57-.804 2.778 0 1.146.268 2.043.804 2.691.537.649 1.287.973 2.25.973.771 0 1.487-.138 2.149-.414v.719c-.542.265-1.253.398-2.133.398zm6.453-.688c.49 0 .917-.041 1.281-.125v.625a4.1 4.1 0 0 1-1.297.188c-.75 0-1.303-.2-1.66-.602-.357-.4-.535-1.03-.535-1.89V78.96h-1.258v-.453l1.258-.351.39-1.922h.4v2.055h2.491v.671h-2.492v5.375c0 .651.115 1.133.344 1.446.23.312.588.468 1.078.468zm3.89.532h-.773V78.29h.774v8.492zm-.882-10.852c0-.5.164-.75.492-.75.161 0 .288.065.379.195.091.13.137.316.137.555 0 .235-.046.42-.137.555a.432.432 0 0 1-.379.203c-.328 0-.492-.253-.492-.758zm5.586 10.852l-3.281-8.492h.796l2.196 5.773c.291.74.51 1.385.656 1.937h.047c.213-.708.432-1.359.656-1.953l2.195-5.757h.797l-3.281 8.492h-.781zm8.914.156c-1.235 0-2.197-.38-2.887-1.14-.69-.761-1.035-1.826-1.035-3.196 0-1.354.333-2.439 1-3.254s1.565-1.223 2.695-1.223c1 0 1.79.35 2.367 1.047.579.698.868 1.646.868 2.844v.625h-6.118c.01 1.167.283 2.057.817 2.672.534.615 1.298.922 2.293.922.484 0 .91-.034 1.277-.102.367-.067.832-.213 1.395-.437v.703a6.22 6.22 0 0 1-1.328.426 7.371 7.371 0 0 1-1.344.113zm-.227-8.125c-.817 0-1.474.27-1.968.809-.495.539-.784 1.316-.868 2.332h5.25c0-.985-.213-1.754-.64-2.309-.427-.555-1.019-.832-1.774-.832zm14.953 7.969l-4.257-10.547h-.063c.042.646.063 1.307.063 1.984v8.563h-.766V75.36h1.234l4.047 10.047h.047l4.047-10.047h1.203v11.422h-.805v-8.657c0-.604.032-1.229.094-1.875h-.062l-4.274 10.532h-.508zm15.61-4.258c0 1.385-.336 2.467-1.008 3.246-.672.779-1.599 1.168-2.781 1.168-.745 0-1.401-.18-1.969-.54-.568-.358-1.003-.874-1.305-1.546-.302-.672-.453-1.448-.453-2.328 0-1.386.336-2.465 1.008-3.238.672-.774 1.594-1.16 2.766-1.16 1.166 0 2.082.391 2.746 1.175.664.784.996 1.858.996 3.223zm-6.703 0c0 1.167.256 2.077.77 2.73.512.654 1.237.98 2.175.98.937 0 1.663-.326 2.176-.98.513-.653.77-1.563.77-2.73 0-1.172-.26-2.08-.778-2.727-.518-.646-1.246-.968-2.184-.968-.937 0-1.66.321-2.168.964-.507.644-.761 1.554-.761 2.73zm14.976 4.258v-5.508c0-.854-.18-1.475-.539-1.863-.36-.388-.917-.582-1.672-.582-1.015 0-1.759.256-2.23.77-.472.512-.707 1.344-.707 2.495v4.688h-.774V78.29h.657l.148 1.164h.047c.552-.886 1.534-1.329 2.945-1.329 1.927 0 2.89 1.034 2.89 3.102v5.555h-.765zm4.29 0h-.774V78.29h.773v8.492zm-.884-10.852c0-.5.165-.75.493-.75.161 0 .287.065.379.195.09.13.136.316.136.555 0 .235-.045.42-.136.555a.432.432 0 0 1-.38.203c-.327 0-.492-.253-.492-.758zm5.97 10.32c.489 0 .916-.041 1.28-.125v.625a4.1 4.1 0 0 1-1.296.188c-.75 0-1.304-.2-1.66-.602-.357-.4-.536-1.03-.536-1.89V78.96H264.8v-.453l1.258-.351.39-1.922h.4v2.055h2.492v.671h-2.493v5.375c0 .651.115 1.133.344 1.446.23.312.589.468 1.078.468zm10.14-3.726c0 1.385-.336 2.467-1.008 3.246-.672.779-1.599 1.168-2.781 1.168-.745 0-1.401-.18-1.969-.54-.568-.358-1.003-.874-1.305-1.546-.302-.672-.453-1.448-.453-2.328 0-1.386.336-2.465 1.008-3.238.672-.774 1.594-1.16 2.766-1.16 1.166 0 2.082.391 2.746 1.175.664.784.996 1.858.996 3.223zm-6.703 0c0 1.167.256 2.077.77 2.73.512.654 1.238.98 2.175.98.938 0 1.663-.326 2.176-.98.513-.653.77-1.563.77-2.73 0-1.172-.26-2.08-.778-2.727-.518-.646-1.246-.968-2.184-.968-.937 0-1.66.321-2.168.964-.507.644-.761 1.554-.761 2.73zm12.398-4.399c.36 0 .745.037 1.156.11l-.148.742a4.525 4.525 0 0 0-1.102-.133c-.724 0-1.317.307-1.78.922-.464.615-.696 1.39-.696 2.328v4.688h-.774V78.29h.657l.078 1.53h.054c.35-.624.722-1.063 1.118-1.316.395-.252.875-.379 1.437-.379zm3.656 8.657h-.773V78.29h.773v8.492zm-.882-10.852c0-.5.164-.75.492-.75.161 0 .288.065.379.195.09.13.136.316.136.555 0 .235-.045.42-.136.555a.432.432 0 0 1-.38.203c-.327 0-.491-.253-.491-.758zm9.648 10.852v-5.508c0-.854-.18-1.475-.539-1.863-.36-.388-.917-.582-1.672-.582-1.016 0-1.759.256-2.23.77-.472.512-.707 1.344-.707 2.495v4.688h-.774V78.29h.656l.149 1.164h.047c.552-.886 1.534-1.329 2.945-1.329 1.927 0 2.89 1.034 2.89 3.102v5.555h-.765zm10.14-8.492v.539l-1.757.109c.469.583.703 1.224.703 1.922 0 .818-.272 1.48-.816 1.988-.545.508-1.275.762-2.192.762-.385 0-.656-.016-.812-.047-.308.161-.542.352-.703.57-.162.219-.243.45-.243.696 0 .27.103.468.309.593.206.125.55.188 1.035.188h1.484c.922 0 1.628.186 2.118.558.49.373.734.924.734 1.653 0 .896-.363 1.587-1.09 2.074-.726.487-1.762.73-3.105.73-1.068 0-1.895-.205-2.48-.617-.587-.411-.88-.984-.88-1.718 0-.584.181-1.068.543-1.454.362-.385.853-.648 1.473-.789a1.497 1.497 0 0 1-.613-.465c-.154-.2-.23-.43-.23-.69 0-.569.361-1.069 1.085-1.5a2.42 2.42 0 0 1-1.156-.958 2.732 2.732 0 0 1-.414-1.496c0-.849.27-1.53.808-2.043.54-.513 1.267-.77 2.184-.77.557 0 .99.055 1.297.165h2.719zm-6.874 9.93c0 1.166.867 1.75 2.601 1.75 2.23 0 3.344-.712 3.344-2.134 0-.51-.175-.88-.523-1.109-.35-.23-.915-.344-1.696-.344h-1.39c-1.558 0-2.336.612-2.336 1.836zm.648-7.282c0 .656.2 1.165.598 1.527.398.362.93.543 1.597.543.709 0 1.252-.18 1.63-.539.377-.36.566-.88.566-1.562 0-.724-.194-1.267-.582-1.63-.388-.361-.931-.542-1.63-.542-.676 0-1.209.194-1.597.582-.388.388-.582.928-.582 1.621zM196.167 106.782l-.195-1.344h-.062c-.427.547-.866.934-1.317 1.16-.45.227-.983.34-1.597.34-.834 0-1.482-.214-1.946-.64-.463-.428-.695-1.019-.695-1.774 0-.828.345-1.471 1.035-1.93.69-.458 1.689-.7 2.996-.726l1.617-.047v-.563c0-.807-.164-1.416-.492-1.828-.328-.411-.857-.617-1.586-.617-.786 0-1.601.219-2.445.656l-.29-.672c.933-.437 1.855-.656 2.767-.656.932 0 1.628.242 2.09.727.46.484.69 1.24.69 2.265v5.649h-.57zm-3.125-.547c.907 0 1.622-.26 2.145-.778.523-.518.785-1.238.785-2.16v-.836l-1.484.063c-1.193.057-2.043.243-2.551.558-.508.316-.762.806-.762 1.473 0 .531.163.944.489 1.238.325.295.785.442 1.378.442zm12.368.547v-5.508c0-.854-.18-1.475-.54-1.863-.359-.388-.916-.582-1.671-.582-1.016 0-1.76.256-2.23.77-.472.512-.708 1.344-.708 2.495v4.688h-.773V98.29h.656l.148 1.164h.047c.552-.886 1.534-1.329 2.946-1.329 1.927 0 2.89 1.034 2.89 3.102v5.555h-.765zm6.625-8.657c.614 0 1.145.112 1.593.336.448.224.85.607 1.204 1.149h.046c-.03-.656-.046-1.3-.046-1.93v-3.055h.765v12.157h-.508l-.195-1.297h-.062c-.646.969-1.573 1.453-2.782 1.453-1.172 0-2.067-.365-2.687-1.094-.62-.729-.93-1.791-.93-3.187 0-1.47.307-2.591.922-3.367.615-.777 1.508-1.165 2.68-1.165zm0 .704c-.927 0-1.624.325-2.09.976-.466.651-.7 1.596-.7 2.836 0 2.406.935 3.61 2.805 3.61.959 0 1.662-.28 2.11-.836.448-.558.672-1.477.672-2.758v-.133c0-1.313-.22-2.257-.66-2.832-.44-.576-1.153-.863-2.137-.863zm16.265 3.921h-4.64l-1.594 4.032h-.883l4.594-11.469h.508l4.5 11.469h-.899l-1.586-4.032zm-4.351-.718h4.086l-1.555-4.117a20 20 0 0 1-.469-1.344c-.14.5-.294.953-.46 1.36l-1.602 4.1zm9.03 4.75h-.772V94.625h.773v12.157zm6.274.156c-1.234 0-2.196-.38-2.886-1.14-.69-.761-1.035-1.826-1.035-3.196 0-1.354.333-2.439 1-3.254.666-.815 1.565-1.223 2.695-1.223 1 0 1.789.35 2.367 1.047.578.698.867 1.646.867 2.844v.625h-6.117c.01 1.167.283 2.057.816 2.672.534.615 1.299.922 2.293.922.485 0 .91-.034 1.278-.102.367-.067.832-.213 1.394-.437v.703a6.22 6.22 0 0 1-1.328.426 7.371 7.371 0 0 1-1.344.113zm-.226-8.125c-.818 0-1.474.27-1.969.809-.495.539-.784 1.316-.867 2.332h5.25c0-.985-.214-1.754-.64-2.309-.428-.555-1.019-.832-1.774-.832zm8.922-.688c.36 0 .744.037 1.156.11l-.148.742a4.525 4.525 0 0 0-1.102-.133c-.724 0-1.318.307-1.781.922-.464.615-.696 1.39-.696 2.328v4.688h-.773V98.29h.656l.078 1.53h.055c.349-.624.721-1.063 1.117-1.316.396-.252.875-.379 1.438-.379zm5.125 8.125c.49 0 .916-.041 1.28-.125v.625a4.1 4.1 0 0 1-1.296.188c-.75 0-1.303-.2-1.66-.602-.357-.4-.535-1.03-.535-1.89V98.96h-1.258v-.453l1.258-.351.39-1.922h.399v2.055h2.492v.671h-2.492v5.375c0 .651.114 1.133.344 1.446.229.312.588.468 1.078.468zm3.89.532h-.773V98.29h.773v8.492zm-.882-10.852c0-.5.164-.75.492-.75.161 0 .287.065.379.195.09.13.136.316.136.555 0 .235-.045.42-.136.555a.432.432 0 0 1-.38.203c-.327 0-.491-.253-.491-.758zm9.648 10.852v-5.508c0-.854-.18-1.475-.54-1.863-.358-.388-.916-.582-1.671-.582-1.016 0-1.76.256-2.23.77-.472.512-.707 1.344-.707 2.495v4.688h-.774V98.29h.656l.149 1.164h.047c.552-.886 1.533-1.329 2.945-1.329 1.927 0 2.89 1.034 2.89 3.102v5.555h-.765zm10.14-8.492v.539l-1.757.109c.469.583.703 1.224.703 1.922 0 .818-.272 1.48-.817 1.988-.544.508-1.274.762-2.19.762-.386 0-.657-.016-.813-.047-.308.161-.542.352-.704.57-.161.219-.242.45-.242.696 0 .27.103.468.309.593.206.125.55.188 1.035.188h1.484c.922 0 1.628.186 2.118.558.49.373.734.924.734 1.653 0 .896-.363 1.587-1.09 2.074-.726.487-1.762.73-3.105.73-1.068 0-1.895-.205-2.48-.617-.587-.411-.88-.984-.88-1.718 0-.584.181-1.068.543-1.454.362-.385.853-.648 1.473-.789a1.497 1.497 0 0 1-.613-.465c-.154-.2-.23-.43-.23-.69 0-.569.361-1.069 1.085-1.5a2.42 2.42 0 0 1-1.156-.958 2.732 2.732 0 0 1-.414-1.496c0-.849.27-1.53.808-2.043.54-.513 1.267-.77 2.184-.77.557 0 .99.055 1.297.165h2.719zm-6.874 9.93c0 1.166.867 1.75 2.601 1.75 2.23 0 3.344-.712 3.344-2.134 0-.51-.175-.88-.524-1.109-.349-.23-.914-.344-1.695-.344h-1.39c-1.558 0-2.336.612-2.336 1.836zm.648-7.282c0 .656.2 1.165.598 1.527.398.362.93.543 1.597.543.709 0 1.252-.18 1.63-.539.377-.36.566-.88.566-1.562 0-.724-.194-1.267-.582-1.63-.388-.361-.931-.542-1.63-.542-.676 0-1.209.194-1.597.582-.388.388-.582.928-.582 1.621z"/>
        </g>
        <circle cx="232.6" cy="33.2" r="32.8" stroke="#3F3F3F" stroke-width=".75"/>
        <g stroke="#3F3F3F" stroke-width=".75">
            <g transform="translate(21 19)">
                <g transform="translate(17)">
                    <circle cx="10.6" cy="5.9" r="5.2"/>
                    <path d="M20.6 27.8c0-9.2-4.5-16.7-10.1-16.7S.4 18.6.4 27.8h20.2z"/>
                </g>
                <circle cx="7.186" cy="8.225" r="4.5" transform="rotate(-45 7.186 8.225)"/>
                <path d="M13.4 14.4l-3-3"/>
            </g>
            <path d="M23.8 36.7h10.6M23.8 39.3H33M23.8 41.8h12.3M23.8 44.3h5.3M23.8 46.8H34"/>
        </g>
        <g fill="#000">
            <path d="M8.956 83.836c0 .954-.35 1.709-1.05 2.266-.701.557-1.632.836-2.794.836-1.395 0-2.466-.154-3.21-.461v-.797c.822.35 1.872.524 3.148.524.937 0 1.68-.215 2.23-.645.55-.43.825-.993.825-1.691 0-.433-.092-.79-.274-1.075-.182-.283-.479-.543-.89-.777-.412-.234-1.016-.487-1.813-.758-1.167-.4-1.973-.834-2.418-1.3-.445-.467-.668-1.088-.668-1.864 0-.854.335-1.55 1.004-2.09.67-.539 1.53-.808 2.582-.808 1.073 0 2.08.203 3.023.61l-.289.687c-.948-.396-1.854-.594-2.718-.594-.844 0-1.516.195-2.016.586-.5.39-.75.922-.75 1.594 0 .421.077.768.23 1.039.154.27.405.514.754.73.35.216.948.475 1.797.777.89.308 1.56.606 2.008.895.448.289.775.617.98.984.206.368.31.812.31 1.332zm5.649 3.102c-1.235 0-2.197-.38-2.887-1.14-.69-.761-1.035-1.826-1.035-3.196 0-1.354.333-2.439 1-3.254.666-.815 1.565-1.223 2.695-1.223 1 0 1.79.35 2.367 1.047.578.698.867 1.646.867 2.844v.625h-6.117c.01 1.167.283 2.057.817 2.672.533.615 1.298.922 2.293.922.484 0 .91-.034 1.277-.102.367-.067.832-.213 1.394-.437v.703a6.22 6.22 0 0 1-1.328.426 7.371 7.371 0 0 1-1.343.113zm-.227-8.125c-.818 0-1.474.27-1.969.809-.495.539-.784 1.316-.867 2.332h5.25c0-.985-.213-1.754-.64-2.309-.428-.555-1.019-.832-1.774-.832zm10.734 7.969l-.195-1.344h-.062c-.427.547-.866.934-1.317 1.16-.45.227-.983.34-1.597.34-.834 0-1.482-.214-1.946-.64-.463-.428-.695-1.019-.695-1.774 0-.828.345-1.471 1.035-1.93.69-.458 1.689-.7 2.996-.726l1.617-.047v-.563c0-.807-.164-1.416-.492-1.828-.328-.411-.857-.617-1.586-.617-.786 0-1.601.219-2.445.656l-.29-.672c.933-.437 1.855-.656 2.766-.656.933 0 1.63.242 2.09.727.461.484.692 1.24.692 2.265v5.649h-.57zm-3.125-.547c.907 0 1.622-.26 2.145-.778.523-.518.785-1.238.785-2.16v-.836l-1.484.063c-1.193.057-2.043.243-2.551.558-.508.316-.762.806-.762 1.473 0 .531.163.944.489 1.238.325.295.785.442 1.378.442zm9.79-8.11c.359 0 .744.037 1.156.11l-.149.742a4.525 4.525 0 0 0-1.101-.133c-.724 0-1.318.307-1.782.922-.463.615-.695 1.39-.695 2.328v4.688h-.773V78.29h.656l.078 1.53h.055c.349-.624.721-1.063 1.117-1.316.396-.252.875-.379 1.437-.379zm5.953 8.813c-1.214 0-2.164-.383-2.852-1.148-.687-.766-1.031-1.834-1.031-3.204 0-1.406.357-2.5 1.07-3.285.714-.784 1.69-1.176 2.93-1.176a5.89 5.89 0 0 1 2.11.383l-.212.688c-.734-.245-1.372-.367-1.914-.367-1.042 0-1.83.321-2.367.964-.536.644-.805 1.57-.805 2.778 0 1.146.269 2.043.805 2.691.536.649 1.286.973 2.25.973.77 0 1.487-.138 2.148-.414v.719c-.541.265-1.252.398-2.132.398zm10.132-.156v-5.508c0-.854-.18-1.475-.539-1.863-.359-.388-.916-.582-1.672-.582-1.015 0-1.759.256-2.23.77-.471.512-.707 1.344-.707 2.495v4.688h-.773V74.625h.773v3.868l-.04 1.086h.056c.317-.51.718-.88 1.203-1.11.484-.229 1.086-.344 1.804-.344 1.928 0 2.891 1.034 2.891 3.102v5.555h-.766zm12.829 0l-.196-1.344h-.062c-.427.547-.866.934-1.317 1.16-.45.227-.983.34-1.597.34-.834 0-1.482-.214-1.946-.64-.463-.428-.695-1.019-.695-1.774 0-.828.345-1.471 1.035-1.93.69-.458 1.689-.7 2.996-.726l1.617-.047v-.563c0-.807-.164-1.416-.492-1.828-.328-.411-.856-.617-1.586-.617-.786 0-1.601.219-2.445.656l-.289-.672c.932-.437 1.854-.656 2.766-.656.932 0 1.629.242 2.09.727.46.484.69 1.24.69 2.265v5.649h-.57zm-3.125-.547c.906 0 1.62-.26 2.144-.778s.785-1.238.785-2.16v-.836l-1.484.063c-1.193.057-2.043.243-2.55.558-.509.316-.763.806-.763 1.473 0 .531.163.944.489 1.238.325.295.785.442 1.379.442zm12.367.547v-5.508c0-.854-.18-1.475-.54-1.863-.359-.388-.916-.582-1.671-.582-1.016 0-1.76.256-2.23.77-.472.512-.708 1.344-.708 2.495v4.688h-.773V78.29h.656l.149 1.164h.046c.552-.886 1.534-1.329 2.946-1.329 1.927 0 2.89 1.034 2.89 3.102v5.555h-.765zm6.625-8.657c.614 0 1.146.112 1.593.336.448.224.85.607 1.204 1.149h.046c-.03-.656-.046-1.3-.046-1.93v-3.055h.765v12.157h-.508l-.195-1.297h-.062c-.646.969-1.573 1.453-2.782 1.453-1.172 0-2.067-.365-2.687-1.094-.62-.729-.93-1.791-.93-3.187 0-1.47.307-2.591.922-3.367.615-.777 1.508-1.165 2.68-1.165zm0 .704c-.927 0-1.624.325-2.09.976-.466.651-.7 1.596-.7 2.836 0 2.406.936 3.61 2.805 3.61.959 0 1.662-.28 2.11-.836.448-.558.672-1.477.672-2.758v-.133c0-1.313-.22-2.257-.66-2.832-.44-.576-1.153-.863-2.137-.863zM4.805 106.782V95.36h.797v11.422h-.797zm9.758 0v-5.508c0-.854-.18-1.475-.539-1.863-.36-.388-.917-.582-1.672-.582-1.015 0-1.759.256-2.23.77-.472.512-.707 1.344-.707 2.495v4.688H8.64V98.29h.657l.148 1.164h.047c.552-.886 1.534-1.329 2.945-1.329 1.927 0 2.89 1.034 2.89 3.102v5.555h-.765zm5.375 0l-3.281-8.492h.797l2.195 5.773c.292.74.51 1.385.656 1.937h.047c.214-.708.433-1.359.657-1.953l2.195-5.757H24l-3.282 8.492h-.78zm8.914.156c-1.234 0-2.196-.38-2.886-1.14-.69-.761-1.036-1.826-1.036-3.196 0-1.354.334-2.439 1-3.254.667-.815 1.565-1.223 2.696-1.223 1 0 1.789.35 2.367 1.047.578.698.867 1.646.867 2.844v.625h-6.117c.01 1.167.282 2.057.816 2.672.534.615 1.298.922 2.293.922.485 0 .91-.034 1.278-.102.367-.067.832-.213 1.394-.437v.703a6.22 6.22 0 0 1-1.328.426 7.371 7.371 0 0 1-1.344.113zm-.226-8.125c-.818 0-1.474.27-1.97.809-.494.539-.783 1.316-.866 2.332h5.25c0-.985-.214-1.754-.64-2.309-.428-.555-1.02-.832-1.774-.832zm10.843 5.758c0 .76-.289 1.345-.867 1.754-.578.409-1.398.613-2.46.613-1.136 0-2.037-.175-2.704-.523v-.836c.854.427 1.755.64 2.703.64.839 0 1.476-.14 1.91-.418.435-.278.653-.65.653-1.113 0-.427-.173-.787-.52-1.078-.346-.292-.915-.578-1.707-.86-.849-.307-1.445-.571-1.789-.793-.344-.22-.603-.47-.777-.75-.175-.278-.262-.618-.262-1.019 0-.635.267-1.138.8-1.508.535-.37 1.28-.555 2.24-.555.916 0 1.786.172 2.609.516l-.29.703c-.833-.344-1.606-.515-2.32-.515-.693 0-1.242.114-1.648.343-.406.23-.61.547-.61.953 0 .443.158.797.473 1.063.315.266.931.562 1.848.89.765.277 1.323.525 1.672.747.349.221.61.472.785.754.174.28.261.612.261.992zm4.43 1.68c.49 0 .917-.042 1.281-.126v.625a4.1 4.1 0 0 1-1.296.188c-.75 0-1.304-.2-1.66-.602-.357-.4-.536-1.03-.536-1.89V98.96H40.43v-.453l1.258-.351.39-1.922h.4v2.055h2.491v.671h-2.492v5.375c0 .651.115 1.133.344 1.446.23.312.589.468 1.078.468zm3.89.53h-.773V98.29h.774v8.492zm-.882-10.85c0-.5.164-.75.492-.75.162 0 .288.064.379.194.091.13.137.316.137.555 0 .235-.046.42-.137.555a.432.432 0 0 1-.379.203c-.328 0-.492-.253-.492-.758zm10.352 2.359v.539l-1.758.109c.468.583.703 1.224.703 1.922 0 .818-.272 1.48-.817 1.988-.544.508-1.274.762-2.191.762-.385 0-.656-.016-.812-.047-.308.161-.542.352-.704.57-.161.219-.242.45-.242.696 0 .27.103.468.309.593.206.125.55.188 1.035.188h1.484c.922 0 1.628.186 2.118.558.49.373.734.924.734 1.653 0 .896-.363 1.587-1.09 2.074-.727.487-1.762.73-3.105.73-1.068 0-1.895-.205-2.48-.617-.587-.411-.88-.984-.88-1.718 0-.584.181-1.068.543-1.454.362-.385.853-.648 1.473-.789a1.497 1.497 0 0 1-.613-.465c-.154-.2-.23-.43-.23-.69 0-.569.361-1.069 1.085-1.5a2.42 2.42 0 0 1-1.156-.958 2.732 2.732 0 0 1-.414-1.496c0-.849.27-1.53.808-2.043.54-.513 1.267-.77 2.184-.77.557 0 .99.055 1.297.165h2.719zm-6.875 9.93c0 1.166.867 1.75 2.601 1.75 2.23 0 3.344-.712 3.344-2.134 0-.51-.175-.88-.524-1.109-.349-.23-.914-.344-1.695-.344h-1.39c-1.558 0-2.336.612-2.336 1.836zm.648-7.282c0 .656.2 1.165.598 1.527.398.362.93.543 1.597.543.709 0 1.252-.18 1.63-.539.377-.36.566-.88.566-1.562 0-.724-.194-1.267-.582-1.63-.388-.361-.931-.542-1.63-.542-.676 0-1.209.194-1.597.582-.388.388-.582.928-.582 1.621zm13.125 5.844l-.195-1.344h-.063c-.427.547-.866.934-1.316 1.16-.45.227-.983.34-1.598.34-.833 0-1.482-.214-1.945-.64-.464-.428-.696-1.019-.696-1.774 0-.828.345-1.471 1.036-1.93.69-.458 1.688-.7 2.996-.726l1.617-.047v-.563c0-.807-.164-1.416-.492-1.828-.328-.411-.857-.617-1.586-.617-.787 0-1.602.219-2.446.656l-.289-.672c.933-.437 1.855-.656 2.766-.656.932 0 1.629.242 2.09.727.46.484.691 1.24.691 2.265v5.649h-.57zm-3.125-.547c.906 0 1.621-.26 2.144-.778.524-.518.786-1.238.786-2.16v-.836l-1.485.063c-1.192.057-2.043.243-2.55.558-.508.316-.762.806-.762 1.473 0 .531.163.944.488 1.238.326.295.785.442 1.379.442zm8.687.015c.49 0 .917-.041 1.282-.125v.625a4.1 4.1 0 0 1-1.297.188c-.75 0-1.304-.2-1.66-.602-.357-.4-.535-1.03-.535-1.89V98.96H66.25v-.453l1.258-.351.39-1.922h.399v2.055h2.492v.671h-2.492v5.375c0 .651.114 1.133.343 1.446.23.312.589.468 1.078.468zm6.547.688c-1.234 0-2.196-.38-2.886-1.14-.69-.761-1.036-1.826-1.036-3.196 0-1.354.334-2.439 1-3.254.667-.815 1.566-1.223 2.696-1.223 1 0 1.789.35 2.367 1.047.578.698.867 1.646.867 2.844v.625h-6.117c.01 1.167.282 2.057.816 2.672.534.615 1.299.922 2.293.922.485 0 .91-.034 1.278-.102.367-.067.832-.213 1.394-.437v.703a6.22 6.22 0 0 1-1.328.426 7.371 7.371 0 0 1-1.344.113zm-.226-8.125c-.818 0-1.474.27-1.969.809-.495.539-.784 1.316-.867 2.332h5.25c0-.985-.214-1.754-.64-2.309-.428-.555-1.019-.832-1.774-.832z"/>
        </g>
        <circle cx="41.2" cy="33.2" r="32.8" stroke="#3F3F3F" stroke-width=".75"/>
        <g fill="#000">
            <path d="M392.845 81.055c0 1.813-.453 3.246-1.36 4.3-.906 1.056-2.156 1.583-3.75 1.583-1.588 0-2.836-.527-3.742-1.582-.906-1.055-1.36-2.494-1.36-4.316 0-1.818.458-3.25 1.372-4.293.914-1.045 2.163-1.567 3.746-1.567 1.594 0 2.841.525 3.742 1.574.901 1.05 1.352 2.483 1.352 4.301zm-9.344 0c0 1.636.365 2.9 1.094 3.793.729.893 1.776 1.34 3.14 1.34 1.375 0 2.426-.443 3.153-1.328.726-.886 1.09-2.154 1.09-3.805 0-1.646-.364-2.907-1.09-3.785-.727-.878-1.772-1.316-3.137-1.316-1.36 0-2.408.442-3.145 1.328-.737.885-1.105 2.143-1.105 3.773zm15.406 5.883c-1.307 0-2.26-.49-2.86-1.469h-.054l.024.656c.02.386.03.808.03 1.266v3.234h-.773V78.29h.657l.148 1.21h.047c.583-.916 1.516-1.375 2.797-1.375 1.146 0 2.02.377 2.62 1.13.602.752.903 1.847.903 3.285 0 1.395-.316 2.477-.949 3.246-.633.768-1.496 1.152-2.59 1.152zm-.015-.688c.87 0 1.543-.322 2.02-.968.476-.646.714-1.55.714-2.711 0-2.495-.901-3.742-2.703-3.742-.99 0-1.716.272-2.18.816-.463.544-.695 1.431-.695 2.66v.25c0 1.328.222 2.276.668 2.844.445.568 1.17.851 2.176.851zm9.336.688c-1.235 0-2.197-.38-2.887-1.14-.69-.761-1.035-1.826-1.035-3.196 0-1.354.333-2.439 1-3.254.666-.815 1.565-1.223 2.695-1.223 1 0 1.789.35 2.367 1.047.578.698.867 1.646.867 2.844v.625h-6.117c.01 1.167.283 2.057.817 2.672.533.615 1.298.922 2.293.922.484 0 .91-.034 1.277-.102.367-.067.832-.213 1.394-.437v.703a6.22 6.22 0 0 1-1.328.426 7.371 7.371 0 0 1-1.343.113zM408 78.813c-.818 0-1.474.27-1.969.809-.495.539-.784 1.316-.867 2.332h5.25c0-.985-.214-1.754-.64-2.309-.428-.555-1.019-.832-1.774-.832zm8.922-.688c.36 0 .745.037 1.156.11l-.148.742a4.525 4.525 0 0 0-1.102-.133c-.724 0-1.318.307-1.781.922-.464.615-.695 1.39-.695 2.328v4.688h-.774V78.29h.656l.078 1.53h.055c.35-.624.722-1.063 1.117-1.316.396-.252.875-.379 1.438-.379zm7.719 8.657l-.196-1.344h-.062c-.427.547-.866.934-1.317 1.16-.45.227-.983.34-1.597.34-.834 0-1.482-.214-1.946-.64-.463-.428-.695-1.019-.695-1.774 0-.828.345-1.471 1.035-1.93.69-.458 1.689-.7 2.996-.726l1.618-.047v-.563c0-.807-.165-1.416-.493-1.828-.328-.411-.856-.617-1.586-.617-.786 0-1.601.219-2.445.656l-.289-.672c.932-.437 1.854-.656 2.766-.656.932 0 1.629.242 2.09.727.46.484.69 1.24.69 2.265v5.649h-.57zm-3.125-.547c.906 0 1.62-.26 2.144-.778s.785-1.238.785-2.16v-.836l-1.484.063c-1.193.057-2.043.243-2.55.558-.509.316-.763.806-.763 1.473 0 .531.163.944.489 1.238.325.295.785.442 1.379.442zm8.687.015c.49 0 .917-.041 1.281-.125v.625a4.1 4.1 0 0 1-1.297.188c-.75 0-1.303-.2-1.66-.602-.356-.4-.535-1.03-.535-1.89V78.96h-1.258v-.453l1.258-.351.39-1.922h.4v2.055h2.491v.671h-2.492v5.375c0 .651.115 1.133.344 1.446.23.312.589.468 1.078.468zm3.89.532h-.773V78.29h.774v8.492zm-.882-10.852c0-.5.164-.75.492-.75.162 0 .288.065.379.195.091.13.137.316.137.555 0 .235-.046.42-.137.555a.432.432 0 0 1-.379.203c-.328 0-.492-.253-.492-.758zm10.75 6.594c0 1.385-.336 2.467-1.008 3.246-.672.779-1.599 1.168-2.781 1.168-.745 0-1.401-.18-1.969-.54-.568-.358-1.003-.874-1.305-1.546-.302-.672-.453-1.448-.453-2.328 0-1.386.336-2.465 1.008-3.238.672-.774 1.594-1.16 2.766-1.16 1.166 0 2.082.391 2.746 1.175.664.784.996 1.858.996 3.223zm-6.703 0c0 1.167.256 2.077.77 2.73.512.654 1.238.98 2.175.98.938 0 1.663-.326 2.176-.98.513-.653.77-1.563.77-2.73 0-1.172-.26-2.08-.778-2.727-.518-.646-1.246-.968-2.184-.968-.937 0-1.66.321-2.168.964-.507.644-.761 1.554-.761 2.73zm14.976 4.258v-5.508c0-.854-.18-1.475-.539-1.863-.36-.388-.916-.582-1.672-.582-1.015 0-1.759.256-2.23.77-.471.512-.707 1.344-.707 2.495v4.688h-.774V78.29h.657l.148 1.164h.047c.552-.886 1.534-1.329 2.945-1.329 1.927 0 2.891 1.034 2.891 3.102v5.555h-.766zm8.672 0l-.195-1.344h-.063c-.427.547-.865.934-1.316 1.16-.45.227-.983.34-1.598.34-.833 0-1.481-.214-1.945-.64-.464-.428-.695-1.019-.695-1.774 0-.828.345-1.471 1.035-1.93.69-.458 1.689-.7 2.996-.726l1.617-.047v-.563c0-.807-.164-1.416-.492-1.828-.328-.411-.857-.617-1.586-.617-.786 0-1.602.219-2.445.656l-.29-.672c.933-.437 1.855-.656 2.766-.656.933 0 1.63.242 2.09.727.461.484.692 1.24.692 2.265v5.649h-.57zm-3.125-.547c.906 0 1.621-.26 2.145-.778.523-.518.785-1.238.785-2.16v-.836l-1.484.063c-1.193.057-2.043.243-2.551.558-.508.316-.762.806-.762 1.473 0 .531.163.944.488 1.238.326.295.785.442 1.38.442zm7.219.547h-.773V74.625H465v12.157zM403.992 95.36h.867l-4.274 11.422h-.703l-4.258-11.422h.852l2.875 7.773c.437 1.172.732 2.052.883 2.64.104-.39.31-.997.617-1.82l3.14-8.593zm3.062 11.422h-.773V98.29h.773v8.492zm-.883-10.852c0-.5.164-.75.492-.75.162 0 .288.065.38.195.09.13.136.316.136.555 0 .235-.045.42-.137.555a.432.432 0 0 1-.379.203c-.328 0-.492-.253-.492-.758zm8.992 8.64c0 .761-.289 1.346-.867 1.755-.578.409-1.398.613-2.46.613-1.136 0-2.037-.175-2.704-.523v-.836c.854.427 1.755.64 2.703.64.839 0 1.476-.14 1.91-.418.435-.278.653-.65.653-1.113 0-.427-.173-.787-.52-1.078-.346-.292-.915-.578-1.707-.86-.849-.307-1.445-.571-1.789-.793-.344-.22-.603-.47-.777-.75-.175-.278-.262-.618-.262-1.019 0-.635.267-1.138.8-1.508.535-.37 1.28-.555 2.24-.555.916 0 1.786.172 2.609.516l-.29.703c-.833-.344-1.606-.515-2.32-.515-.692 0-1.242.114-1.648.343-.406.23-.61.547-.61.953 0 .443.158.797.473 1.063.315.266.931.562 1.848.89.765.277 1.323.525 1.672.747.349.221.61.472.785.754.174.28.261.612.261.992zm2.961 2.212h-.773V98.29h.773v8.492zm-.882-10.852c0-.5.164-.75.492-.75.161 0 .288.065.379.195.09.13.136.316.136.555 0 .235-.045.42-.136.555a.432.432 0 0 1-.38.203c-.327 0-.491-.253-.491-.758zm7.312 2.195c1.188 0 2.082.374 2.684 1.122.601.747.902 1.84.902 3.277 0 1.411-.316 2.5-.95 3.266-.632.765-1.521 1.148-2.667 1.148a3.507 3.507 0 0 1-1.633-.375 2.86 2.86 0 0 1-1.148-1.063h-.07l-.22 1.282h-.484V94.625h.774v3.055c0 .458-.01.88-.032 1.266l-.023.664h.055c.323-.51.712-.886 1.168-1.125.455-.24 1.003-.36 1.644-.36zm-.016.704c-1 0-1.716.286-2.148.859-.432.573-.648 1.518-.648 2.836v.133c0 1.281.225 2.2.675 2.758.45.557 1.153.835 2.106.835.927 0 1.625-.324 2.094-.972.468-.649.703-1.572.703-2.77 0-2.453-.927-3.68-2.782-3.68zm6.727 7.953h-.773V98.29h.773v8.492zm-.883-10.852c0-.5.164-.75.492-.75.162 0 .288.065.38.195.09.13.136.316.136.555 0 .235-.046.42-.137.555a.432.432 0 0 1-.379.203c-.328 0-.492-.253-.492-.758zm4.5 10.852h-.773V94.625h.773v12.157zm3.617 0h-.773V98.29h.773v8.492zm-.882-10.852c0-.5.164-.75.492-.75.161 0 .288.065.379.195.09.13.136.316.136.555 0 .235-.045.42-.136.555a.432.432 0 0 1-.38.203c-.327 0-.491-.253-.491-.758zm5.968 10.32c.49 0 .917-.041 1.282-.125v.625a4.1 4.1 0 0 1-1.297.188c-.75 0-1.304-.2-1.66-.602-.357-.4-.536-1.03-.536-1.89V98.96h-1.257v-.453l1.257-.351.391-1.922h.398v2.055h2.493v.671h-2.493v5.375c0 .651.115 1.133.344 1.446.23.312.589.468 1.078.468zm1.696-7.96h.797l1.796 4.765c.547 1.464.894 2.45 1.04 2.961h.046a86.18 86.18 0 0 1 1.07-3.008l1.798-4.718h.796l-3.804 9.867c-.308.802-.565 1.343-.774 1.625a2.07 2.07 0 0 1-.73.633c-.279.14-.616.21-1.012.21-.297 0-.628-.054-.992-.164v-.671c.302.083.628.125.976.125.266 0 .5-.063.704-.188.203-.125.386-.319.55-.582.164-.263.355-.68.57-1.25.217-.57.356-.941.419-1.113l-3.25-8.492z"/>
        </g>
        <circle cx="424.1" cy="33.2" r="32.8" stroke="#3F3F3F" stroke-width=".75"/>
        <g stroke="#3D3F44" stroke-width=".75" transform="translate(405 14)">
            <circle cx="19.1" cy="19.3" r="11.7"/>
            <path d="M38.1 19.3S29.6 31 19.1 31 .1 19.3.1 19.3s8.5-11.7 19-11.7 19 11.7 19 11.7z"/>
            <circle cx="19.1" cy="15.5" r="3"/>
            <path d="M15.8 19.6L13.7 21v4.4h10.8V21l-2.2-1.4M19.1.9v2.4M19.1 35.1v2.5M9.2 3.8l1.3 2M27.6 32.6l1.3 2.1"/>
            <g>
                <path d="M9.2 34.7l1.3-2.1M27.7 5.8l1.3-2"/>
            </g>
        </g>
        <g stroke="#3F3F3F" stroke-width=".75" transform="translate(209 18)">
            <circle cx="10.6" cy="12" r="5.2"/>
            <path d="M20.9 12s-4.6 5.2-10.3 5.2C4.9 17.2.3 12 .3 12s4.6-5.2 10.3-5.2c5.7 0 10.3 5.2 10.3 5.2z"/>
            <circle cx="10.6" cy="12" r="1.3"/>
            <path d="M10.6 3.4v1.4M5.3 5L6 6.1M15.3 6.1L16 5"/>
            <circle cx="36.8" cy="12.8" r="10.2"/>
            <path d="M36.8 11.3v-6c4.1 0 7.5 3.3 7.5 7.5 0 2.9-1.7 5.4-4.1 6.6l-2.8-5.2M38.4 20.1c-.5.1-1.1.2-1.7.2-4.1 0-7.5-3.3-7.5-7.5 0-3.4 2.3-6.3 5.5-7.2"/>
            <circle cx="36.8" cy="12.8" r="1.5"/>
            <path d="M33.8 7.5l.6 1.1M32.5 10.3l-1-.6M31.9 12.7h-1.3M32.5 15.2l-1 .6M34.3 17l-.5 1.1M36.8 17.7V19M36.8 2.6V.1M35.1.1h3.3M36.8 23v4.6c0 1.7-1.3 3-3 3H13.7c-1.7 0-3-1.3-3-3V17.1"/>
        </g>
        <g stroke="#B2B2B2" stroke-width=".45">
            <path d="M41.2 340.342h1"/>
            <path stroke-dasharray="2.0045,2.0045" d="M44.2 340.342h572.3"/>
            <path d="M617.5 340.342h1"/>
        </g>
        <g stroke="#B2B2B2" stroke-width=".45">
            <path d="M41.2 302.935h1"/>
            <path stroke-dasharray="2.0045,2.0045" d="M44.2 302.935h572.3"/>
            <path d="M617.5 302.935h1"/>
        </g>
        <g stroke="#B2B2B2" stroke-width=".45">
            <path d="M41.2 265.529h1"/>
            <path stroke-dasharray="2.0045,2.0045" d="M44.2 265.529h572.3"/>
            <path d="M617.5 265.529h1"/>
        </g>
        <g stroke="#B2B2B2" stroke-width=".45">
            <path d="M41.2 227.87h1"/>
            <path stroke-dasharray="2.0045,2.0045" d="M44.2 227.87h572.3"/>
            <path d="M617.5 227.87h1"/>
        </g>
        <g stroke="#B2B2B2" stroke-width=".45">
            <path d="M41.2 190.464h1"/>
            <path stroke-dasharray="2.0045,2.0045" d="M44.2 190.464h572.3"/>
            <path d="M617.5 190.464h1"/>
        </g>
        <path stroke="#CAC9C9" stroke-width=".75" d="M41.2 377.749h577.3V181.175"/>
        <path stroke="url(#a)" stroke-width="2.8" d="M41.2 377.6L233.5 338 426 262.5l192.5-78.2"/>
        <path stroke="#A5A5A5" d="M41.3 360.53V116.7M234 321.5V114.343M425.7 243.506V116.7M618.2 165.6v-48.9"/>
        <circle cx="41.6" cy="377.6" r="8.6" fill="#FFF" fill-rule="nonzero" stroke="#A5A5A5" stroke-width="2.8"/>
        <circle cx="233.6" cy="337.6" r="8.6" fill="#FFF" fill-rule="nonzero" stroke="#B87F75" stroke-width="2.8"/>
        <circle cx="426.6" cy="261.6" r="8.6" fill="#FFF" fill-rule="nonzero" stroke="#C66552" stroke-width="2.8"/>
        <circle cx="618.5" cy="184.3" r="8.6" fill="#FFF" fill-rule="nonzero" stroke="#CA4329" stroke-width="2.8"/>
        <path fill="#A5A5A5" d="M640.536 375.844V380h-1.162v-9.994h2.741c1.226 0 2.132.235 2.718.704.585.47.878 1.176.878 2.12 0 1.32-.67 2.214-2.01 2.679l2.714 4.491h-1.374l-2.42-4.156h-2.085zm0-.998h1.593c.82 0 1.422-.163 1.805-.49.382-.325.574-.814.574-1.465 0-.661-.195-1.137-.585-1.43-.39-.29-1.015-.437-1.876-.437h-1.51v3.822zm10.486 5.29c-1.107 0-1.98-.337-2.621-1.011-.64-.674-.96-1.611-.96-2.81 0-1.207.297-2.167.892-2.877.594-.711 1.393-1.067 2.396-1.067.938 0 1.681.309 2.228.926.547.618.82 1.432.82 2.444v.718h-5.16c.022.88.244 1.547.666 2.003.421.456 1.015.684 1.78.684.807 0 1.605-.17 2.393-.506v1.011c-.401.174-.78.298-1.138.373-.358.075-.79.113-1.296.113zm-.307-6.815c-.602 0-1.081.196-1.44.588-.357.392-.568.934-.631 1.627h3.917c0-.715-.16-1.263-.479-1.644-.319-.38-.775-.57-1.367-.57zm9.604 6.679l-.225-1.066h-.055c-.374.469-.746.787-1.118.953-.371.167-.835.25-1.39.25-.744 0-1.326-.192-1.747-.575-.422-.382-.633-.927-.633-1.633 0-1.513 1.21-2.306 3.63-2.38l1.272-.04v-.465c0-.588-.127-1.022-.38-1.302s-.657-.42-1.213-.42c-.624 0-1.33.19-2.12.574l-.348-.869c.37-.2.774-.357 1.214-.471.44-.114.88-.171 1.322-.171.894 0 1.555.198 1.986.594.43.397.646 1.033.646 1.908V380h-.84zm-2.563-.8c.706 0 1.261-.193 1.664-.58.404-.388.605-.93.605-1.628v-.677l-1.134.048c-.903.032-1.553.172-1.952.42-.399.25-.598.635-.598 1.16 0 .41.124.722.372.936.249.214.596.321 1.043.321zm8.736.937c-1.084 0-1.924-.334-2.519-1.002-.595-.667-.892-1.612-.892-2.833 0-1.254.302-2.222.906-2.906.604-.683 1.464-1.025 2.58-1.025.36 0 .72.039 1.08.116.36.078.643.169.848.274l-.349.964c-.25-.1-.524-.184-.82-.25a3.663 3.663 0 0 0-.786-.099c-1.522 0-2.283.97-2.283 2.912 0 .92.186 1.627.557 2.12.371.491.922.738 1.65.738.625 0 1.265-.135 1.922-.404v1.005c-.502.26-1.133.39-1.894.39zm6.091-.937c.2 0 .394-.015.581-.044.187-.03.335-.06.444-.093v.869c-.123.059-.304.108-.543.147-.24.038-.455.058-.646.058-1.45 0-2.174-.764-2.174-2.29v-4.457h-1.073v-.547l1.073-.472.479-1.6h.656v1.737h2.174v.882h-2.174v4.409c0 .451.107.797.321 1.039.214.241.508.362.882.362zm3.657.8h-1.135v-7.492h1.135V380zm-1.23-9.522c0-.26.064-.45.191-.571a.669.669 0 0 1 .479-.181c.182 0 .34.061.471.184.133.123.199.312.199.568 0 .255-.066.445-.199.57a.662.662 0 0 1-.471.188.655.655 0 0 1-.479-.188c-.127-.125-.191-.315-.191-.57zm5.277 9.522l-2.844-7.492h1.217l1.613 4.443c.365 1.04.58 1.714.643 2.024h.055c.05-.242.208-.742.475-1.5.266-.76.865-2.415 1.794-4.967h1.217L681.613 380h-1.326zm8.538.137c-1.107 0-1.981-.338-2.621-1.012-.64-.674-.96-1.611-.96-2.81 0-1.207.297-2.167.891-2.877.595-.711 1.394-1.067 2.396-1.067.94 0 1.682.309 2.229.926.547.618.82 1.432.82 2.444v.718h-5.161c.023.88.245 1.547.666 2.003.422.456 1.016.684 1.781.684.807 0 1.604-.17 2.393-.506v1.011c-.401.174-.78.298-1.138.373-.358.075-.79.113-1.296.113zm-.307-6.816c-.602 0-1.082.196-1.44.588-.357.392-.568.934-.632 1.627h3.917c0-.715-.16-1.263-.478-1.644-.32-.38-.775-.57-1.367-.57z"/>
        <path fill="#CA4329" stroke="#CA4329" stroke-width=".5" d="M645.71 182.918c0 1.012-.344 1.79-1.035 2.334-.69.545-1.678.817-2.963.817h-1.176V190h-1.162v-9.994h2.59c2.498 0 3.747.97 3.747 2.912zm-5.174 2.153h1.046c1.03 0 1.775-.166 2.235-.499.46-.332.69-.866.69-1.6 0-.66-.216-1.152-.649-1.476-.433-.323-1.107-.485-2.023-.485h-1.299v4.06zm10.514-2.7c.332 0 .631.027.895.082l-.157 1.053a3.865 3.865 0 0 0-.82-.103c-.606 0-1.125.246-1.555.739-.431.492-.646 1.105-.646 1.838V190h-1.135v-7.492h.936l.13 1.388h.055c.278-.488.613-.864 1.005-1.128a2.262 2.262 0 0 1 1.292-.397zm8.483 3.876c0 1.221-.307 2.175-.923 2.86-.615.687-1.465 1.03-2.55 1.03-.67 0-1.264-.158-1.784-.472a3.113 3.113 0 0 1-1.203-1.353c-.282-.588-.424-1.277-.424-2.065 0-1.221.306-2.173.916-2.854.611-.681 1.459-1.022 2.543-1.022 1.049 0 1.881.349 2.499 1.046.617.697.926 1.64.926 2.83zm-5.708 0c0 .957.192 1.686.574 2.188.383.5.946.752 1.689.752.743 0 1.307-.25 1.692-.749s.577-1.23.577-2.19c0-.953-.192-1.677-.577-2.171-.385-.495-.954-.742-1.706-.742-.743 0-1.303.244-1.681.731-.379.488-.568 1.215-.568 2.181zM666.13 190l-.226-1.066h-.054c-.374.469-.747.787-1.118.953-.371.167-.835.25-1.391.25-.743 0-1.325-.192-1.747-.575-.421-.382-.632-.927-.632-1.633 0-1.513 1.21-2.306 3.63-2.38l1.271-.04v-.465c0-.588-.126-1.022-.38-1.302-.252-.28-.656-.42-1.212-.42-.625 0-1.331.19-2.12.574l-.348-.869c.369-.2.773-.357 1.213-.471.44-.114.88-.171 1.323-.171.893 0 1.555.198 1.986.594.43.397.646 1.033.646 1.908V190h-.841zm-2.564-.8c.707 0 1.262-.193 1.665-.58.403-.388.605-.93.605-1.628v-.677l-1.135.048c-.902.032-1.553.172-1.951.42-.4.25-.599.635-.599 1.16 0 .41.125.722.373.936.248.214.596.321 1.042.321zm8.737.937c-1.085 0-1.925-.334-2.52-1.002-.594-.667-.891-1.612-.891-2.833 0-1.254.302-2.222.905-2.906.604-.683 1.464-1.025 2.58-1.025.361 0 .721.039 1.081.116.36.078.643.169.848.274l-.349.964c-.25-.1-.524-.184-.82-.25a3.663 3.663 0 0 0-.786-.099c-1.523 0-2.284.97-2.284 2.912 0 .92.186 1.627.558 2.12.37.491.921.738 1.65.738.625 0 1.265-.135 1.921-.404v1.005c-.501.26-1.132.39-1.893.39zm6.09-.937c.201 0 .395-.015.582-.044.186-.03.335-.06.444-.093v.869c-.123.059-.304.108-.544.147-.239.038-.454.058-.646.058-1.449 0-2.173-.764-2.173-2.29v-4.457h-1.074v-.547l1.074-.472.478-1.6h.656v1.737h2.174v.882h-2.174v4.409c0 .451.108.797.322 1.039.214.241.508.362.882.362zm3.658.8h-1.135v-7.492h1.135V190zm-1.23-9.522c0-.26.063-.45.19-.571a.669.669 0 0 1 .48-.181c.182 0 .339.061.47.184.133.123.2.312.2.568 0 .255-.067.445-.2.57a.662.662 0 0 1-.47.188.655.655 0 0 1-.48-.188c-.127-.125-.19-.315-.19-.57zm5.277 9.522l-2.844-7.492h1.217l1.613 4.443c.365 1.04.579 1.714.643 2.024h.054c.05-.242.209-.742.475-1.5.267-.76.865-2.415 1.795-4.967h1.217L687.424 190h-1.326zm8.538.137c-1.108 0-1.982-.338-2.622-1.012-.64-.674-.96-1.611-.96-2.81 0-1.207.297-2.167.892-2.877.595-.711 1.393-1.067 2.396-1.067.939 0 1.681.309 2.228.926.547.618.82 1.432.82 2.444v.718h-5.16c.022.88.244 1.547.666 2.003.422.456 1.015.684 1.78.684.807 0 1.605-.17 2.393-.506v1.011c-.4.174-.78.298-1.138.373-.358.075-.79.113-1.295.113zm-.308-6.816c-.601 0-1.081.196-1.439.588-.358.392-.568.934-.632 1.627h3.917c0-.715-.16-1.263-.479-1.644-.319-.38-.774-.57-1.367-.57z"/>
    </g>
</svg>
