<svg xmlns="http://www.w3.org/2000/svg" xmlns:xlink="http://www.w3.org/1999/xlink" width="51" height="69" viewBox="0 0 51 69">
    <defs>
        <path id="a" d="M0 .133V68.75h50.963V.133H0z"/>
        <path id="c" d="M0 68.767h50.963V.15H0z"/>
    </defs>
    <g fill="none" fill-rule="evenodd">
        <g transform="translate(0 .018)">
            <mask id="b" fill="#fff">
                <use xlink:href="#a"/>
            </mask>
            <path fill="#3969B2" d="M5.819 25.726a23.135 23.135 0 0 1-.17-2.804C5.65 10.336 15.793.132 28.306.132s22.657 10.204 22.657 22.79c0 2.56-.42 5.02-1.193 7.316l-6.173 15.495 3.181 23.017H18.097V54.308H6.73l-1.047-13.39H0l5.833-15.193" mask="url(#b)"/>
        </g>
        <mask id="d" fill="#fff">
            <use xlink:href="#c"/>
        </mask>
        <path fill="#FFF" d="M38.213 55.378h.52v-.977h-.52zM38.213 52.971h.52v-1.053h-.52zM44.494 25.818H40.83v-2.783h3.665v2.783zm1.496-7.522h-.449v4.287h-5.16v3.235h-7.777v.451h9.871v1.805H35.67v.452h2.543v21.963h.448V28.526h4.263v-2.257h2.019v-3.234h1.047v-4.74z" mask="url(#d)"/>
        <path fill="#FFF" d="M31.632 10.624h2.243V7.99h-2.243v2.633zm6.244 5.64h1.683v-2.632h-1.683v2.633zm-6.693-5.19h6.244v2.107h-2.73v5.115h.45v-4.664h2.28v3.084h5.048v3.385h.449v-3.836h-2.917V13.18h-2.13v-2.106h4.075v3.272h2.766v-.451H42.4v-3.272h-4.524V8.14h-.449v2.483h-3.103V7.54h-2.692V5.584h-.449V7.54h-4.337V5.584h-.449V7.99h4.786v3.084z" mask="url(#d)"/>
        <path fill="#FFF" d="M29.912 33.49h3.59v-2.52h-3.59v2.52zm-3.066 0h2.617v-2.52h-2.617v2.52zm-2.991-2.971v-4.701h-3.777v-2.483h-4.561v-1.918h3.515V16.44h6.991v4.764h3.44v2.131h-6.43v-3.76h-.45v4.212h6.88v6.732h-2.617v-3.573h-.449v3.573h-2.542zm-10.17-4.701h5.945v-2.031h-5.945v2.03zm20.265 4.7h-4.038V19.8h2.094v3.235h6.057V19.95h-.449v2.632h-5.16V19.35h-2.542v-1.053h-.449v2.457h-2.99v-4.764h-3.44v-2.056h8.923v-.451h-9.372v2.507h-3.552v-1.905h-.45v3.008h-2.729v-6.017h5.534v-.451h-3.814V8.367h6.506v2.708h4.227v-.451h-3.778V7.916h-7.403v2.708h-1.72v6.468h-2.393v-3.685h-.449v4.137h6.02v3.422h-3.515v2.37h-3.776V19.8h-.449v3.987h2.393v2.482h10.17v4.701h2.991v2.971h3.066v2.482h1.57v18.429h.45v-18.88h-1.571v-2.03h3.59v32.87h.448v-32.87h2.02v28.056h.448V33.49H33.95v-2.971z" mask="url(#d)"/>
        <path fill="#FFF" d="M18.103 13.375c0 .391.315.709.704.709.39 0 .705-.318.705-.709a.707.707 0 0 0-.705-.709.707.707 0 0 0-.704.709M12.083 12.698c0 .391.315.709.704.709.39 0 .705-.318.705-.709a.707.707 0 0 0-.705-.709.707.707 0 0 0-.704.709M21.219 10.85c0 .39.315.708.704.708.39 0 .704-.317.704-.709a.706.706 0 0 0-.704-.708.706.706 0 0 0-.704.708M28.279 10.85c0 .39.315.708.704.708a.706.706 0 0 0 .705-.709.706.706 0 0 0-.705-.708.706.706 0 0 0-.704.708M31.906 13.707c0 .392.315.71.704.71a.706.706 0 0 0 .705-.71.706.706 0 0 0-.705-.708.706.706 0 0 0-.704.708M28.983 17.644c0 .391.316.708.705.708.389 0 .704-.317.704-.708a.706.706 0 0 0-.704-.709.706.706 0 0 0-.705.709M34.218 18.866c0 .391.315.708.704.708.39 0 .705-.317.705-.708a.706.706 0 0 0-.705-.709.706.706 0 0 0-.704.709M22.103 19.004c0 .392.316.709.705.709.389 0 .704-.317.704-.709a.706.706 0 0 0-.704-.708.706.706 0 0 0-.705.708M10.363 19.269c0 .391.315.708.704.708.39 0 .705-.317.705-.708a.706.706 0 0 0-.705-.709.706.706 0 0 0-.704.709M25.917 26.344c0 .392.316.709.705.709.389 0 .704-.317.704-.709a.706.706 0 0 0-.704-.708.706.706 0 0 0-.705.708M31.533 26.043c0 .392.315.709.704.709.39 0 .705-.317.705-.709a.706.706 0 0 0-.705-.708.706.706 0 0 0-.704.708M34.368 28.315c0 .391.316.708.705.708.389 0 .704-.317.704-.708a.706.706 0 0 0-.704-.709.706.706 0 0 0-.705.709M37.134 19.269c0 .391.316.708.705.708.389 0 .704-.317.704-.708a.706.706 0 0 0-.704-.709.706.706 0 0 0-.705.709M41.995 20.524c0 .391.315.709.704.709.39 0 .705-.318.705-.709a.706.706 0 0 0-.705-.708.706.706 0 0 0-.704.708M45.061 17.793c0 .39.315.708.704.708.39 0 .705-.317.705-.708a.706.706 0 0 0-.705-.709.706.706 0 0 0-.704.709M44.356 14.084c0 .391.316.708.705.708a.706.706 0 0 0 .704-.708.706.706 0 0 0-.704-.709.706.706 0 0 0-.705.709M36.947 7.508c0 .391.316.708.705.708.389 0 .704-.317.704-.708a.706.706 0 0 0-.704-.709.706.706 0 0 0-.705.709M30.703 4.875c0 .392.315.709.705.709.389 0 .704-.317.704-.709a.706.706 0 0 0-.704-.708.706.706 0 0 0-.705.708M25.917 4.875c0 .392.316.709.705.709.389 0 .704-.317.704-.709a.706.706 0 0 0-.704-.708.707.707 0 0 0-.705.708" mask="url(#d)"/>
    </g>
</svg>
