<svg xmlns="http://www.w3.org/2000/svg" width="129" height="129" viewBox="0 0 129 129">
    <g fill="none" fill-rule="evenodd" transform="translate(1 1)">
        <circle cx="63.5" cy="63.5" r="63.5" stroke="#979797"/>
        <path stroke="#3D3F44" d="M59.095 36.018C45.929 38.353 35.937 49.79 35.937 63.562c0 10.387 5.642 19.373 14.106 24.275"/>
        <path stroke="#3D3F44" d="M64.15 35.552c15.516 0 28.212 12.487 28.212 28.01 0 15.405-12.578 28.01-28.213 28.01H26.062M80.724 91.455H97.77M93.067 87.137l4.703 4.318-4.703 4.435"/>
        <path stroke="#3D3F44" d="M68.734 39.987l-4.585-4.435 4.585-4.319"/>
        <g stroke="#D64127">
            <path d="M56.472 79.997l5.036-9.78M49.173 51.59H78.51v18.707H49.173zM71.21 79.997l-4.452-9.78"/>
        </g>
    </g>
</svg>
