<svg xmlns="http://www.w3.org/2000/svg" width="129" height="129" viewBox="0 0 129 129">
    <g fill="none" fill-rule="evenodd" transform="translate(1 1)">
        <circle cx="63.5" cy="63.5" r="63.5" stroke="#979797"/>
        <g transform="translate(34 31)">
            <ellipse cx="46.105" cy="12.839" stroke="#D74127" rx="3.99" ry="3.989" transform="rotate(-3.581 46.105 12.84)"/>
            <path stroke="#D74127" d="M58.46 14.198l-.235-3.99-2.582.118A10.79 10.79 0 0 0 54 7.04l1.643-1.877-3.05-2.699-1.644 1.877c-1.056-.586-2.23-1.056-3.403-1.173L47.43.587l-3.99.234.117 2.582a10.793 10.793 0 0 0-3.285 1.642l-1.878-1.642-2.699 3.05 1.878 1.643c-.587 1.056-1.057 2.23-1.174 3.403l-2.582.117.235 3.99 2.582-.118a10.79 10.79 0 0 0 1.643 3.286l-1.643 1.877 3.05 2.699 1.644-1.877c1.056.586 2.23 1.056 3.403 1.173l.117 2.581 3.99-.234-.117-2.582a10.793 10.793 0 0 0 3.285-1.642l1.878 1.642 2.7-3.05-1.879-1.643c.587-1.056 1.057-2.23 1.174-3.403l2.582-.117z"/>
            <path stroke="#3D3F44" d="M39.684 37.078c-.235-.586-.352-1.29-.587-1.877l3.873-2.581-4.108-6.102L34.99 29.1c-.939-.938-1.995-1.76-3.051-2.346l1.643-4.459-6.924-2.581-1.643 4.458c-1.29-.234-2.581-.234-3.872-.117l-1.291-4.576-7.158 1.995 1.29 4.576a14.91 14.91 0 0 0-3.168 2.112l-3.755-2.934-4.577 5.867 3.755 2.934c-.586 1.173-1.056 2.346-1.29 3.637L.255 37.43.02 44.823l4.694.234c.117.587.235 1.291.47 1.878.234.586.351 1.29.586 1.877l-3.873 2.581 4.108 6.102 3.872-2.581c.939.938 1.995 1.76 3.051 2.346l-1.643 4.46 6.924 2.58 1.643-4.458c1.29.234 2.582.234 3.872.117l1.291 4.576 7.158-1.995-1.29-4.576a14.91 14.91 0 0 0 3.168-2.112l3.755 2.934 4.577-5.867-3.755-2.934c.586-1.173 1.056-2.346 1.29-3.637l4.694.235.235-7.393-4.694-.234c-.117-.587-.352-1.29-.47-1.878z"/>
            <ellipse cx="22.27" cy="42.012" stroke="#3D3F44" rx="7.862" ry="7.861" transform="rotate(-15.843 22.27 42.012)"/>
        </g>
    </g>
</svg>
