<svg xmlns="http://www.w3.org/2000/svg" width="129" height="129" viewBox="0 0 129 129">
    <g fill="none" fill-rule="evenodd" transform="translate(1 1)">
        <circle cx="63.5" cy="63.5" r="63.5" stroke="#979797"/>
        <g transform="translate(29 31)">
            <path stroke="#3D3F44" d="M13.925 20.493V.61H53.45v8.295M53.45 23.298V64.65H13.925V46.11M53.45 15.735v4.026M13.925 56.233H53.45M23.196 37.448h20.861M23.196 41.961h20.861M3.19 25.616h10.735M3.19 30.739h10.735M3.19 35.862h10.735M3.19 40.985h5.977"/>
            <ellipse cx="33.688" cy="60.502" stroke="#3D3F44" rx="2.074" ry="2.074"/>
            <ellipse cx="33.688" cy="21.834" stroke="#D74127" rx="9.881" ry="9.88"/>
            <ellipse cx="33.688" cy="19.639" stroke="#D74127" rx="3.66" ry="3.659"/>
            <path stroke="#D74127" d="M39.665 29.275c0-3.293-2.684-6.099-6.1-6.099-3.293 0-6.099 2.684-6.099 6.1"/>
            <path stroke="#3D3F44" d="M49.547 8.905h14.029v7.075H49.547zM49.547 19.761h18.909v3.537H49.547zM.262 20.493h16.469v25.494H.262z"/>
            <path stroke="#D74127" d="M23.196 49.646h6.832M37.225 49.646h6.832"/>
        </g>
    </g>
</svg>
