<svg xmlns="http://www.w3.org/2000/svg" width="146" height="24" viewBox="0 0 146 24">
    <g fill="#686868" fill-rule="evenodd">
        <path d="M23.703 7.02s0-6.465 6.594-6.465h19.78s0 6.465-6.593 6.465h-19.78M23.703 15.28s0-6.464 6.594-6.464h9.89s0 6.465-6.594 6.465h-9.89M23.703 23.541s0-6.464 6.594-6.464h3.296s0 6.464-6.593 6.464h-3.297"/>
        <path d="M21.49 18.496v5.158H.286l13.66-18.27H2.218V.226h22.12l-13.596 18.27H21.49M145.572 23.522h-2.986l-2.689-4.005-.483.676v3.329h-2.47v-9.85h2.47v4.373l3.146-4.373h2.862l-3.51 4.571 3.66 5.279zM132.09 16.04a.94.94 0 0 0-.471-.416 1.676 1.676 0 0 0-.514-.126 7.83 7.83 0 0 0-.704-.027h-.822v2.667h.704c.342 0 .633-.022.871-.063.24-.043.443-.132.61-.27.158-.124.275-.272.352-.445.076-.172.115-.4.115-.68 0-.246-.047-.46-.141-.64zm.814 3.29l3.316 4.19h-3.02l-2.746-3.615h-.875v3.616h-2.47v-9.85h3.966c.548 0 1.025.035 1.431.103.406.069.781.21 1.126.427.353.223.634.51.841.855.207.346.312.786.312 1.318 0 .754-.171 1.366-.512 1.835-.341.47-.797.843-1.369 1.12zm-10.001-2.236c-.121-.413-.282-.751-.484-1.015a1.874 1.874 0 0 0-.715-.58 2.047 2.047 0 0 0-.827-.176c-.303 0-.578.054-.824.163-.246.107-.483.3-.712.579-.202.256-.366.595-.491 1.02-.125.422-.187.928-.187 1.514 0 .605.059 1.106.177 1.506.119.399.281.733.488 1.002.21.273.45.469.718.586.269.117.545.176.83.176.29 0 .572-.064.844-.19.272-.125.508-.32.706-.586.21-.285.373-.62.487-1.001.114-.382.171-.882.171-1.5 0-.586-.06-1.086-.181-1.498zm1.46 5.268c-.85.914-2.014 1.371-3.493 1.371-1.483 0-2.648-.462-3.493-1.387-.845-.926-1.268-2.174-1.268-3.747 0-1.585.423-2.839 1.268-3.758.845-.922 2.01-1.383 3.493-1.383 1.479 0 2.643.459 3.493 1.375.85.916 1.274 2.172 1.274 3.766 0 1.595-.425 2.848-1.274 3.763zm-11.39 1.159h-2.705l-1.59-6.093-1.541 6.093h-2.708l-2.494-9.85h2.561l1.36 6.62 1.657-6.62h2.455l1.573 6.625 1.434-6.625h2.493l-2.496 9.85zm-11.88-1.866v1.866h-6.678v-9.85h6.677v1.866h-4.205v1.733h3.871v1.866h-3.87v2.52h4.204zm-11.184 1.866v-6.533l-1.787 4.209h-1.681l-1.787-4.209v6.533h-2.336v-9.85h2.857l2.176 4.856 2.17-4.856h2.857v9.85H89.91zm-13.27-7.066l-1.011 3.27h2.023l-1.012-3.27zm2.168 7.066l-.61-1.997h-3.115l-.61 1.997h-2.477l3.323-9.85h2.696l3.324 9.85h-2.531zM68.19 16.04a.942.942 0 0 0-.47-.416 1.668 1.668 0 0 0-.514-.126 7.714 7.714 0 0 0-.704-.027h-.823v2.667h.704c.342 0 .633-.022.872-.063.24-.043.442-.132.61-.27.157-.123.275-.272.351-.445.077-.172.116-.4.116-.68a1.36 1.36 0 0 0-.142-.64zm.815 3.29l3.314 4.19h-3.019l-2.746-3.615h-.875v3.616h-2.47v-9.85h3.967c.547 0 1.024.035 1.43.103.406.069.782.21 1.126.427.353.223.634.51.84.855.209.346.312.786.312 1.318 0 .754-.17 1.366-.511 1.835-.34.47-.797.843-1.368 1.12zm-11.198-3.793v1.864h3.805v1.866h-3.805v4.254h-2.47v-9.85h6.608v1.866h-4.138zm27.825-11.98a2.847 2.847 0 0 0-1.113-1.252 3.81 3.81 0 0 0-1.114-.456c-.396-.093-.887-.14-1.475-.14h-.995v7.593h.995c.58 0 1.086-.046 1.52-.138a3.246 3.246 0 0 0 1.194-.515c.452-.31.792-.72 1.02-1.233.229-.513.343-1.153.343-1.92 0-.758-.125-1.404-.375-1.939zm1.198 4.394c-.363.723-.852 1.287-1.464 1.693a4.57 4.57 0 0 1-1.517.629c-.513.105-1.168.158-1.965.158h-2.267V.582h2.24c.925 0 1.651.07 2.177.209.527.139.976.33 1.346.572a4.238 4.238 0 0 1 1.473 1.67c.349.695.522 1.523.522 2.484 0 .9-.182 1.712-.545 2.435zm-10.703 2.48l-4.36-8.493v8.493H70.55V.582h1.854l3.968 7.8v-7.8h1.219v9.85h-1.463zm-7.031-1.16v1.16h-6.174V.582h6.174v1.162H64.24v2.7h4.522v1.161h-4.522v3.666h4.856zm-7.501 1.16H54.72V9.218l5.283-7.474h-5.049V.582h6.508v1.181l-5.327 7.508h5.46v1.161z"/>
    </g>
</svg>
